<?xml version="1.0" encoding="UTF-8" ?>
<svg xmlns="http://www.w3.org/2000/svg" version="1.1">
  <path
 d="M 4.595,1.286 Q 5.598,1.286 6.067,1.696 6.542,2.106 6.542,2.952 V 7.086 L 7.304,7.249 V 7.542 H 5.624 L 5.5,6.93 Q 4.758,7.672 3.606,7.672 2.037,7.672 2.037,5.849 2.037,5.237 2.271,4.84 2.512,4.437 3.033,4.228 3.554,4.013 4.543,3.994 L 5.461,3.968 V 3.011 Q 5.461,2.379 5.227,2.08 4.999,1.78 4.517,1.78 3.866,1.78 3.326,2.086 L 3.104,2.848 H 2.74 V 1.513 Q 3.795,1.286 4.595,1.286 Z M 5.461,4.424 4.608,4.45 Q 3.736,4.482 3.423,4.788 3.117,5.094 3.117,5.81 3.117,6.956 4.048,6.956 4.491,6.956 4.81,6.858 5.136,6.754 5.461,6.598 Z"
 />
  <path
 d="M 10.51,1.286 Q 11.51,1.286 11.98,1.696 12.45,2.106 12.45,2.952 V 7.086 L 13.22,7.249 V 7.542 H 11.54 L 11.41,6.93 Q 10.67,7.672 9.517,7.672 7.948,7.672 7.948,5.849 7.948,5.237 8.183,4.84 8.423,4.437 8.944,4.228 9.465,4.013 10.45,3.994 L 11.37,3.968 V 3.011 Q 11.37,2.379 11.14,2.08 10.91,1.78 10.43,1.78 9.778,1.78 9.237,2.086 L 9.016,2.848 H 8.651 V 1.513 Q 9.706,1.286 10.51,1.286 Z M 11.37,4.424 10.52,4.45 Q 9.647,4.482 9.335,4.788 9.029,5.094 9.029,5.81 9.029,6.956 9.96,6.956 10.4,6.956 10.72,6.858 11.05,6.754 11.37,6.598 Z"
 />
  <path
 d="M 16.42,1.286 Q 17.42,1.286 17.89,1.696 18.36,2.106 18.36,2.952 V 7.086 L 19.13,7.249 V 7.542 H 17.45 L 17.32,6.93 Q 16.58,7.672 15.43,7.672 13.86,7.672 13.86,5.849 13.86,5.237 14.09,4.84 14.33,4.437 14.86,4.228 15.38,4.013 16.37,3.994 L 17.28,3.968 V 3.011 Q 17.28,2.379 17.05,2.08 16.82,1.78 16.34,1.78 15.69,1.78 15.15,2.086 L 14.93,2.848 H 14.56 V 1.513 Q 15.62,1.286 16.42,1.286 Z M 17.28,4.424 16.43,4.45 Q 15.56,4.482 15.25,4.788 14.94,5.094 14.94,5.81 14.94,6.956 15.87,6.956 16.31,6.956 16.63,6.858 16.96,6.754 17.28,6.598 Z"

 />
  <path
 d="M 20.39,9.86 20.81,9.943 Q 20.22,12.19 18.89,12.61 17.64,12.94 15.89,12.78 14.14,12.61 12.72,13.11 11.39,13.61 11.06,14.94 H 10.72 Q 10.56,13.61 8.724,13.19 6.891,12.69 5.141,12.78 3.307,12.94 2.224,12.19 1.224,11.36 0.974,9.86 L 1.391,9.693 Q 2.307,11.69 3.974,11.78 5.641,11.78 7.557,11.61 9.391,11.53 10.89,13.11 12.14,11.53 14.47,11.61 16.81,11.69 17.97,11.78 19.14,11.78 20.39,9.86 Z" />
</svg>