<?xml version="1.0" encoding="UTF-8" ?>
<svg xmlns="http://www.w3.org/2000/svg" version="1.1">
  <path
 d="M 4.216,17.2 V 17.58 Q 1.083,14.96 1.083,8.802 1.083,2.575 4.216,0.0042 V 0.4027 Q 1.934,2.653 1.934,8.802 1.934,15.01 4.216,17.2 Z"
 />
  <path
 d="M 17.09,17.34 Q 19.38,15.14 19.38,8.942 19.38,2.832 17.09,0.5427 V 0.1442 Q 18.8,1.504 19.58,4.16 20.22,6.254 20.22,8.942 20.22,15.18 17.09,17.72 Z"
 />
  <path
 d="M 13.37,13.19 14.25,13.39 14.19,13.74 H 11.97 L 12.19,12.52 Q 10.87,13.9 9.778,13.9 8.832,13.9 8.254,13.21 7.684,12.51 7.684,11.29 7.684,9.927 8.277,8.74 8.879,7.544 9.879,6.88 10.88,6.208 12.05,6.208 13,6.208 13.83,6.536 L 14.18,6.271 H 14.61 Z M 13.14,7.2 Q 12.84,6.989 12.57,6.911 12.31,6.825 11.92,6.825 11.14,6.825 10.48,7.419 9.832,8.005 9.457,9.005 9.082,10.01 9.082,11.09 9.082,11.93 9.426,12.43 9.77,12.93 10.36,12.93 11.25,12.93 12.29,11.84 Z"
 />
</svg>