<?xml version="1.0" encoding="UTF-8" ?>
<svg xmlns="http://www.w3.org/2000/svg" version="1.1">
  <path
 d="M 1.48,6.67 H 1.012 Q 1.855,4.139 3.168,3.764 4.48,3.389 6.449,3.577 8.418,3.764 10.11,3.295 11.89,2.733 11.98,1.233 H 12.36 Q 12.45,2.733 14.04,3.202 15.64,3.67 17.04,3.67 17.7,3.67 18.36,3.577 20.32,3.389 21.45,4.327 22.67,5.17 23.32,6.577 L 22.86,6.858 Q 21.45,4.795 19.57,4.795 17.7,4.795 15.64,4.889 13.48,4.983 12.17,3.295 10.76,4.983 8.137,4.795 5.512,4.702 4.199,4.702 2.887,4.608 1.48,6.67 Z" />
  <path
 d="M 6.274,7.334 Q 7.277,7.334 7.746,7.744 8.221,8.154 8.221,9 V 13.13 L 8.983,13.3 V 13.59 H 7.303 L 7.179,12.98 Q 6.437,13.72 5.285,13.72 3.716,13.72 3.716,11.9 3.716,11.29 3.95,10.89 4.191,10.48 4.712,10.28 5.233,10.06 6.222,10.04 L 7.14,10.02 V 9.059 Q 7.14,8.427 6.906,8.128 6.678,7.828 6.196,7.828 5.545,7.828 5.005,8.134 L 4.783,8.896 H 4.419 V 7.561 Q 5.474,7.334 6.274,7.334 Z M 7.14,10.47 6.287,10.5 Q 5.415,10.53 5.102,10.84 4.796,11.14 4.796,11.86 4.796,13 5.727,13 6.17,13 6.489,12.91 6.815,12.8 7.14,12.65 Z"



 />
  <path
 d="M 12.19,7.334 Q 13.19,7.334 13.66,7.744 14.13,8.154 14.13,9 V 13.13 L 14.89,13.3 V 13.59 H 13.21 L 13.09,12.98 Q 12.35,13.72 11.2,13.72 9.627,13.72 9.627,11.9 9.627,11.29 9.862,10.89 10.1,10.48 10.62,10.28 11.14,10.06 12.13,10.04 L 13.05,10.02 V 9.059 Q 13.05,8.427 12.82,8.128 12.59,7.828 12.11,7.828 11.46,7.828 10.92,8.134 L 10.69,8.896 H 10.33 V 7.561 Q 11.39,7.334 12.19,7.334 Z M 13.05,10.47 12.2,10.5 Q 11.33,10.53 11.01,10.84 10.71,11.14 10.71,11.86 10.71,13 11.64,13 12.08,13 12.4,12.91 12.73,12.8 13.05,12.65 Z" />
  <path
 d="M 18.1,7.334 Q 19.1,7.334 19.57,7.744 20.04,8.154 20.04,9 V 13.13 L 20.81,13.3 V 13.59 H 19.13 L 19,12.98 Q 18.26,13.72 17.11,13.72 15.54,13.72 15.54,11.9 15.54,11.29 15.77,10.89 16.01,10.48 16.53,10.28 17.06,10.06 18.05,10.04 L 18.96,10.02 V 9.059 Q 18.96,8.427 18.73,8.128 18.5,7.828 18.02,7.828 17.37,7.828 16.83,8.134 L 16.61,8.896 H 16.24 V 7.561 Q 17.3,7.334 18.1,7.334 Z M 18.96,10.47 18.11,10.5 Q 17.24,10.53 16.93,10.84 16.62,11.14 16.62,11.86 16.62,13 17.55,13 17.99,13 18.31,12.91 18.64,12.8 18.96,12.65 Z"
 />
</svg>