<?xml version="1.0" encoding="UTF-8" ?>
<svg xmlns="http://www.w3.org/2000/svg" version="1.1">
  <path
 d="M 2.435,0.7074 H 1.49 V 15.87 H 2.435 Z M 0.7241,16.21 V 0.3871 H 4.607 V 0.7074 H 2.99 V 15.87 H 4.607 V 16.21 Z"
 />
  <path
 d="M 12.28,6.758 12.94,6.904 12.89,7.168 H 11.22 L 11.39,6.254 Q 10.4,7.291 9.58,7.291 8.871,7.291 8.437,6.77 8.009,6.248 8.009,5.334 8.009,4.309 8.455,3.418 8.906,2.522 9.656,2.023 10.41,1.52 11.28,1.52 11.99,1.52 12.62,1.766 L 12.88,1.566 H 13.2 Z M 12.11,2.264 Q 11.88,2.106 11.68,2.047 11.48,1.982 11.19,1.982 10.6,1.982 10.11,2.428 9.621,2.867 9.339,3.617 9.058,4.367 9.058,5.182 9.058,5.809 9.316,6.184 9.574,6.559 10.02,6.559 10.68,6.559 11.47,5.744 Z" />
  <path
 d="M 9.07,9.178 8.291,9.038 8.338,8.774 H 10.1 L 9.662,11.36 Q 9.562,12.03 9.433,12.49 9.902,12.01 10.39,11.73 10.89,11.45 11.31,11.45 12.04,11.45 12.48,11.97 12.92,12.49 12.92,13.4 12.92,14.41 12.48,15.31 12.05,16.2 11.28,16.71 10.51,17.22 9.603,17.22 9.088,17.22 8.59,17.09 8.097,16.95 7.728,16.73 Z M 8.736,16.47 Q 9.076,16.75 9.679,16.75 10.28,16.75 10.78,16.31 11.29,15.87 11.58,15.13 11.87,14.38 11.87,13.56 11.87,12.9 11.6,12.54 11.33,12.18 10.87,12.18 10.52,12.18 10.12,12.41 9.72,12.64 9.357,12.99 Z"


 />
  <path
 d="M 19.32,0.7574 V 15.92 H 20.42 V 0.7574 Z M 21.19,16.26 H 17.3 V 15.92 H 18.76 V 0.7574 H 17.3 V 0.4371 H 21.19 Z"

 />
</svg>