<?xml version="1.0" encoding="UTF-8" ?>
<svg xmlns="http://www.w3.org/2000/svg" version="1.1">
  <path
 d="M 4.212,17.51 H 4.126 Q 3.079,17.51 2.532,16.8 2.016,16.17 2.016,15.1 L 2.032,10.38 Q 2.032,9.384 1.055,9.376 V 9.118 L 1.344,9.102 Q 2.032,8.985 2.032,8.095 L 2.016,3.375 Q 2.016,2.297 2.586,1.656 3.149,1.008 4.212,1.008 V 1.266 L 3.852,1.289 3.563,1.367 Q 2.665,1.711 2.641,3.157 L 2.579,7.649 Q 2.555,8.759 1.555,9.251 2.555,9.727 2.579,10.87 L 2.641,15.35 Q 2.672,17.24 4.172,17.25 4.196,17.25 4.212,17.25 Z" />
  <path
 d="M 13.37,13.19 14.25,13.39 14.19,13.74 H 11.97 L 12.19,12.52 Q 10.87,13.9 9.778,13.9 8.832,13.9 8.254,13.21 7.684,12.51 7.684,11.29 7.684,9.927 8.277,8.74 8.879,7.544 9.879,6.88 10.88,6.208 12.05,6.208 13,6.208 13.83,6.536 L 14.18,6.271 H 14.61 Z M 13.14,7.2 Q 12.84,6.989 12.57,6.911 12.31,6.825 11.92,6.825 11.14,6.825 10.48,7.419 9.832,8.005 9.457,9.005 9.082,10.01 9.082,11.09 9.082,11.93 9.426,12.43 9.77,12.93 10.36,12.93 11.25,12.93 12.29,11.84 Z"
 />
  <path
 d="M 17.11,17.5 V 17.24 L 17.47,17.22 Q 18.68,17.01 18.68,15.34 18.68,14.59 18.63,13.08 18.59,11.6 18.59,10.84 18.59,9.78 19.62,9.241 18.59,8.749 18.59,7.639 18.59,6.897 18.63,5.381 18.68,3.881 18.68,3.131 18.68,1.256 17.11,1.256 V 0.998 H 17.19 Q 18.22,0.998 18.76,1.662 19.3,2.326 19.3,3.381 19.3,4.233 19.2,5.733 19.11,7.303 19.11,8.085 19.11,9.108 20.14,9.108 H 20.27 V 9.366 L 19.92,9.382 Q 19.11,9.491 19.11,10.39 19.11,11.18 19.2,12.74 19.3,14.26 19.3,15.09 19.3,17.5 17.11,17.5 Z"
 />
</svg>