<?xml version="1.0" encoding="UTF-8" ?>
<svg xmlns="http://www.w3.org/2000/svg" version="1.1">
  <path
 d="M 1.002,0.9172 H 1.992 V 17.88 H 1.002 Z" />
  <path
 d="M 19.26,0.9133 H 18.27 V 17.88 H 19.26 Z" />
  <path
 d="M 13.37,13.19 14.25,13.39 14.19,13.74 H 11.97 L 12.19,12.52 Q 10.87,13.9 9.778,13.9 8.832,13.9 8.254,13.21 7.684,12.51 7.684,11.29 7.684,9.927 8.277,8.74 8.879,7.544 9.879,6.88 10.88,6.208 12.05,6.208 13,6.208 13.83,6.536 L 14.18,6.271 H 14.61 Z M 13.14,7.2 Q 12.84,6.989 12.57,6.911 12.31,6.825 11.92,6.825 11.14,6.825 10.48,7.419 9.832,8.005 9.457,9.005 9.082,10.01 9.082,11.09 9.082,11.93 9.426,12.43 9.77,12.93 10.36,12.93 11.25,12.93 12.29,11.84 Z"

 />
</svg>