<?xml version="1.0" encoding="UTF-8" ?>
<svg xmlns="http://www.w3.org/2000/svg" version="1.1">
  <path
 d="M 4.841,1.731 5.903,2.294 2.09,8.92 5.903,15.55 4.841,16.11 0.7152,8.92 Z"
 />
  <path
 d="M 7.64,13.42 Q 8.015,13.42 8.265,13.67 8.523,13.91 8.523,14.28 8.523,14.63 8.257,14.89 7.999,15.15 7.64,15.15 7.288,15.15 7.031,14.89 6.781,14.63 6.781,14.28 6.781,13.94 7.031,13.67 7.281,13.42 7.64,13.42 Z M 7.64,8.095 Q 8.007,8.095 8.257,8.337 8.523,8.58 8.523,8.939 8.523,9.291 8.257,9.556 7.992,9.822 7.64,9.822 7.296,9.822 7.031,9.556 6.781,9.283 6.781,8.939 6.781,8.095 7.64,8.095 Z M 7.64,2.751 Q 8.015,2.751 8.265,2.993 8.523,3.235 8.523,3.61 8.523,3.962 8.257,4.22 7.999,4.478 7.64,4.478 7.288,4.478 7.031,4.22 6.781,3.954 6.781,3.61 6.781,3.267 7.031,3.001 7.281,2.751 7.64,2.751 Z" />
  <path
 d="M 9.96,1.9133 H 10.97 V 16.35 H 9.96 Z"

 />
  <path
 d="M 13.65,13.39 Q 14.03,13.39 14.28,13.64 14.53,13.88 14.53,14.25 14.53,14.6 14.27,14.86 14.01,15.12 13.65,15.12 13.3,15.12 13.04,14.86 12.79,14.6 12.79,14.25 12.79,13.91 13.04,13.64 13.29,13.39 13.65,13.39 Z M 13.65,8.065 Q 14.02,8.065 14.27,8.307 14.53,8.55 14.53,8.909 14.53,9.261 14.27,9.526 14,9.792 13.65,9.792 13.31,9.792 13.04,9.526 12.79,9.253 12.79,8.909 12.79,8.065 13.65,8.065 Z M 13.65,2.721 Q 14.03,2.721 14.28,2.963 14.53,3.205 14.53,3.58 14.53,3.932 14.27,4.19 14.01,4.448 13.65,4.448 13.3,4.448 13.04,4.19 12.79,3.924 12.79,3.58 12.79,3.237 13.04,2.971 13.29,2.721 13.65,2.721 Z"
 />
  <path
 d="M 16.49,16.33 15.43,15.77 19.24,9.14 15.43,2.514 16.49,1.951 20.62,9.14 Z"
 />
</svg>