<?xml version="1.0" encoding="UTF-8" ?>
<svg xmlns="http://www.w3.org/2000/svg" version="1.1">
  <path
 d="M 4.212,17.51 H 4.126 Q 3.079,17.51 2.532,16.8 2.016,16.17 2.016,15.1 L 2.032,10.38 Q 2.032,9.384 1.055,9.376 V 9.118 L 1.344,9.102 Q 2.032,8.985 2.032,8.095 L 2.016,3.375 Q 2.016,2.297 2.586,1.656 3.149,1.008 4.212,1.008 V 1.266 L 3.852,1.289 3.563,1.367 Q 2.665,1.711 2.641,3.157 L 2.579,7.649 Q 2.555,8.759 1.555,9.251 2.555,9.727 2.579,10.87 L 2.641,15.35 Q 2.672,17.24 4.172,17.25 4.196,17.25 4.212,17.25 Z" />
  <path
 d="M 6.117,13.09 Q 6.117,13.47 5.844,13.76 5.578,14.04 5.172,14.04 4.765,14.04 4.492,13.76 4.226,13.47 4.226,13.09 4.226,12.69 4.5,12.42 4.773,12.15 5.172,12.15 5.57,12.15 5.844,12.42 6.117,12.69 6.117,13.09 Z M 11.48,13.09 Q 11.48,13.47 11.2,13.76 10.94,14.04 10.53,14.04 10.13,14.04 9.852,13.76 9.586,13.47 9.586,13.09 9.586,12.69 9.86,12.42 10.13,12.15 10.53,12.15 10.93,12.15 11.2,12.42 11.48,12.69 11.48,13.09 Z M 16.84,13.09 Q 16.84,13.47 16.56,13.76 16.3,14.04 15.89,14.04 15.49,14.04 15.21,13.76 14.95,13.47 14.95,13.09 14.95,12.69 15.22,12.42 15.49,12.15 15.89,12.15 16.29,12.15 16.56,12.42 16.84,12.69 16.84,13.09 Z"
 />
  <path
 d="M 17.11,17.5 V 17.24 L 17.47,17.22 Q 18.68,17.01 18.68,15.34 18.68,14.59 18.63,13.08 18.59,11.6 18.59,10.84 18.59,9.78 19.62,9.241 18.59,8.749 18.59,7.639 18.59,6.897 18.63,5.381 18.68,3.881 18.68,3.131 18.68,1.256 17.11,1.256 V 0.998 H 17.19 Q 18.22,0.998 18.76,1.662 19.3,2.326 19.3,3.381 19.3,4.233 19.2,5.733 19.11,7.303 19.11,8.085 19.11,9.108 20.14,9.108 H 20.27 V 9.366 L 19.92,9.382 Q 19.11,9.491 19.11,10.39 19.11,11.18 19.2,12.74 19.3,14.26 19.3,15.09 19.3,17.5 17.11,17.5 Z"
 />
</svg>