<?xml version="1.0" encoding="UTF-8" ?>
<svg xmlns="http://www.w3.org/2000/svg" version="1.1">
  <path
 d="M 4.212,17.51 H 4.126 Q 3.079,17.51 2.532,16.8 2.016,16.17 2.016,15.1 L 2.032,10.38 Q 2.032,9.384 1.055,9.376 V 9.118 L 1.344,9.102 Q 2.032,8.985 2.032,8.095 L 2.016,3.375 Q 2.016,2.297 2.586,1.656 3.149,1.008 4.212,1.008 V 1.266 L 3.852,1.289 3.563,1.367 Q 2.665,1.711 2.641,3.157 L 2.579,7.649 Q 2.555,8.759 1.555,9.251 2.555,9.727 2.579,10.87 L 2.641,15.35 Q 2.672,17.24 4.172,17.25 4.196,17.25 4.212,17.25 Z" />
  <path
 d="M 12.28,6.758 12.94,6.904 12.89,7.168 H 11.22 L 11.39,6.254 Q 10.4,7.291 9.58,7.291 8.871,7.291 8.437,6.77 8.009,6.248 8.009,5.334 8.009,4.309 8.455,3.418 8.906,2.522 9.656,2.023 10.41,1.52 11.28,1.52 11.99,1.52 12.62,1.766 L 12.88,1.566 H 13.2 Z M 12.11,2.264 Q 11.88,2.106 11.68,2.047 11.48,1.982 11.19,1.982 10.6,1.982 10.11,2.428 9.621,2.867 9.339,3.617 9.058,4.367 9.058,5.182 9.058,5.809 9.316,6.184 9.574,6.559 10.02,6.559 10.68,6.559 11.47,5.744 Z"
 />
  <path
 d="M 9.07,9.178 8.291,9.038 8.338,8.774 H 10.1 L 9.662,11.36 Q 9.562,12.03 9.433,12.49 9.902,12.01 10.39,11.73 10.89,11.45 11.31,11.45 12.04,11.45 12.48,11.97 12.92,12.49 12.92,13.4 12.92,14.41 12.48,15.31 12.05,16.2 11.28,16.71 10.51,17.22 9.603,17.22 9.088,17.22 8.59,17.09 8.097,16.95 7.728,16.73 Z M 8.736,16.47 Q 9.076,16.75 9.679,16.75 10.28,16.75 10.78,16.31 11.29,15.87 11.58,15.13 11.87,14.38 11.87,13.56 11.87,12.9 11.6,12.54 11.33,12.18 10.87,12.18 10.52,12.18 10.12,12.41 9.72,12.64 9.357,12.99 Z"

 />
  <path
 d="M 17.11,17.5 V 17.24 L 17.47,17.22 Q 18.68,17.01 18.68,15.34 18.68,14.59 18.63,13.08 18.59,11.6 18.59,10.84 18.59,9.78 19.62,9.241 18.59,8.749 18.59,7.639 18.59,6.897 18.63,5.381 18.68,3.881 18.68,3.131 18.68,1.256 17.11,1.256 V 0.998 H 17.19 Q 18.22,0.998 18.76,1.662 19.3,2.326 19.3,3.381 19.3,4.233 19.2,5.733 19.11,7.303 19.11,8.085 19.11,9.108 20.14,9.108 H 20.27 V 9.366 L 19.92,9.382 Q 19.11,9.491 19.11,10.39 19.11,11.18 19.2,12.74 19.3,14.26 19.3,15.09 19.3,17.5 17.11,17.5 Z"
 />
</svg>