<?xml version="1.0" encoding="UTF-8" ?>
<svg xmlns="http://www.w3.org/2000/svg" version="1.1">
  <path
 d="M 6.236,9.083 Q 6.236,9.248 6.174,9.396 6.111,9.537 6.002,9.646 5.9,9.748 5.752,9.81 5.611,9.873 5.447,9.873 5.283,9.873 5.134,9.81 4.994,9.748 4.884,9.646 4.783,9.537 4.72,9.396 4.658,9.248 4.658,9.083 4.658,8.919 4.72,8.779 4.783,8.63 4.884,8.529 4.994,8.419 5.134,8.357 5.283,8.294 5.447,8.294 5.611,8.294 5.752,8.357 5.9,8.419 6.002,8.529 6.111,8.63 6.174,8.779 6.236,8.919 6.236,9.083 Z M 5.4,16.39 2.283,9.373 V 8.794 L 5.4,1.77 6.228,2.067 3.72,9.083 6.228,16.11 Z"


 />
  <path
 d="M 10.96,1.9133 H 11.97 V 16.35 H 10.96 Z" />
  <path
 d="M 15.61,9.146 Q 15.61,8.982 15.67,8.841 15.73,8.692 15.83,8.591 15.94,8.482 16.08,8.419 16.23,8.356 16.39,8.356 16.56,8.356 16.7,8.419 16.85,8.482 16.95,8.591 17.06,8.692 17.12,8.841 17.18,8.982 17.18,9.146 17.18,9.31 17.12,9.458 17.06,9.599 16.95,9.708 16.85,9.81 16.7,9.872 16.56,9.935 16.39,9.935 16.23,9.935 16.08,9.872 15.94,9.81 15.83,9.708 15.73,9.599 15.67,9.458 15.61,9.31 15.61,9.146 Z M 16.45,1.84 19.57,8.857 V 9.435 L 16.45,16.46 15.61,16.16 18.12,9.146 15.61,2.122 Z"

 />
</svg>