<?xml version="1.0" encoding="UTF-8" ?>
<svg xmlns="http://www.w3.org/2000/svg" version="1.1">
  <path
 d="M 6.613,10.72 7.495,10.92 7.433,11.27 H 5.206 L 5.433,10.05 Q 4.112,11.43 3.019,11.43 2.073,11.43 1.495,10.74 0.9246,10.04 0.9246,8.824 0.9246,7.457 1.518,6.27 2.12,5.074 3.12,4.41 4.12,3.738 5.292,3.738 6.238,3.738 7.074,4.066 L 7.425,3.801 H 7.847 Z M 6.386,4.73 Q 6.081,4.519 5.816,4.441 5.55,4.355 5.159,4.355 4.378,4.355 3.722,4.949 3.073,5.535 2.698,6.535 2.323,7.535 2.323,8.621 2.323,9.457 2.667,9.957 3.011,10.46 3.605,10.46 4.487,10.46 5.534,9.371 Z M 7.769,1.652 Q 7.769,1.98 7.55,2.215 7.331,2.441 7.003,2.441 6.675,2.441 6.448,2.199 6.222,1.957 6.222,1.652 6.222,1.324 6.448,1.097 6.675,0.8707 7.003,0.8707 7.331,0.8707 7.55,1.097 7.769,1.324 7.769,1.652 Z M 4.987,1.652 Q 4.987,1.98 4.769,2.215 4.55,2.441 4.222,2.441 3.901,2.441 3.667,2.207 3.433,1.972 3.433,1.652 3.433,1.324 3.675,1.097 3.917,0.8707 4.222,0.8707 4.55,0.8707 4.769,1.097 4.987,1.324 4.987,1.652 Z"
 />
</svg>