<?xml version="1.0" encoding="UTF-8" ?>
<svg xmlns="http://www.w3.org/2000/svg" version="1.1">
  <path
 d="M 6.724,11.02 7.607,11.22 7.545,11.57 H 5.318 L 5.544,10.35 Q 4.224,11.73 3.13,11.73 2.185,11.73 1.607,11.04 1.036,10.34 1.036,9.124 1.036,7.757 1.63,6.57 2.232,5.374 3.232,4.71 4.232,4.038 5.404,4.038 6.349,4.038 7.185,4.366 L 7.537,4.101 H 7.959 Z M 6.498,5.03 Q 6.193,4.819 5.927,4.741 5.662,4.655 5.271,4.655 4.49,4.655 3.833,5.249 3.185,5.835 2.81,6.835 2.435,7.835 2.435,8.921 2.435,9.757 2.779,10.26 3.122,10.76 3.716,10.76 4.599,10.76 5.646,9.671 Z M 6.615,1.827 Q 6.615,2.171 6.365,2.421 6.115,2.671 5.763,2.671 5.419,2.671 5.169,2.421 4.919,2.171 4.919,1.827 4.919,1.475 5.169,1.225 5.419,0.9754 5.763,0.9754 6.115,0.9754 6.365,1.225 6.615,1.475 6.615,1.827 Z"
 />
</svg>