<?xml version="1.0" encoding="UTF-8" ?>
<svg xmlns="http://www.w3.org/2000/svg" version="1.1">
  <path
 d="M 6.687,15.87 7.57,16.07 7.507,16.42 H 5.28 L 5.507,15.2 Q 4.186,16.58 3.093,16.58 2.147,16.58 1.569,15.89 0.9987,15.19 0.9987,13.97 0.9987,12.61 1.592,11.42 2.194,10.22 3.194,9.56 4.194,8.888 5.366,8.888 6.312,8.888 7.148,9.216 L 7.499,8.951 H 7.921 Z M 6.46,9.88 Q 6.155,9.669 5.89,9.591 5.624,9.505 5.233,9.505 4.452,9.505 3.796,10.1 3.147,10.69 2.772,11.69 2.397,12.69 2.397,13.77 2.397,14.61 2.741,15.11 3.085,15.61 3.679,15.61 4.561,15.61 5.608,14.52 Z"
 />
  <path
 d="M 10.91,5.857 9.867,5.669 9.929,5.318 H 12.27 L 11.69,8.763 Q 11.56,9.654 11.39,10.27 12.02,9.63 12.67,9.255 13.34,8.88 13.89,8.88 14.87,8.88 15.45,9.584 16.04,10.28 16.04,11.49 16.04,12.83 15.45,14.03 14.87,15.22 13.85,15.9 12.83,16.58 11.62,16.58 10.93,16.58 10.27,16.4 9.609,16.22 9.117,15.92 Z M 10.46,15.58 Q 10.91,15.96 11.72,15.96 12.52,15.96 13.19,15.37 13.87,14.78 14.25,13.79 14.64,12.79 14.64,11.69 14.64,10.82 14.27,10.34 13.91,9.857 13.3,9.857 12.84,9.857 12.3,10.16 11.77,10.47 11.29,10.94 Z"



 />
  <path
 d="M 22.57,15.31 Q 21.94,15.9 21.15,16.24 20.36,16.58 19.65,16.58 18.39,16.58 17.7,15.85 17.02,15.12 17.02,13.84 17.02,12.48 17.56,11.36 18.11,10.24 19.12,9.56 20.13,8.88 21.24,8.88 21.8,8.88 22.42,8.998 23.05,9.115 23.45,9.287 L 23.1,11.33 H 22.67 L 22.55,9.974 Q 22.06,9.482 21.23,9.482 20.48,9.482 19.83,10.04 19.18,10.59 18.79,11.58 18.4,12.58 18.4,13.76 18.4,15.76 20.01,15.76 21.13,15.76 22.34,14.98 Z"

 />
  <path
 style="stroke:#000000;stroke-width:1px;" d="M 1.195,3.471 21.76,3.546"
 />
  <path
 style="fill:none;stroke:#000000;stroke-width:1px;" d="M 20,1.119 22.04,3.546 19.73,5.729"
 />
</svg>