<?xml version="1.0" encoding="UTF-8" ?>
<svg xmlns="http://www.w3.org/2000/svg" version="1.1">
  <path
 d="M 0.38,2.826 V 1.522 H 21.88 V 2.826 Z"


 />
  <path
 d="M 6.612,14.19 7.495,14.39 7.433,14.74 H 5.206 L 5.433,13.52 Q 4.112,14.9 3.018,14.9 2.073,14.9 1.495,14.21 0.9244,13.51 0.9244,12.29 0.9244,10.93 1.518,9.74 2.12,8.544 3.12,7.88 4.12,7.208 5.292,7.208 6.237,7.208 7.073,7.536 L 7.425,7.271 H 7.847 Z M 6.386,8.2 Q 6.081,7.989 5.815,7.911 5.55,7.825 5.159,7.825 4.378,7.825 3.722,8.419 3.073,9.005 2.698,10.01 2.323,11.01 2.323,12.09 2.323,12.93 2.667,13.43 3.011,13.93 3.604,13.93 4.487,13.93 5.534,12.84 Z"


 />
  <path
 d="M 9.831,4.177 8.792,3.989 8.855,3.638 H 11.2 L 10.62,7.083 Q 10.49,7.974 10.32,8.591 10.94,7.95 11.6,7.575 12.26,7.2 12.82,7.2 13.79,7.2 14.38,7.904 14.96,8.599 14.96,9.81 14.96,11.15 14.38,12.35 13.8,13.54 12.78,14.22 11.75,14.9 10.54,14.9 9.855,14.9 9.191,14.72 8.534,14.54 8.042,14.24 Z M 9.386,13.9 Q 9.839,14.28 10.64,14.28 11.44,14.28 12.11,13.69 12.79,13.1 13.18,12.11 13.57,11.11 13.57,10.01 13.57,9.138 13.2,8.661 12.84,8.177 12.23,8.177 11.77,8.177 11.23,8.482 10.7,8.786 10.21,9.263 Z"
 />  
<path
 d="M 20.5,13.63 Q 19.86,14.22 19.07,14.56 18.29,14.9 17.57,14.9 16.32,14.9 15.63,14.17 14.94,13.44 14.94,12.16 14.94,10.8 15.49,9.685 16.04,8.56 17.04,7.88 18.06,7.2 19.17,7.2 19.72,7.2 20.35,7.318 20.97,7.435 21.38,7.607 L 21.03,9.654 H 20.6 L 20.47,8.294 Q 19.98,7.802 19.16,7.802 18.41,7.802 17.75,8.357 17.11,8.911 16.71,9.904 16.32,10.9 16.32,12.08 16.32,14.08 17.93,14.08 19.05,14.08 20.26,13.3 Z"
 />
</svg>