<?xml version="1.0" encoding="UTF-8" ?>
<svg xmlns="http://www.w3.org/2000/svg" version="1.1">
  <path
 d="M 6.799,10.31 7.682,10.51 7.62,10.86 H 5.393 L 5.62,9.641 Q 4.299,11.02 3.205,11.02 2.26,11.02 1.682,10.33 1.111,9.633 1.111,8.414 1.111,7.047 1.705,5.86 2.307,4.664 3.307,4 4.307,3.328 5.479,3.328 6.424,3.328 7.26,3.656 L 7.612,3.391 H 8.034 Z M 6.573,4.32 Q 6.268,4.109 6.002,4.031 5.737,3.945 5.346,3.945 4.565,3.945 3.909,4.539 3.26,5.125 2.885,6.125 2.51,7.125 2.51,8.211 2.51,9.047 2.854,9.547 3.198,10.05 3.791,10.05 4.674,10.05 5.721,8.961 Z M 3.237,1.789 3.385,0.9373 H 8.292 L 8.143,1.789 Z"

 />
</svg>