<?xml version="1.0" encoding="UTF-8" ?>
<svg xmlns="http://www.w3.org/2000/svg" version="1.1">
  <path
 d="M 6.799,11.58 7.682,11.78 7.619,12.13 H 5.392 L 5.619,10.91 Q 4.299,12.29 3.205,12.29 2.259,12.29 1.681,11.6 1.111,10.9 1.111,9.684 1.111,8.317 1.705,7.13 2.306,5.934 3.306,5.27 4.306,4.598 5.478,4.598 6.424,4.598 7.26,4.926 L 7.611,4.661 H 8.033 Z M 6.572,5.59 Q 6.267,5.379 6.002,5.301 5.736,5.215 5.346,5.215 4.564,5.215 3.908,5.809 3.259,6.395 2.884,7.395 2.509,8.395 2.509,9.481 2.509,10.32 2.853,10.82 3.197,11.32 3.791,11.32 4.674,11.32 5.721,10.23 Z M 3.924,1.004 5.533,2.434 7.643,1.004 H 8.111 L 8.072,1.262 6.236,3.395 H 4.572 L 3.478,1.262 3.517,1.004 Z"

 />
</svg>