<?xml version="1.0" encoding="UTF-8" ?>
<svg xmlns="http://www.w3.org/2000/svg" version="1.1">
  <path
 d="M 6.501,11.1 7.383,11.3 7.321,11.65 H 5.094 L 5.321,10.43 Q 4,11.81 2.907,11.81 1.961,11.81 1.383,11.12 0.8126,10.42 0.8126,9.204 0.8126,7.837 1.406,6.65 2.008,5.454 3.008,4.79 4.008,4.118 5.18,4.118 6.126,4.118 6.962,4.446 L 7.313,4.181 H 7.735 Z M 6.274,5.11 Q 5.969,4.899 5.704,4.821 5.438,4.735 5.047,4.735 4.266,4.735 3.61,5.329 2.961,5.915 2.586,6.915 2.211,7.915 2.211,9.001 2.211,9.837 2.555,10.34 2.899,10.84 3.493,10.84 4.375,10.84 5.422,9.751 Z M 6.43,2.907 Q 6.055,2.907 5.766,2.743 5.485,2.571 5.235,2.368 4.993,2.157 4.758,1.993 4.532,1.821 4.274,1.821 4.024,1.821 3.86,1.915 3.703,2.001 3.586,2.157 3.477,2.313 3.328,2.751 H 2.922 Q 3.172,1.759 3.625,1.313 4.086,0.8601 4.782,0.8601 5.157,0.8601 5.446,1.032 5.735,1.196 5.977,1.407 6.227,1.61 6.454,1.782 6.688,1.946 6.938,1.946 7.266,1.946 7.485,1.759 7.704,1.571 7.883,1.024 H 8.29 Q 8.04,2.001 7.579,2.454 7.126,2.907 6.43,2.907 Z"

 />
</svg>