<?xml version="1.0" encoding="UTF-8" ?>
<svg xmlns="http://www.w3.org/2000/svg" version="1.1">
  <path
 d="M 6.425,17.18 7.308,17.38 7.246,17.73 H 5.019 L 5.246,16.51 Q 3.925,17.89 2.831,17.89 1.886,17.89 1.308,17.2 0.7374,16.5 0.7374,15.28 0.7374,13.92 1.331,12.73 1.933,11.53 2.933,10.87 3.933,10.2 5.105,10.2 6.05,10.2 6.886,10.53 L 7.238,10.26 H 7.66 Z M 6.199,11.19 Q 5.894,10.98 5.628,10.9 5.363,10.82 4.972,10.82 4.191,10.82 3.535,11.41 2.886,12 2.511,13 2.136,14 2.136,15.08 2.136,15.92 2.48,16.42 2.824,16.92 3.417,16.92 4.3,16.92 5.347,15.83 Z"



 />
  <path
 d="M 10.64,7.167 9.605,6.979 9.668,6.628 H 12.01 L 11.43,10.07 Q 11.3,10.96 11.13,11.58 11.75,10.94 12.41,10.57 13.07,10.19 13.63,10.19 14.61,10.19 15.19,10.89 15.78,11.59 15.78,12.8 15.78,14.14 15.19,15.34 14.61,16.53 13.59,17.21 12.57,17.89 11.36,17.89 10.67,17.89 10,17.71 9.347,17.53 8.855,17.23 Z M 10.2,16.89 Q 10.65,17.27 11.46,17.27 12.25,17.27 12.93,16.68 13.61,16.09 13.99,15.1 14.38,14.1 14.38,13 14.38,12.13 14.01,11.65 13.65,11.17 13.04,11.17 12.58,11.17 12.04,11.47 11.51,11.78 11.03,12.25 Z"


 />
  <path
   d="M 22.31,16.62 Q 21.68,17.21 20.89,17.55 20.1,17.89 19.39,17.89 18.13,17.89 17.44,17.16 16.75,16.43 16.75,15.15 16.75,13.79 17.3,12.67 17.85,11.55 18.86,10.87 19.87,10.19 20.98,10.19 21.54,10.19 22.16,10.31 22.79,10.42 23.19,10.6 L 22.84,12.64 H 22.41 L 22.29,11.28 Q 21.79,10.79 20.97,10.79 20.22,10.79 19.57,11.35 18.92,11.9 18.53,12.89 18.14,13.89 18.14,15.07 18.14,17.07 19.75,17.07 20.86,17.07 22.08,16.29 Z"
 />
  <path
 style="fill:none;stroke:#000000;stroke-width:1px;" d="M 4.553,4.069 C 6.198,2.628 7.456,1.32 9.144,1.344 11.17,1.398 13.38,4.252 15.35,4.292 17.03,4.396 18.69,2.438 19.75,1.158"

 />
</svg>