<?xml version="1.0" encoding="UTF-8" ?>
<svg xmlns="http://www.w3.org/2000/svg" version="1.1">
  <path
 d="M 6.911,11.43 7.794,11.63 7.731,11.98 H 5.505 L 5.731,10.76 Q 4.411,12.14 3.317,12.14 2.372,12.14 1.793,11.45 1.223,10.75 1.223,9.534 1.223,8.167 1.817,6.98 2.419,5.784 3.419,5.12 4.419,4.448 5.591,4.448 6.536,4.448 7.372,4.776 L 7.724,4.511 H 8.146 Z M 6.684,5.44 Q 6.38,5.229 6.114,5.151 5.848,5.065 5.458,5.065 4.677,5.065 4.02,5.659 3.372,6.245 2.997,7.245 2.622,8.245 2.622,9.331 2.622,10.17 2.965,10.67 3.309,11.17 3.903,11.17 4.786,11.17 5.833,10.08 Z"

 />
  <path
 d="M 10.13,1.417 9.091,1.229 9.154,0.8775 H 11.5 L 10.92,4.323 Q 10.79,5.214 10.61,5.831 11.24,5.19 11.9,4.815 12.56,4.44 13.11,4.44 14.09,4.44 14.68,5.144 15.26,5.839 15.26,7.05 15.26,8.394 14.68,9.589 14.1,10.78 13.08,11.46 12.05,12.14 10.84,12.14 10.15,12.14 9.489,11.96 8.833,11.78 8.341,11.48 Z M 9.685,11.14 Q 10.14,11.52 10.94,11.52 11.74,11.52 12.41,10.93 13.09,10.34 13.47,9.347 13.86,8.347 13.86,7.253 13.86,6.378 13.5,5.901 13.14,5.417 12.53,5.417 12.07,5.417 11.53,5.722 11,6.026 10.51,6.503 Z"
 />
  <path
 d="M 20.8,10.87 Q 20.16,11.46 19.37,11.8 18.58,12.14 17.87,12.14 16.62,12.14 15.93,11.41 15.24,10.68 15.24,9.402 15.24,8.042 15.79,6.925 16.33,5.8 17.34,5.12 18.36,4.44 19.47,4.44 20.02,4.44 20.65,4.558 21.27,4.675 21.68,4.847 L 21.33,6.894 H 20.9 L 20.77,5.534 Q 20.28,5.042 19.46,5.042 18.71,5.042 18.05,5.597 17.4,6.151 17.01,7.144 16.62,8.136 16.62,9.324 16.62,11.32 18.23,11.32 19.35,11.32 20.56,10.54 Z"
 />
  <path
 d="M 0.644,14.44 V 13.12 H 22.34 V 14.44 Z"
  />
</svg>