<?xml version="1.0" encoding="UTF-8" ?>
<svg xmlns="http://www.w3.org/2000/svg" version="1.1">
  <path
 d="M 6.687,11.77 7.57,11.97 7.507,12.32 H 5.281 L 5.507,11.1 Q 4.187,12.48 3.093,12.48 2.148,12.48 1.569,11.79 0.999,11.09 0.999,9.874 0.999,8.507 1.593,7.32 2.194,6.124 3.194,5.46 4.195,4.788 5.367,4.788 6.312,4.788 7.148,5.116 L 7.5,4.851 H 7.921 Z M 6.46,5.78 Q 6.156,5.569 5.89,5.491 5.624,5.405 5.234,5.405 4.452,5.405 3.796,5.999 3.148,6.585 2.773,7.585 2.398,8.585 2.398,9.671 2.398,10.51 2.741,11.01 3.085,11.51 3.679,11.51 4.562,11.51 5.609,10.42 Z M 3.218,3.585 3.257,3.327 5.093,1.194 H 6.757 L 7.843,3.327 7.804,3.585 H 7.437 L 5.828,2.155 3.718,3.585 Z"

 />
</svg>