<?xml version="1.0" encoding="UTF-8" ?>
<svg xmlns="http://www.w3.org/2000/svg" version="1.1">
  <path
 d="M 6.65,11.54 7.533,11.74 7.471,12.09 H 5.244 L 5.47,10.87 Q 4.15,12.25 3.056,12.25 2.111,12.25 1.533,11.56 0.9622,10.86 0.9622,9.644 0.9622,8.277 1.556,7.09 2.158,5.894 3.158,5.23 4.158,4.558 5.33,4.558 6.275,4.558 7.111,4.886 L 7.463,4.621 H 7.885 Z M 6.424,5.55 Q 6.119,5.339 5.853,5.261 5.588,5.175 5.197,5.175 4.416,5.175 3.759,5.769 3.111,6.355 2.736,7.355 2.361,8.355 2.361,9.441 2.361,10.28 2.705,10.78 3.048,11.28 3.642,11.28 4.525,11.28 5.572,10.19 Z M 4.517,3.355 4.556,3.097 6.463,0.9719 H 8.127 L 8.08,1.261 4.947,3.355 Z"
 />
</svg>