<?xml version="1.0" encoding="UTF-8" ?>
<svg xmlns="http://www.w3.org/2000/svg" version="1.1">
  <path
 d="M 7.098,11.66 7.981,11.86 7.918,12.21 H 5.691 L 5.918,10.99 Q 4.597,12.37 3.504,12.37 2.558,12.37 1.98,11.68 1.41,10.98 1.41,9.764 1.41,8.397 2.003,7.21 2.605,6.014 3.605,5.35 4.605,4.678 5.777,4.678 6.723,4.678 7.559,5.006 L 7.91,4.741 H 8.332 Z M 6.871,5.67 Q 6.566,5.459 6.301,5.381 6.035,5.295 5.644,5.295 4.863,5.295 4.207,5.889 3.558,6.475 3.183,7.475 2.808,8.475 2.808,9.561 2.808,10.4 3.152,10.9 3.496,11.4 4.09,11.4 4.972,11.4 6.019,10.31 Z M 6.559,3.475 4.16,1.381 4.207,1.092 H 5.793 L 7.027,3.217 6.988,3.475 Z"
 />
</svg>