<?xml version="1.0" encoding="UTF-8" ?>
<svg xmlns="http://www.w3.org/2000/svg" version="1.1">
  <path
 d="M 3.02,2.676 Q 3.02,3.059 2.746,3.34 2.481,3.622 2.074,3.622 1.668,3.622 1.395,3.34 1.129,3.059 1.129,2.676 1.129,2.278 1.402,2.004 1.676,1.731 2.074,1.731 2.473,1.731 2.746,2.004 3.02,2.278 3.02,2.676 Z M 8.379,2.676 Q 8.379,3.059 8.106,3.34 7.84,3.622 7.434,3.622 7.028,3.622 6.754,3.34 6.489,3.059 6.489,2.676 6.489,2.278 6.762,2.004 7.036,1.731 7.434,1.731 7.833,1.731 8.106,2.004 8.379,2.278 8.379,2.676 Z M 13.74,2.676 Q 13.74,3.059 13.47,3.34 13.2,3.622 12.79,3.622 12.39,3.622 12.11,3.34 11.85,3.059 11.85,2.676 11.85,2.278 12.12,2.004 12.4,1.731 12.79,1.731 13.19,1.731 13.47,2.004 13.74,2.278 13.74,2.676 Z"

 />
  <path
 d="M 9.562,11.66 10.44,11.86 10.38,12.21 H 8.155 L 8.382,10.99 Q 7.061,12.37 5.968,12.37 5.022,12.37 4.444,11.68 3.874,10.98 3.874,9.764 3.874,8.397 4.467,7.21 5.069,6.014 6.069,5.35 7.069,4.678 8.241,4.678 9.187,4.678 10.02,5.006 L 10.37,4.741 H 10.8 Z M 9.335,5.67 Q 9.03,5.459 8.765,5.381 8.499,5.295 8.108,5.295 7.327,5.295 6.671,5.889 6.022,6.475 5.647,7.475 5.272,8.475 5.272,9.561 5.272,10.4 5.616,10.9 5.96,11.4 6.554,11.4 7.436,11.4 8.483,10.31 Z" />
</svg>