<?xml version="1.0" encoding="UTF-8" ?>
<svg xmlns="http://www.w3.org/2000/svg" version="1.1">
  <path
 d="M 6.687,11.84 7.57,12.04 7.507,12.39 H 5.28 L 5.507,11.17 Q 4.186,12.55 3.093,12.55 2.147,12.55 1.569,11.86 0.9987,11.16 0.9987,9.944 0.9987,8.577 1.592,7.39 2.194,6.194 3.194,5.53 4.194,4.858 5.366,4.858 6.312,4.858 7.148,5.186 L 7.499,4.921 H 7.921 Z M 6.46,5.85 Q 6.155,5.639 5.89,5.561 5.624,5.475 5.233,5.475 4.452,5.475 3.796,6.069 3.147,6.655 2.772,7.655 2.397,8.655 2.397,9.741 2.397,10.58 2.741,11.08 3.085,11.58 3.679,11.58 4.561,11.58 5.608,10.49 Z M 7.327,2.413 Q 7.327,3.069 6.859,3.538 6.398,3.999 5.741,3.999 5.085,3.999 4.616,3.538 4.155,3.069 4.155,2.413 4.155,1.756 4.616,1.295 5.085,0.8266 5.741,0.8266 6.398,0.8266 6.859,1.295 7.327,1.756 7.327,2.413 Z M 6.702,2.413 Q 6.702,2.014 6.421,1.733 6.14,1.452 5.741,1.452 5.343,1.452 5.062,1.733 4.78,2.014 4.78,2.413 4.78,2.819 5.069,3.1 5.358,3.374 5.741,3.374 6.116,3.374 6.405,3.1 6.702,2.827 6.702,2.413 Z"

 />
</svg>