<?xml version="1.0" encoding="UTF-8" ?>
<svg xmlns="http://www.w3.org/2000/svg" version="1.1">
  <g
 style="fill:#818181;">
  <path
 d="M 6.762,7.923 7.645,8.118 7.582,8.47 H 5.355 L 5.582,7.251 Q 4.262,8.634 3.168,8.634 2.222,8.634 1.644,7.939 1.074,7.243 1.074,6.024 1.074,4.657 1.668,3.47 2.269,2.274 3.269,1.61 4.269,0.9381 5.441,0.9381 6.387,0.9381 7.223,1.266 L 7.574,1.001 H 7.996 Z M 6.535,1.93 Q 6.23,1.719 5.965,1.641 5.699,1.555 5.309,1.555 4.527,1.555 3.871,2.149 3.222,2.735 2.847,3.735 2.472,4.735 2.472,5.821 2.472,6.657 2.816,7.157 3.16,7.657 3.754,7.657 4.637,7.657 5.684,6.571 Z"

 />
</g>
</svg>