<?xml version="1.0" encoding="UTF-8" ?>
<svg xmlns="http://www.w3.org/2000/svg" version="1.1">
  <path
 d="M 6.687,11.58 7.57,11.78 7.508,12.13 H 5.281 L 5.508,10.91 Q 4.187,12.29 3.093,12.29 2.148,12.29 1.57,11.6 0.9994,10.9 0.9994,9.684 0.9994,8.317 1.593,7.13 2.195,5.934 3.195,5.27 4.195,4.598 5.367,4.598 6.312,4.598 7.148,4.926 L 7.5,4.661 H 7.922 Z M 6.461,5.59 Q 6.156,5.379 5.89,5.301 5.625,5.215 5.234,5.215 4.453,5.215 3.797,5.809 3.148,6.395 2.773,7.395 2.398,8.395 2.398,9.481 2.398,10.32 2.742,10.82 3.086,11.32 3.679,11.32 4.562,11.32 5.609,10.23 Z"


 />
  <path
 d="M 9.906,1.567 8.867,1.379 8.93,1.028 H 11.27 L 10.7,4.473 Q 10.56,5.364 10.39,5.981 11.02,5.34 11.67,4.965 12.34,4.59 12.89,4.59 13.87,4.59 14.45,5.294 15.04,5.989 15.04,7.2 15.04,8.544 14.45,9.739 13.88,10.93 12.85,11.61 11.83,12.29 10.62,12.29 9.93,12.29 9.266,12.11 8.609,11.93 8.117,11.63 Z M 9.461,11.29 Q 9.914,11.67 10.72,11.67 11.52,11.67 12.19,11.08 12.87,10.49 13.25,9.497 13.64,8.497 13.64,7.403 13.64,6.528 13.27,6.051 12.91,5.567 12.31,5.567 11.84,5.567 11.31,5.872 10.77,6.176 10.29,6.653 Z"

 />
  <path
 d="M 20.57,11.02 Q 19.94,11.61 19.15,11.95 18.36,12.29 17.65,12.29 16.39,12.29 15.7,11.56 15.02,10.83 15.02,9.552 15.02,8.192 15.56,7.075 16.11,5.95 17.12,5.27 18.13,4.59 19.24,4.59 19.8,4.59 20.42,4.708 21.05,4.825 21.45,4.997 L 21.1,7.044 H 20.67 L 20.55,5.684 Q 20.06,5.192 19.24,5.192 18.49,5.192 17.83,5.747 17.18,6.301 16.79,7.294 16.4,8.286 16.4,9.474 16.4,11.47 18.01,11.47 19.13,11.47 20.34,10.69 Z" />
  <path
 d="M 0.6262,8 V 9.20 H 21.72 V 8 Z"
 />
</svg>