<?xml version="1.0" encoding="UTF-8" ?>
<svg xmlns="http://www.w3.org/2000/svg" version="1.1">
  <path
 d="M 6.836,11.39 7.719,11.59 7.657,11.94 H 5.43 L 5.656,10.72 Q 4.336,12.1 3.242,12.1 2.297,12.1 1.719,11.41 1.148,10.71 1.148,9.494 1.148,8.127 1.742,6.94 2.344,5.744 3.344,5.08 4.344,4.408 5.516,4.408 6.461,4.408 7.297,4.736 L 7.649,4.471 H 8.071 Z M 6.61,5.4 Q 6.305,5.189 6.039,5.111 5.774,5.025 5.383,5.025 4.602,5.025 3.945,5.619 3.297,6.205 2.922,7.205 2.547,8.205 2.547,9.291 2.547,10.13 2.891,10.63 3.234,11.13 3.828,11.13 4.711,11.13 5.758,10.04 Z M 5.516,3.197 Q 4.61,3.197 4.117,2.736 3.625,2.275 3.625,1.447 L 3.656,1.009 H 4.234 Q 4.266,1.517 4.656,1.806 5.055,2.095 5.711,2.095 6.383,2.095 6.868,1.806 7.36,1.509 7.563,1.009 H 8.141 Q 7.93,2.025 7.243,2.611 6.563,3.197 5.516,3.197 Z"

 />
</svg>