<?xml version="1.0" encoding="UTF-8" ?>
<svg xmlns="http://www.w3.org/2000/svg" version="1.1">
  <path
 d="M 3.727,5.764 Q 4.73,5.764 5.199,6.174 5.674,6.584 5.674,7.43 V 11.56 L 6.436,11.73 V 12.02 H 4.756 L 4.632,11.41 Q 3.89,12.15 2.738,12.15 1.169,12.15 1.169,10.33 1.169,9.715 1.403,9.318 1.644,8.915 2.165,8.706 2.686,8.491 3.675,8.472 L 4.593,8.446 V 7.489 Q 4.593,6.857 4.359,6.558 4.131,6.258 3.649,6.258 2.998,6.258 2.458,6.564 L 2.236,7.326 H 1.872 V 5.991 Q 2.927,5.764 3.727,5.764 Z M 4.593,8.902 3.74,8.928 Q 2.868,8.96 2.555,9.266 2.249,9.572 2.249,10.29 2.249,11.43 3.18,11.43 3.623,11.43 3.942,11.34 4.268,11.23 4.593,11.08 Z" />
  <path
 d="M 11.08,0.9979 V 13.32 H 10.02 V 0.9979 Z"



 />
  <path
 d="M 19.48,8.791 Q 19.48,7.593 19.06,7.007 18.65,6.421 17.77,6.421 17.39,6.421 17.01,6.493 16.63,6.558 16.46,6.636 V 11.49 Q 17.01,11.59 17.77,11.59 18.67,11.59 19.07,10.89 19.48,10.18 19.48,8.791 Z M 15.38,3.218 14.49,3.062 V 2.769 H 16.46 V 4.956 Q 16.46,5.308 16.43,6.245 17.08,5.737 18.07,5.737 19.32,5.737 19.98,6.499 20.65,7.254 20.65,8.791 20.65,10.44 19.91,11.3 19.19,12.15 17.8,12.15 17.24,12.15 16.56,12.03 15.89,11.9 15.38,11.7 Z"


 />
</svg>