<?xml version="1.0" encoding="UTF-8" ?>
<svg xmlns="http://www.w3.org/2000/svg" version="1.1">
  <path
 d="M 2.928,3.472 Q 3.73,3.472 4.105,3.8 4.485,4.128 4.485,4.805 V 8.112 L 5.094,8.243 V 8.477 H 3.751 L 3.652,7.987 Q 3.058,8.581 2.136,8.581 0.8807,8.581 0.8807,7.123 0.8807,6.633 1.068,6.316 1.261,5.993 1.678,5.826 2.094,5.654 2.886,5.638 L 3.62,5.618 V 4.852 Q 3.62,4.347 3.433,4.107 3.251,3.868 2.865,3.868 2.344,3.868 1.912,4.112 L 1.735,4.722 H 1.443 V 3.654 Q 2.287,3.472 2.928,3.472 Z M 3.62,5.982 2.938,6.003 Q 2.24,6.029 1.99,6.274 1.745,6.519 1.745,7.092 1.745,8.008 2.49,8.008 2.844,8.008 3.099,7.93 3.36,7.847 3.62,7.722 Z"


 />
  <path
 d="M 8.386,6.013 V 5.456 L 14.55,7.925 V 8.477 Z M 14.55,1.883 V 2.441 L 9.782,4.347 14.55,6.258 V 6.816 L 8.386,4.347 Z"

 />
  <path
 d="M 21.7,5.894 Q 21.7,4.935 21.37,4.467 21.04,3.998 20.34,3.998 20.03,3.998 19.73,4.055 19.43,4.107 19.29,4.17 V 8.05 Q 19.73,8.133 20.34,8.133 21.06,8.133 21.38,7.571 21.7,7.008 21.7,5.894 Z M 18.43,1.435 17.71,1.31 V 1.076 H 19.29 V 2.826 Q 19.29,3.107 19.26,3.857 19.78,3.451 20.57,3.451 21.57,3.451 22.1,4.06 22.64,4.664 22.64,5.894 22.64,7.211 22.05,7.899 21.47,8.581 20.36,8.581 19.91,8.581 19.37,8.482 18.83,8.383 18.43,8.222 Z" />
</svg>