<?xml version="1.0" encoding="UTF-8" ?>
<svg xmlns="http://www.w3.org/2000/svg" version="1.1">
  <path
 d="M 2.888,3.402 Q 3.69,3.402 4.065,3.73 4.446,4.058 4.446,4.735 V 8.042 L 5.055,8.173 V 8.407 H 3.711 L 3.612,7.917 Q 3.019,8.511 2.097,8.511 0.8415,8.511 0.8415,7.053 0.8415,6.563 1.029,6.246 1.222,5.923 1.638,5.756 2.055,5.584 2.847,5.568 L 3.581,5.548 V 4.782 Q 3.581,4.277 3.394,4.037 3.211,3.798 2.826,3.798 2.305,3.798 1.873,4.042 L 1.696,4.652 H 1.404 V 3.584 Q 2.248,3.402 2.888,3.402 Z M 3.581,5.912 2.899,5.933 Q 2.201,5.959 1.951,6.204 1.706,6.449 1.706,7.022 1.706,7.938 2.451,7.938 2.805,7.938 3.06,7.86 3.321,7.777 3.581,7.652 Z"
 />
  <path
 d="M 22.15,5.86 Q 22.15,4.901 21.82,4.433 21.48,3.964 20.79,3.964 20.48,3.964 20.18,4.021 19.87,4.073 19.74,4.136 V 8.016 Q 20.18,8.099 20.79,8.099 21.5,8.099 21.83,7.537 22.15,6.974 22.15,5.86 Z M 18.87,1.401 18.16,1.276 V 1.042 H 19.74 V 2.792 Q 19.74,3.073 19.71,3.823 20.23,3.417 21.02,3.417 22.02,3.417 22.55,4.026 23.09,4.63 23.09,5.86 23.09,7.177 22.5,7.865 21.92,8.547 20.81,8.547 20.36,8.547 19.82,8.448 19.28,8.349 18.87,8.188 Z"

 />
  <path
 d="M 8.825,6.053 H 8.502 Q 8.58,4.387 9.877,4.387 10.48,4.387 11.74,5.012 13.01,5.637 13.48,5.637 14.23,5.637 14.35,4.507 H 14.67 Q 14.57,6.168 13.29,6.168 12.63,6.168 11.49,5.543 10.35,4.923 9.69,4.923 9.278,4.923 9.039,5.293 8.825,5.621 8.825,6.053 Z"

 />
</svg>