<?xml version="1.0" encoding="UTF-8" ?>
<svg xmlns="http://www.w3.org/2000/svg" version="1.1">
  <path
 d="M 3.027,4.164 Q 4.03,4.164 4.499,4.574 4.974,4.984 4.974,5.83 V 9.964 L 5.736,10.13 V 10.42 H 4.056 L 3.932,9.808 Q 3.19,10.55 2.038,10.55 0.4688,10.55 0.4688,8.727 0.4688,8.115 0.7032,7.718 0.944,7.315 1.465,7.106 1.986,6.891 2.975,6.872 L 3.893,6.846 V 5.889 Q 3.893,5.257 3.659,4.958 3.431,4.658 2.949,4.658 2.298,4.658 1.758,4.964 L 1.536,5.726 H 1.172 V 4.391 Q 2.227,4.164 3.027,4.164 Z M 3.893,7.302 3.04,7.328 Q 2.168,7.36 1.855,7.666 1.55,7.972 1.55,8.688 1.55,9.834 2.48,9.834 2.923,9.834 3.242,9.736 3.568,9.632 3.893,9.476 Z"





 />
  <path
 d="M 8.471,9.209 V 8.538 L 13.74,5.993 8.471,3.447 V 2.777 L 14.68,5.83 V 6.156 Z M 14.66,9.756 V 10.42 H 8.458 V 9.756 Z" />
  <path
 d="M 22.22,7.191 Q 22.22,5.993 21.8,5.407 21.38,4.821 20.51,4.821 20.13,4.821 19.75,4.893 19.37,4.958 19.2,5.036 V 9.886 Q 19.75,9.99 20.51,9.99 21.41,9.99 21.81,9.287 22.22,8.584 22.22,7.191 Z M 18.12,1.618 17.23,1.462 V 1.169 H 19.2 V 3.356 Q 19.2,3.708 19.16,4.645 19.81,4.137 20.8,4.137 22.05,4.137 22.72,4.899 23.39,5.654 23.39,7.191 23.39,8.838 22.65,9.697 21.92,10.55 20.54,10.55 19.98,10.55 19.3,10.43 18.63,10.3 18.12,10.1 Z"
 />
</svg>