<?xml version="1.0" encoding="UTF-8" ?>
<svg xmlns="http://www.w3.org/2000/svg" version="1.1">
  <path
 d="M 3.122,3.552 Q 3.924,3.552 4.299,3.88 4.679,4.208 4.679,4.885 V 8.192 L 5.289,8.323 V 8.557 H 3.945 L 3.846,8.067 Q 3.252,8.661 2.33,8.661 1.075,8.661 1.075,7.203 1.075,6.713 1.263,6.396 1.455,6.073 1.872,5.906 2.289,5.734 3.08,5.718 L 3.815,5.698 V 4.932 Q 3.815,4.427 3.627,4.187 3.445,3.948 3.06,3.948 2.539,3.948 2.106,4.192 L 1.929,4.802 H 1.638 V 3.734 Q 2.481,3.552 3.122,3.552 Z M 3.815,6.062 3.132,6.083 Q 2.435,6.109 2.185,6.354 1.94,6.599 1.94,7.172 1.94,8.088 2.685,8.088 3.039,8.088 3.294,8.01 3.554,7.927 3.815,7.802 Z"

 />
  <path
 d="M 14.65,7.791 V 8.62 Q 13.75,7.422 12.13,6.776 10.52,6.125 8.685,5.979 V 5.281 Q 10.51,5.14 12.13,4.489 13.75,3.838 14.65,2.64 V 3.468 Q 14.28,4.109 13.23,4.718 12.17,5.323 11.08,5.63 12.17,5.942 13.23,6.547 14.28,7.151 14.65,7.791 Z" />
  <path
 d="M 21.9,5.974 Q 21.9,5.015 21.56,4.547 21.23,4.078 20.53,4.078 20.23,4.078 19.92,4.135 19.62,4.187 19.49,4.25 V 8.13 Q 19.92,8.213 20.53,8.213 21.25,8.213 21.58,7.651 21.9,7.088 21.9,5.974 Z M 18.62,1.515 17.91,1.39 V 1.156 H 19.49 V 2.906 Q 19.49,3.187 19.46,3.937 19.98,3.531 20.77,3.531 21.77,3.531 22.3,4.14 22.84,4.744 22.84,5.974 22.84,7.291 22.25,7.979 21.66,8.661 20.55,8.661 20.11,8.661 19.56,8.562 19.03,8.463 18.62,8.302 Z"



 />
</svg>