<?xml version="1.0" encoding="UTF-8" ?>
<svg xmlns="http://www.w3.org/2000/svg" version="1.1">
  <path
 d="M 2.889,3.629 Q 3.691,3.629 4.066,3.957 4.446,4.285 4.446,4.962 V 8.269 L 5.055,8.4 V 8.634 H 3.712 L 3.613,8.144 Q 3.019,8.738 2.097,8.738 0.8418,8.738 0.8418,7.28 0.8418,6.79 1.029,6.473 1.222,6.15 1.639,5.983 2.055,5.811 2.847,5.795 L 3.581,5.775 V 5.009 Q 3.581,4.504 3.394,4.264 3.212,4.025 2.826,4.025 2.305,4.025 1.873,4.269 L 1.696,4.879 H 1.404 V 3.811 Q 2.248,3.629 2.889,3.629 Z M 3.581,6.139 2.899,6.16 Q 2.201,6.186 1.951,6.431 1.706,6.676 1.706,7.249 1.706,8.165 2.451,8.165 2.805,8.165 3.061,8.087 3.321,8.004 3.581,7.879 Z"


 />
  <path
 d="M 14.39,7.816 V 8.634 Q 13.51,7.457 11.77,6.754 L 10.45,10.01 H 9.878 L 11.27,6.571 Q 9.993,6.144 8.477,6.019 V 5.321 Q 10.57,5.15 12.14,4.426 L 13.4,1.327 H 13.98 L 12.87,4.045 Q 13.83,3.473 14.39,2.707 V 3.525 Q 13.93,4.321 12.47,5.035 L 12.03,6.108 Q 13.86,6.915 14.39,7.816 Z M 11.54,5.905 11.77,5.353 Q 11.33,5.525 10.85,5.67 11,5.712 11.54,5.905 Z" />
  <path
 d="M 21.66,6.051 Q 21.66,5.092 21.33,4.624 21,4.155 20.3,4.155 19.99,4.155 19.69,4.212 19.39,4.264 19.25,4.327 V 8.207 Q 19.69,8.29 20.3,8.29 21.02,8.29 21.34,7.728 21.66,7.165 21.66,6.051 Z M 18.39,1.592 17.68,1.467 V 1.233 H 19.25 V 2.983 Q 19.25,3.264 19.22,4.014 19.74,3.608 20.53,3.608 21.53,3.608 22.07,4.217 22.6,4.821 22.6,6.051 22.6,7.368 22.01,8.056 21.43,8.738 20.32,8.738 19.87,8.738 19.33,8.639 18.79,8.54 18.39,8.379 Z"




 />
</svg>