<?xml version="1.0" encoding="UTF-8" ?>
<svg xmlns="http://www.w3.org/2000/svg" version="1.1">
  <path
 d="M 2.928,3.511 Q 3.73,3.511 4.105,3.839 4.485,4.167 4.485,4.844 V 8.151 L 5.094,8.282 V 8.516 H 3.751 L 3.652,8.026 Q 3.058,8.62 2.136,8.62 0.8807,8.62 0.8807,7.162 0.8807,6.672 1.068,6.355 1.261,6.032 1.678,5.865 2.094,5.693 2.886,5.677 L 3.62,5.657 V 4.891 Q 3.62,4.386 3.433,4.146 3.251,3.907 2.865,3.907 2.344,3.907 1.912,4.151 L 1.735,4.761 H 1.443 V 3.693 Q 2.287,3.511 2.928,3.511 Z M 3.62,6.021 2.938,6.042 Q 2.24,6.068 1.99,6.313 1.745,6.558 1.745,7.131 1.745,8.047 2.49,8.047 2.844,8.047 3.099,7.969 3.36,7.886 3.62,7.761 Z"



 />
  <path
 d="M 14.55,6.052 8.386,8.516 V 7.964 L 14.55,5.495 Z M 8.386,1.922 14.55,4.386 8.386,6.855 V 6.297 L 13.17,4.375 8.386,2.48 Z"

 />
  <path
 d="M 21.7,5.933 Q 21.7,4.974 21.37,4.506 21.04,4.037 20.34,4.037 20.03,4.037 19.73,4.094 19.43,4.146 19.29,4.209 V 8.089 Q 19.73,8.172 20.34,8.172 21.06,8.172 21.38,7.61 21.7,7.047 21.7,5.933 Z M 18.43,1.474 17.71,1.349 V 1.115 H 19.29 V 2.865 Q 19.29,3.146 19.26,3.896 19.78,3.49 20.57,3.49 21.57,3.49 22.1,4.099 22.64,4.703 22.64,5.933 22.64,7.25 22.05,7.938 21.47,8.62 20.36,8.62 19.91,8.62 19.37,8.521 18.83,8.422 18.43,8.261 Z" />
</svg>