<?xml version="1.0" encoding="UTF-8" ?>
<svg xmlns="http://www.w3.org/2000/svg" version="1.1">
  <path
 d="M 2.988,4.204 Q 3.991,4.204 4.46,4.614 4.935,5.024 4.935,5.87 V 10 L 5.697,10.17 V 10.46 H 4.017 L 3.893,9.848 Q 3.151,10.59 1.999,10.59 0.4298,10.59 0.4298,8.767 0.4298,8.155 0.6642,7.758 0.9051,7.355 1.426,7.146 1.947,6.931 2.936,6.912 L 3.854,6.886 V 5.929 Q 3.854,5.297 3.62,4.998 3.392,4.698 2.91,4.698 2.259,4.698 1.719,5.004 L 1.498,5.766 H 1.133 V 4.431 Q 2.188,4.204 2.988,4.204 Z M 3.854,7.342 3.001,7.368 Q 2.129,7.4 1.817,7.706 1.511,8.012 1.511,8.728 1.511,9.874 2.442,9.874 2.884,9.874 3.203,9.776 3.529,9.672 3.854,9.516 Z"
 />
  <path
 d="M 8.55,9.249 V 8.578 L 13.82,6.033 8.55,3.487 V 2.817 L 14.75,5.87 V 6.196 Z"
 />
  <path
 d="M 22.39,7.231 Q 22.39,6.033 21.97,5.447 21.55,4.861 20.68,4.861 20.3,4.861 19.92,4.933 19.54,4.998 19.37,5.076 V 9.926 Q 19.92,10.03 20.68,10.03 21.58,10.03 21.98,9.327 22.39,8.624 22.39,7.231 Z M 18.29,1.658 17.4,1.502 V 1.209 H 19.37 V 3.396 Q 19.37,3.748 19.33,4.685 19.98,4.177 20.97,4.177 22.22,4.177 22.89,4.939 23.56,5.694 23.56,7.231 23.56,8.878 22.82,9.737 22.09,10.59 20.71,10.59 20.15,10.59 19.47,10.47 18.8,10.34 18.29,10.14 Z"

 />
</svg>