<?xml version="1.0" encoding="UTF-8" ?>
<svg xmlns="http://www.w3.org/2000/svg" version="1.1">
  <path
 d="M 2.988,3.934 Q 3.991,3.934 4.46,4.344 4.935,4.754 4.935,5.6 V 9.734 L 5.697,9.897 V 10.19 H 4.017 L 3.893,9.578 Q 3.151,10.32 1.999,10.32 0.4298,10.32 0.4298,8.497 0.4298,7.885 0.6642,7.488 0.9051,7.085 1.426,6.876 1.947,6.661 2.936,6.642 L 3.854,6.616 V 5.659 Q 3.854,5.027 3.62,4.728 3.392,4.428 2.91,4.428 2.259,4.428 1.719,4.734 L 1.498,5.496 H 1.133 V 4.161 Q 2.188,3.934 2.988,3.934 Z M 3.854,7.072 3.001,7.098 Q 2.129,7.13 1.817,7.436 1.511,7.742 1.511,8.458 1.511,9.604 2.442,9.604 2.884,9.604 3.203,9.506 3.529,9.402 3.854,9.246 Z"
 />
  <path
 d="M 8.537,5.926 V 5.6 L 14.74,2.547 V 3.217 L 9.474,5.763 14.74,8.308 V 8.979 Z"
 />
  <path
 d="M 22.39,6.961 Q 22.39,5.763 21.97,5.177 21.55,4.591 20.68,4.591 20.3,4.591 19.92,4.663 19.54,4.728 19.37,4.806 V 9.656 Q 19.92,9.76 20.68,9.76 21.58,9.76 21.98,9.057 22.39,8.354 22.39,6.961 Z M 18.29,1.388 17.4,1.232 V 0.9387 H 19.37 V 3.126 Q 19.37,3.478 19.33,4.415 19.98,3.907 20.97,3.907 22.22,3.907 22.89,4.669 23.56,5.424 23.56,6.961 23.56,8.608 22.82,9.467 22.09,10.32 20.71,10.32 20.15,10.32 19.47,10.2 18.8,10.07 18.29,9.871 Z"

 />
</svg>