<?xml version="1.0" encoding="UTF-8" ?>
<svg xmlns="http://www.w3.org/2000/svg" version="1.1">
  <path
 d="M 2.772,3.399 Q 3.574,3.399 3.949,3.727 4.329,4.055 4.329,4.732 V 8.039 L 4.938,8.17 V 8.404 H 3.595 L 3.496,7.914 Q 2.902,8.508 1.98,8.508 0.7248,8.508 0.7248,7.05 0.7248,6.56 0.9123,6.243 1.105,5.92 1.522,5.753 1.938,5.581 2.73,5.565 L 3.464,5.545 V 4.779 Q 3.464,4.274 3.277,4.034 3.095,3.795 2.709,3.795 2.188,3.795 1.756,4.039 L 1.579,4.649 H 1.287 V 3.581 Q 2.131,3.399 2.772,3.399 Z M 3.464,5.909 2.782,5.93 Q 2.084,5.956 1.834,6.201 1.589,6.446 1.589,7.019 1.589,7.935 2.334,7.935 2.688,7.935 2.944,7.857 3.204,7.774 3.464,7.649 Z"
 />
  <path
 d="M 13.39,2.779 H 13.45 L 15.62,4.93 V 4.982 L 13.45,7.133 H 13.39 L 13.86,6.289 H 7.688 V 5.446 H 14.32 L 14.58,4.956 14.32,4.466 H 7.688 V 3.623 H 13.86 Z"
 />
  <path
 d="M 22.01,5.821 Q 22.01,4.862 21.67,4.394 21.34,3.925 20.64,3.925 20.33,3.925 20.03,3.982 19.73,4.034 19.59,4.097 V 7.977 Q 20.03,8.06 20.64,8.06 21.36,8.06 21.68,7.498 22.01,6.935 22.01,5.821 Z M 18.73,1.362 18.02,1.237 V 1.003 H 19.59 V 2.753 Q 19.59,3.034 19.56,3.784 20.08,3.378 20.88,3.378 21.88,3.378 22.41,3.987 22.94,4.591 22.94,5.821 22.94,7.138 22.36,7.826 21.77,8.508 20.66,8.508 20.21,8.508 19.67,8.409 19.14,8.31 18.73,8.149 Z"



 />
</svg>