<?xml version="1.0" encoding="UTF-8" ?>
<svg xmlns="http://www.w3.org/2000/svg" version="1.1">
  <path
 d="M 2.966,3.36 Q 3.769,3.36 4.144,3.688 4.524,4.016 4.524,4.693 V 8 L 5.133,8.131 V 8.365 H 3.789 L 3.69,7.875 Q 3.097,8.469 2.175,8.469 0.9196,8.469 0.9196,7.011 0.9196,6.521 1.107,6.204 1.3,5.881 1.716,5.714 2.133,5.542 2.925,5.526 L 3.659,5.506 V 4.74 Q 3.659,4.235 3.472,3.995 3.289,3.756 2.904,3.756 2.383,3.756 1.951,4 L 1.774,4.61 H 1.482 V 3.542 Q 2.326,3.36 2.966,3.36 Z M 3.659,5.87 2.977,5.891 Q 2.279,5.917 2.029,6.162 1.784,6.407 1.784,6.98 1.784,7.896 2.529,7.896 2.883,7.896 3.138,7.818 3.399,7.735 3.659,7.61 Z"


 />
  <path
 d="M 8.529,7.495 V 8.323 Q 9.43,7.125 11.04,6.48 12.66,5.829 14.5,5.683 V 4.985 Q 12.67,4.844 11.05,4.193 9.43,3.542 8.529,2.344 V 3.172 Q 8.899,3.813 9.956,4.422 11.01,5.026 12.11,5.334 11.01,5.646 9.956,6.25 8.899,6.855 8.529,7.495 Z"
 />
  <path
 d="M 21.74,5.782 Q 21.74,4.823 21.41,4.355 21.08,3.886 20.38,3.886 20.07,3.886 19.77,3.943 19.47,3.995 19.33,4.058 V 7.938 Q 19.77,8.021 20.38,8.021 21.1,8.021 21.42,7.459 21.74,6.896 21.74,5.782 Z M 18.47,1.323 17.75,1.198 V 0.9639 H 19.33 V 2.714 Q 19.33,2.995 19.3,3.745 19.82,3.339 20.61,3.339 21.61,3.339 22.14,3.948 22.68,4.552 22.68,5.782 22.68,7.099 22.09,7.787 21.51,8.469 20.4,8.469 19.95,8.469 19.41,8.37 18.87,8.271 18.47,8.11 Z"




 />
</svg>