<?xml version="1.0" encoding="UTF-8" ?>
<svg xmlns="http://www.w3.org/2000/svg" version="1.1">
  <path
 d="M 3.455,5.764 Q 4.458,5.764 4.927,6.174 5.402,6.584 5.402,7.43 V 11.56 L 6.164,11.73 V 12.02 H 4.484 L 4.36,11.41 Q 3.618,12.15 2.466,12.15 0.8966,12.15 0.8966,10.33 0.8966,9.715 1.131,9.318 1.372,8.915 1.893,8.706 2.414,8.491 3.403,8.472 L 4.321,8.446 V 7.489 Q 4.321,6.857 4.087,6.558 3.859,6.258 3.377,6.258 2.726,6.258 2.186,6.564 L 1.964,7.326 H 1.6 V 5.991 Q 2.654,5.764 3.455,5.764 Z M 4.321,8.902 3.468,8.928 Q 2.596,8.96 2.283,9.266 1.977,9.572 1.977,10.29 1.977,11.43 2.908,11.43 3.351,11.43 3.67,11.34 3.996,11.23 4.321,11.08 Z"

 />
  <path
 d="M 13.09,0.9979 V 13.32 H 12.03 V 0.9979 Z M 10.81,0.9979 V 13.32 H 9.752 V 0.9979 Z"
 />
  <path
 d="M 21.5,8.791 Q 21.5,7.593 21.08,7.007 20.66,6.421 19.79,6.421 19.41,6.421 19.03,6.493 18.65,6.558 18.48,6.636 V 11.49 Q 19.03,11.59 19.79,11.59 20.69,11.59 21.09,10.89 21.5,10.18 21.5,8.791 Z M 17.4,3.218 16.51,3.062 V 2.769 H 18.48 V 4.956 Q 18.48,5.308 18.44,6.245 19.1,5.737 20.09,5.737 21.34,5.737 22,6.499 22.67,7.254 22.67,8.791 22.67,10.44 21.93,11.3 21.21,12.15 19.82,12.15 19.26,12.15 18.58,12.03 17.91,11.9 17.4,11.7 Z" />
</svg>