<?xml version="1.0" encoding="UTF-8" ?>
<svg xmlns="http://www.w3.org/2000/svg" version="1.1">
  <path
 d="M 2.538,3.518 Q 3.341,3.518 3.716,3.846 4.096,4.174 4.096,4.851 V 8.158 L 4.705,8.289 V 8.523 H 3.361 L 3.262,8.033 Q 2.669,8.627 1.747,8.627 0.4916,8.627 0.4916,7.169 0.4916,6.679 0.6791,6.362 0.8718,6.039 1.288,5.872 1.705,5.7 2.497,5.684 L 3.231,5.664 V 4.898 Q 3.231,4.393 3.044,4.153 2.861,3.914 2.476,3.914 1.955,3.914 1.523,4.158 L 1.346,4.768 H 1.054 V 3.7 Q 1.898,3.518 2.538,3.518 Z M 3.231,6.028 2.549,6.049 Q 1.851,6.075 1.601,6.32 1.356,6.565 1.356,7.138 1.356,8.054 2.101,8.054 2.455,8.054 2.71,7.976 2.971,7.893 3.231,7.768 Z" />
  <path
 d="M 15.46,4.669 13.27,2.487 H 12.18 L 13.98,4.283 H 7.747 V 5.054 H 13.98 L 12.18,6.851 H 13.27 Z"


 />
  <path
 d="M 22.34,5.94 Q 22.34,4.981 22,4.513 21.67,4.044 20.97,4.044 20.66,4.044 20.36,4.101 20.06,4.153 19.92,4.216 V 8.096 Q 20.36,8.179 20.97,8.179 21.69,8.179 22.01,7.617 22.34,7.054 22.34,5.94 Z M 19.06,1.481 18.35,1.356 V 1.122 H 19.92 V 2.872 Q 19.92,3.153 19.89,3.903 20.41,3.497 21.21,3.497 22.21,3.497 22.74,4.106 23.27,4.71 23.27,5.94 23.27,7.257 22.68,7.945 22.1,8.627 20.99,8.627 20.54,8.627 20,8.528 19.47,8.429 19.06,8.268 Z"

 />
</svg>