<?xml version="1.0" encoding="UTF-8" ?>
<svg xmlns="http://www.w3.org/2000/svg" version="1.1">
  <path
 d="M 3.339,5.884 Q 4.341,5.884 4.81,6.294 5.285,6.704 5.285,7.55 V 11.68 L 6.047,11.85 V 12.14 H 4.367 L 4.243,11.53 Q 3.501,12.27 2.349,12.27 0.7799,12.27 0.7799,10.45 0.7799,9.835 1.014,9.438 1.255,9.035 1.776,8.826 2.297,8.611 3.286,8.592 L 4.204,8.566 V 7.609 Q 4.204,6.977 3.97,6.678 3.742,6.378 3.26,6.378 2.609,6.378 2.069,6.684 L 1.848,7.446 H 1.483 V 6.111 Q 2.538,5.884 3.339,5.884 Z M 4.204,9.022 3.352,9.048 Q 2.479,9.08 2.167,9.386 1.861,9.692 1.861,10.41 1.861,11.55 2.792,11.55 3.234,11.55 3.553,11.46 3.879,11.35 4.204,11.2 Z" />
  <path
 d="M 10.89,7.055 V 1.118 H 11.94 V 6.001 L 12.7,5.239 13.45,5.988 11.94,7.498 V 13.44 H 10.89 V 8.553 L 10.12,9.314 9.375,8.566 Z"




 />
  <path
 d="M 21.59,8.911 Q 21.59,7.713 21.17,7.127 20.76,6.541 19.88,6.541 19.5,6.541 19.12,6.613 18.74,6.678 18.58,6.756 V 11.61 Q 19.12,11.71 19.88,11.71 20.78,11.71 21.19,11.01 21.59,10.3 21.59,8.911 Z M 17.49,3.338 16.6,3.182 V 2.889 H 18.58 V 5.076 Q 18.58,5.428 18.54,6.365 19.19,5.857 20.18,5.857 21.43,5.857 22.09,6.619 22.76,7.374 22.76,8.911 22.76,10.56 22.03,11.42 21.3,12.27 19.91,12.27 19.35,12.27 18.67,12.15 18,12.02 17.49,11.82 Z"


 />
</svg>