<?xml version="1.0" encoding="UTF-8" ?>
<svg xmlns="http://www.w3.org/2000/svg" version="1.1">
  <path
 d="M 2.772,3.477 Q 3.574,3.477 3.949,3.805 4.329,4.133 4.329,4.81 V 8.117 L 4.939,8.248 V 8.482 H 3.595 L 3.496,7.992 Q 2.902,8.586 1.98,8.586 0.7251,8.586 0.7251,7.128 0.7251,6.638 0.9126,6.321 1.105,5.998 1.522,5.831 1.939,5.659 2.73,5.643 L 3.465,5.623 V 4.857 Q 3.465,4.352 3.277,4.112 3.095,3.873 2.709,3.873 2.189,3.873 1.756,4.117 L 1.579,4.727 H 1.288 V 3.659 Q 2.131,3.477 2.772,3.477 Z M 3.465,5.987 2.782,6.008 Q 2.084,6.034 1.834,6.279 1.59,6.524 1.59,7.097 1.59,8.013 2.334,8.013 2.689,8.013 2.944,7.935 3.204,7.852 3.465,7.727 Z" />
  <path
 d="M 9.704,7.211 H 9.647 L 7.475,5.06 V 5.008 L 9.647,2.857 H 9.704 L 9.241,3.701 H 15.41 V 4.544 H 8.777 L 8.512,5.034 8.777,5.524 H 15.41 V 6.367 H 9.241 Z"
 />
  <path
 d="M 22.01,5.899 Q 22.01,4.94 21.67,4.472 21.34,4.003 20.64,4.003 20.33,4.003 20.03,4.06 19.73,4.112 19.59,4.175 V 8.055 Q 20.03,8.138 20.64,8.138 21.36,8.138 21.68,7.576 22.01,7.013 22.01,5.899 Z M 18.73,1.44 18.02,1.315 V 1.081 H 19.59 V 2.831 Q 19.59,3.112 19.56,3.862 20.08,3.456 20.88,3.456 21.88,3.456 22.41,4.065 22.94,4.669 22.94,5.899 22.94,7.216 22.36,7.904 21.77,8.586 20.66,8.586 20.21,8.586 19.67,8.487 19.14,8.388 18.73,8.227 Z"



 />
</svg>