<?xml version="1.0" encoding="UTF-8" ?>
<svg xmlns="http://www.w3.org/2000/svg" version="1.1">
  <path
 d="M 2.966,3.323 Q 3.769,3.323 4.144,3.651 4.524,3.979 4.524,4.656 V 7.963 L 5.133,8.094 V 8.328 H 3.789 L 3.69,7.838 Q 3.097,8.432 2.175,8.432 0.9196,8.432 0.9196,6.974 0.9196,6.484 1.107,6.167 1.3,5.844 1.716,5.677 2.133,5.505 2.925,5.489 L 3.659,5.469 V 4.703 Q 3.659,4.198 3.472,3.958 3.289,3.719 2.904,3.719 2.383,3.719 1.951,3.963 L 1.774,4.573 H 1.482 V 3.505 Q 2.326,3.323 2.966,3.323 Z M 3.659,5.833 2.977,5.854 Q 2.279,5.88 2.029,6.125 1.784,6.37 1.784,6.943 1.784,7.859 2.529,7.859 2.883,7.859 3.138,7.781 3.399,7.698 3.659,7.573 Z" />
  <path
 d="M 14.33,6.87 V 7.651 Q 13.48,6.515 11.94,5.901 10.41,5.281 8.675,5.151 V 4.479 Q 10.41,4.349 11.94,3.734 13.48,3.12 14.33,1.984 V 2.765 Q 13.98,3.375 12.98,3.948 11.98,4.521 10.94,4.818 11.98,5.114 12.98,5.687 13.98,6.26 14.33,6.87 Z M 14.17,8.219 H 14.5 Q 14.45,8.969 14.01,9.63 13.58,10.29 12.9,10.29 12.48,10.29 11.94,9.963 11.4,9.641 10.9,9.312 10.4,8.989 10.11,8.989 9.607,8.989 9.3,9.385 8.998,9.781 8.857,10.39 H 8.524 Q 8.565,9.568 9.013,8.943 9.466,8.323 10.18,8.323 10.6,8.323 11.14,8.646 11.68,8.969 12.17,9.292 12.67,9.62 12.98,9.62 13.87,9.62 14.17,8.219 Z"

 />
  <path
 d="M 21.74,5.745 Q 21.74,4.786 21.41,4.318 21.08,3.849 20.38,3.849 20.07,3.849 19.77,3.906 19.47,3.958 19.33,4.021 V 7.901 Q 19.77,7.984 20.38,7.984 21.1,7.984 21.42,7.422 21.74,6.859 21.74,5.745 Z M 18.47,1.286 17.75,1.161 V 0.9269 H 19.33 V 2.677 Q 19.33,2.958 19.3,3.708 19.82,3.302 20.61,3.302 21.61,3.302 22.14,3.911 22.68,4.515 22.68,5.745 22.68,7.062 22.09,7.75 21.51,8.432 20.4,8.432 19.95,8.432 19.41,8.333 18.87,8.234 18.47,8.073 Z"





 />
</svg>