<?xml version="1.0" encoding="UTF-8" ?>
<svg xmlns="http://www.w3.org/2000/svg" version="1.1">
  <path
 d="M 2.966,3.431 Q 3.769,3.431 4.144,3.759 4.524,4.087 4.524,4.764 V 8.071 L 5.133,8.202 V 8.436 H 3.789 L 3.69,7.946 Q 3.097,8.54 2.175,8.54 0.9196,8.54 0.9196,7.082 0.9196,6.592 1.107,6.275 1.3,5.952 1.716,5.785 2.133,5.613 2.925,5.597 L 3.659,5.577 V 4.811 Q 3.659,4.306 3.472,4.066 3.289,3.827 2.904,3.827 2.383,3.827 1.951,4.071 L 1.774,4.681 H 1.482 V 3.613 Q 2.326,3.431 2.966,3.431 Z M 3.659,5.941 2.977,5.962 Q 2.279,5.988 2.029,6.233 1.784,6.478 1.784,7.051 1.784,7.967 2.529,7.967 2.883,7.967 3.138,7.889 3.399,7.806 3.659,7.681 Z"




 />
  <path
 d="M 8.404,5.738 H 15.08 V 6.571 H 8.404 Z M 15.08,3.222 V 3.988 Q 14.57,4.452 14.1,4.67 13.63,4.884 13.14,4.884 12.64,4.884 11.73,4.54 L 11.68,4.519 11.51,4.457 Q 10.74,4.16 10.25,4.16 9.769,4.16 9.315,4.353 8.868,4.54 8.404,4.936 V 4.17 Q 8.93,3.702 9.394,3.488 9.862,3.275 10.35,3.275 10.85,3.275 11.75,3.613 L 11.81,3.634 Q 11.86,3.655 11.97,3.702 12.72,3.998 13.23,3.998 13.71,3.998 14.16,3.811 14.62,3.618 15.08,3.222 Z"

 />
  <path
 d="M 22.2,5.853 Q 22.2,4.894 21.87,4.426 21.53,3.957 20.84,3.957 20.53,3.957 20.23,4.014 19.92,4.066 19.79,4.129 V 8.009 Q 20.23,8.092 20.84,8.092 21.56,8.092 21.88,7.53 22.2,6.967 22.2,5.853 Z M 18.92,1.394 18.21,1.269 V 1.035 H 19.79 V 2.785 Q 19.79,3.066 19.76,3.816 20.28,3.41 21.07,3.41 22.07,3.41 22.6,4.019 23.14,4.623 23.14,5.853 23.14,7.17 22.55,7.858 21.97,8.54 20.86,8.54 20.41,8.54 19.87,8.441 19.33,8.342 18.92,8.181 Z"
 />
</svg>