<?xml version="1.0" encoding="UTF-8" ?>
<svg xmlns="http://www.w3.org/2000/svg" version="1.1">
  <path
 d="M 2.811,3.362 Q 3.613,3.362 3.988,3.69 4.368,4.018 4.368,4.695 V 8.002 L 4.978,8.133 V 8.367 H 3.634 L 3.535,7.877 Q 2.941,8.471 2.019,8.471 0.764,8.471 0.764,7.013 0.764,6.523 0.9515,6.206 1.144,5.883 1.561,5.716 1.978,5.544 2.769,5.528 L 3.504,5.508 V 4.742 Q 3.504,4.237 3.316,3.997 3.134,3.758 2.748,3.758 2.228,3.758 1.795,4.002 L 1.618,4.612 H 1.327 V 3.544 Q 2.17,3.362 2.811,3.362 Z M 3.504,5.872 2.821,5.893 Q 2.123,5.919 1.873,6.164 1.629,6.409 1.629,6.982 1.629,7.898 2.373,7.898 2.728,7.898 2.983,7.82 3.243,7.737 3.504,7.612 Z"
 />
  <path
 d="M 13.43,2.742 H 13.49 L 15.66,4.893 V 4.945 L 13.49,7.096 H 13.43 L 13.89,6.252 H 9.28 L 9.743,7.096 H 9.686 L 7.514,4.945 V 4.893 L 9.686,2.742 H 9.743 L 9.28,3.586 H 13.89 Z M 8.816,5.409 H 14.36 L 14.62,4.919 14.36,4.429 H 8.816 L 8.55,4.919 Z"
 />
  <path
 d="M 22.05,5.784 Q 22.05,4.825 21.71,4.357 21.38,3.888 20.68,3.888 20.37,3.888 20.07,3.945 19.77,3.997 19.63,4.06 V 7.94 Q 20.07,8.023 20.68,8.023 21.4,8.023 21.72,7.461 22.05,6.898 22.05,5.784 Z M 18.77,1.325 18.06,1.2 V 0.9659 H 19.63 V 2.716 Q 19.63,2.997 19.6,3.747 20.12,3.341 20.92,3.341 21.92,3.341 22.45,3.95 22.98,4.554 22.98,5.784 22.98,7.101 22.39,7.789 21.81,8.471 20.7,8.471 20.25,8.471 19.71,8.372 19.18,8.273 18.77,8.112 Z"



 />
</svg>