<?xml version="1.0" encoding="UTF-8" ?>
<svg xmlns="http://www.w3.org/2000/svg" version="1.1">
  <path
 d="M 3.005,3.476 Q 3.807,3.476 4.182,3.804 4.563,4.132 4.563,4.809 V 8.116 L 5.172,8.247 V 8.481 H 3.828 L 3.729,7.991 Q 3.136,8.585 2.214,8.585 0.9585,8.585 0.9585,7.127 0.9585,6.637 1.146,6.32 1.339,5.997 1.755,5.83 2.172,5.658 2.964,5.642 L 3.698,5.622 V 4.856 Q 3.698,4.351 3.511,4.111 3.328,3.872 2.943,3.872 2.422,3.872 1.99,4.116 L 1.813,4.726 H 1.521 V 3.658 Q 2.365,3.476 3.005,3.476 Z M 3.698,5.986 3.016,6.007 Q 2.318,6.033 2.068,6.278 1.823,6.523 1.823,7.096 1.823,8.012 2.568,8.012 2.922,8.012 3.177,7.934 3.438,7.851 3.698,7.726 Z"




 />
  <path
 d="M 14.53,7.241 V 8.064 Q 13.63,6.866 12.02,6.221 10.41,5.575 8.578,5.434 V 4.731 Q 10.41,4.59 12.02,3.945 13.63,3.299 14.53,2.106 V 2.929 Q 14.15,3.57 13.1,4.174 12.05,4.773 10.96,5.085 12.05,5.392 13.1,5.997 14.15,6.601 14.53,7.241 Z M 14.53,9.257 V 10.09 Q 14.01,9.439 13.22,8.929 12.43,8.424 11.58,8.148 10.73,7.872 9.995,7.721 9.261,7.57 8.578,7.528 V 6.825 Q 10.15,6.887 11.82,7.491 13.5,8.096 14.53,9.257 Z"
 />
  <path
 d="M 21.78,5.898 Q 21.78,4.939 21.45,4.471 21.11,4.002 20.42,4.002 20.11,4.002 19.81,4.059 19.51,4.111 19.37,4.174 V 8.054 Q 19.81,8.137 20.42,8.137 21.14,8.137 21.46,7.575 21.78,7.012 21.78,5.898 Z M 18.51,1.439 17.79,1.314 V 1.08 H 19.37 V 2.83 Q 19.37,3.111 19.34,3.861 19.86,3.455 20.65,3.455 21.65,3.455 22.18,4.064 22.72,4.668 22.72,5.898 22.72,7.215 22.13,7.903 21.55,8.585 20.44,8.585 19.99,8.585 19.45,8.486 18.91,8.387 18.51,8.226 Z"




 />
</svg>