<?xml version="1.0" encoding="UTF-8" ?>
<svg xmlns="http://www.w3.org/2000/svg" version="1.1">
  <path
 d="M 3.122,3.396 Q 3.924,3.396 4.299,3.724 4.679,4.052 4.679,4.729 V 8.036 L 5.289,8.167 V 8.401 H 3.945 L 3.846,7.911 Q 3.252,8.505 2.33,8.505 1.075,8.505 1.075,7.047 1.075,6.557 1.263,6.24 1.455,5.917 1.872,5.75 2.289,5.578 3.08,5.562 L 3.815,5.542 V 4.776 Q 3.815,4.271 3.627,4.031 3.445,3.792 3.06,3.792 2.539,3.792 2.106,4.036 L 1.929,4.646 H 1.638 V 3.578 Q 2.481,3.396 3.122,3.396 Z M 3.815,5.906 3.132,5.927 Q 2.435,5.953 2.185,6.198 1.94,6.443 1.94,7.016 1.94,7.932 2.685,7.932 3.039,7.932 3.294,7.854 3.554,7.771 3.815,7.646 Z"





 />
  <path
 d="M 8.695,7.161 V 7.984 Q 9.591,6.786 11.2,6.141 12.81,5.495 14.64,5.354 V 4.651 Q 12.81,4.51 11.2,3.865 9.591,3.219 8.695,2.026 V 2.849 Q 9.07,3.49 10.12,4.094 11.17,4.693 12.26,5.005 11.17,5.312 10.12,5.917 9.07,6.521 8.695,7.161 Z M 8.695,9.177 V 10.01 Q 9.216,9.359 10,8.849 10.79,8.344 11.64,8.068 12.49,7.792 13.22,7.641 13.96,7.49 14.64,7.448 V 6.745 Q 13.08,6.807 11.4,7.411 9.721,8.016 8.695,9.177 Z"

 />
  <path
 d="M 21.9,5.818 Q 21.9,4.859 21.56,4.391 21.23,3.922 20.53,3.922 20.23,3.922 19.92,3.979 19.62,4.031 19.49,4.094 V 7.974 Q 19.92,8.057 20.53,8.057 21.25,8.057 21.58,7.495 21.9,6.932 21.9,5.818 Z M 18.62,1.359 17.91,1.234 V 0.9999 H 19.49 V 2.75 Q 19.49,3.031 19.46,3.781 19.98,3.375 20.77,3.375 21.77,3.375 22.3,3.984 22.84,4.588 22.84,5.818 22.84,7.135 22.25,7.823 21.66,8.505 20.55,8.505 20.11,8.505 19.56,8.406 19.03,8.307 18.62,8.146 Z"





 />
</svg>