<?xml version="1.0" encoding="UTF-8" ?>
<svg xmlns="http://www.w3.org/2000/svg" version="1.1">
  <path
 d="M 2.85,3.475 Q 3.652,3.475 4.027,3.803 4.407,4.131 4.407,4.808 V 8.115 L 5.016,8.246 V 8.48 H 3.673 L 3.574,7.99 Q 2.98,8.584 2.058,8.584 0.8029,8.584 0.8029,7.126 0.8029,6.636 0.9904,6.319 1.183,5.996 1.6,5.829 2.016,5.657 2.808,5.641 L 3.542,5.621 V 4.855 Q 3.542,4.35 3.355,4.11 3.173,3.871 2.787,3.871 2.266,3.871 1.834,4.115 L 1.657,4.725 H 1.365 V 3.657 Q 2.209,3.475 2.85,3.475 Z M 3.542,5.985 2.86,6.006 Q 2.162,6.032 1.912,6.277 1.667,6.522 1.667,7.095 1.667,8.011 2.412,8.011 2.766,8.011 3.022,7.933 3.282,7.85 3.542,7.725 Z"



 />
  <path
 d="M 14.37,5.147 V 5.855 Q 12.3,6.016 10.7,6.751 L 9.428,9.865 H 8.85 L 9.959,7.136 Q 9.001,7.714 8.423,8.48 V 7.657 Q 8.881,6.865 10.37,6.141 L 10.79,5.074 Q 8.923,4.24 8.423,3.345 V 2.522 Q 9.308,3.72 11.06,4.423 L 12.4,1.136 H 12.97 L 11.56,4.605 Q 12.93,5.053 14.37,5.147 Z M 11.3,5.277 11.07,5.819 Q 11.54,5.636 11.99,5.501 11.63,5.397 11.3,5.277 Z"
 />
  <path
 d="M 21.63,5.897 Q 21.63,4.938 21.29,4.47 20.96,4.001 20.26,4.001 19.95,4.001 19.65,4.058 19.35,4.11 19.21,4.173 V 8.053 Q 19.65,8.136 20.26,8.136 20.98,8.136 21.3,7.574 21.63,7.011 21.63,5.897 Z M 18.35,1.438 17.64,1.313 V 1.079 H 19.21 V 2.829 Q 19.21,3.11 19.18,3.86 19.7,3.454 20.5,3.454 21.5,3.454 22.03,4.063 22.56,4.667 22.56,5.897 22.56,7.214 21.97,7.902 21.39,8.584 20.28,8.584 19.83,8.584 19.29,8.485 18.76,8.386 18.35,8.225 Z"




 />
</svg>