<?xml version="1.0" encoding="UTF-8" ?>
<svg xmlns="http://www.w3.org/2000/svg" version="1.1">
  <path
 d="M 3.044,3.355 Q 3.847,3.355 4.222,3.683 4.602,4.011 4.602,4.688 V 7.995 L 5.211,8.126 V 8.36 H 3.867 L 3.768,7.87 Q 3.175,8.464 2.253,8.464 0.9976,8.464 0.9976,7.006 0.9976,6.516 1.185,6.199 1.378,5.876 1.794,5.709 2.211,5.537 3.003,5.521 L 3.737,5.501 V 4.735 Q 3.737,4.23 3.55,3.99 3.367,3.751 2.982,3.751 2.461,3.751 2.029,3.995 L 1.852,4.605 H 1.56 V 3.537 Q 2.404,3.355 3.044,3.355 Z M 3.737,5.865 3.055,5.886 Q 2.357,5.912 2.107,6.157 1.862,6.402 1.862,6.975 1.862,7.891 2.607,7.891 2.961,7.891 3.216,7.813 3.477,7.73 3.737,7.605 Z" />
  <path
 d="M 8.774,6.902 V 7.683 Q 9.628,6.547 11.16,5.933 12.7,5.313 14.43,5.183 V 4.511 Q 12.7,4.381 11.16,3.766 9.628,3.152 8.774,2.016 V 2.797 Q 9.128,3.407 10.13,3.98 11.13,4.553 12.16,4.85 11.13,5.146 10.13,5.719 9.128,6.292 8.774,6.902 Z M 8.935,8.251 H 8.602 Q 8.654,9.001 9.086,9.662 9.524,10.32 10.21,10.32 10.62,10.32 11.16,9.995 11.71,9.673 12.21,9.344 12.71,9.021 13,9.021 13.5,9.021 13.8,9.417 14.11,9.813 14.25,10.42 H 14.58 Q 14.54,9.6 14.09,8.975 13.64,8.355 12.92,8.355 12.51,8.355 11.97,8.678 11.42,9.001 10.92,9.324 10.43,9.652 10.12,9.652 9.232,9.652 8.935,8.251 Z"
 />
  <path
 d="M 21.82,5.777 Q 21.82,4.818 21.49,4.35 21.15,3.881 20.46,3.881 20.15,3.881 19.85,3.938 19.54,3.99 19.41,4.053 V 7.933 Q 19.85,8.016 20.46,8.016 21.17,8.016 21.5,7.454 21.82,6.891 21.82,5.777 Z M 18.54,1.318 17.83,1.193 V 0.9589 H 19.41 V 2.709 Q 19.41,2.99 19.38,3.74 19.9,3.334 20.69,3.334 21.69,3.334 22.22,3.943 22.76,4.547 22.76,5.777 22.76,7.094 22.17,7.782 21.59,8.464 20.48,8.464 20.03,8.464 19.49,8.365 18.95,8.266 18.54,8.105 Z"
 />
</svg>