<?xml version="1.0" encoding="UTF-8" ?>
<svg xmlns="http://www.w3.org/2000/svg" version="1.1">
  <path
 d="M 2.764,3.821 Q 3.666,3.821 4.088,4.19 4.516,4.559 4.516,5.321 V 9.042 L 5.201,9.188 V 9.452 H 3.689 L 3.578,8.901 Q 2.91,9.569 1.873,9.569 0.4608,9.569 0.4608,7.929 0.4608,7.378 0.6718,7.02 0.8885,6.657 1.357,6.47 1.826,6.276 2.717,6.259 L 3.543,6.235 V 5.374 Q 3.543,4.806 3.332,4.536 3.127,4.266 2.693,4.266 2.107,4.266 1.621,4.542 L 1.422,5.227 H 1.094 V 4.026 Q 2.043,3.821 2.764,3.821 Z M 3.543,6.645 2.775,6.669 Q 1.99,6.698 1.709,6.973 1.433,7.249 1.433,7.893 1.433,8.925 2.271,8.925 2.67,8.925 2.957,8.837 3.25,8.743 3.543,8.602 Z"
 />
  <path
 d="M 11.87,1.507 V 8.889 H 15.3 V 9.452 H 7.84 V 8.889 H 11.31 V 1.507 Z"



 />
  <path
 d="M 22.24,6.546 Q 22.24,5.468 21.86,4.94 21.49,4.413 20.7,4.413 20.36,4.413 20.02,4.477 19.68,4.536 19.53,4.606 V 8.972 Q 20.02,9.065 20.7,9.065 21.51,9.065 21.87,8.432 22.24,7.8 22.24,6.546 Z M 18.55,1.53 17.75,1.389 V 1.126 H 19.53 V 3.095 Q 19.53,3.411 19.49,4.255 20.08,3.798 20.97,3.798 22.09,3.798 22.69,4.483 23.29,5.163 23.29,6.546 23.29,8.028 22.63,8.802 21.97,9.569 20.73,9.569 20.22,9.569 19.61,9.458 19.01,9.347 18.55,9.165 Z"
 />
</svg>