<?xml version="1.0" encoding="UTF-8" ?>
<svg xmlns="http://www.w3.org/2000/svg" version="1.1">
  <path
 d="M 2.88,3.9 Q 3.782,3.9 4.204,4.269 4.632,4.638 4.632,5.4 V 9.121 L 5.317,9.267 V 9.531 H 3.806 L 3.694,8.98 Q 3.026,9.648 1.989,9.648 0.5772,9.648 0.5772,8.008 0.5772,7.457 0.7881,7.099 1.005,6.736 1.474,6.549 1.942,6.355 2.833,6.338 L 3.659,6.314 V 5.453 Q 3.659,4.885 3.448,4.615 3.243,4.345 2.81,4.345 2.224,4.345 1.737,4.621 L 1.538,5.306 H 1.21 V 4.105 Q 2.159,3.9 2.88,3.9 Z M 3.659,6.724 2.892,6.748 Q 2.106,6.777 1.825,7.052 1.55,7.328 1.55,7.972 1.55,9.004 2.388,9.004 2.786,9.004 3.073,8.916 3.366,8.822 3.659,8.681 Z"




 />
  <path
 d="M 12.12,5.629 Q 11.83,5.113 11.44,4.855 11.06,4.597 10.56,4.597 9.966,4.597 9.591,4.99 9.216,5.377 9.216,5.992 9.216,6.584 9.562,6.976 9.907,7.369 10.43,7.369 10.9,7.369 11.28,6.982 11.67,6.595 12.12,5.629 Z M 14.3,8.213 Q 13.87,8.213 13.43,7.873 13.01,7.527 12.54,6.701 12.12,7.498 11.67,7.867 11.21,8.236 10.66,8.236 9.866,8.236 9.315,7.58 8.771,6.924 8.771,5.957 8.771,4.931 9.257,4.299 9.749,3.666 10.53,3.666 11.09,3.666 11.53,4.029 11.97,4.386 12.41,5.213 12.81,4.404 13.27,4.023 13.73,3.636 14.3,3.636 V 4.515 Q 14.06,4.515 13.67,4.908 13.29,5.295 12.84,6.256 13.13,6.777 13.52,7.041 13.91,7.299 14.3,7.299 Z"

 />
  <path
 d="M 22.1,6.625 Q 22.1,5.547 21.72,5.019 21.35,4.492 20.56,4.492 20.22,4.492 19.88,4.556 19.54,4.615 19.38,4.685 V 9.051 Q 19.88,9.144 20.56,9.144 21.37,9.144 21.73,8.511 22.1,7.879 22.1,6.625 Z M 18.41,1.609 17.61,1.469 V 1.205 H 19.38 V 3.174 Q 19.38,3.49 19.35,4.334 19.93,3.877 20.83,3.877 21.95,3.877 22.55,4.562 23.15,5.242 23.15,6.625 23.15,8.107 22.49,8.881 21.83,9.648 20.58,9.648 20.08,9.648 19.47,9.537 18.87,9.426 18.41,9.244 Z"
 />
</svg>