<?xml version="1.0" encoding="UTF-8" ?>
<svg xmlns="http://www.w3.org/2000/svg" version="1.1">
  <path
 d="M 3.105,4.094 Q 4.108,4.094 4.577,4.504 5.052,4.914 5.052,5.76 V 9.894 L 5.813,10.06 V 10.35 H 4.134 L 4.01,9.738 Q 3.268,10.48 2.116,10.48 0.5466,10.48 0.5466,8.657 0.5466,8.045 0.781,7.648 1.022,7.245 1.543,7.036 2.064,6.821 3.053,6.802 L 3.971,6.776 V 5.819 Q 3.971,5.187 3.737,4.888 3.509,4.588 3.027,4.588 2.376,4.588 1.836,4.894 L 1.614,5.656 H 1.25 V 4.321 Q 2.304,4.094 3.105,4.094 Z M 3.971,7.232 3.118,7.258 Q 2.246,7.29 1.933,7.596 1.627,7.902 1.627,8.618 1.627,9.764 2.558,9.764 3.001,9.764 3.32,9.666 3.646,9.562 3.971,9.406 Z" />
  <path
 d="M 13.21,4.256 H 14.75 V 4.92 H 12.75 L 11.35,6.926 H 14.75 V 7.59 H 10.88 L 9.591,9.439 H 8.79 L 10.08,7.59 H 8.543 V 6.926 H 10.54 L 11.94,4.92 H 8.543 V 4.256 H 12.4 L 13.69,2.407 H 14.51 Z"


 />
  <path
 d="M 22.29,7.121 Q 22.29,5.923 21.88,5.337 21.46,4.751 20.59,4.751 20.2,4.751 19.83,4.823 19.45,4.888 19.28,4.966 V 9.816 Q 19.83,9.92 20.59,9.92 21.49,9.92 21.89,9.217 22.29,8.514 22.29,7.121 Z M 18.2,1.548 17.31,1.392 V 1.099 H 19.28 V 3.286 Q 19.28,3.638 19.24,4.575 19.89,4.067 20.88,4.067 22.13,4.067 22.8,4.829 23.47,5.584 23.47,7.121 23.47,8.768 22.73,9.627 22,10.48 20.61,10.48 20.05,10.48 19.38,10.36 18.71,10.23 18.2,10.03 Z"
 />
</svg>