<?xml version="1.0" encoding="UTF-8" ?>
<svg xmlns="http://www.w3.org/2000/svg" version="1.1">
  <path
 d="M 3.027,4.214 Q 4.03,4.214 4.498,4.624 4.974,5.034 4.974,5.88 V 10.01 L 5.735,10.18 V 10.47 H 4.056 L 3.932,9.858 Q 3.19,10.6 2.037,10.6 0.4684,10.6 0.4684,8.777 0.4684,8.165 0.7027,7.768 0.9436,7.365 1.464,7.156 1.985,6.941 2.975,6.922 L 3.893,6.896 V 5.939 Q 3.893,5.307 3.658,5.008 3.431,4.708 2.949,4.708 2.298,4.708 1.757,5.014 L 1.536,5.776 H 1.171 V 4.441 Q 2.226,4.214 3.027,4.214 Z M 3.893,7.352 3.04,7.378 Q 2.168,7.41 1.855,7.716 1.549,8.022 1.549,8.738 1.549,9.884 2.48,9.884 2.923,9.884 3.242,9.786 3.567,9.682 3.893,9.526 Z"


 />
  <path
 d="M 14.78,7.046 V 7.71 H 8.575 V 7.046 Z M 14.78,4.376 V 5.04 H 8.575 V 4.376 Z"


 />
  <path
 d="M 22.42,7.241 Q 22.42,6.043 22.01,5.457 21.59,4.871 20.72,4.871 20.33,4.871 19.96,4.943 19.58,5.008 19.41,5.086 V 9.936 Q 19.96,10.04 20.72,10.04 21.62,10.04 22.02,9.337 22.42,8.634 22.42,7.241 Z M 18.33,1.668 17.44,1.512 V 1.219 H 19.41 V 3.406 Q 19.41,3.758 19.37,4.695 20.02,4.187 21.01,4.187 22.26,4.187 22.93,4.949 23.6,5.704 23.6,7.241 23.6,8.888 22.86,9.747 22.13,10.6 20.74,10.6 20.18,10.6 19.51,10.48 18.84,10.35 18.33,10.15 Z"
 />
</svg>