<?xml version="1.0" encoding="UTF-8" ?>
<svg xmlns="http://www.w3.org/2000/svg" version="1.1">
  <path
 d="M 3.027,4.214 Q 4.03,4.214 4.499,4.624 4.974,5.034 4.974,5.88 V 10.01 L 5.736,10.18 V 10.47 H 4.056 L 3.932,9.858 Q 3.19,10.6 2.038,10.6 0.4688,10.6 0.4688,8.777 0.4688,8.165 0.7032,7.768 0.944,7.365 1.465,7.156 1.986,6.941 2.975,6.922 L 3.893,6.896 V 5.939 Q 3.893,5.307 3.659,5.008 3.431,4.708 2.949,4.708 2.298,4.708 1.758,5.014 L 1.536,5.776 H 1.172 V 4.441 Q 2.227,4.214 3.027,4.214 Z M 3.893,7.352 3.04,7.378 Q 2.168,7.41 1.855,7.716 1.55,8.022 1.55,8.738 1.55,9.884 2.48,9.884 2.923,9.884 3.242,9.786 3.568,9.682 3.893,9.526 Z"




 />
  <path
 d="M 8.465,6.206 V 5.88 L 14.67,2.827 V 3.497 L 9.402,6.043 14.67,8.588 V 9.259 Z M 14.67,9.806 V 10.47 H 8.465 V 9.806 Z" />
  <path
 d="M 22.22,7.241 Q 22.22,6.043 21.8,5.457 21.38,4.871 20.51,4.871 20.13,4.871 19.75,4.943 19.37,5.008 19.2,5.086 V 9.936 Q 19.75,10.04 20.51,10.04 21.41,10.04 21.81,9.337 22.22,8.634 22.22,7.241 Z M 18.12,1.668 17.23,1.512 V 1.219 H 19.2 V 3.406 Q 19.2,3.758 19.16,4.695 19.81,4.187 20.8,4.187 22.05,4.187 22.72,4.949 23.39,5.704 23.39,7.241 23.39,8.888 22.65,9.747 21.92,10.6 20.54,10.6 19.98,10.6 19.3,10.48 18.63,10.35 18.12,10.15 Z"
 />
</svg>