<?xml version="1.0" encoding="UTF-8" ?>
<svg xmlns="http://www.w3.org/2000/svg" version="1.1">
  <path
 d="M 3.144,4.174 Q 4.147,4.174 4.615,4.584 5.091,4.994 5.091,5.84 V 9.974 L 5.852,10.14 V 10.43 H 4.173 L 4.049,9.818 Q 3.307,10.56 2.154,10.56 0.5854,10.56 0.5854,8.737 0.5854,8.125 0.8198,7.728 1.061,7.325 1.582,7.116 2.102,6.901 3.092,6.882 L 4.01,6.856 V 5.899 Q 4.01,5.267 3.776,4.968 3.548,4.668 3.066,4.668 2.415,4.668 1.875,4.974 L 1.653,5.736 H 1.289 V 4.401 Q 2.343,4.174 3.144,4.174 Z M 4.01,7.312 3.157,7.338 Q 2.285,7.37 1.972,7.676 1.666,7.982 1.666,8.698 1.666,9.844 2.597,9.844 3.04,9.844 3.359,9.746 3.684,9.642 4.01,9.486 Z"

 />
  <path
 d="M 13.11,5.801 Q 12.42,5.801 11.51,5.013 11.03,4.603 10.71,4.421 10.4,4.232 10.15,4.232 9.649,4.232 9.395,4.59 9.141,4.942 9.057,5.801 H 8.399 Q 8.516,4.584 8.946,4.076 9.382,3.562 10.15,3.562 10.52,3.562 10.9,3.75 11.29,3.939 11.78,4.349 12.34,4.818 12.6,4.981 12.88,5.137 13.11,5.137 13.56,5.137 13.81,4.799 14.06,4.453 14.19,3.562 H 14.86 Q 14.75,4.408 14.54,4.857 14.33,5.306 13.99,5.554 13.64,5.801 13.11,5.801 Z M 13.11,8.47 Q 12.42,8.47 11.51,7.683 11.03,7.272 10.71,7.09 10.4,6.901 10.15,6.901 9.649,6.901 9.395,7.259 9.141,7.611 9.057,8.47 H 8.399 Q 8.516,7.253 8.946,6.745 9.382,6.231 10.15,6.231 10.52,6.231 10.9,6.42 11.29,6.608 11.78,7.019 12.34,7.487 12.6,7.65 12.88,7.806 13.11,7.806 13.56,7.806 13.81,7.468 14.06,7.123 14.19,6.231 H 14.86 Q 14.75,7.077 14.54,7.526 14.33,7.976 13.99,8.223 13.64,8.47 13.11,8.47 Z"
 />
  <path
 d="M 22.33,7.201 Q 22.33,6.003 21.92,5.417 21.5,4.831 20.63,4.831 20.24,4.831 19.87,4.903 19.49,4.968 19.32,5.046 V 9.896 Q 19.87,10 20.63,10 21.53,10 21.93,9.297 22.33,8.594 22.33,7.201 Z M 18.24,1.628 17.35,1.472 V 1.179 H 19.32 V 3.366 Q 19.32,3.718 19.28,4.655 19.93,4.147 20.92,4.147 22.17,4.147 22.83,4.909 23.5,5.664 23.5,7.201 23.5,8.848 22.77,9.707 22.04,10.56 20.65,10.56 20.09,10.56 19.42,10.44 18.75,10.31 18.24,10.11 Z" />
</svg>