<?xml version="1.0" encoding="UTF-8" ?>
<svg xmlns="http://www.w3.org/2000/svg" version="1.1">
  <path
 d="M 3.027,3.974 Q 4.03,3.974 4.499,4.384 4.974,4.794 4.974,5.64 V 9.774 L 5.736,9.937 V 10.23 H 4.056 L 3.932,9.618 Q 3.19,10.36 2.038,10.36 0.4687,10.36 0.4687,8.537 0.4687,7.925 0.7031,7.528 0.944,7.125 1.465,6.916 1.986,6.701 2.975,6.682 L 3.893,6.656 V 5.699 Q 3.893,5.067 3.659,4.768 3.431,4.468 2.949,4.468 2.298,4.468 1.758,4.774 L 1.536,5.536 H 1.172 V 4.201 Q 2.227,3.974 3.027,3.974 Z M 3.893,7.112 3.04,7.138 Q 2.168,7.17 1.855,7.476 1.549,7.782 1.549,8.498 1.549,9.644 2.48,9.644 2.923,9.644 3.242,9.546 3.568,9.442 3.893,9.286 Z"
 />
  <path
 d="M 14.78,7.391 V 8.056 H 8.575 V 7.391 Z M 14.78,3.55 V 4.214 H 8.575 V 3.55 Z M 14.78,5.471 V 6.135 H 8.575 V 5.471 Z"


 />
  <path
 d="M 22.42,7.001 Q 22.42,5.803 22.01,5.217 21.59,4.631 20.72,4.631 20.33,4.631 19.96,4.703 19.58,4.768 19.41,4.846 V 9.696 Q 19.96,9.8 20.72,9.8 21.62,9.8 22.02,9.097 22.42,8.394 22.42,7.001 Z M 18.33,1.428 17.44,1.272 V 0.9787 H 19.41 V 3.166 Q 19.41,3.518 19.37,4.455 20.02,3.947 21.01,3.947 22.26,3.947 22.93,4.709 23.6,5.464 23.6,7.001 23.6,8.648 22.86,9.507 22.13,10.36 20.74,10.36 20.18,10.36 19.51,10.24 18.84,10.11 18.33,9.911 Z" />
</svg>