<?xml version="1.0" encoding="UTF-8" ?>
<svg xmlns="http://www.w3.org/2000/svg" version="1.1">
 <path
 d="M 0.1832,5.475 H 4.147 L 2.639,2.842 H 2.725 L 5.483,5.577 V 1.402 H 6.748 V 10.34 H 5.483 V 6.639 L 2.725,9.374 H 2.639 L 4.147,6.741 H 0.1832 Z"
 />
  <path
 d="M 12,1.911 Q 13.41,1.911 14.06,2.485 14.73,3.059 14.73,4.244 V 10.03 L 15.79,10.26 V 10.67 H 13.44 L 13.27,9.813 Q 12.23,10.85 10.62,10.85 8.42,10.85 8.42,8.3 8.42,7.443 8.748,6.887 9.086,6.322 9.815,6.031 10.54,5.73 11.93,5.703 L 13.21,5.666 V 4.326 Q 13.21,3.442 12.89,3.023 12.57,2.604 11.89,2.604 10.98,2.604 10.22,3.032 L 9.915,4.098 H 9.405 V 2.23 Q 10.88,1.911 12,1.911 Z M 13.21,6.304 12.02,6.341 Q 10.8,6.386 10.36,6.815 9.933,7.243 9.933,8.246 9.933,9.85 11.24,9.85 11.86,9.85 12.3,9.713 12.76,9.567 13.21,9.348 Z"
 />
  <path
 d="M 23.85,6.754 20.1,6.701 21.6,9.334 H 21.52 L 18.76,6.599 V 10.09 H 17.49 L 17.54,1.626 H 18.81 L 18.76,5.537 21.52,2.802 H 21.6 L 20.1,5.435 23.85,5.488 Z" />
</svg>