<?xml version="1.0" encoding="UTF-8" ?>
<svg xmlns="http://www.w3.org/2000/svg" version="1.1">
  <path
 d="M 3.167,0.8938 Q 3.969,0.8938 4.344,1.222 4.724,1.55 4.724,2.227 V 5.534 L 5.333,5.665 V 5.899 H 3.99 L 3.891,5.409 Q 3.297,6.003 2.375,6.003 1.12,6.003 1.12,4.545 1.12,4.055 1.307,3.738 1.5,3.415 1.917,3.248 2.333,3.076 3.125,3.06 L 3.859,3.04 V 2.274 Q 3.859,1.769 3.672,1.529 3.49,1.29 3.104,1.29 2.583,1.29 2.151,1.534 L 1.974,2.144 H 1.682 V 1.076 Q 2.526,0.8938 3.167,0.8938 Z M 3.859,3.404 3.177,3.425 Q 2.479,3.451 2.229,3.696 1.984,3.941 1.984,4.514 1.984,5.43 2.729,5.43 3.083,5.43 3.338,5.352 3.599,5.269 3.859,5.144 Z" />
  <path
 d="M 4.067,11.02 Q 4.067,10.3 3.817,9.952 3.567,9.601 3.044,9.601 2.813,9.601 2.587,9.644 2.36,9.683 2.259,9.73 V 12.64 Q 2.587,12.7 3.044,12.7 3.583,12.7 3.825,12.28 4.067,11.86 4.067,11.02 Z M 1.61,7.679 1.075,7.585 V 7.409 H 2.259 V 8.722 Q 2.259,8.933 2.235,9.495 2.626,9.19 3.22,9.19 3.97,9.19 4.368,9.648 4.77,10.1 4.77,11.02 4.77,12.01 4.329,12.53 3.891,13.04 3.059,13.04 2.723,13.04 2.317,12.96 1.915,12.89 1.61,12.77 Z"
 />
  <path
  d="M 5.079,19.35 Q 4.824,19.54 4.376,19.65 3.928,19.75 3.459,19.75 1.079,19.75 1.079,17.17 1.079,15.94 1.683,15.29 2.292,14.62 3.423,14.62 4.126,14.62 4.959,14.79 V 16.15 H 4.673 L 4.449,15.29 Q 4.016,15.04 3.412,15.04 2.016,15.04 2.016,17.17 2.016,18.27 2.438,18.74 2.865,19.21 3.756,19.21 4.516,19.21 5.079,19.04 Z"

 />
</svg>