<?xml version="1.0" encoding="UTF-8" ?>
<svg xmlns="http://www.w3.org/2000/svg" version="1.1">
  <path
 d="M 17.8,1.651 Q 19.2,1.651 19.86,2.225 20.52,2.799 20.52,3.984 V 9.772 L 21.59,10 V 10.41 H 19.24 L 19.07,9.553 Q 18.03,10.59 16.41,10.59 14.22,10.59 14.22,8.04 14.22,7.183 14.54,6.627 14.88,6.062 15.61,5.771 16.34,5.47 17.73,5.443 L 19.01,5.406 V 4.066 Q 19.01,3.182 18.68,2.763 18.36,2.344 17.69,2.344 16.78,2.344 16.02,2.772 L 15.71,3.838 H 15.2 V 1.97 Q 16.68,1.651 17.8,1.651 Z M 19.01,6.044 17.82,6.081 Q 16.6,6.126 16.16,6.555 15.73,6.983 15.73,7.986 15.73,9.59 17.03,9.59 17.65,9.59 18.1,9.453 18.55,9.307 19.01,9.088 Z"


 />
  <path
 d="M 1.798,6.272 5.007,3.062 H 6.608 L 3.966,5.705 H 13.13 V 6.838 H 3.966 L 6.608,9.481 H 5.007 Z"
 />
  <path
 style="stroke:#000000;stroke-width:1px;" d="M 1.307,0.6714 1.344,11.9"
 />
</svg>