<?xml version="1.0" encoding="UTF-8" ?>
<svg xmlns="http://www.w3.org/2000/svg" version="1.1">
  <path
 d="M 4.574,1.096 Q 5.978,1.096 6.634,1.67 7.299,2.244 7.299,3.429 V 9.217 L 8.366,9.445 V 9.855 H 6.014 L 5.841,8.998 Q 4.802,10.04 3.189,10.04 0.992,10.04 0.992,7.485 0.992,6.628 1.32,6.072 1.657,5.507 2.386,5.216 3.116,4.915 4.501,4.888 L 5.786,4.851 V 3.511 Q 5.786,2.627 5.458,2.208 5.139,1.789 4.465,1.789 3.553,1.789 2.797,2.217 L 2.487,3.283 H 1.976 V 1.415 Q 3.453,1.096 4.574,1.096 Z M 5.786,5.489 4.592,5.526 Q 3.371,5.571 2.933,6 2.505,6.428 2.505,7.431 2.505,9.035 3.808,9.035 4.428,9.035 4.875,8.898 5.331,8.752 5.786,8.533 Z" />
  <path
 d="M 21.56,5.674 18.52,2.629 H 17 L 19.51,5.136 H 10.81 V 6.211 H 19.51 L 17,8.718 H 18.52 Z"
 />
  <path
 style="stroke:#000000;stroke-width:1px;" d="M 20.6,0.6724 20.56,11.06"
 />
</svg>