<?xml version="1.0" encoding="UTF-8" ?>
<svg xmlns="http://www.w3.org/2000/svg" version="1.1">
  <path
 d="M 8.775,8.127 V 8.479 H 5.447 V 8.127 L 6.424,7.948 4.728,5.346 2.744,7.963 3.752,8.127 V 8.479 H 1.111 V 8.127 L 1.963,8.002 4.377,4.815 2.252,1.682 1.385,1.487 V 1.135 H 4.713 V 1.487 L 3.736,1.698 5.15,3.807 6.775,1.682 5.767,1.487 V 1.135 H 8.408 V 1.487 L 7.564,1.651 5.502,4.323 7.916,7.963 Z" />
  <path
 d="M 7.014,14.14 Q 7.014,13.18 6.68,12.71 6.347,12.24 5.649,12.24 5.342,12.24 5.04,12.3 4.738,12.35 4.602,12.41 V 16.29 Q 5.04,16.38 5.649,16.38 6.368,16.38 6.691,15.81 7.014,15.25 7.014,14.14 Z M 3.738,9.678 3.024,9.553 V 9.319 H 4.602 V 11.07 Q 4.602,11.35 4.571,12.1 5.092,11.69 5.883,11.69 6.883,11.69 7.415,12.3 7.951,12.91 7.951,14.14 7.951,15.45 7.363,16.14 6.779,16.82 5.67,16.82 5.222,16.82 4.68,16.73 4.144,16.63 3.738,16.46 Z"
 />
</svg>