<?xml version="1.0" encoding="UTF-8" ?>
<svg xmlns="http://www.w3.org/2000/svg" version="1.1">
  <path
 d="M 8.774,8.085 V 8.437 H 5.446 V 8.085 L 6.423,7.906 4.728,5.304 2.743,7.921 3.751,8.085 V 8.437 H 1.11 V 8.085 L 1.962,7.96 4.376,4.773 2.251,1.64 1.384,1.445 V 1.093 H 4.712 V 1.445 L 3.735,1.656 5.149,3.765 6.774,1.64 5.767,1.445 V 1.093 H 8.407 V 1.445 L 7.564,1.609 5.501,4.281 7.915,7.921 Z" />
  <path
 d="M 12.63,10.21 Q 12.63,9.371 12.34,8.961 12.05,8.551 11.44,8.551 11.17,8.551 10.9,8.601 10.64,8.646 10.52,8.701 V 12.1 Q 10.9,12.17 11.44,12.17 12.07,12.17 12.35,11.68 12.63,11.18 12.63,10.21 Z M 9.764,6.309 9.14,6.199 V 5.994 H 10.52 V 7.525 Q 10.52,7.771 10.49,8.428 10.95,8.072 11.64,8.072 12.52,8.072 12.98,8.605 13.45,9.134 13.45,10.21 13.45,11.36 12.94,11.96 12.43,12.56 11.46,12.56 11.06,12.56 10.59,12.47 10.12,12.39 9.764,12.25 Z"
 />
</svg>