<?xml version="1.0" encoding="UTF-8" ?>
<svg xmlns="http://www.w3.org/2000/svg" version="1.1">
  <path
 d="M 4.553,4.791 Q 5.355,4.791 5.73,5.119 6.11,5.447 6.11,6.124 V 9.431 L 6.72,9.562 V 9.796 H 5.376 L 5.277,9.306 Q 4.683,9.9 3.761,9.9 2.506,9.9 2.506,8.442 2.506,7.952 2.694,7.635 2.886,7.312 3.303,7.145 3.72,6.973 4.511,6.957 L 5.246,6.937 V 6.171 Q 5.246,5.666 5.058,5.426 4.876,5.187 4.49,5.187 3.97,5.187 3.537,5.431 L 3.36,6.041 H 3.069 V 4.973 Q 3.912,4.791 4.553,4.791 Z M 5.246,7.301 4.563,7.322 Q 3.865,7.348 3.615,7.593 3.371,7.838 3.371,8.411 3.371,9.327 4.115,9.327 4.47,9.327 4.725,9.249 4.985,9.166 5.246,9.041 Z" />
  <path
 d="M 9.126,9.379 10.55,9.52 V 9.796 H 6.798 V 9.52 L 8.23,9.379 V 3.681 L 6.819,4.187 V 3.911 L 8.855,2.754 H 9.126 Z" />
  <path
 d="M 15.16,4.787 Q 15.96,4.787 16.34,5.115 16.72,5.443 16.72,6.12 V 9.427 L 17.33,9.558 V 9.792 H 15.98 L 15.89,9.302 Q 15.29,9.896 14.37,9.896 13.12,9.896 13.12,8.438 13.12,7.948 13.3,7.631 13.5,7.308 13.91,7.141 14.33,6.969 15.12,6.953 L 15.85,6.933 V 6.167 Q 15.85,5.662 15.67,5.422 15.48,5.183 15.1,5.183 14.58,5.183 14.15,5.427 L 13.97,6.037 H 13.68 V 4.969 Q 14.52,4.787 15.16,4.787 Z M 15.85,7.297 15.17,7.318 Q 14.47,7.344 14.22,7.589 13.98,7.834 13.98,8.407 13.98,9.323 14.72,9.323 15.08,9.323 15.33,9.245 15.59,9.162 15.85,9.037 Z"

 />
  <path
 d="M 21.21,9.792 H 16.94 V 9.026 L 17.91,8.146 Q 18.84,7.328 19.28,6.823 19.71,6.318 19.9,5.782 20.09,5.245 20.09,4.552 20.09,3.875 19.79,3.521 19.48,3.167 18.78,3.167 18.51,3.167 18.21,3.245 17.92,3.318 17.7,3.443 L 17.52,4.297 H 17.17 V 2.953 Q 18.12,2.729 18.78,2.729 19.93,2.729 20.5,3.209 21.08,3.683 21.08,4.552 21.08,5.136 20.85,5.657 20.63,6.172 20.16,6.688 19.69,7.198 18.6,8.12 18.14,8.516 17.62,8.99 H 21.21 Z" />
  <path
 d="M 4.756,13.86 Q 5.558,13.86 5.933,14.19 6.313,14.52 6.313,15.2 V 18.51 L 6.923,18.64 V 18.87 H 5.579 L 5.48,18.38 Q 4.886,18.97 3.964,18.97 2.709,18.97 2.709,17.52 2.709,17.03 2.897,16.71 3.089,16.39 3.506,16.22 3.923,16.05 4.714,16.03 L 5.449,16.01 V 15.24 Q 5.449,14.74 5.261,14.5 5.079,14.26 4.693,14.26 4.173,14.26 3.74,14.51 L 3.563,15.11 H 3.272 V 14.05 Q 4.115,13.86 4.756,13.86 Z M 5.449,16.38 4.766,16.4 Q 4.068,16.42 3.818,16.67 3.574,16.91 3.574,17.48 3.574,18.4 4.318,18.4 4.673,18.4 4.928,18.32 5.188,18.24 5.449,18.11 Z"
 />
  <path
 d="M 10.98,16.97 Q 10.98,17.91 10.33,18.44 9.688,18.97 8.506,18.97 7.516,18.97 6.631,18.75 L 6.574,17.28 H 6.917 L 7.152,18.26 Q 7.355,18.38 7.725,18.46 8.1,18.54 8.423,18.54 9.24,18.54 9.631,18.17 10.02,17.79 10.02,16.92 10.02,16.23 9.662,15.88 9.303,15.52 8.548,15.48 L 7.803,15.44 V 15.01 L 8.548,14.96 Q 9.136,14.93 9.417,14.6 9.699,14.27 9.699,13.59 9.699,12.89 9.391,12.57 9.089,12.24 8.423,12.24 8.147,12.24 7.844,12.32 7.542,12.4 7.313,12.52 L 7.131,13.38 H 6.787 V 12.03 Q 7.303,11.9 7.678,11.85 8.053,11.81 8.423,11.81 10.66,11.81 10.66,13.53 10.66,14.25 10.26,14.68 9.865,15.11 9.136,15.21 10.08,15.32 10.53,15.76 10.98,16.19 10.98,16.97 Z"

 />
  <path
 d="M 15.15,13.77 Q 15.95,13.77 16.33,14.1 16.71,14.43 16.71,15.11 V 18.42 L 17.32,18.55 V 18.78 H 15.97 L 15.88,18.29 Q 15.28,18.88 14.36,18.88 13.11,18.88 13.11,17.43 13.11,16.94 13.29,16.62 13.49,16.3 13.9,16.13 14.32,15.96 15.11,15.94 L 15.84,15.92 V 15.15 Q 15.84,14.65 15.66,14.41 15.47,14.17 15.09,14.17 14.57,14.17 14.14,14.42 L 13.96,15.02 H 13.67 V 13.96 Q 14.51,13.77 15.15,13.77 Z M 15.84,16.29 15.16,16.31 Q 14.46,16.33 14.21,16.58 13.97,16.82 13.97,17.39 13.97,18.31 14.71,18.31 15.07,18.31 15.32,18.23 15.58,18.15 15.84,18.02 Z"
 />
  <path
 d="M 20.68,17.24 V 18.78 H 19.78 V 17.24 H 16.67 V 16.55 L 20.08,11.76 H 20.68 V 16.5 H 21.63 V 17.24 Z M 19.78,12.98 H 19.76 L 17.26,16.5 H 19.78 Z"
 />
</svg>