<?xml version="1.0" encoding="UTF-8" ?>
<svg xmlns="http://www.w3.org/2000/svg" version="1.1">
  <path
 d="M 12.83,5.169 Q 12.83,4.33 12.54,3.92 12.25,3.51 11.64,3.51 11.37,3.51 11.1,3.56 10.84,3.605 10.72,3.66 V 7.055 Q 11.1,7.128 11.64,7.128 12.27,7.128 12.55,6.636 12.83,6.144 12.83,5.169 Z M 9.964,1.268 9.34,1.158 V 0.9531 H 10.72 V 2.484 Q 10.72,2.73 10.69,3.387 11.15,3.031 11.84,3.031 12.72,3.031 13.18,3.564 13.65,4.093 13.65,5.169 13.65,6.322 13.14,6.923 12.63,7.52 11.66,7.52 11.26,7.52 10.79,7.434 10.32,7.347 9.964,7.206 Z"

 />
  <path
 d="M 8.701,12.61 V 12.96 H 5.373 V 12.61 L 6.349,12.43 4.654,9.827 2.67,12.44 3.677,12.61 V 12.96 H 1.037 V 12.61 L 1.888,12.48 4.302,9.296 2.177,6.163 1.31,5.968 V 5.616 H 4.638 V 5.968 L 3.662,6.179 5.076,8.288 6.701,6.163 5.693,5.968 V 5.616 H 8.334 V 5.968 L 7.49,6.132 5.427,8.804 7.842,12.44 Z"
 />
</svg>