<?xml version="1.0" encoding="UTF-8" ?>
<svg xmlns="http://www.w3.org/2000/svg" version="1.1">
  <path
 d="M 4.922,5.782 Q 4.922,4.823 4.589,4.355 4.256,3.886 3.558,3.886 3.25,3.886 2.948,3.943 2.646,3.995 2.511,4.058 V 7.938 Q 2.948,8.021 3.558,8.021 4.276,8.021 4.599,7.459 4.922,6.896 4.922,5.782 Z M 1.646,1.323 0.9327,1.198 V 0.9639 H 2.511 V 2.714 Q 2.511,2.995 2.48,3.745 3,3.339 3.792,3.339 4.792,3.339 5.323,3.948 5.86,4.552 5.86,5.782 5.86,7.099 5.271,7.787 4.688,8.469 3.579,8.469 3.131,8.469 2.589,8.37 2.052,8.271 1.646,8.11 Z"
 />
  <path
 d="M 14.9,13.77 V 14.12 H 11.57 V 13.77 L 12.55,13.59 10.85,10.99 8.867,13.6 9.875,13.77 V 14.12 H 7.235 V 13.77 L 8.086,13.64 10.5,10.46 8.375,7.323 7.508,7.128 V 6.776 H 10.84 V 7.128 L 9.86,7.339 11.27,9.448 12.9,7.323 11.89,7.128 V 6.776 H 14.53 V 7.128 L 13.69,7.292 11.63,9.964 14.04,13.6 Z" />
</svg>