<?xml version="1.0" encoding="UTF-8" ?>
<svg xmlns="http://www.w3.org/2000/svg" version="1.1">
  <path
 d="M 3.545,0.9741 Q 4.448,0.9741 4.869,1.343 5.297,1.712 5.297,2.474 V 6.195 L 5.983,6.341 V 6.605 H 4.471 L 4.36,6.054 Q 3.692,6.722 2.655,6.722 1.242,6.722 1.242,5.082 1.242,4.531 1.453,4.173 1.67,3.81 2.139,3.623 2.608,3.429 3.498,3.412 L 4.325,3.388 V 2.527 Q 4.325,1.959 4.114,1.689 3.908,1.419 3.475,1.419 2.889,1.419 2.403,1.695 L 2.203,2.38 H 1.875 V 1.179 Q 2.825,0.9741 3.545,0.9741 Z M 4.325,3.798 3.557,3.822 Q 2.772,3.851 2.491,4.126 2.215,4.402 2.215,5.046 2.215,6.078 3.053,6.078 3.451,6.078 3.739,5.99 4.032,5.896 4.325,5.755 Z" />
  <path
 d="M 5.185,12.84 Q 5.185,11.88 4.851,11.41 4.518,10.94 3.82,10.94 3.513,10.94 3.211,11 2.909,11.05 2.773,11.11 V 14.99 Q 3.211,15.08 3.82,15.08 4.539,15.08 4.862,14.51 5.185,13.95 5.185,12.84 Z M 1.909,8.378 1.195,8.253 V 8.019 H 2.773 V 9.769 Q 2.773,10.05 2.742,10.8 3.263,10.39 4.054,10.39 5.054,10.39 5.586,11 6.122,11.61 6.122,12.84 6.122,14.15 5.534,14.84 4.95,15.52 3.841,15.52 3.393,15.52 2.851,15.43 2.315,15.33 1.909,15.16 Z"
 />
</svg>