<?xml version="1.0" encoding="UTF-8" ?>
<svg xmlns="http://www.w3.org/2000/svg" version="1.1">
  <path
 d="M 6.304,5.889 Q 6.304,4.93 5.97,4.462 5.637,3.993 4.939,3.993 4.632,3.993 4.33,4.05 4.028,4.102 3.892,4.165 V 8.045 Q 4.33,8.128 4.939,8.128 5.658,8.128 5.981,7.566 6.304,7.003 6.304,5.889 Z M 3.028,1.43 2.314,1.305 V 1.071 H 3.892 V 2.821 Q 3.892,3.102 3.861,3.852 4.382,3.446 5.173,3.446 6.173,3.446 6.705,4.055 7.241,4.659 7.241,5.889 7.241,7.206 6.653,7.894 6.069,8.576 4.96,8.576 4.512,8.576 3.97,8.477 3.434,8.378 3.028,8.217 Z" />
  <path
 d="M 8.738,16.59 V 16.94 H 5.41 V 16.59 L 6.386,16.41 4.691,13.81 2.707,16.42 3.715,16.59 V 16.94 H 1.074 V 16.59 L 1.925,16.46 4.34,13.28 2.215,10.14 1.347,9.948 V 9.596 H 4.675 V 9.948 L 3.699,10.16 5.113,12.27 6.738,10.14 5.73,9.948 V 9.596 H 8.371 V 9.948 L 7.527,10.11 5.465,12.78 7.879,16.42 Z" />
</svg>