<?xml version="1.0" encoding="UTF-8" ?>
<svg xmlns="http://www.w3.org/2000/svg" version="1.1">
  <path
 d="M 5.11,10.15 Q 5.11,9.188 4.776,8.72 4.443,8.251 3.745,8.251 3.438,8.251 3.136,8.308 2.834,8.36 2.698,8.423 V 12.3 Q 3.136,12.39 3.745,12.39 4.464,12.39 4.787,11.82 5.11,11.26 5.11,10.15 Z M 1.834,5.688 1.12,5.563 V 5.329 H 2.698 V 7.079 Q 2.698,7.36 2.667,8.11 3.188,7.704 3.979,7.704 4.979,7.704 5.511,8.313 6.047,8.917 6.047,10.15 6.047,11.46 5.459,12.15 4.875,12.83 3.766,12.83 3.318,12.83 2.776,12.74 2.24,12.64 1.834,12.47 Z" />
  <path
 d="M 15.04,8.162 V 8.514 H 11.72 V 8.162 L 12.69,7.983 11,5.381 9.013,7.998 10.02,8.162 V 8.514 H 7.381 V 8.162 L 8.232,8.037 10.65,4.85 8.521,1.717 7.654,1.522 V 1.17 H 10.98 V 1.522 L 10.01,1.733 11.42,3.842 13.04,1.717 12.04,1.522 V 1.17 H 14.68 V 1.522 L 13.83,1.686 11.77,4.358 14.19,7.998 Z"
 />
</svg>