<?xml version="1.0" encoding="UTF-8" ?>
<svg xmlns="http://www.w3.org/2000/svg" version="1.1">
  <path
 d="M 1.294,10.52 V 10.25 L 2.189,10.11 V 1.681 L 1.294,1.546 V 1.27 H 8.898 V 1.546 L 8.002,1.681 V 10.11 L 8.898,10.25 V 10.52 H 6.106 V 10.25 L 7.002,10.11 V 1.738 H 3.195 V 10.11 L 4.091,10.25 V 10.52 Z" />
  <path
 d="M 19,10.07 V 10.42 H 15.68 V 10.07 L 16.65,9.889 14.96,7.287 12.97,9.904 13.98,10.07 V 10.42 H 11.34 V 10.07 L 12.19,9.943 14.61,6.756 12.48,3.623 11.61,3.428 V 3.076 H 14.94 V 3.428 L 13.97,3.639 15.38,5.748 17,3.623 16,3.428 V 3.076 H 18.64 V 3.428 L 17.79,3.592 15.73,6.264 18.15,9.904 Z"



 />
</svg>