<?xml version="1.0" encoding="UTF-8" ?>
<svg xmlns="http://www.w3.org/2000/svg" version="1.1">
  <path
 d="M 11.5,13.97 Q 12.19,13.97 12.28,9.487 12.3,8.783 12.3,8.412 12.38,5.059 13,3.614 13.62,2.169 14.93,2.169 15.45,2.169 15.78,2.442 16.1,2.716 16.1,3.139 16.1,3.49 15.9,3.699 15.69,3.901 15.33,3.901 15.06,3.901 14.87,3.777 14.69,3.653 14.61,3.425 14.57,3.328 14.54,3.093 14.52,2.859 14.41,2.859 13.71,2.859 13.62,6.889 13.6,8.145 13.57,8.862 13.46,11.98 12.84,13.33 12.23,14.68 10.95,14.68 10.44,14.68 10.11,14.4 9.782,14.13 9.782,13.71 9.782,13.35 10,13.14 10.22,12.94 10.62,12.94 10.84,12.94 10.99,13.03 11.15,13.13 11.25,13.31 11.31,13.43 11.34,13.69 11.38,13.97 11.5,13.97 Z M 7.093,13.97 Q 7.783,13.97 7.875,9.487 7.888,8.783 7.894,8.412 7.972,5.059 8.591,3.614 9.209,2.169 10.52,2.169 11.05,2.169 11.37,2.442 11.7,2.716 11.7,3.139 11.7,3.49 11.49,3.699 11.28,3.901 10.92,3.901 10.65,3.901 10.47,3.777 10.28,3.653 10.21,3.425 10.17,3.328 10.13,3.093 10.11,2.859 10,2.859 9.307,2.859 9.216,6.889 9.19,8.145 9.164,8.862 9.053,11.98 8.434,13.33 7.822,14.68 6.546,14.68 6.032,14.68 5.7,14.4 5.375,14.13 5.375,13.71 5.375,13.35 5.596,13.14 5.817,12.94 6.214,12.94 6.429,12.94 6.585,13.03 6.742,13.13 6.839,13.31 6.904,13.43 6.937,13.69 6.97,13.97 7.093,13.97 Z M 2.686,13.97 Q 3.376,13.97 3.467,9.487 3.48,8.783 3.487,8.412 3.565,5.059 4.183,3.614 4.802,2.169 6.117,2.169 6.638,2.169 6.963,2.442 7.289,2.716 7.289,3.139 7.289,3.49 7.08,3.699 6.872,3.901 6.514,3.901 6.24,3.901 6.058,3.777 5.876,3.653 5.798,3.425 5.759,3.328 5.726,3.093 5.7,2.859 5.596,2.859 4.899,2.859 4.808,6.889 4.782,8.145 4.756,8.862 4.645,11.98 4.027,13.33 3.415,14.68 2.139,14.68 1.625,14.68 1.293,14.4 0.967,14.13 0.967,13.71 0.967,13.35 1.188,13.14 1.41,12.94 1.807,12.94 2.022,12.94 2.178,13.03 2.334,13.13 2.432,13.31 2.497,13.43 2.529,13.69 2.562,13.97 2.686,13.97 Z"

 />
  <path
 d="M 23.3,12.32 V 12.61 H 20.53 V 12.32 L 21.34,12.17 19.93,9.999 18.28,12.18 19.12,12.32 V 12.61 H 16.92 V 12.32 L 17.63,12.21 19.64,9.557 17.87,6.946 17.15,6.783 V 6.49 H 19.92 V 6.783 L 19.1,6.959 20.28,8.717 21.64,6.946 20.8,6.783 V 6.49 H 23 V 6.783 L 22.29,6.92 20.58,9.146 22.59,12.18 Z"




 />
</svg>