<?xml version="1.0" encoding="UTF-8" ?>
<svg xmlns="http://www.w3.org/2000/svg" version="1.1">
  <path
 d="M 11.1,12.04 V 12.25 L 8.196,16.49 H 10.51 Q 10.73,16.49 10.98,16.48 11.23,16.48 11.49,16.48 11.75,16.47 11.99,16.46 12.24,16.45 12.44,16.44 12.64,16.43 12.79,16.42 12.94,16.41 12.99,16.4 L 13.28,15.21 H 13.63 L 13.53,17.37 H 7.248 V 16.99 L 10.26,12.59 7.483,8.527 V 8.116 H 13.24 V 9.944 H 12.89 L 12.68,8.657 Q 12.18,8.595 11.57,8.595 10.96,8.595 10.84,8.595 L 8.738,8.584 Z" />
  <path
 d="M 3.17,18.53 Q 3.872,18.53 4.2,18.82 4.533,19.1 4.533,19.7 V 22.59 L 5.066,22.7 V 22.91 H 3.89 L 3.804,22.48 Q 3.284,23 2.477,23 1.379,23 1.379,21.73 1.379,21.3 1.543,21.02 1.712,20.74 2.076,20.59 2.441,20.44 3.134,20.43 L 3.776,20.41 V 19.74 Q 3.776,19.3 3.612,19.09 3.453,18.88 3.115,18.88 2.66,18.88 2.281,19.09 L 2.127,19.62 H 1.871 V 18.69 Q 2.61,18.53 3.17,18.53 Z M 3.776,20.73 3.179,20.75 Q 2.569,20.77 2.35,20.98 2.136,21.2 2.136,21.7 2.136,22.5 2.787,22.5 3.097,22.5 3.321,22.43 3.548,22.36 3.776,22.25 Z"


 />
  <path
 d="M 9.497,20.51 V 20.98 H 5.154 V 20.51 Z M 9.497,18.64 V 19.11 H 5.154 V 18.64 Z"
 />
  <path
 d="M 11.55,22.49 Q 11.55,22.71 11.39,22.88 11.23,23.04 11,23.04 10.76,23.04 10.6,22.88 10.45,22.71 10.45,22.49 10.45,22.26 10.61,22.1 10.77,21.94 11,21.94 11.23,21.94 11.39,22.1 11.55,22.26 11.55,22.49 Z M 14.68,22.49 Q 14.68,22.71 14.52,22.88 14.36,23.04 14.12,23.04 13.89,23.04 13.73,22.88 13.57,22.71 13.57,22.49 13.57,22.26 13.73,22.1 13.89,21.94 14.12,21.94 14.36,21.94 14.52,22.1 14.68,22.26 14.68,22.49 Z M 17.8,22.49 Q 17.8,22.71 17.64,22.88 17.49,23.04 17.25,23.04 17.01,23.04 16.85,22.88 16.7,22.71 16.7,22.49 16.7,22.26 16.86,22.1 17.02,21.94 17.25,21.94 17.48,21.94 17.64,22.1 17.8,22.26 17.8,22.49 Z" />
</svg>