<?xml version="1.0" encoding="UTF-8" ?>
<svg xmlns="http://www.w3.org/2000/svg" version="1.1">
  <path
 d="M 2.38,16.77 Q 2.153,16.77 1.833,16.68 1.513,16.59 1.419,16.51 V 16.45 Q 1.45,16.35 1.536,15.97 1.614,15.6 1.646,15.43 H 1.802 Q 2.341,15.96 2.794,15.96 3.208,15.96 3.482,15.35 3.755,14.74 3.755,13.78 L 3.708,8.527 Q 3.708,6.433 3.818,4.3 3.872,3.472 4.255,2.738 4.646,1.996 5.271,1.527 5.896,1.058 6.443,1.058 6.638,1.058 6.982,1.136 7.333,1.214 7.45,1.308 V 1.378 L 7.31,1.894 7.185,2.402 H 7.021 Q 6.474,1.855 6.028,1.855 5.614,1.855 5.341,2.472 5.068,3.082 5.068,4.05 L 5.099,8.253 Q 5.099,8.824 5.068,10.08 5.044,11.34 4.974,13.55 4.927,14.41 4.528,15.14 4.138,15.88 3.528,16.32 2.927,16.77 2.38,16.77 Z"
 />
  <path
 d="M 17.52,12.98 V 13.33 H 14.2 V 12.98 L 15.17,12.8 13.48,10.2 11.49,12.81 12.5,12.98 V 13.33 H 9.86 V 12.98 L 10.71,12.85 13.13,9.666 11,6.533 10.13,6.338 V 5.986 H 13.46 V 6.338 L 12.48,6.549 13.9,8.658 15.52,6.533 14.52,6.338 V 5.986 H 17.16 V 6.338 L 16.31,6.502 14.25,9.174 16.66,12.81 Z"



 />
</svg>