<?xml version="1.0" encoding="UTF-8" ?>
<svg xmlns="http://www.w3.org/2000/svg" version="1.1">
  <path
 d="M 3.986,5.17 Q 3.986,3.733 4.111,2.858 4.299,1.983 4.736,1.608 5.174,1.17 5.611,1.108 6.111,1.045 6.486,1.233 6.861,1.358 7.049,1.608 7.236,1.795 7.299,2.17 7.361,2.483 7.111,2.67 6.924,2.858 6.736,2.858 6.611,2.858 6.361,2.733 6.174,2.608 6.174,2.42 6.174,2.295 6.236,2.17 6.299,2.045 6.299,1.92 6.299,1.733 6.111,1.608 5.924,1.483 5.486,1.67 5.111,1.858 4.924,2.358 4.799,2.858 4.736,3.608 4.674,4.295 4.674,5.17 6.424,5.42 6.736,6.295 7.049,7.108 7.049,7.545 7.049,8.233 6.549,9.108 6.049,9.983 4.424,10.17 4.299,11.3 4.111,12.17 3.924,13.05 3.486,13.42 3.049,13.86 2.611,13.86 2.236,13.92 1.799,13.8 1.424,13.67 1.299,13.42 1.174,13.17 1.174,12.98 1.174,12.8 1.299,12.61 1.486,12.42 1.736,12.42 1.924,12.42 2.174,12.55 2.424,12.61 2.361,12.98 2.299,13.36 2.611,13.3 2.986,13.23 3.236,12.8 3.486,12.3 3.736,10.11 3.049,10.05 2.424,9.545 1.799,8.983 1.674,8.42 1.611,7.858 1.611,7.67 1.611,6.92 2.111,6.108 2.674,5.295 3.986,5.17 Z M 4.486,9.483 Q 5.549,9.358 5.861,8.795 6.236,8.233 6.236,7.608 6.236,7.17 6.049,6.608 5.924,5.983 4.674,5.795 4.611,7.608 4.486,9.483 Z M 3.799,9.483 Q 3.861,7.858 3.986,5.795 2.424,6.108 2.299,7.545 2.236,8.92 3.799,9.483 Z" />
  <path
 d="M 17.37,11.67 V 12.02 H 14.04 V 11.67 L 15.02,11.49 13.32,8.887 11.34,11.5 12.35,11.67 V 12.02 H 9.708 V 11.67 L 10.56,11.54 12.97,8.356 10.85,5.223 9.981,5.028 V 4.676 H 13.31 V 5.028 L 12.33,5.239 13.75,7.348 15.37,5.223 14.36,5.028 V 4.676 H 17 V 5.028 L 16.16,5.192 14.1,7.864 16.51,11.5 Z"
 />
</svg>