<?xml version="1.0" encoding="UTF-8" ?>
<svg xmlns="http://www.w3.org/2000/svg" version="1.1">
  <path
 d="M 4.99,5.301 V 5.504 L 2.089,9.743 H 4.407 Q 4.62,9.743 4.87,9.738 5.125,9.738 5.381,9.733 5.641,9.728 5.886,9.717 6.136,9.707 6.334,9.697 6.537,9.691 6.683,9.681 6.829,9.671 6.881,9.66 L 7.178,8.473 H 7.521 L 7.422,10.63 H 1.141 V 10.24 L 4.151,5.853 1.375,1.785 V 1.374 H 7.131 V 3.202 H 6.787 L 6.568,1.915 Q 6.068,1.853 5.459,1.853 4.855,1.853 4.735,1.853 L 2.631,1.842 Z" />
  <path
 d="M 18.88,10.23 V 10.58 H 15.56 V 10.23 L 16.53,10.05 14.84,7.447 12.85,10.06 13.86,10.23 V 10.58 H 11.22 V 10.23 L 12.07,10.1 14.49,6.916 12.36,3.783 11.49,3.588 V 3.236 H 14.82 V 3.588 L 13.85,3.799 15.26,5.908 16.88,3.783 15.88,3.588 V 3.236 H 18.52 V 3.588 L 17.67,3.752 15.61,6.424 18.03,10.06 Z"



 />
</svg>