<?xml version="1.0" encoding="UTF-8" ?>
<svg xmlns="http://www.w3.org/2000/svg" version="1.1">
  <path
 d="M 8.458,15 Q 9.286,15 9.396,9.622 9.411,8.778 9.419,8.333 9.513,4.309 10.25,2.575 11,0.8406 12.58,0.8406 13.2,0.8406 13.59,1.169 13.98,1.497 13.98,2.005 13.98,2.427 13.73,2.677 13.48,2.919 13.05,2.919 12.72,2.919 12.5,2.77 12.29,2.622 12.19,2.348 12.15,2.231 12.11,1.95 12.08,1.669 11.95,1.669 11.11,1.669 11,6.505 10.97,8.012 10.94,8.872 10.81,12.61 10.07,14.23 9.333,15.85 7.802,15.85 7.185,15.85 6.786,15.52 6.396,15.2 6.396,14.69 6.396,14.25 6.661,14 6.927,13.76 7.403,13.76 7.661,13.76 7.849,13.87 8.036,13.99 8.153,14.21 8.231,14.35 8.271,14.67 8.31,15 8.458,15 Z M 3.169,15 Q 3.997,15 4.106,9.622 4.122,8.778 4.13,8.333 4.224,4.309 4.966,2.575 5.708,0.8406 7.286,0.8406 7.911,0.8406 8.302,1.169 8.692,1.497 8.692,2.005 8.692,2.427 8.442,2.677 8.192,2.919 7.763,2.919 7.435,2.919 7.216,2.77 6.997,2.622 6.903,2.348 6.856,2.231 6.817,1.95 6.786,1.669 6.661,1.669 5.825,1.669 5.716,6.505 5.685,8.012 5.653,8.872 5.521,12.61 4.778,14.23 4.044,15.85 2.513,15.85 1.896,15.85 1.497,15.52 1.106,15.2 1.106,14.69 1.106,14.25 1.372,14 1.638,13.76 2.114,13.76 2.372,13.76 2.56,13.87 2.747,13.99 2.864,14.21 2.942,14.35 2.981,14.67 3.021,15 3.169,15 Z"

 />
  <path
 d="M 21.33,12.87 V 13.22 H 18.01 V 12.87 L 18.98,12.69 17.29,10.09 15.3,12.7 16.31,12.87 V 13.22 H 13.67 V 12.87 L 14.52,12.74 16.94,9.556 14.81,6.423 13.94,6.228 V 5.876 H 17.27 V 6.228 L 16.3,6.439 17.71,8.548 19.33,6.423 18.33,6.228 V 5.876 H 20.97 V 6.228 L 20.12,6.392 18.06,9.064 20.48,12.7 Z"




 />
</svg>