<?xml version="1.0" encoding="UTF-8" ?>
<svg xmlns="http://www.w3.org/2000/svg" version="1.1">
  <path
 d="M 12.03,8.422 Q 12.03,10.17 9.479,11.12 9.229,15.87 7.111,15.87 5.94,15.87 5.94,14.84 5.94,14 6.682,14 7.315,14 7.315,14.7 7.315,14.94 7.08,15.22 7.221,15.31 7.385,15.31 8.26,15.31 8.26,13.65 8.26,12.52 8.213,11.46 7.44,11.59 6.627,11.59 5.799,11.59 5.018,11.46 4.721,15.87 2.682,15.87 1.51,15.87 1.51,14.84 1.51,14 2.244,14 2.885,14 2.885,14.7 2.885,15 2.643,15.22 2.791,15.31 2.947,15.31 3.83,15.31 3.83,13.65 3.83,12.48 3.783,11.12 1.221,10.19 1.221,8.422 1.221,6.679 3.768,5.695 3.908,0.945 6.15,0.945 7.299,0.945 7.299,2 7.299,2.82 6.58,2.82 5.908,2.82 5.908,2.148 5.908,1.882 6.166,1.617 L 5.861,1.523 Q 4.963,1.523 4.963,2.945 4.963,3.039 5.049,5.359 5.83,5.234 6.627,5.234 7.44,5.234 8.213,5.359 8.338,3.484 8.643,2.578 9.205,0.945 10.58,0.945 11.74,0.945 11.74,2 11.74,2.82 11.02,2.82 10.36,2.82 10.36,2.164 10.36,1.867 10.6,1.617 10.46,1.523 10.29,1.523 9.4,1.523 9.4,2.961 9.4,3.609 9.463,5.679 12.03,6.664 12.03,8.422 Z M 3.768,10.5 Q 3.721,9.765 3.721,8.531 3.721,7.562 3.752,6.32 1.799,7.125 1.799,8.437 1.799,9.711 3.768,10.5 Z M 8.197,10.87 Q 8.135,9.726 8.143,8.359 8.143,7.226 8.182,5.937 7.408,5.812 6.611,5.812 5.807,5.812 5.065,5.937 5.158,8.226 5.065,10.88 5.807,11.01 6.611,11.01 7.463,11.01 8.197,10.87 Z M 11.45,8.422 Q 11.45,7.086 9.479,6.304 9.525,7.023 9.525,8.234 L 9.494,10.48 Q 11.45,9.734 11.45,8.422 Z"
 />
  <path
 d="M 20.76,12.76 V 13.11 H 17.44 V 12.76 L 18.41,12.58 16.72,9.977 14.73,12.59 15.74,12.76 V 13.11 H 13.1 V 12.76 L 13.95,12.63 16.37,9.446 14.24,6.313 13.37,6.118 V 5.766 H 16.7 V 6.118 L 15.73,6.329 17.14,8.438 18.76,6.313 17.76,6.118 V 5.766 H 20.4 V 6.118 L 19.55,6.282 17.49,8.954 19.91,12.59 Z"

 />
</svg>