<?xml version="1.0" encoding="UTF-8" ?>
<svg xmlns="http://www.w3.org/2000/svg" version="1.1">
  <path
 d="M 15.79,8.282 Q 15.79,9.696 13.28,10.63 13.09,15.73 10.88,15.73 9.731,15.73 9.731,14.7 9.731,13.86 10.45,13.86 11.09,13.86 11.09,14.56 11.09,14.83 10.85,15.08 10.99,15.17 11.17,15.17 12.05,15.17 12.05,13.43 V 13.38 L 11.98,11.03 Q 10.53,11.38 8.786,11.43 8.466,15.73 6.45,15.73 5.278,15.73 5.278,14.7 5.278,13.86 6.02,13.86 6.653,13.86 6.653,14.56 6.653,14.81 6.419,15.08 6.56,15.17 6.724,15.17 7.599,15.17 7.599,13.51 7.599,12.59 7.567,11.43 5.903,11.38 4.388,11.02 4.145,15.73 2.02,15.73 0.8486,15.73 0.8486,14.7 0.8486,13.86 1.583,13.86 2.224,13.86 2.224,14.56 2.224,14.86 1.981,15.08 2.13,15.17 2.286,15.17 3.169,15.17 3.169,13.51 3.169,12.24 3.106,10.63 0.5596,9.68 0.5596,8.313 0.5596,6.883 3.091,5.891 3.177,3.75 3.458,2.743 4.02,0.805 5.489,0.805 6.638,0.805 6.638,1.86 6.638,2.68 5.919,2.68 5.247,2.68 5.247,2.008 5.247,1.743 5.505,1.477 L 5.2,1.383 Q 4.302,1.383 4.302,2.821 4.302,2.828 4.388,5.477 5.755,5.141 7.552,5.094 7.81,0.805 9.919,0.805 11.08,0.805 11.08,1.86 11.08,2.68 10.36,2.68 9.7,2.68 9.7,2.024 9.7,1.727 9.935,1.477 9.794,1.383 9.63,1.383 8.739,1.383 8.739,2.821 8.739,3.391 8.802,5.11 10.58,5.157 11.98,5.493 12.13,0.805 14.36,0.805 15.5,0.805 15.5,1.86 15.5,2.68 14.8,2.68 14.13,2.68 14.13,2.024 14.13,1.688 14.37,1.477 L 14.07,1.383 Q 13.17,1.383 13.17,2.789 13.17,2.914 13.26,5.891 15.79,6.883 15.79,8.282 Z M 3.091,10.07 Q 3.06,9.539 3.06,8.305 3.06,7.516 3.075,6.485 1.138,7.211 1.138,8.297 1.138,9.368 3.091,10.07 Z M 7.536,10.85 Q 7.466,9.618 7.466,8.313 7.466,7.032 7.536,5.688 5.77,5.735 4.403,6.071 L 4.435,8.43 Q 4.435,9.477 4.403,10.47 5.825,10.81 7.536,10.85 Z M 11.97,10.45 11.96,7.078 Q 11.96,6.586 11.97,6.071 10.57,5.735 8.817,5.688 L 8.849,9.328 Q 8.841,10.34 8.817,10.85 10.47,10.84 11.97,10.45 Z M 15.22,8.282 Q 15.22,7.203 13.28,6.469 13.31,6.977 13.31,8.219 13.31,9.008 13.29,10.06 15.22,9.321 15.22,8.282 Z"
 />
  <path
 d="M 23.71,12.3 V 12.65 H 20.39 V 12.3 L 21.36,12.12 19.67,9.517 17.68,12.13 18.69,12.3 V 12.65 H 16.05 V 12.3 L 16.9,12.17 19.32,8.986 17.19,5.853 16.32,5.658 V 5.306 H 19.65 V 5.658 L 18.68,5.869 20.09,7.978 21.71,5.853 20.71,5.658 V 5.306 H 23.35 V 5.658 L 22.5,5.822 20.44,8.494 22.86,12.13 Z"

 />
</svg>