<?xml version="1.0" encoding="UTF-8" ?>
<svg xmlns="http://www.w3.org/2000/svg" version="1.1">
  <path
 d="M 4.735,5.015 Q 4.735,4.176 4.443,3.766 4.152,3.356 3.541,3.356 3.272,3.356 3.008,3.406 2.743,3.451 2.625,3.506 V 6.901 Q 3.008,6.974 3.541,6.974 4.17,6.974 4.452,6.482 4.735,5.99 4.735,5.015 Z M 1.868,1.114 1.244,1.004 V 0.7991 H 2.625 V 2.33 Q 2.625,2.576 2.598,3.233 3.053,2.877 3.746,2.877 4.621,2.877 5.086,3.41 5.555,3.939 5.555,5.015 5.555,6.168 5.04,6.769 4.53,7.366 3.559,7.366 3.167,7.366 2.693,7.28 2.224,7.193 1.868,7.052 Z"
 />
  <path
 d="M 10.22,4.878 V 5.343 H 5.875 V 4.878 Z M 10.22,3.009 V 3.474 H 5.875 V 3.009 Z"


 />
  <path
 d="M 12.27,6.856 Q 12.27,7.079 12.11,7.243 11.96,7.407 11.72,7.407 11.48,7.407 11.32,7.243 11.17,7.079 11.17,6.856 11.17,6.623 11.33,6.464 11.49,6.304 11.72,6.304 11.95,6.304 12.11,6.464 12.27,6.623 12.27,6.856 Z M 15.4,6.856 Q 15.4,7.079 15.24,7.243 15.08,7.407 14.85,7.407 14.61,7.407 14.45,7.243 14.29,7.079 14.29,6.856 14.29,6.623 14.45,6.464 14.61,6.304 14.85,6.304 15.08,6.304 15.24,6.464 15.4,6.623 15.4,6.856 Z M 18.52,6.856 Q 18.52,7.079 18.36,7.243 18.21,7.407 17.97,7.407 17.73,7.407 17.58,7.243 17.42,7.079 17.42,6.856 17.42,6.623 17.58,6.464 17.74,6.304 17.97,6.304 18.2,6.304 18.36,6.464 18.52,6.623 18.52,6.856 Z"



 />
  <path
 d="M 11.1,12.04 V 12.25 L 8.196,16.49 H 10.51 Q 10.73,16.49 10.98,16.48 11.23,16.48 11.49,16.48 11.75,16.47 11.99,16.46 12.24,16.45 12.44,16.44 12.64,16.43 12.79,16.42 12.94,16.41 12.99,16.4 L 13.28,15.21 H 13.63 L 13.53,17.37 H 7.248 V 16.99 L 10.26,12.59 7.483,8.527 V 8.116 H 13.24 V 9.944 H 12.89 L 12.68,8.657 Q 12.18,8.595 11.57,8.595 10.96,8.595 10.84,8.595 L 8.738,8.584 Z" />
</svg>