<?xml version="1.0" encoding="UTF-8" ?>
<svg xmlns="http://www.w3.org/2000/svg" version="1.1">
  <path
 d="M 8.866,10.73 H 0.9389 V 10.34 H 1.934 V 1.397 H 0.9389 V 1.011 H 4.043 V 1.397 H 3.043 V 10.34 H 6.762 V 1.397 H 5.762 V 1.011 H 8.866 V 1.397 H 7.871 V 10.34 H 8.866 Z"
 />
  <path
 d="M 19,10.07 V 10.42 H 15.68 V 10.07 L 16.65,9.889 14.96,7.287 12.97,9.904 13.98,10.07 V 10.42 H 11.34 V 10.07 L 12.19,9.943 14.61,6.756 12.48,3.623 11.61,3.428 V 3.076 H 14.94 V 3.428 L 13.97,3.639 15.38,5.748 17,3.623 16,3.428 V 3.076 H 18.64 V 3.428 L 17.79,3.592 15.73,6.264 18.15,9.904 Z"



 />
</svg>