<?xml version="1.0" encoding="UTF-8" ?>
<svg xmlns="http://www.w3.org/2000/svg" version="1.1">
  <path
 d="M 2.095,8.28 2.724,8.377 V 8.553 H 0.8212 V 8.377 L 1.446,8.28 V 3.272 L 0.8212,3.178 V 3.002 H 2.095 Z"

 />
  <path
 d="M 3.86,3.682 Q 3.86,3.854 3.735,3.979 3.61,4.104 3.434,4.104 3.263,4.104 3.138,3.979 3.013,3.854 3.013,3.682 3.013,3.506 3.138,3.381 3.263,3.256 3.434,3.256 3.61,3.256 3.735,3.381 3.86,3.506 3.86,3.682 Z M 3.821,8.28 4.45,8.377 V 8.553 H 2.548 V 8.377 L 3.173,8.28 V 5.155 L 2.653,5.057 V 4.881 H 3.821 Z"


 />
  <path
 d="M 5.372,5.178 Q 5.665,5.01 5.993,4.897 6.321,4.783 6.571,4.783 6.841,4.783 7.067,4.885 7.298,4.987 7.411,5.209 7.712,5.041 8.114,4.912 8.52,4.783 8.786,4.783 9.724,4.783 9.724,5.866 V 8.28 L 10.2,8.377 V 8.553 H 8.528 V 8.377 L 9.075,8.28 V 5.936 Q 9.075,5.264 8.45,5.264 8.349,5.264 8.212,5.28 8.079,5.295 7.942,5.315 7.809,5.334 7.684,5.362 7.563,5.385 7.481,5.401 7.548,5.612 7.548,5.866 V 8.28 L 8.099,8.377 V 8.553 H 6.356 V 8.377 L 6.899,8.28 V 5.936 Q 6.899,5.612 6.731,5.44 6.567,5.264 6.235,5.264 5.891,5.264 5.38,5.377 V 8.28 L 5.931,8.377 V 8.553 H 4.266 V 8.377 L 4.731,8.28 V 5.155 L 4.266,5.057 V 4.881 H 5.341 Z"


 />
  <path
 d="M 19.35,8.241 V 8.593 H 16.03 V 8.241 L 17,8.062 15.31,5.46 13.32,8.077 14.33,8.241 V 8.593 H 11.69 V 8.241 L 12.54,8.116 14.96,4.929 12.83,1.796 11.96,1.601 V 1.249 H 15.29 V 1.601 L 14.32,1.812 15.73,3.921 17.35,1.796 16.35,1.601 V 1.249 H 18.99 V 1.601 L 18.14,1.765 16.08,4.437 18.5,8.077 Z"


 />
</svg>