<?xml version="1.0" encoding="UTF-8" ?>
<svg xmlns="http://www.w3.org/2000/svg" version="1.1">
  <path
 d="M 7.661,10.27 V 10.56 H 4.887 V 10.27 L 5.701,10.12 4.289,7.949 2.635,10.13 3.475,10.27 V 10.56 H 1.274 V 10.27 L 1.984,10.16 3.996,7.507 2.225,4.896 1.502,4.733 V 4.44 H 4.275 V 4.733 L 3.462,4.909 4.64,6.667 5.994,4.896 5.154,4.733 V 4.44 H 7.355 V 4.733 L 6.652,4.87 4.933,7.096 6.945,10.13 Z"

 />
  <path
 d="M 10.67,9.063 H 10.38 L 9.908,5.587 Q 9.634,3.485 9.634,2.118 9.634,1.688 9.876,1.352 10.12,1.032 10.53,1.032 11.42,1.032 11.42,2.196 11.42,3.563 11.14,5.633 Z M 9.915,10.61 Q 10.18,10.35 10.52,10.35 10.85,10.35 11.12,10.61 11.38,10.88 11.38,11.2 11.38,11.56 11.13,11.83 10.87,12.09 10.52,12.09 10.17,12.09 9.908,11.82 9.65,11.55 9.65,11.2 9.65,10.88 9.915,10.61 Z"


 />
</svg>