<?xml version="1.0" encoding="UTF-8" ?>
<svg xmlns="http://www.w3.org/2000/svg" version="1.1">
  <path
 d="M 3.173,8.805 Q 2.548,8.805 2.235,8.434 1.929,8.063 1.929,7.392 V 3.102 H 1.128 V 2.809 L 1.942,2.555 2.6,1.169 H 3.01 V 2.555 H 4.41 V 3.102 H 3.01 V 7.275 Q 3.01,7.698 3.199,7.913 3.394,8.128 3.706,8.128 4.084,8.128 4.624,8.024 V 8.447 Q 4.397,8.603 3.967,8.701 3.537,8.805 3.173,8.805 Z" />
  <path
 d="M 7.223,2.419 Q 8.226,2.419 8.695,2.829 9.17,3.239 9.17,4.085 V 8.219 L 9.932,8.382 V 8.675 H 8.252 L 8.128,8.063 Q 7.386,8.805 6.234,8.805 4.665,8.805 4.665,6.982 4.665,6.37 4.899,5.973 5.14,5.57 5.661,5.361 6.182,5.146 7.171,5.127 L 8.089,5.101 V 4.144 Q 8.089,3.512 7.855,3.213 7.627,2.913 7.145,2.913 6.494,2.913 5.954,3.219 L 5.732,3.981 H 5.368 V 2.646 Q 6.423,2.419 7.223,2.419 Z M 8.089,5.557 7.236,5.583 Q 6.364,5.615 6.051,5.921 5.745,6.227 5.745,6.943 5.745,8.089 6.676,8.089 7.119,8.089 7.438,7.991 7.764,7.887 8.089,7.731 Z"

 />
  <path
 d="M 11.72,3.05 Q 12.22,2.764 12.78,2.581 13.35,2.392 13.73,2.392 14.52,2.392 14.93,2.855 15.33,3.317 15.33,4.196 V 8.219 L 16.07,8.382 V 8.675 H 13.44 V 8.382 L 14.25,8.219 V 4.313 Q 14.25,3.773 13.98,3.467 13.72,3.154 13.17,3.154 12.58,3.154 11.73,3.343 V 8.219 L 12.56,8.382 V 8.675 H 9.913 V 8.382 L 10.65,8.219 V 3.011 L 9.913,2.848 V 2.555 H 11.66 Z"
 />
</svg>