<?xml version="1.0" encoding="UTF-8" ?>
<svg xmlns="http://www.w3.org/2000/svg" version="1.1">
  <path
 d="M 2.756,9.55 Q 2.193,9.55 1.912,9.216 1.636,8.882 1.636,8.279 V 4.417 H 0.9158 V 4.154 L 1.648,3.925 2.24,2.677 H 2.609 V 3.925 H 3.869 V 4.417 H 2.609 V 8.173 Q 2.609,8.554 2.779,8.747 2.955,8.941 3.236,8.941 3.576,8.941 4.062,8.847 V 9.228 Q 3.857,9.369 3.47,9.456 3.084,9.55 2.756,9.55 Z"
 />
  <path
 d="M 6.351,3.802 Q 7.254,3.802 7.676,4.171 8.103,4.54 8.103,5.302 V 9.023 L 8.789,9.169 V 9.433 H 7.277 L 7.166,8.882 Q 6.498,9.55 5.461,9.55 4.049,9.55 4.049,7.91 4.049,7.359 4.26,7.001 4.476,6.638 4.945,6.451 5.414,6.257 6.304,6.24 L 7.131,6.216 V 5.355 Q 7.131,4.787 6.92,4.517 6.715,4.247 6.281,4.247 5.695,4.247 5.209,4.523 L 5.01,5.208 H 4.681 V 4.007 Q 5.631,3.802 6.351,3.802 Z M 7.131,6.626 6.363,6.65 Q 5.578,6.679 5.297,6.954 5.021,7.23 5.021,7.874 5.021,8.906 5.859,8.906 6.258,8.906 6.545,8.818 6.838,8.724 7.131,8.583 Z"

 />
  <path
 d="M 10.35,4.37 Q 10.8,4.113 11.31,3.949 11.82,3.779 12.16,3.779 12.87,3.779 13.23,4.195 13.6,4.611 13.6,5.402 V 9.023 L 14.27,9.169 V 9.433 H 11.89 V 9.169 L 12.62,9.023 V 5.507 Q 12.62,5.021 12.38,4.745 12.15,4.464 11.65,4.464 11.12,4.464 10.36,4.634 V 9.023 L 11.1,9.169 V 9.433 H 8.722 V 9.169 L 9.385,9.023 V 4.335 L 8.722,4.189 V 3.925 H 10.29 Z"

 />
  <path
 d="M 15.86,3.492 Q 15.86,4.101 15.82,4.37 16.24,4.13 16.77,3.954 17.31,3.779 17.68,3.779 18.39,3.779 18.76,4.195 19.12,4.611 19.12,5.402 V 9.023 L 19.79,9.169 V 9.433 H 17.42 V 9.169 L 18.15,9.023 V 5.472 Q 18.15,4.464 17.18,4.464 16.62,4.464 15.86,4.634 V 9.023 L 16.6,9.169 V 9.433 H 14.19 V 9.169 L 14.88,9.023 V 1.511 L 14.06,1.37 V 1.107 H 15.86 Z"
 />
</svg>