<?xml version="1.0" encoding="UTF-8" ?>
<svg xmlns="http://www.w3.org/2000/svg" version="1.1">
  <path
 d="M 6.007,8.464 Q 5.688,8.698 5.129,8.835 4.569,8.965 3.983,8.965 1.008,8.965 1.008,5.73 1.008,4.2 1.763,3.379 2.524,2.552 3.937,2.552 4.816,2.552 5.858,2.754 V 4.46 H 5.5 L 5.22,3.379 Q 4.679,3.073 3.924,3.073 2.179,3.073 2.179,5.73 2.179,7.11 2.707,7.702 3.241,8.288 4.354,8.288 5.304,8.288 6.007,8.073 Z"
 />
  <path
 d="M 12.07,5.743 Q 12.07,8.965 9.205,8.965 7.825,8.965 7.122,8.138 6.419,7.312 6.419,5.743 6.419,4.193 7.122,3.373 7.825,2.552 9.257,2.552 10.65,2.552 11.36,3.36 12.07,4.161 12.07,5.743 Z M 10.9,5.743 Q 10.9,4.336 10.49,3.705 10.08,3.073 9.205,3.073 8.353,3.073 7.968,3.679 7.591,4.284 7.591,5.743 7.591,7.22 7.975,7.839 8.366,8.451 9.205,8.451 10.06,8.451 10.48,7.813 10.9,7.175 10.9,5.743 Z"
 />
  <path
 d="M 14.25,8.965 Q 13.63,8.965 13.31,8.594 13.01,8.223 13.01,7.552 V 3.262 H 12.21 V 2.969 L 13.02,2.715 13.68,1.329 H 14.09 V 2.715 H 15.49 V 3.262 H 14.09 V 7.435 Q 14.09,7.858 14.28,8.073 14.47,8.288 14.79,8.288 15.16,8.288 15.7,8.184 V 8.607 Q 15.48,8.763 15.05,8.861 14.62,8.965 14.25,8.965 Z"

 />
</svg>