<?xml version="1.0" encoding="UTF-8" ?>
<svg xmlns="http://www.w3.org/2000/svg" version="1.1">
  <path
 d="M 5.229,10.95 Q 4.942,11.16 4.438,11.28 3.934,11.4 3.407,11.4 0.7293,11.4 0.7293,8.485 0.7293,7.108 1.409,6.37 2.095,5.626 3.366,5.626 4.157,5.626 5.095,5.807 V 7.342 H 4.772 L 4.52,6.37 Q 4.034,6.094 3.354,6.094 1.784,6.094 1.784,8.485 1.784,9.727 2.259,10.26 2.739,10.79 3.741,10.79 4.597,10.79 5.229,10.59 Z" />
  <path
 d="M 10.64,8.497 Q 10.64,11.4 8.057,11.4 6.815,11.4 6.182,10.65 5.55,9.909 5.55,8.497 5.55,7.102 6.182,6.364 6.815,5.626 8.104,5.626 9.358,5.626 9.997,6.352 10.64,7.073 10.64,8.497 Z M 9.581,8.497 Q 9.581,7.231 9.212,6.663 8.843,6.094 8.057,6.094 7.29,6.094 6.944,6.639 6.604,7.184 6.604,8.497 6.604,9.827 6.95,10.38 7.302,10.93 8.057,10.93 8.831,10.93 9.206,10.36 9.581,9.786 9.581,8.497 Z" />
  <path
 d="M 12.55,11.4 Q 11.99,11.4 11.71,11.06 11.43,10.73 11.43,10.13 V 6.264 H 10.71 V 6.001 L 11.44,5.772 12.03,4.524 H 12.4 V 5.772 H 13.66 V 6.264 H 12.4 V 10.02 Q 12.4,10.4 12.57,10.59 12.75,10.79 13.03,10.79 13.37,10.79 13.86,10.69 V 11.07 Q 13.65,11.22 13.26,11.3 12.88,11.4 12.55,11.4 Z" />
  <path
 d="M 15.33,5.339 Q 15.33,5.948 15.29,6.217 15.71,5.977 16.24,5.801 16.78,5.626 17.15,5.626 17.87,5.626 18.23,6.042 18.59,6.458 18.59,7.249 V 10.87 L 19.26,11.02 V 11.28 H 16.89 V 11.02 L 17.62,10.87 V 7.319 Q 17.62,6.311 16.65,6.311 16.1,6.311 15.33,6.481 V 10.87 L 16.08,11.02 V 11.28 H 13.66 V 11.02 L 14.36,10.87 V 3.358 L 13.54,3.217 V 2.954 H 15.33 Z"

 />
  <path
 d="M 17.65,2.383 V 1.785 H 19.73 V 2.383 Z" />
  <path
 d="M 22.4,5.877 23.47,5.982 V 6.189 H 20.65 V 5.982 L 21.73,5.877 V 1.603 L 20.67,1.982 V 1.775 L 22.2,0.9078 H 22.4 Z"
 />
</svg>