<?xml version="1.0" encoding="UTF-8" ?>
<svg xmlns="http://www.w3.org/2000/svg" version="1.1">
  <path
 d="M 5.424,10.49 Q 5.137,10.7 4.633,10.82 4.129,10.94 3.602,10.94 0.9241,10.94 0.9241,8.025 0.9241,6.648 1.604,5.91 2.289,5.166 3.561,5.166 4.352,5.166 5.289,5.347 V 6.882 H 4.967 L 4.715,5.91 Q 4.229,5.634 3.549,5.634 1.979,5.634 1.979,8.025 1.979,9.267 2.453,9.8 2.934,10.33 3.936,10.33 4.791,10.33 5.424,10.13 Z" />
  <path
 d="M 10.83,8.037 Q 10.83,10.94 8.252,10.94 7.01,10.94 6.377,10.19 5.744,9.449 5.744,8.037 5.744,6.642 6.377,5.904 7.01,5.166 8.299,5.166 9.553,5.166 10.19,5.892 10.83,6.613 10.83,8.037 Z M 9.776,8.037 Q 9.776,6.771 9.407,6.203 9.037,5.634 8.252,5.634 7.485,5.634 7.139,6.179 6.799,6.724 6.799,8.037 6.799,9.367 7.145,9.924 7.496,10.47 8.252,10.47 9.026,10.47 9.401,9.9 9.776,9.326 9.776,8.037 Z"
 />
  <path
 d="M 12.74,10.94 Q 12.18,10.94 11.9,10.6 11.63,10.27 11.63,9.666 V 5.804 H 10.9 V 5.541 L 11.64,5.312 12.23,4.064 H 12.6 V 5.312 H 13.86 V 5.804 H 12.6 V 9.56 Q 12.6,9.941 12.77,10.13 12.94,10.33 13.22,10.33 13.56,10.33 14.05,10.23 V 10.61 Q 13.85,10.76 13.46,10.84 13.07,10.94 12.74,10.94 Z"
 />
  <path
 d="M 13.72,1.997 V 1.399 H 15.8 V 1.997 Z" />
  <path
 d="M 18.44,5.714 19.51,5.819 V 6.026 H 16.69 V 5.819 L 17.77,5.714 V 1.44 L 16.71,1.819 V 1.612 L 18.24,0.7448 H 18.44 Z"
 />
</svg>