<?xml version="1.0" encoding="UTF-8" ?>
<svg xmlns="http://www.w3.org/2000/svg" version="1.1">
  <path
 d="M 2.502,11.51 Q 1.939,11.51 1.658,11.17 1.383,10.84 1.383,10.24 V 6.374 H 0.6619 V 6.111 L 1.394,5.882 1.986,4.634 H 2.355 V 5.882 H 3.615 V 6.374 H 2.355 V 10.13 Q 2.355,10.51 2.525,10.7 2.701,10.9 2.982,10.9 3.322,10.9 3.808,10.8 V 11.18 Q 3.603,11.33 3.217,11.41 2.83,11.51 2.502,11.51 Z"
 />
  <path
 d="M 6.097,5.759 Q 7,5.759 7.422,6.128 7.849,6.497 7.849,7.259 V 10.98 L 8.535,11.13 V 11.39 H 7.023 L 6.912,10.84 Q 6.244,11.51 5.207,11.51 3.795,11.51 3.795,9.867 3.795,9.316 4.006,8.958 4.222,8.595 4.691,8.408 5.16,8.214 6.051,8.197 L 6.877,8.173 V 7.312 Q 6.877,6.744 6.666,6.474 6.461,6.204 6.027,6.204 5.441,6.204 4.955,6.48 L 4.756,7.165 H 4.428 V 5.964 Q 5.377,5.759 6.097,5.759 Z M 6.877,8.583 6.109,8.607 Q 5.324,8.636 5.043,8.911 4.767,9.187 4.767,9.831 4.767,10.86 5.605,10.86 6.004,10.86 6.291,10.77 6.584,10.68 6.877,10.54 Z"
 />
  <path
 d="M 10.09,6.328 Q 10.54,6.07 11.05,5.906 11.56,5.736 11.9,5.736 12.62,5.736 12.98,6.152 13.34,6.568 13.34,7.359 V 10.98 L 14.01,11.13 V 11.39 H 11.64 V 11.13 L 12.37,10.98 V 7.464 Q 12.37,6.978 12.13,6.703 11.9,6.421 11.4,6.421 10.87,6.421 10.1,6.591 V 10.98 L 10.85,11.13 V 11.39 H 8.469 V 11.13 L 9.131,10.98 V 6.292 L 8.469,6.146 V 5.882 H 10.04 Z" />
  <path
 d="M 15.6,5.449 Q 15.6,6.058 15.56,6.328 15.98,6.087 16.52,5.911 17.06,5.736 17.43,5.736 18.14,5.736 18.5,6.152 18.87,6.568 18.87,7.359 V 10.98 L 19.53,11.13 V 11.39 H 17.16 V 11.13 L 17.89,10.98 V 7.429 Q 17.89,6.421 16.92,6.421 16.37,6.421 15.6,6.591 V 10.98 L 16.35,11.13 V 11.39 H 13.93 V 11.13 L 14.63,10.98 V 3.468 L 13.81,3.328 V 3.064 H 15.6 Z"
 />
  <path
 d="M 17.85,2.19 V 1.592 H 19.92 V 2.19 Z" />
  <path
 d="M 22.44,5.839 23.51,5.945 V 6.152 H 20.69 V 5.945 L 21.77,5.839 V 1.566 L 20.71,1.945 V 1.738 L 22.24,0.8707 H 22.44 Z"
 />
</svg>