<?xml version="1.0" encoding="UTF-8" ?>
<svg xmlns="http://www.w3.org/2000/svg" version="1.1">
  <path
 d="M 1.852,3.525 V 3.619 Q 1.852,4.338 2.009,4.739 2.17,5.135 2.498,5.343 2.832,5.551 3.368,5.551 3.649,5.551 4.035,5.505 4.42,5.458 4.67,5.4 V 5.692 Q 4.42,5.854 3.988,5.973 3.561,6.093 3.113,6.093 1.972,6.093 1.441,5.479 0.9149,4.864 0.9149,3.505 0.9149,2.223 1.451,1.593 1.988,0.9629 2.983,0.9629 4.863,0.9629 4.863,3.098 V 3.525 Z M 2.983,1.38 Q 2.441,1.38 2.149,1.817 1.863,2.255 1.863,3.109 H 3.957 Q 3.957,2.176 3.717,1.781 3.477,1.38 2.983,1.38 Z"
 />
  <path
 d="M 10.93,5.755 V 5.989 H 8.712 V 5.755 L 9.363,5.635 8.233,3.9 6.91,5.645 7.582,5.755 V 5.989 H 5.821 V 5.755 L 6.389,5.671 7.998,3.546 6.582,1.458 6.003,1.328 V 1.093 H 8.222 V 1.328 L 7.571,1.468 8.514,2.874 9.597,1.458 8.925,1.328 V 1.093 H 10.69 V 1.328 L 10.12,1.437 8.748,3.218 10.36,5.645 Z"


 />
  <path
 d="M 12.35,1.458 11.8,1.328 V 1.093 H 13.17 L 13.18,1.38 Q 13.4,1.192 13.76,1.078 14.13,0.9629 14.51,0.9629 15.45,0.9629 15.96,1.614 16.48,2.265 16.48,3.484 16.48,4.729 15.91,5.411 15.36,6.093 14.3,6.093 13.71,6.093 13.18,5.979 13.21,6.354 13.21,6.567 V 7.89 L 14.07,8.015 V 8.26 H 11.73 V 8.015 L 12.35,7.89 Z M 15.54,3.484 Q 15.54,2.484 15.21,1.999 14.89,1.51 14.23,1.51 13.62,1.51 13.21,1.682 V 5.593 Q 13.68,5.682 14.23,5.682 15.54,5.682 15.54,3.484 Z" />
</svg>