<?xml version="1.0" encoding="UTF-8" ?>
<svg xmlns="http://www.w3.org/2000/svg" version="1.1">
  <path
 d="M 2.172,9.009 V 9.114 Q 2.172,9.923 2.348,10.37 2.529,10.82 2.898,11.05 3.273,11.29 3.877,11.29 4.193,11.29 4.627,11.24 5.061,11.18 5.342,11.12 V 11.45 Q 5.061,11.63 4.574,11.76 4.094,11.9 3.59,11.9 2.307,11.9 1.709,11.21 1.117,10.51 1.117,8.985 1.117,7.544 1.721,6.835 2.324,6.126 3.443,6.126 5.559,6.126 5.559,8.528 V 9.009 Z M 3.443,6.594 Q 2.834,6.594 2.506,7.087 2.184,7.579 2.184,8.54 H 4.539 Q 4.539,7.491 4.269,7.046 4,6.594 3.443,6.594 Z" />
  <path
 d="M 11.98,6.474 V 6.738 H 9.488 V 6.474 L 10.22,6.34 8.949,4.388 7.461,6.351 8.217,6.474 V 6.738 H 6.236 V 6.474 L 6.875,6.381 8.686,3.99 7.092,1.64 6.442,1.494 V 1.23 H 8.938 V 1.494 L 8.205,1.652 9.266,3.234 10.48,1.64 9.729,1.494 V 1.23 H 11.71 V 1.494 L 11.08,1.617 9.529,3.621 11.34,6.351 Z"

 />
</svg>