<?xml version="1.0" encoding="UTF-8" ?>
<svg xmlns="http://www.w3.org/2000/svg" version="1.1">
  <path
 d="M 5.705,6.505 Q 5.418,6.716 4.914,6.839 4.41,6.956 3.883,6.956 1.205,6.956 1.205,4.044 1.205,2.667 1.885,1.929 2.57,1.185 3.842,1.185 4.633,1.185 5.57,1.366 V 2.902 H 5.248 L 4.996,1.929 Q 4.51,1.653 3.83,1.653 2.26,1.653 2.26,4.044 2.26,5.286 2.735,5.819 3.215,6.347 4.217,6.347 5.072,6.347 5.705,6.153 Z"
 />
  <path
 d="M 11.11,4.056 Q 11.11,6.956 8.533,6.956 7.291,6.956 6.658,6.212 6.026,5.468 6.026,4.056 6.026,2.661 6.658,1.923 7.291,1.185 8.58,1.185 9.834,1.185 10.47,1.911 11.11,2.632 11.11,4.056 Z M 10.06,4.056 Q 10.06,2.79 9.688,2.222 9.319,1.653 8.533,1.653 7.766,1.653 7.42,2.198 7.08,2.743 7.08,4.056 7.08,5.386 7.426,5.943 7.777,6.493 8.533,6.493 9.307,6.493 9.682,5.919 10.06,5.345 10.06,4.056 Z"
 />
  <path
 d="M 15.3,5.292 Q 15.3,6.112 14.78,6.534 14.27,6.956 13.25,6.956 12.84,6.956 12.35,6.868 11.85,6.786 11.57,6.681 V 5.327 H 11.84 L 12.12,6.095 Q 12.56,6.493 13.27,6.493 14.4,6.493 14.4,5.521 14.4,4.806 13.51,4.501 L 12.98,4.331 Q 12.39,4.138 12.12,3.939 11.85,3.739 11.71,3.452 11.56,3.159 11.56,2.749 11.56,2.023 12.05,1.607 12.55,1.185 13.39,1.185 14,1.185 14.91,1.366 V 2.568 H 14.63 L 14.38,1.929 Q 14.07,1.653 13.41,1.653 12.93,1.653 12.68,1.888 12.43,2.122 12.43,2.521 12.43,2.855 12.66,3.083 12.88,3.312 13.34,3.464 14.2,3.757 14.47,3.892 14.73,4.027 14.91,4.226 15.1,4.419 15.2,4.671 15.3,4.923 15.3,5.292 Z" />
</svg>