<?xml version="1.0" encoding="UTF-8" ?>
<svg xmlns="http://www.w3.org/2000/svg" version="1.1">
  <path
 d="M 3.241,11.1 Q 2.679,11.1 2.397,10.76 2.122,10.43 2.122,9.826 V 5.964 H 1.401 V 5.701 L 2.134,5.472 2.725,4.224 H 3.095 V 5.472 H 4.354 V 5.964 H 3.095 V 9.72 Q 3.095,10.1 3.264,10.29 3.44,10.49 3.722,10.49 4.061,10.49 4.548,10.39 V 10.77 Q 4.343,10.92 3.956,11 3.569,11.1 3.241,11.1 Z" />
  <path
 d="M 6.837,5.349 Q 7.739,5.349 8.161,5.718 8.589,6.087 8.589,6.849 V 10.57 L 9.274,10.72 V 10.98 H 7.763 L 7.651,10.43 Q 6.983,11.1 5.946,11.1 4.534,11.1 4.534,9.457 4.534,8.906 4.745,8.548 4.962,8.185 5.43,7.998 5.899,7.804 6.79,7.787 L 7.616,7.763 V 6.902 Q 7.616,6.334 7.405,6.064 7.2,5.794 6.766,5.794 6.18,5.794 5.694,6.07 L 5.495,6.755 H 5.167 V 5.554 Q 6.116,5.349 6.837,5.349 Z M 7.616,8.173 6.848,8.197 Q 6.063,8.226 5.782,8.501 5.507,8.777 5.507,9.421 5.507,10.45 6.345,10.45 6.743,10.45 7.03,10.36 7.323,10.27 7.616,10.13 Z"
 />
  <path
 d="M 10.83,5.917 Q 11.28,5.66 11.79,5.496 12.3,5.326 12.64,5.326 13.36,5.326 13.72,5.742 14.08,6.158 14.08,6.949 V 10.57 L 14.75,10.72 V 10.98 H 12.38 V 10.72 L 13.11,10.57 V 7.054 Q 13.11,6.568 12.87,6.292 12.64,6.011 12.14,6.011 11.61,6.011 10.84,6.181 V 10.57 L 11.59,10.72 V 10.98 H 9.208 V 10.72 L 9.87,10.57 V 5.882 L 9.208,5.736 V 5.472 H 10.78 Z" />
  <path
 d="M 14.15,2.417 V 1.819 H 16.23 V 2.417 Z"
 />
  <path
 d="M 18.98,5.984 20.05,6.09 V 6.297 H 17.23 V 6.09 L 18.31,5.984 V 1.711 L 17.25,2.09 V 1.883 L 18.78,1.016 H 18.98 Z" />
</svg>