<?xml version="1.0" encoding="UTF-8" ?>
<svg xmlns="http://www.w3.org/2000/svg" version="1.1">
  <path
 d="M 4.513,9.855 Q 4.513,10.58 4.05,10.96 3.591,11.33 2.69,11.33 2.326,11.33 1.883,11.26 1.446,11.18 1.196,11.09 V 9.886 H 1.43 L 1.685,10.57 Q 2.076,10.92 2.701,10.92 3.711,10.92 3.711,10.06 3.711,9.423 2.914,9.152 L 2.451,9.001 Q 1.925,8.829 1.685,8.652 1.446,8.475 1.315,8.22 1.185,7.959 1.185,7.595 1.185,6.949 1.623,6.579 2.065,6.204 2.815,6.204 3.352,6.204 4.159,6.365 V 7.433 H 3.914 L 3.696,6.865 Q 3.42,6.621 2.826,6.621 2.404,6.621 2.18,6.829 1.961,7.037 1.961,7.391 1.961,7.688 2.159,7.891 2.362,8.095 2.769,8.23 3.534,8.49 3.769,8.61 4.003,8.73 4.164,8.907 4.331,9.079 4.42,9.303 4.513,9.527 4.513,9.855 Z" />
  <path
 d="M 6.368,4.735 Q 6.368,4.964 6.201,5.131 6.034,5.298 5.8,5.298 5.571,5.298 5.404,5.131 5.237,4.964 5.237,4.735 5.237,4.501 5.404,4.334 5.571,4.167 5.8,4.167 6.034,4.167 6.201,4.334 6.368,4.501 6.368,4.735 Z M 6.315,10.87 7.154,11 V 11.23 H 4.618 V 11 L 5.451,10.87 V 6.699 L 4.758,6.569 V 6.334 H 6.315 Z"
 />
  <path
 d="M 8.539,6.73 Q 8.94,6.501 9.394,6.355 9.847,6.204 10.15,6.204 10.78,6.204 11.11,6.574 11.43,6.944 11.43,7.647 V 10.87 L 12.02,11 V 11.23 H 9.914 V 11 L 10.57,10.87 V 7.74 Q 10.57,7.308 10.35,7.063 10.14,6.813 9.701,6.813 9.232,6.813 8.55,6.964 V 10.87 L 9.211,11 V 11.23 H 7.097 V 11 L 7.685,10.87 V 6.699 L 7.097,6.569 V 6.334 H 8.493 Z" />
  <path
 d="M 13.38,5.949 Q 13.38,6.49 13.35,6.73 13.72,6.516 14.2,6.36 14.67,6.204 15,6.204 15.64,6.204 15.96,6.574 16.28,6.944 16.28,7.647 V 10.87 L 16.88,11 V 11.23 H 14.77 V 11 L 15.42,10.87 V 7.709 Q 15.42,6.813 14.56,6.813 14.07,6.813 13.38,6.964 V 10.87 L 14.04,11 V 11.23 H 11.9 V 11 L 12.52,10.87 V 4.188 L 11.79,4.063 V 3.829 H 13.38 Z"
 />
  <path
 d="M 15.42,2.608 V 2.01 H 17.49 V 2.608 Z" />
  <path
 d="M 20.21,6.017 21.28,6.123 V 6.33 H 18.46 V 6.123 L 19.54,6.017 V 1.744 L 18.48,2.123 V 1.916 L 20.01,1.049 H 20.21 Z" />
</svg>