<?xml version="1.0" encoding="UTF-8" ?>
<svg xmlns="http://www.w3.org/2000/svg" version="1.1">
  <path
 d="M 16.8,10.41 V 10.7 H 14.03 V 10.41 L 14.84,10.26 13.43,8.089 11.78,10.27 12.62,10.41 V 10.7 H 10.42 V 10.41 L 11.13,10.3 13.14,7.647 11.37,5.036 10.65,4.873 V 4.58 H 13.42 V 4.873 L 12.6,5.049 13.78,6.807 15.14,5.036 14.3,4.873 V 4.58 H 16.5 V 4.873 L 15.79,5.01 14.08,7.236 16.09,10.27 Z"
 />
  <path
 d="M 4.806,11.89 H 4.109 L 2.176,6.494 H 1.082 V 5.973 H 2.846 L 4.526,10.77 7.469,1.253 H 8.055 Z"


 />
  <path
 style="fill:none;stroke:#000000;stroke-width:1px;" d="M 7.5,1.75 18.95,1.85"


 />
</svg>