<?xml version="1.0" encoding="UTF-8" ?>
<svg xmlns="http://www.w3.org/2000/svg" version="1.1">
  <path
 d="M 2.86,8.01 3.699,8.141 V 8.375 H 1.162 V 8.141 L 1.995,8.01 V 1.333 L 1.162,1.208 V 0.9739 H 2.86 Z" />
  <path
 d="M 9.134,5.901 Q 9.134,8.479 6.842,8.479 5.738,8.479 5.176,7.818 4.613,7.156 4.613,5.901 4.613,4.661 5.176,4.005 5.738,3.349 6.884,3.349 7.999,3.349 8.566,3.995 9.134,4.635 9.134,5.901 Z M 8.197,5.901 Q 8.197,4.776 7.868,4.271 7.54,3.766 6.842,3.766 6.16,3.766 5.853,4.25 5.551,4.734 5.551,5.901 5.551,7.083 5.858,7.578 6.17,8.068 6.842,8.068 7.53,8.068 7.863,7.557 8.197,7.047 8.197,5.901 Z" />
  <path
 d="M 14.37,5.026 Q 14.37,5.87 13.87,6.302 13.36,6.734 12.41,6.734 11.99,6.734 11.62,6.656 L 11.29,7.339 Q 11.31,7.427 11.5,7.505 11.68,7.583 11.97,7.583 H 13.41 Q 14.2,7.583 14.59,7.927 14.97,8.271 14.97,8.875 14.97,9.422 14.66,9.828 14.36,10.23 13.77,10.45 13.18,10.68 12.35,10.68 11.35,10.68 10.82,10.37 10.3,10.06 10.3,9.495 10.3,9.219 10.49,8.948 10.67,8.682 11.17,8.323 10.88,8.224 10.67,7.984 10.47,7.745 10.47,7.469 L 11.29,6.542 Q 10.47,6.156 10.47,5.026 10.47,4.224 10.98,3.786 11.49,3.349 12.45,3.349 12.65,3.349 12.95,3.391 13.25,3.427 13.41,3.479 L 14.56,2.901 14.75,3.125 14.02,3.875 Q 14.37,4.266 14.37,5.026 Z M 14.16,9.036 Q 14.16,8.74 13.98,8.573 13.79,8.406 13.42,8.406 H 11.53 Q 11.31,8.594 11.17,8.88 11.03,9.172 11.03,9.422 11.03,9.87 11.36,10.06 11.68,10.26 12.35,10.26 13.22,10.26 13.68,9.938 14.16,9.615 14.16,9.036 Z M 12.42,6.339 Q 12.99,6.339 13.23,6.016 13.47,5.687 13.47,5.026 13.47,4.333 13.22,4.042 12.98,3.745 12.43,3.745 11.89,3.745 11.63,4.042 11.38,4.339 11.38,5.026 11.38,5.714 11.63,6.026 11.88,6.339 12.42,6.339 Z"



 />
</svg>