<?xml version="1.0" encoding="UTF-8" ?>
<svg xmlns="http://www.w3.org/2000/svg" version="1.1">
  <path
 d="M 5.906,10.95 Q 5.619,11.16 5.115,11.28 4.611,11.4 4.084,11.4 1.406,11.4 1.406,8.485 1.406,7.108 2.086,6.37 2.771,5.626 4.043,5.626 4.834,5.626 5.771,5.807 V 7.342 H 5.449 L 5.197,6.37 Q 4.711,6.094 4.031,6.094 2.461,6.094 2.461,8.485 2.461,9.727 2.935,10.26 3.416,10.79 4.418,10.79 5.273,10.79 5.906,10.59 Z" />
  <path
 d="M 11.31,8.497 Q 11.31,11.4 8.734,11.4 7.492,11.4 6.859,10.65 6.226,9.909 6.226,8.497 6.226,7.102 6.859,6.364 7.492,5.626 8.781,5.626 10.03,5.626 10.67,6.352 11.31,7.073 11.31,8.497 Z M 10.26,8.497 Q 10.26,7.231 9.888,6.663 9.519,6.094 8.734,6.094 7.966,6.094 7.621,6.639 7.281,7.184 7.281,8.497 7.281,9.827 7.627,10.38 7.978,10.93 8.734,10.93 9.507,10.93 9.882,10.36 10.26,9.786 10.26,8.497 Z" />
  <path
 d="M 15.51,9.733 Q 15.51,10.55 14.98,10.98 14.47,11.4 13.45,11.4 13.04,11.4 12.55,11.31 12.05,11.23 11.77,11.12 V 9.768 H 12.04 L 12.32,10.54 Q 12.76,10.93 13.47,10.93 14.6,10.93 14.6,9.962 14.6,9.247 13.71,8.942 L 13.19,8.772 Q 12.59,8.579 12.32,8.38 12.05,8.18 11.91,7.893 11.76,7.6 11.76,7.19 11.76,6.464 12.25,6.048 12.75,5.626 13.6,5.626 14.2,5.626 15.11,5.807 V 7.009 H 14.83 L 14.59,6.37 Q 14.27,6.094 13.61,6.094 13.13,6.094 12.88,6.329 12.63,6.563 12.63,6.962 12.63,7.296 12.86,7.524 13.09,7.753 13.54,7.905 14.4,8.198 14.67,8.333 14.93,8.467 15.11,8.667 15.3,8.86 15.4,9.112 15.51,9.364 15.51,9.733 Z"
 />
  <path
 d="M 15.07,2.308 V 1.71 H 17.15 V 2.308 Z"

 />
  <path
 d="M 20.11,5.926 21.18,6.032 V 6.239 H 18.36 V 6.032 L 19.44,5.926 V 1.653 L 18.38,2.032 V 1.825 L 19.91,0.9577 H 20.11 Z" />
</svg>