<?xml version="1.0" encoding="UTF-8" ?>
<svg xmlns="http://www.w3.org/2000/svg" version="1.1">
  <path
 d="M 5.541,9.162 Q 5.254,9.373 4.75,9.496 4.246,9.613 3.718,9.613 1.041,9.613 1.041,6.701 1.041,5.324 1.72,4.586 2.406,3.842 3.677,3.842 4.468,3.842 5.406,4.023 V 5.559 H 5.084 L 4.832,4.586 Q 4.345,4.31 3.666,4.31 2.095,4.31 2.095,6.701 2.095,7.943 2.57,8.476 3.05,9.004 4.052,9.004 4.908,9.004 5.541,8.81 Z"
 />
  <path
 d="M 10.95,6.713 Q 10.95,9.613 8.369,9.613 7.127,9.613 6.494,8.869 5.861,8.125 5.861,6.713 5.861,5.318 6.494,4.58 7.127,3.842 8.416,3.842 9.67,3.842 10.31,4.568 10.95,5.289 10.95,6.713 Z M 9.892,6.713 Q 9.892,5.447 9.523,4.879 9.154,4.31 8.369,4.31 7.601,4.31 7.256,4.855 6.916,5.4 6.916,6.713 6.916,8.043 7.261,8.6 7.613,9.15 8.369,9.15 9.142,9.15 9.517,8.576 9.892,8.002 9.892,6.713 Z"

 />
  <path
 d="M 12.86,9.613 Q 12.3,9.613 12.02,9.279 11.74,8.945 11.74,8.342 V 4.48 H 11.02 V 4.217 L 11.75,3.988 12.35,2.74 H 12.71 V 3.988 H 13.97 V 4.48 H 12.71 V 8.236 Q 12.71,8.617 12.88,8.81 13.06,9.004 13.34,9.004 13.68,9.004 14.17,8.91 V 9.291 Q 13.96,9.432 13.58,9.519 13.19,9.613 12.86,9.613 Z"

 />
  <path
 d="M 15.64,3.555 Q 15.64,4.164 15.6,4.434 16.02,4.193 16.56,4.017 17.1,3.842 17.46,3.842 18.18,3.842 18.54,4.258 18.91,4.674 18.91,5.465 V 9.086 L 19.57,9.232 V 9.496 H 17.2 V 9.232 L 17.93,9.086 V 5.535 Q 17.93,4.527 16.96,4.527 16.41,4.527 15.64,4.697 V 9.086 L 16.39,9.232 V 9.496 H 13.97 V 9.232 L 14.67,9.086 V 1.574 L 13.85,1.434 V 1.17 H 15.64 Z"
 />
</svg>