<?xml version="1.0" encoding="UTF-8" ?>
<svg xmlns="http://www.w3.org/2000/svg" version="1.1">
  <path
 d="M 9.206,13.85 V 14.2 H 5.878 V 13.85 L 6.854,13.67 5.159,11.07 3.174,13.68 4.182,13.85 V 14.2 H 1.542 V 13.85 L 2.393,13.72 4.807,10.54 2.682,7.403 1.815,7.208 V 6.856 H 5.143 V 7.208 L 4.167,7.419 5.581,9.528 7.206,7.403 6.198,7.208 V 6.856 H 8.839 V 7.208 L 7.995,7.372 5.932,10.04 8.346,13.68 Z"


 />
  <path
 d="M 11.78,8.485 Q 11.37,8.485 10.97,8.391 V 7.334 H 11.22 L 11.39,7.834 Q 11.55,7.954 11.84,7.954 12.11,7.954 12.34,7.798 12.57,7.641 12.76,7.334 12.95,7.027 13.23,6.235 L 11.37,1.652 10.87,1.522 V 1.287 H 13.14 V 1.522 L 12.37,1.662 13.69,5.084 14.97,1.652 14.21,1.522 V 1.287 H 16.03 V 1.522 L 15.52,1.631 13.61,6.49 Q 13.27,7.35 13.02,7.725 12.77,8.1 12.47,8.292 12.17,8.485 11.78,8.485 Z"


 />
</svg>