<?xml version="1.0" encoding="UTF-8" ?>
<svg xmlns="http://www.w3.org/2000/svg" version="1.1">
  <path
 d="M 5.084,7.397 Q 5.084,8.217 4.562,8.639 4.047,9.061 3.033,9.061 2.623,9.061 2.125,8.973 1.632,8.891 1.351,8.786 V 7.432 H 1.615 L 1.902,8.2 Q 2.341,8.598 3.045,8.598 4.181,8.598 4.181,7.626 4.181,6.911 3.285,6.606 L 2.763,6.436 Q 2.172,6.243 1.902,6.044 1.632,5.844 1.486,5.557 1.339,5.264 1.339,4.854 1.339,4.128 1.832,3.712 2.33,3.29 3.173,3.29 3.777,3.29 4.685,3.471 V 4.673 H 4.41 L 4.164,4.034 Q 3.853,3.758 3.185,3.758 2.711,3.758 2.459,3.993 2.213,4.227 2.213,4.626 2.213,4.96 2.435,5.188 2.664,5.417 3.121,5.569 3.982,5.862 4.246,5.997 4.509,6.132 4.691,6.331 4.879,6.524 4.978,6.776 5.084,7.028 5.084,7.397 Z" />
  <path
 d="M 7.232,1.637 Q 7.232,1.895 7.045,2.083 6.857,2.27 6.593,2.27 6.336,2.27 6.148,2.083 5.961,1.895 5.961,1.637 5.961,1.374 6.148,1.186 6.336,0.9987 6.593,0.9987 6.857,0.9987 7.045,1.186 7.232,1.374 7.232,1.637 Z M 7.173,8.534 8.117,8.68 V 8.944 H 5.263 V 8.68 L 6.201,8.534 V 3.846 L 5.422,3.7 V 3.436 H 7.173 Z" />
  <path
 d="M 9.738,3.882 Q 10.19,3.624 10.7,3.46 11.21,3.29 11.55,3.29 12.26,3.29 12.63,3.706 12.99,4.122 12.99,4.913 V 8.534 L 13.66,8.68 V 8.944 H 11.28 V 8.68 L 12.02,8.534 V 5.018 Q 12.02,4.532 11.78,4.257 11.54,3.975 11.04,3.975 10.52,3.975 9.75,4.145 V 8.534 L 10.49,8.68 V 8.944 H 8.115 V 8.68 L 8.777,8.534 V 3.846 L 8.115,3.7 V 3.436 H 9.685 Z"
 />
  <path
 d="M 12.3,2.864 V 2.266 H 14.38 V 2.864 Z"
 />
  <path
 d="M 16.99,6.115 18.06,6.221 V 6.428 H 15.24 V 6.221 L 16.32,6.115 V 1.842 L 15.26,2.221 V 2.014 L 16.79,1.147 H 16.99 Z"
 />
</svg>