<?xml version="1.0" encoding="UTF-8" ?>
<svg xmlns="http://www.w3.org/2000/svg" version="1.1">
  <path
 d="M 5.607,9.299 Q 5.319,9.51 4.816,9.633 4.312,9.75 3.784,9.75 1.107,9.75 1.107,6.838 1.107,5.461 1.786,4.723 2.472,3.979 3.743,3.979 4.534,3.979 5.472,4.16 V 5.696 H 5.15 L 4.898,4.723 Q 4.411,4.447 3.732,4.447 2.161,4.447 2.161,6.838 2.161,8.08 2.636,8.613 3.116,9.141 4.118,9.141 4.974,9.141 5.607,8.947 Z"
 />
  <path
 d="M 11.01,6.85 Q 11.01,9.75 8.435,9.75 7.192,9.75 6.56,9.006 5.927,8.262 5.927,6.85 5.927,5.455 6.56,4.717 7.192,3.979 8.482,3.979 9.735,3.979 10.37,4.705 11.01,5.426 11.01,6.85 Z M 9.958,6.85 Q 9.958,5.584 9.589,5.016 9.22,4.447 8.435,4.447 7.667,4.447 7.321,4.992 6.982,5.537 6.982,6.85 6.982,8.18 7.327,8.737 7.679,9.287 8.435,9.287 9.208,9.287 9.583,8.713 9.958,8.139 9.958,6.85 Z"
 />
  <path
 d="M 15.21,8.086 Q 15.21,8.906 14.68,9.328 14.17,9.75 13.16,9.75 12.75,9.75 12.25,9.662 11.75,9.58 11.47,9.475 V 8.121 H 11.74 L 12.02,8.889 Q 12.46,9.287 13.17,9.287 14.3,9.287 14.3,8.315 14.3,7.6 13.41,7.295 L 12.89,7.125 Q 12.29,6.932 12.02,6.733 11.75,6.533 11.61,6.246 11.46,5.953 11.46,5.543 11.46,4.817 11.95,4.401 12.45,3.979 13.3,3.979 13.9,3.979 14.81,4.16 V 5.362 H 14.53 L 14.29,4.723 Q 13.98,4.447 13.31,4.447 12.83,4.447 12.58,4.682 12.34,4.916 12.34,5.315 12.34,5.649 12.56,5.877 12.79,6.106 13.24,6.258 14.1,6.551 14.37,6.686 14.63,6.821 14.81,7.02 15,7.213 15.1,7.465 15.21,7.717 15.21,8.086 Z"

 />
  <path
 d="M 17.04,3.692 Q 17.04,4.301 17,4.571 17.42,4.33 17.96,4.154 18.5,3.979 18.87,3.979 19.58,3.979 19.94,4.395 20.31,4.811 20.31,5.602 V 9.223 L 20.98,9.369 V 9.633 H 18.6 V 9.369 L 19.34,9.223 V 5.672 Q 19.34,4.664 18.36,4.664 17.81,4.664 17.04,4.834 V 9.223 L 17.79,9.369 V 9.633 H 15.37 V 9.369 L 16.07,9.223 V 1.711 L 15.25,1.571 V 1.307 H 17.04 Z"
 />
</svg>