<?xml version="1.0" encoding="UTF-8" ?>
<svg xmlns="http://www.w3.org/2000/svg" version="1.1">
  <path
 d="M 4.708,11.35 Q 4.421,11.56 3.917,11.68 3.413,11.8 2.886,11.8 0.2079,11.8 0.2079,8.885 0.2079,7.508 0.8876,6.77 1.573,6.026 2.845,6.026 3.636,6.026 4.573,6.207 V 7.743 H 4.251 L 3.999,6.77 Q 3.513,6.494 2.833,6.494 1.263,6.494 1.263,8.885 1.263,10.13 1.737,10.66 2.218,11.19 3.22,11.19 4.075,11.19 4.708,10.99 Z"
 />
  <path
 d="M 10.11,8.897 Q 10.11,11.8 7.536,11.8 6.294,11.8 5.661,11.05 5.028,10.31 5.028,8.897 5.028,7.502 5.661,6.764 6.294,6.026 7.583,6.026 8.837,6.026 9.476,6.752 10.11,7.473 10.11,8.897 Z M 9.059,8.897 Q 9.059,7.631 8.69,7.063 8.321,6.494 7.536,6.494 6.768,6.494 6.423,7.039 6.083,7.584 6.083,8.897 6.083,10.23 6.429,10.78 6.78,11.33 7.536,11.33 8.309,11.33 8.684,10.76 9.059,10.19 9.059,8.897 Z"

 />
  <path
 d="M 14.31,10.13 Q 14.31,10.95 13.79,11.38 13.27,11.8 12.26,11.8 11.85,11.8 11.35,11.71 10.86,11.63 10.58,11.52 V 10.17 H 10.84 L 11.13,10.94 Q 11.57,11.33 12.27,11.33 13.41,11.33 13.41,10.36 13.41,9.647 12.51,9.342 L 11.99,9.172 Q 11.4,8.979 11.13,8.78 10.86,8.58 10.71,8.293 10.56,8 10.56,7.59 10.56,6.864 11.06,6.448 11.55,6.026 12.4,6.026 13,6.026 13.91,6.207 V 7.409 H 13.63 L 13.39,6.77 Q 13.08,6.494 12.41,6.494 11.93,6.494 11.68,6.729 11.44,6.963 11.44,7.362 11.44,7.696 11.66,7.924 11.89,8.153 12.34,8.305 13.21,8.598 13.47,8.733 13.73,8.868 13.91,9.067 14.1,9.26 14.2,9.512 14.31,9.764 14.31,10.13 Z" />
  <path
 d="M 16.15,5.739 Q 16.15,6.348 16.1,6.618 16.53,6.377 17.06,6.201 17.6,6.026 17.97,6.026 18.68,6.026 19.05,6.442 19.41,6.858 19.41,7.649 V 11.27 L 20.08,11.42 V 11.68 H 17.7 V 11.42 L 18.44,11.27 V 7.719 Q 18.44,6.711 17.46,6.711 16.91,6.711 16.15,6.881 V 11.27 L 16.89,11.42 V 11.68 H 14.48 V 11.42 L 15.17,11.27 V 3.758 L 14.35,3.618 V 3.354 H 16.15 Z" />
  <path
 d="M 17.96,2.659 V 2.061 H 20.03 V 2.659 Z" />
  <path
 d="M 22.76,6.027 23.83,6.132 V 6.339 H 21.01 V 6.132 L 22.09,6.027 V 1.753 L 21.03,2.132 V 1.925 L 22.56,1.058 H 22.76 Z"
 />
</svg>