<?xml version="1.0" encoding="UTF-8" ?>
<svg xmlns="http://www.w3.org/2000/svg" version="1.1">
  <path
 d="M 7.409,14.93 8.291,15.13 8.229,15.48 H 6.002 L 6.229,14.26 Q 4.908,15.64 3.815,15.64 2.869,15.64 2.291,14.95 1.721,14.25 1.721,13.03 1.721,11.67 2.314,10.48 2.916,9.284 3.916,8.62 4.916,7.948 6.088,7.948 7.034,7.948 7.87,8.276 L 8.221,8.011 H 8.643 Z M 7.182,8.94 Q 6.877,8.729 6.612,8.651 6.346,8.565 5.955,8.565 5.174,8.565 4.518,9.159 3.869,9.745 3.494,10.75 3.119,11.75 3.119,12.83 3.119,13.67 3.463,14.17 3.807,14.67 4.401,14.67 5.283,14.67 6.33,13.58 Z"


 />
  <path
 style="stroke:#000000;stroke-width:1px;" d="M 1.675,4.003 8.665,4.083"
 />
  <path
 style="fill:none;stroke:#000000;stroke-width:1px;" d="M 6.905,1.653 8.945,4.083 6.635,6.263"
 />
</svg>