<?xml version="1.0" encoding="UTF-8" ?>
<svg xmlns="http://www.w3.org/2000/svg" version="1.1">
  <path
 d="M 2.508,3.438 Q 2.156,3.438 1.898,3.181 1.648,2.931 1.648,2.579 1.648,2.204 1.89,1.954 2.148,1.696 2.508,1.696 2.859,1.696 3.125,1.946 3.39,2.188 3.39,2.524 3.39,2.884 3.125,3.157 2.867,3.438 2.508,3.438 Z M 6.234,7.22 Q 5.906,7.22 5.664,6.954 5.422,6.688 5.422,6.352 5.422,5.485 6.289,5.485 7.148,5.485 7.148,6.337 7.148,6.688 6.875,6.954 6.594,7.22 6.234,7.22 Z M 10.06,10.99 Q 9.703,10.99 9.437,10.74 9.179,10.49 9.179,10.13 9.179,9.79 9.445,9.509 9.719,9.251 10.06,9.251 10.41,9.251 10.67,9.509 10.93,9.774 10.93,10.13 10.93,10.46 10.66,10.73 10.4,10.99 10.06,10.99 Z"
 />
</svg>