<?xml version="1.0" encoding="UTF-8" ?>
<svg xmlns="http://www.w3.org/2000/svg" version="1.1">
  <path
 d="M 3.016,9.358 Q 3.297,9.616 3.297,9.967 3.297,10.32 3.039,10.58 2.781,10.83 2.43,10.83 2.07,10.83 1.805,10.58 1.555,10.33 1.555,9.967 1.555,9.608 1.797,9.358 2.055,9.092 2.383,9.092 2.742,9.092 3.016,9.358 Z M 6.805,5.584 Q 7.07,5.842 7.07,6.194 7.07,6.545 6.813,6.803 6.563,7.061 6.211,7.061 5.344,7.061 5.344,6.194 5.344,5.85 5.594,5.584 5.844,5.327 6.195,5.327 6.547,5.327 6.805,5.584 Z M 10.85,2.42 Q 10.85,2.78 10.6,3.045 10.35,3.295 9.985,3.295 9.641,3.295 9.367,3.038 9.102,2.756 9.102,2.42 9.102,2.077 9.367,1.811 9.641,1.553 9.985,1.553 10.32,1.553 10.59,1.819 10.85,2.084 10.85,2.42 Z"
 />
</svg>