<?xml version="1.0" encoding="UTF-8" ?>
<svg xmlns="http://www.w3.org/2000/svg" version="1.1">
  <path
 d="M 2.524,11.7 Q 2.899,11.7 3.149,11.95 3.406,12.19 3.406,12.56 3.406,12.91 3.141,13.17 2.883,13.43 2.524,13.43 2.172,13.43 1.914,13.17 1.664,12.91 1.664,12.56 1.664,12.22 1.914,11.95 2.164,11.7 2.524,11.7 Z M 2.524,6.376 Q 2.891,6.376 3.141,6.618 3.406,6.86 3.406,7.219 3.406,7.571 3.141,7.837 2.875,8.102 2.524,8.102 2.18,8.102 1.914,7.837 1.664,7.563 1.664,7.219 1.664,6.376 2.524,6.376 Z M 2.524,1.032 Q 2.899,1.032 3.149,1.274 3.406,1.516 3.406,1.891 3.406,2.243 3.141,2.501 2.883,2.758 2.524,2.758 2.172,2.758 1.914,2.501 1.664,2.235 1.664,1.891 1.664,1.547 1.914,1.282 2.164,1.032 2.524,1.032 Z"

 />
</svg>