<?xml version="1.0" encoding="UTF-8" ?>
<svg xmlns="http://www.w3.org/2000/svg" version="1.1">
  <path
 d="M 8.886,2.124 Q 8.237,2.695 7.956,3.179 7.675,3.663 7.675,4.476 7.675,5.187 8.386,6.39 9.097,7.585 9.097,8.335 9.097,9.187 8.566,9.937 8.034,10.69 6.941,11.38 L 5.222,12.46 2.362,11.23 1.769,11.68 1.542,11.5 3.159,10.19 6.214,11.5 Q 6.8,11.16 7.206,10.56 7.62,9.968 7.62,8.843 7.62,8.117 6.909,6.976 6.198,5.828 6.198,4.992 6.198,4.445 6.55,3.937 6.901,3.421 7.737,2.781 6.995,2.523 5.784,2.523 4.222,2.523 3.261,2.843 2.3,3.163 2.3,3.499 2.3,3.835 2.98,4.187 3.659,4.531 4.081,4.953 4.503,5.374 4.503,5.913 4.503,6.367 4.3,6.617 4.105,6.867 3.355,7.328 L 3.284,7.07 Q 3.605,6.898 3.73,6.781 3.862,6.656 3.862,6.476 3.862,6.07 3.191,5.593 2.519,5.109 2.191,4.624 1.862,4.14 1.862,3.624 1.862,2.679 2.878,1.999 3.894,1.312 5.753,1.312 7.831,1.312 8.886,2.124 Z"




 />
</svg>