<?xml version="1.0" encoding="UTF-8" ?>
<svg xmlns="http://www.w3.org/2000/svg" version="1.1">
  <path
 d="M 8.378,10.76 Q 7.925,11.5 7.308,12.03 6.698,12.56 6.237,12.56 5.941,12.56 5.753,12.36 5.566,12.17 5.566,11.88 5.566,11.52 6.237,9.212 6.909,6.907 6.909,6.618 6.909,6.219 6.534,6.219 5.878,6.219 4.652,7.86 3.433,9.493 2.987,10.91 L 2.519,12.36 H 1.355 L 3.527,4.774 2.183,5.29 2.089,4.969 3.644,4.376 Q 4.183,2.532 4.183,2.36 4.183,1.93 3.511,1.93 3.347,1.93 3.034,1.993 V 1.688 L 5.581,1.258 H 5.737 L 4.972,3.844 7.034,3.063 7.128,3.383 4.855,4.266 3.566,8.68 3.597,8.712 Q 4.956,6.672 5.769,5.985 6.589,5.29 7.261,5.29 7.652,5.29 7.902,5.563 8.152,5.837 8.152,6.235 8.152,6.696 8.019,7.188 7.894,7.68 7.339,9.524 6.792,11.37 6.792,11.43 6.792,11.67 7.003,11.67 7.355,11.67 8.12,10.62 Z"


 />
</svg>