<?xml version="1.0" encoding="UTF-8" ?>
<svg xmlns="http://www.w3.org/2000/svg" version="1.1">
  <path
 d="M 3.661,6.437 Q 6.208,3.75 7.435,2.976 8.669,2.203 9.716,2.203 10.61,2.203 11.18,2.844 11.76,3.476 11.76,4.476 11.76,6.375 10.26,7.906 8.755,9.43 7.427,9.43 6.677,9.43 6.185,8.992 5.693,8.555 5.693,7.898 5.693,7.305 6.005,6.898 6.318,6.492 6.771,6.492 7.013,6.492 7.177,6.656 7.341,6.82 7.341,7.062 7.341,7.297 7.146,7.523 6.95,7.742 6.56,7.781 6.177,7.812 6.177,8.219 6.177,8.539 6.536,8.812 6.896,9.078 7.325,9.078 7.974,9.078 8.693,8.437 9.411,7.797 9.911,6.5 10.42,5.195 10.42,4.156 10.42,3.531 10.08,3.125 9.755,2.711 9.263,2.711 8.575,2.711 7.841,3.156 7.114,3.601 5.911,4.664 4.708,5.726 3.857,6.828 4.474,8.109 4.724,8.906 4.974,9.695 4.974,10.23 4.974,11.28 4.411,12.01 3.849,12.74 3.06,12.74 2.325,12.74 1.818,12.2 1.31,11.66 1.31,10.81 1.31,10.11 1.622,9.445 1.943,8.789 2.622,7.805 2.161,6.664 2.161,5.898 2.161,4.641 3.107,3.383 4.06,2.125 5.872,1.031 L 6.083,1.351 Q 3.411,2.937 3.411,5.211 3.411,5.906 3.661,6.437 Z M 2.818,8.203 Q 1.989,9.445 1.833,9.883 1.677,10.32 1.677,10.83 1.677,11.52 2.052,11.95 2.427,12.37 2.974,12.37 3.419,12.37 3.7,12.05 3.982,11.73 3.982,11.23 3.982,10.29 2.818,8.203 Z"
 />
</svg>