<?xml version="1.0" encoding="UTF-8" ?>
<svg xmlns="http://www.w3.org/2000/svg" version="1.1">
  <path
 d="M 2.885,12.62 Q 2.885,13 2.612,13.29 2.346,13.57 1.94,13.57 1.534,13.57 1.26,13.29 0.9947,13 0.9947,12.62 0.9947,12.22 1.268,11.95 1.542,11.68 1.94,11.68 2.338,11.68 2.612,11.95 2.885,12.22 2.885,12.62 Z M 8.245,12.62 Q 8.245,13 7.971,13.29 7.706,13.57 7.299,13.57 6.893,13.57 6.62,13.29 6.354,13 6.354,12.62 6.354,12.22 6.628,11.95 6.901,11.68 7.299,11.68 7.698,11.68 7.971,11.95 8.245,12.22 8.245,12.62 Z M 13.6,12.62 Q 13.6,13 13.33,13.29 13.07,13.57 12.66,13.57 12.25,13.57 11.98,13.29 11.71,13 11.71,12.62 11.71,12.22 11.99,11.95 12.26,11.68 12.66,11.68 13.06,11.68 13.33,11.95 13.6,12.22 13.6,12.62 Z"
 />
</svg>