<?xml version="1.0" encoding="UTF-8" ?>
<svg xmlns="http://www.w3.org/2000/svg" version="1.1">
  <path
 d="M 11.3,4.456 Q 11.3,5.745 10.6,6.612 9.904,7.479 8.841,7.479 7.201,7.479 6.099,5.417 5.599,6.409 4.959,6.924 4.318,7.432 3.591,7.432 2.482,7.432 1.795,6.604 1.107,5.776 1.107,4.409 1.107,3.088 1.802,2.237 2.498,1.385 3.591,1.385 4.412,1.385 5.107,1.885 5.802,2.385 6.31,3.401 6.81,2.424 7.42,1.932 8.037,1.432 8.857,1.432 9.966,1.432 10.63,2.276 11.3,3.112 11.3,4.456 Z M 9.006,2.252 Q 8.381,2.252 7.857,2.799 7.341,3.346 6.841,4.456 7.31,5.557 7.826,6.112 8.349,6.667 9.021,6.667 9.771,6.667 10.24,6.042 10.72,5.417 10.72,4.44 10.72,3.502 10.24,2.877 9.763,2.252 9.006,2.252 Z M 5.545,4.409 Q 5.099,3.315 4.576,2.76 4.06,2.198 3.357,2.198 2.631,2.198 2.162,2.831 1.701,3.456 1.701,4.424 1.701,5.409 2.154,6.018 2.615,6.62 3.388,6.62 4.021,6.62 4.545,6.073 5.068,5.518 5.545,4.409 Z"




 />
</svg>