<?xml version="1.0" encoding="UTF-8" ?>
<svg xmlns="http://www.w3.org/2000/svg" version="1.1">
  <path
 d="M 3.119,11.38 Q 3.119,11.76 2.846,12.05 2.58,12.33 2.174,12.33 1.768,12.33 1.494,12.05 1.229,11.76 1.229,11.38 1.229,10.98 1.502,10.71 1.776,10.44 2.174,10.44 2.573,10.44 2.846,10.71 3.119,10.98 3.119,11.38 Z M 8.479,11.38 Q 8.479,11.76 8.205,12.05 7.94,12.33 7.533,12.33 7.127,12.33 6.854,12.05 6.588,11.76 6.588,11.38 6.588,10.98 6.862,10.71 7.135,10.44 7.533,10.44 7.932,10.44 8.205,10.71 8.479,10.98 8.479,11.38 Z M 13.84,11.38 Q 13.84,11.76 13.56,12.05 13.3,12.33 12.89,12.33 12.49,12.33 12.21,12.05 11.95,11.76 11.95,11.38 11.95,10.98 12.22,10.71 12.49,10.44 12.89,10.44 13.29,10.44 13.56,10.71 13.84,10.98 13.84,11.38 Z"
 />
</svg>