<?xml version="1.0" encoding="UTF-8" ?>
<svg xmlns="http://www.w3.org/2000/svg" version="1.1">
  <path
 d="M 12.77,11.18 10.93,12.57 Q 10.28,12.1 10.03,11.61 9.778,11.11 9.778,10.07 V 8.445 Q 9.778,7.883 9.551,7.469 9.332,7.055 8.895,6.711 L 7.363,7.32 V 7.898 Q 7.363,8.672 7.16,9.398 6.965,10.12 6.653,10.54 6.34,10.96 5.574,11.45 L 3.824,12.57 2.676,11.35 2.145,11.69 1.949,11.47 3.778,10.31 4.926,11.52 Q 5.324,11.32 5.488,11.11 5.66,10.9 5.77,10.37 5.887,9.836 5.887,9.047 V 5.102 Q 5.887,3.703 5.746,3.047 5.613,2.383 5.184,2.063 4.754,1.734 4.176,1.734 3.481,1.734 2.926,2.234 2.371,2.727 2.371,3.32 2.371,3.789 2.723,4.164 3.082,4.531 3.481,4.852 3.879,5.164 4.113,5.609 4.356,6.047 4.356,6.539 4.356,7.703 3.043,8.508 L 2.973,8.25 Q 3.551,7.93 3.551,7.516 3.551,7.016 2.84,6.367 2.137,5.719 1.84,5.242 1.551,4.766 1.551,4.281 1.551,3.734 1.926,3 2.309,2.258 3.004,1.844 3.707,1.422 4.621,1.422 5.582,1.422 6.137,1.781 6.699,2.141 7.074,2.969 8.215,2.453 8.988,2.031 9.762,1.609 10.21,1.273 11.56,2.031 11.9,2.57 12.25,3.109 12.25,3.594 12.25,5.094 10.21,6.039 10.71,6.352 11.03,7.078 11.35,7.805 11.35,8.523 V 9.898 L 11.33,10.27 Q 11.33,10.86 11.48,11.08 11.64,11.29 11.93,11.29 12.21,11.29 12.62,10.97 Z M 7.363,6.969 Q 9.699,6.055 10.24,5.516 10.79,4.969 10.79,4.219 10.79,3.461 10.36,3.023 9.934,2.586 9.199,2.586 8.324,2.586 7.168,3.273 7.363,3.953 7.363,4.586 Z"



 />
</svg>