<?xml version="1.0" encoding="UTF-8" ?>
<svg xmlns="http://www.w3.org/2000/svg" version="1.1">
  <path
 d="M 7.95,5.392 Q 7.95,6.72 7.669,8.197 7.388,9.673 6.825,10.75 6.271,11.82 5.481,12.38 4.7,12.93 3.731,12.93 2.544,12.93 1.888,12.2 1.231,11.47 1.231,10.13 1.231,8.915 1.778,7.736 2.325,6.556 3.185,5.97 4.044,5.376 5.106,5.376 5.833,5.376 6.388,5.767 6.95,6.15 7.216,6.798 H 7.247 L 7.278,5.892 Q 7.278,4.118 6.692,3.173 6.114,2.228 5.005,2.228 4.169,2.228 3.224,2.884 L 2.942,2.626 3.763,1.454 Q 4.38,1.181 4.989,1.181 6.419,1.181 7.185,2.267 7.95,3.345 7.95,5.392 Z M 7.052,7.697 Q 6.911,6.978 6.435,6.509 5.966,6.033 5.356,6.033 4.646,6.033 4.06,6.572 3.474,7.111 3.091,8.181 2.716,9.251 2.716,10.34 2.716,11.31 3.122,11.85 3.528,12.38 4.224,12.38 4.856,12.38 5.427,11.84 6.005,11.28 6.442,10.18 6.88,9.079 7.052,7.697 Z"
 />
</svg>