<?xml version="1.0" encoding="UTF-8" ?>
<svg xmlns="http://www.w3.org/2000/svg" version="1.1">
  <path
 d="M 1.984,8.083 V 8.325 H -0.0256 V 8.083 L 0.6672,7.96 2.75,2.164 H 3.616 L 5.78,7.96 6.555,8.083 V 8.325 H 3.971 V 8.083 L 4.791,7.96 4.185,6.197 H 1.779 L 1.164,7.96 Z M 2.964,2.82 1.916,5.787 H 4.044 Z"
 />
  <path
  d="M 12.54,7.596 H 15.46 V 8.325 H 12.54 Q 12.31,8.325 12.1,8.293 L 11.64,9.56 10.94,9.305 11.39,8.088 Q 11.23,8.02 11.08,7.933 10.4,7.541 10.01,6.867 9.617,6.192 9.617,5.399 9.617,4.606 10.01,3.932 10.4,3.257 11.08,2.865 11.75,2.473 12.54,2.473 H 13.43 L 13.88,1.238 14.57,1.494 14.22,2.473 H 15.46 V 3.203 H 13.95 L 12.35,7.587 Q 12.45,7.596 12.54,7.596 Z M 11.64,7.4 13.16,3.203 H 12.54 Q 11.95,3.203 11.44,3.499 10.94,3.795 10.64,4.301 10.35,4.807 10.35,5.399 10.35,5.992 10.64,6.498 10.94,7.013 11.44,7.3 11.54,7.354 11.64,7.4 Z" />
  <path
 d="M 22.81,3.695 Q 22.81,3.134 22.46,2.879 22.11,2.624 21.32,2.624 H 20.38 V 4.934 H 21.38 Q 22.12,4.934 22.46,4.643 22.81,4.351 22.81,3.695 Z M 23.27,6.584 Q 23.27,5.942 22.85,5.645 22.42,5.345 21.47,5.345 H 20.38 V 7.915 Q 21.01,7.942 21.72,7.942 22.5,7.942 22.89,7.614 23.27,7.281 23.27,6.584 Z M 18.72,8.325 V 8.083 L 19.5,7.96 V 2.574 L 18.72,2.455 V 2.214 H 21.51 Q 22.67,2.214 23.21,2.56 23.75,2.902 23.75,3.649 23.75,4.187 23.42,4.565 23.09,4.944 22.49,5.071 23.32,5.158 23.77,5.554 24.22,5.946 24.22,6.566 24.22,7.445 23.61,7.901 23,8.352 21.83,8.352 L 19.88,8.325 Z"



 />
</svg>