<?xml version="1.0" encoding="UTF-8" ?>
<svg xmlns="http://www.w3.org/2000/svg" version="1.1">
  <path
 d="M 1.945,7.38 V 7.622 H -0.0645 V 7.38 L 0.6283,7.257 2.711,1.461 H 3.577 L 5.742,7.257 6.516,7.38 V 7.622 H 3.932 V 7.38 L 4.753,7.257 4.146,5.494 H 1.74 L 1.125,7.257 Z M 2.925,2.117 1.877,5.084 H 4.005 Z" />
  <path
  d="M 9.578,7.567 H 15.42 V 8.306 H 9.578 Z M 12.49,1.816 H 9.578 V 1.087 H 12.49 Q 13.29,1.087 13.96,1.479 14.64,1.871 15.03,2.545 15.42,3.22 15.42,4.013 15.42,4.806 15.03,5.48 14.64,6.155 13.96,6.546 13.29,6.938 12.49,6.938 H 9.578 V 6.209 H 12.49 Q 13.09,6.209 13.59,5.913 14.1,5.617 14.4,5.111 14.69,4.605 14.69,4.013 14.69,3.42 14.4,2.914 14.1,2.408 13.59,2.112 13.09,1.816 12.49,1.816 Z" />
  <path
 d="M 22.78,2.992 Q 22.78,2.431 22.42,2.176 22.07,1.921 21.29,1.921 H 20.34 V 4.231 H 21.34 Q 22.08,4.231 22.42,3.94 22.78,3.648 22.78,2.992 Z M 23.24,5.881 Q 23.24,5.239 22.81,4.942 22.38,4.642 21.44,4.642 H 20.34 V 7.212 Q 20.97,7.239 21.68,7.239 22.46,7.239 22.85,6.911 23.24,6.578 23.24,5.881 Z M 18.68,7.622 V 7.38 L 19.46,7.257 V 1.871 L 18.68,1.752 V 1.511 H 21.47 Q 22.63,1.511 23.17,1.857 23.71,2.199 23.71,2.946 23.71,3.484 23.38,3.862 23.05,4.241 22.45,4.368 23.28,4.455 23.73,4.851 24.18,5.243 24.18,5.863 24.18,6.742 23.57,7.198 22.96,7.649 21.8,7.649 L 19.84,7.622 Z"


 />
</svg>