<?xml version="1.0" encoding="UTF-8" ?>
<svg xmlns="http://www.w3.org/2000/svg" version="1.1">
  <path
 d="M 11.68,11.79 H 8.855 L 5.254,6.845 H 4.168 V 9.759 Q 4.168,10.63 4.246,10.92 4.332,11.22 4.637,11.36 4.949,11.5 5.668,11.5 V 11.79 H 1.16 V 11.5 Q 1.879,11.5 2.184,11.36 2.496,11.22 2.574,10.92 2.66,10.63 2.66,9.759 V 3.227 Q 2.66,2.36 2.574,2.063 2.496,1.767 2.184,1.626 1.879,1.485 1.16,1.485 V 1.196 H 5.754 Q 7.582,1.196 8.504,1.993 9.434,2.782 9.434,3.946 9.434,4.962 8.738,5.673 8.043,6.376 6.809,6.642 8.988,9.681 9.34,10.16 9.699,10.64 10.25,11.04 10.79,11.44 11.68,11.5 Z M 5.48,6.524 Q 7.184,6.477 8.144,5.751 9.113,5.017 9.113,3.946 9.113,2.907 8.238,2.196 7.363,1.485 5.668,1.485 6.793,1.642 7.371,2.313 7.957,2.977 7.957,4.017 7.957,6.11 5.48,6.524 Z M 4.34,11.5 Q 4.004,11.27 3.926,10.9 3.848,10.52 3.848,9.759 V 2.126 Q 3.848,1.681 4.168,1.517 H 2.488 Q 2.824,1.743 2.902,2.126 2.98,2.501 2.98,3.259 V 9.759 Q 2.98,10.52 2.902,10.9 2.824,11.27 2.488,11.5 Z M 4.168,6.337 H 4.519 Q 5.988,6.337 6.809,5.735 7.637,5.126 7.637,4.017 7.637,3.04 7.035,2.407 6.434,1.774 5.48,1.774 5.121,1.774 4.168,1.915 Z M 10.58,11.47 Q 9.754,11.36 8.785,10 L 6.473,6.735 Q 6.09,6.813 5.637,6.813 L 9.035,11.47 Z"
 />
</svg>