<?xml version="1.0" encoding="UTF-8" ?>
<svg xmlns="http://www.w3.org/2000/svg" version="1.1">
  <path
 d="M 1.868,7.774 V 8.016 H -0.1423 V 7.774 L 0.5505,7.651 2.633,1.855 H 3.499 L 5.664,7.651 6.438,7.774 V 8.016 H 3.854 V 7.774 L 4.675,7.651 4.069,5.888 H 1.662 L 1.047,7.651 Z M 2.847,2.511 1.799,5.478 H 3.927 Z" />
  <path
  d="M 12.43,7.287 H 15.34 V 8.016 H 12.43 Q 12.2,8.016 11.98,7.984 L 11.52,9.251 10.83,8.996 11.27,7.779 Q 11.11,7.711 10.96,7.624 10.28,7.232 9.892,6.558 9.5,5.883 9.5,5.09 9.5,4.297 9.892,3.623 10.28,2.948 10.96,2.556 11.63,2.164 12.43,2.164 H 13.31 L 13.76,0.9294 14.45,1.185 14.1,2.164 H 15.34 V 2.894 H 13.83 L 12.23,7.278 Q 12.33,7.287 12.43,7.287 Z M 11.52,7.091 13.05,2.894 H 12.43 Q 11.83,2.894 11.33,3.19 10.82,3.486 10.53,3.992 10.23,4.498 10.23,5.09 10.23,5.683 10.53,6.189 10.83,6.704 11.33,6.991 11.42,7.045 11.52,7.091 Z" />
  <path
 d="M 22.7,3.386 Q 22.7,2.825 22.35,2.57 22,2.315 21.21,2.315 H 20.26 V 4.625 H 21.26 Q 22,4.625 22.35,4.334 22.7,4.042 22.7,3.386 Z M 23.16,6.275 Q 23.16,5.633 22.73,5.336 22.3,5.036 21.36,5.036 H 20.26 V 7.606 Q 20.89,7.633 21.6,7.633 22.38,7.633 22.77,7.305 23.16,6.972 23.16,6.275 Z M 18.6,8.016 V 7.774 L 19.38,7.651 V 2.265 L 18.6,2.146 V 1.905 H 21.39 Q 22.56,1.905 23.09,2.251 23.63,2.593 23.63,3.34 23.63,3.878 23.3,4.256 22.97,4.635 22.37,4.762 23.2,4.849 23.65,5.245 24.1,5.637 24.1,6.257 24.1,7.136 23.49,7.592 22.88,8.043 21.72,8.043 L 19.77,8.016 Z"




 />
</svg>