<?xml version="1.0" encoding="UTF-8" ?>
<svg xmlns="http://www.w3.org/2000/svg" version="1.1">
  <path
 d="M 2.712,8.588 V 8.864 H 0.4154 V 8.588 L 1.207,8.447 3.587,1.822 H 4.577 L 7.051,8.447 7.936,8.588 V 8.864 H 4.983 V 8.588 L 5.921,8.447 5.228,6.432 H 2.478 L 1.775,8.447 Z M 3.832,2.572 2.634,5.963 H 5.066 Z"




 />
  <path
 d="M 10.02,1.098 H 10.77 L 14.9,8.994 H 14.16 Z"

 />
  <path
 d="M 21.84,3.572 Q 21.84,2.932 21.44,2.64 21.04,2.348 20.14,2.348 H 19.06 V 4.989 H 20.2 Q 21.05,4.989 21.44,4.656 21.84,4.322 21.84,3.572 Z M 22.37,6.874 Q 22.37,6.14 21.88,5.801 21.39,5.458 20.31,5.458 H 19.06 V 8.395 Q 19.78,8.426 20.59,8.426 21.48,8.426 21.93,8.051 22.37,7.671 22.37,6.874 Z M 17.16,8.864 V 8.588 L 18.06,8.447 V 2.291 L 17.16,2.156 V 1.88 H 20.35 Q 21.68,1.88 22.3,2.275 22.91,2.666 22.91,3.52 22.91,4.135 22.53,4.567 22.16,4.999 21.47,5.145 22.42,5.244 22.93,5.697 23.45,6.145 23.45,6.854 23.45,7.859 22.75,8.38 22.06,8.895 20.72,8.895 L 18.49,8.864 Z"
 />
</svg>