<?xml version="1.0" encoding="UTF-8" ?>
<svg xmlns="http://www.w3.org/2000/svg" version="1.1">
  <path
 d="M 2.54,6.409 V 6.616 H 0.8172 V 6.409 L 1.411,6.304 3.196,1.335 H 3.938 L 5.794,6.304 6.458,6.409 V 6.616 H 4.243 V 6.409 L 4.946,6.304 4.427,4.792 H 2.364 L 1.837,6.304 Z M 3.38,1.897 2.481,4.44 H 4.306 Z"




 />
  <path
 d="M 13.75,4.206 V 1.698 H 14.38 V 4.206 Q 14.38,4.886 14.04,5.464 13.71,6.042 13.13,6.378 12.55,6.714 11.87,6.714 11.19,6.714 10.61,6.378 10.04,6.042 9.7,5.464 9.364,4.886 9.364,4.206 V 1.698 H 9.989 V 4.206 Q 9.989,4.714 10.24,5.147 10.5,5.581 10.93,5.835 11.36,6.089 11.87,6.089 12.38,6.089 12.81,5.835 13.25,5.581 13.5,5.147 13.75,4.714 13.75,4.206 Z"

 />
  <path
 d="M 20.97,2.647 Q 20.97,2.167 20.66,1.948 20.36,1.729 19.69,1.729 H 18.88 V 3.71 H 19.74 Q 20.37,3.71 20.66,3.46 20.97,3.21 20.97,2.647 Z M 21.36,5.124 Q 21.36,4.573 20.99,4.319 20.63,4.061 19.82,4.061 H 18.88 V 6.264 Q 19.42,6.288 20.03,6.288 20.7,6.288 21.03,6.007 21.36,5.721 21.36,5.124 Z M 17.45,6.616 V 6.409 L 18.13,6.304 V 1.686 L 17.45,1.585 V 1.378 H 19.85 Q 20.84,1.378 21.31,1.675 21.77,1.968 21.77,2.608 21.77,3.069 21.48,3.393 21.2,3.718 20.69,3.827 21.4,3.901 21.78,4.241 22.17,4.577 22.17,5.108 22.17,5.862 21.65,6.253 21.13,6.639 20.13,6.639 L 18.45,6.616 Z"
 />
</svg>