<?xml version="1.0" encoding="UTF-8" ?>
<svg xmlns="http://www.w3.org/2000/svg" version="1.1">
  <path
 d="M 2.451,7.222 V 7.464 H 0.4412 V 7.222 L 1.134,7.099 3.217,1.303 H 4.083 L 6.247,7.099 7.022,7.222 V 7.464 H 4.438 V 7.222 L 5.258,7.099 4.652,5.336 H 2.246 L 1.631,7.099 Z M 3.431,1.959 2.383,4.926 H 4.511 Z"




 />
  <path
 d="M 10.38,7.473 V 5.14 Q 10.38,4.456 10.64,3.914 10.91,3.367 11.38,3.066 11.86,2.761 12.45,2.761 13.05,2.761 13.53,3.062 14.01,3.362 14.28,3.914 14.55,4.465 14.55,5.14 V 7.473 H 14.09 V 5.131 Q 14.09,4.265 13.64,3.745 13.19,3.226 12.46,3.226 11.72,3.226 11.29,3.741 10.85,4.256 10.85,5.14 V 7.473 Z"

 />
  <path
 d="M 22.21,2.834 Q 22.21,2.273 21.85,2.018 21.5,1.763 20.72,1.763 H 19.77 V 4.073 H 20.77 Q 21.51,4.073 21.85,3.782 22.21,3.49 22.21,2.834 Z M 22.67,5.723 Q 22.67,5.081 22.24,4.784 21.81,4.484 20.87,4.484 H 19.77 V 7.054 Q 20.4,7.081 21.11,7.081 21.89,7.081 22.28,6.753 22.67,6.42 22.67,5.723 Z M 18.11,7.464 V 7.222 L 18.89,7.099 V 1.713 L 18.11,1.594 V 1.353 H 20.9 Q 22.06,1.353 22.6,1.699 23.14,2.041 23.14,2.788 23.14,3.326 22.81,3.704 22.48,4.083 21.88,4.21 22.71,4.297 23.16,4.693 23.61,5.085 23.61,5.705 23.61,6.584 23,7.04 22.39,7.491 21.23,7.491 L 19.28,7.464 Z" />
</svg>