<?xml version="1.0" encoding="UTF-8" ?>
<svg xmlns="http://www.w3.org/2000/svg" version="1.1">
  <path
 d="M 1.906,7.34 V 7.582 H -0.1034 V 7.34 L 0.5894,7.217 2.672,1.421 H 3.538 L 5.703,7.217 6.477,7.34 V 7.582 H 3.893 V 7.34 L 4.714,7.217 4.108,5.454 H 1.701 L 1.086,7.217 Z M 2.886,2.077 1.838,5.044 H 3.966 Z" />
  <path
 d="M 9.539,7.527 H 15.38 V 8.266 H 9.539 Z M 12.46,6.169 H 15.38 V 6.898 H 12.46 Q 11.67,6.898 11,6.506 10.32,6.115 9.931,5.44 9.539,4.766 9.539,3.973 9.539,3.18 9.931,2.505 10.32,1.831 11,1.439 11.67,1.047 12.46,1.047 H 15.38 V 1.776 H 12.46 Q 11.87,1.776 11.37,2.072 10.86,2.368 10.56,2.874 10.27,3.38 10.27,3.973 10.27,4.565 10.56,5.071 10.86,5.577 11.37,5.873 11.87,6.169 12.46,6.169 Z"



 />
  <path
 d="M 22.74,2.952 Q 22.74,2.391 22.39,2.136 22.03,1.881 21.25,1.881 H 20.3 V 4.191 H 21.3 Q 22.04,4.191 22.39,3.9 22.74,3.608 22.74,2.952 Z M 23.2,5.841 Q 23.2,5.199 22.77,4.902 22.34,4.602 21.4,4.602 H 20.3 V 7.172 Q 20.93,7.199 21.64,7.199 22.42,7.199 22.81,6.871 23.2,6.538 23.2,5.841 Z M 18.64,7.582 V 7.34 L 19.42,7.217 V 1.831 L 18.64,1.712 V 1.471 H 21.43 Q 22.6,1.471 23.13,1.817 23.67,2.159 23.67,2.906 23.67,3.444 23.34,3.822 23.01,4.201 22.41,4.328 23.24,4.415 23.69,4.811 24.14,5.203 24.14,5.823 24.14,6.702 23.53,7.158 22.92,7.609 21.76,7.609 L 19.81,7.582 Z"

 />
</svg>