<?xml version="1.0" encoding="UTF-8" ?>
<svg xmlns="http://www.w3.org/2000/svg" version="1.1">
  <path
 d="M 1.79,6.919 V 7.161 H -0.2201 V 6.919 L 0.4727,6.796 2.555,0.9996 H 3.421 L 5.586,6.796 6.361,6.919 V 7.161 H 3.777 V 6.919 L 4.597,6.796 3.991,5.033 H 1.585 L 0.9694,6.796 Z M 2.77,1.656 1.721,4.623 H 3.85 Z"






 />
  <path
 d="M 12.35,6.432 H 15.26 V 7.161 H 12.35 Q 11.56,7.161 10.88,6.769 10.21,6.377 9.814,5.703 9.422,5.028 9.422,4.235 9.422,3.442 9.814,2.768 10.21,2.093 10.88,1.701 11.56,1.309 12.35,1.309 H 15.26 V 2.039 H 12.35 Q 11.76,2.039 11.25,2.335 10.74,2.631 10.45,3.137 10.15,3.643 10.15,4.235 10.15,4.828 10.45,5.334 10.74,5.839 11.25,6.136 11.76,6.432 12.35,6.432 Z"


 />
  <path
 d="M 22.62,2.531 Q 22.62,1.97 22.27,1.715 21.92,1.46 21.13,1.46 H 20.19 V 3.77 H 21.18 Q 21.92,3.77 22.27,3.479 22.62,3.187 22.62,2.531 Z M 23.08,5.42 Q 23.08,4.778 22.65,4.481 22.22,4.181 21.28,4.181 H 20.19 V 6.751 Q 20.82,6.778 21.53,6.778 22.31,6.778 22.69,6.45 23.08,6.117 23.08,5.42 Z M 18.52,7.161 V 6.919 L 19.31,6.796 V 1.41 L 18.52,1.291 V 1.05 H 21.32 Q 22.48,1.05 23.02,1.396 23.55,1.738 23.55,2.485 23.55,3.023 23.22,3.401 22.89,3.78 22.3,3.907 23.12,3.994 23.57,4.39 24.02,4.782 24.02,5.402 24.02,6.281 23.41,6.737 22.81,7.188 21.64,7.188 L 19.69,7.161 Z"

 />
</svg>