<?xml version="1.0" encoding="UTF-8" ?>
<svg xmlns="http://www.w3.org/2000/svg" version="1.1">
  <path
 d="M 10.77,9.543 Q 10,10.97 8.942,11.61 7.888,12.26 6.388,12.26 4.145,12.26 2.7,10.74 1.255,9.215 1.255,6.934 1.255,4.504 2.794,2.856 4.333,1.208 6.677,1.208 7.231,1.208 7.794,1.348 8.356,1.489 8.934,1.77 9.263,1.926 9.395,1.926 9.872,1.926 10.02,1.192 H 10.29 L 10.54,4.786 H 10.29 Q 9.458,1.747 6.739,1.747 5.036,1.747 4.036,3.098 3.044,4.442 3.044,6.918 3.044,9.176 4.145,10.38 5.247,11.57 6.997,11.57 8.106,11.57 8.903,11.09 9.7,10.61 10.54,9.379 Z M 7.028,11.9 Q 2.724,11.55 2.724,6.918 2.724,4.676 3.552,3.286 4.38,1.895 5.849,1.59 3.989,1.793 2.778,3.309 1.575,4.825 1.575,6.934 1.575,9.106 2.934,10.53 4.302,11.94 6.403,11.94 6.708,11.94 7.028,11.9 Z M 10.02,1.973 Q 9.77,2.247 9.395,2.247 9.278,2.247 9.122,2.192 9.708,2.661 10.12,3.442 Z" />
</svg>