<?xml version="1.0" encoding="UTF-8" ?>
<svg xmlns="http://www.w3.org/2000/svg" version="1.1">
  <path
 d="M 2.101,7.036 V 7.278 H 0.0912 V 7.036 L 0.7839,6.913 2.867,1.117 H 3.732 L 5.897,6.913 6.672,7.036 V 7.278 H 4.088 V 7.036 L 4.908,6.913 4.302,5.15 H 1.896 L 1.281,6.913 Z M 3.081,1.773 2.033,4.74 H 4.161 Z"

 />
  <path
  d="M 12.19,5.255 H 15.16 V 5.701 H 11.93 L 11.29,6.831 H 15.16 V 7.278 H 11.04 L 10.81,7.688 H 10.28 L 10.51,7.278 H 9.761 V 6.831 H 10.77 L 11.42,5.692 Q 10.71,5.61 10.24,5.059 9.761,4.503 9.761,3.787 9.761,2.62 10.61,2.183 11.21,1.864 12.45,1.864 12.53,1.864 13.06,1.873 13.32,1.882 13.61,1.882 L 13.88,1.417 H 14.38 L 14.11,1.882 H 15.16 V 2.333 H 13.86 Z M 13.36,2.333 H 11.67 Q 11.06,2.333 10.64,2.757 10.21,3.181 10.21,3.787 10.21,4.398 10.64,4.822 11.07,5.255 11.68,5.255 Z"
 />
  <path
 d="M 22.53,2.648 Q 22.53,2.087 22.18,1.832 21.83,1.577 21.04,1.577 H 20.1 V 3.887 H 21.09 Q 21.83,3.887 22.18,3.596 22.53,3.304 22.53,2.648 Z M 22.99,5.537 Q 22.99,4.895 22.56,4.598 22.13,4.298 21.19,4.298 H 20.1 V 6.868 Q 20.73,6.895 21.44,6.895 22.22,6.895 22.6,6.567 22.99,6.234 22.99,5.537 Z M 18.43,7.278 V 7.036 L 19.22,6.913 V 1.527 L 18.43,1.408 V 1.167 H 21.23 Q 22.39,1.167 22.93,1.513 23.46,1.855 23.46,2.602 23.46,3.14 23.13,3.518 22.8,3.897 22.21,4.024 23.03,4.111 23.48,4.507 23.93,4.899 23.93,5.519 23.93,6.398 23.32,6.854 22.72,7.305 21.55,7.305 L 19.6,7.278 Z"




 />
</svg>