<?xml version="1.0" encoding="UTF-8" ?>
<svg xmlns="http://www.w3.org/2000/svg" version="1.1">
  <path
 d="M 2.14,7.107 V 7.349 H 0.13 V 7.107 L 0.8228,6.984 2.905,1.188 H 3.771 L 5.936,6.984 6.711,7.107 V 7.349 H 4.127 V 7.107 L 4.947,6.984 4.341,5.221 H 1.935 L 1.319,6.984 Z M 3.12,1.844 2.071,4.811 H 4.2 Z"
 />
  <path
  d="M 13.4,2.404 H 9.791 V 1.953 Q 10.33,1.953 11.01,1.93 11.93,1.908 12.26,1.908 13.19,1.908 13.64,1.981 L 13.92,1.488 H 14.42 L 14.07,2.113 Q 15.2,2.673 15.2,3.858 15.2,4.678 14.65,5.225 14.1,5.772 13.28,5.772 H 11.97 L 11.33,6.902 H 15.2 V 7.349 H 11.08 L 10.85,7.759 H 10.31 L 10.55,7.349 H 9.791 V 6.902 H 10.81 L 11.45,5.772 H 9.791 V 5.326 H 11.71 Z M 12.23,5.326 H 13.28 Q 13.89,5.326 14.32,4.893 14.75,4.469 14.75,3.858 14.75,3.412 14.5,3.033 14.26,2.65 13.84,2.505 Z" />
  <path
 d="M 22.57,2.719 Q 22.57,2.158 22.22,1.903 21.87,1.648 21.08,1.648 H 20.14 V 3.958 H 21.13 Q 21.87,3.958 22.22,3.667 22.57,3.375 22.57,2.719 Z M 23.03,5.608 Q 23.03,4.966 22.6,4.669 22.17,4.369 21.23,4.369 H 20.14 V 6.939 Q 20.76,6.966 21.48,6.966 22.25,6.966 22.64,6.638 23.03,6.305 23.03,5.608 Z M 18.47,7.349 V 7.107 L 19.26,6.984 V 1.598 L 18.47,1.479 V 1.238 H 21.27 Q 22.43,1.238 22.97,1.584 23.5,1.926 23.5,2.673 23.5,3.211 23.17,3.589 22.84,3.968 22.25,4.095 23.07,4.182 23.52,4.578 23.97,4.97 23.97,5.59 23.97,6.469 23.36,6.925 22.76,7.376 21.59,7.376 L 19.64,7.349 Z"




 />
</svg>