<?xml version="1.0" encoding="UTF-8" ?>
<svg xmlns="http://www.w3.org/2000/svg" version="1.1">
  <path
 d="M 2.885,9.613 V 9.958 H 0.0135 V 9.613 L 1.003,9.437 3.978,1.156 H 5.215 L 8.308,9.437 9.415,9.613 V 9.958 H 5.723 V 9.613 L 6.895,9.437 6.029,6.918 H 2.592 L 1.713,9.437 Z M 4.284,2.093 2.787,6.332 H 5.827 Z"





 />
  <path
 d="M 9.826,9.958 H 9.162 L 15.44,1.228 H 16.09 Z"

 />
  <path
 d="M 22,3.343 Q 22,2.543 21.49,2.178 20.99,1.813 19.87,1.813 H 18.52 V 5.114 H 19.94 Q 21,5.114 21.49,4.698 22,4.281 22,3.343 Z M 22.65,7.471 Q 22.65,6.553 22.04,6.13 21.43,5.7 20.08,5.7 H 18.52 V 9.372 Q 19.42,9.411 20.43,9.411 21.55,9.411 22.1,8.942 22.65,8.467 22.65,7.471 Z M 16.14,9.958 V 9.613 L 17.26,9.437 V 1.742 L 16.14,1.573 V 1.228 H 20.13 Q 21.79,1.228 22.56,1.722 23.33,2.211 23.33,3.278 23.33,4.047 22.85,4.587 22.39,5.127 21.53,5.31 22.71,5.433 23.36,6 24,6.56 24,7.445 24,8.701 23.13,9.353 22.26,9.997 20.6,9.997 L 17.81,9.958 Z"

 />
</svg>