<?xml version="1.0" encoding="UTF-8" ?>
<svg xmlns="http://www.w3.org/2000/svg" version="1.1">
  <path
 d="M 12.76,1.445 Q 12.04,1.445 11.73,1.586 11.42,1.727 11.34,2.023 11.26,2.32 11.26,3.188 V 11.93 H 10.97 L 3.916,3.281 H 3.884 V 9.719 Q 3.884,10.59 3.962,10.88 4.048,11.18 4.353,11.32 4.666,11.46 5.384,11.46 V 11.75 H 1.798 V 11.46 Q 2.525,11.46 2.83,11.32 3.142,11.18 3.22,10.88 3.306,10.59 3.306,9.719 V 2.547 Q 2.798,1.906 2.345,1.68 1.9,1.445 1.205,1.445 V 1.156 H 4.087 L 10.64,9.211 H 10.68 V 3.188 Q 10.68,2.32 10.6,2.023 10.52,1.727 10.2,1.586 9.892,1.445 9.173,1.445 V 1.156 H 12.76 Z M 10.57,10.92 V 9.656 L 3.916,1.477 H 2.634 Q 3.056,1.695 3.416,2.133 Z" />
</svg>