<?xml version="1.0" encoding="UTF-8" ?>
<svg xmlns="http://www.w3.org/2000/svg" version="1.1">
  <path
 d="M 1.945,7.148 V 7.39 H -0.0645 V 7.148 L 0.6283,7.025 2.711,1.229 H 3.577 L 5.742,7.025 6.516,7.148 V 7.39 H 3.932 V 7.148 L 4.753,7.025 4.146,5.262 H 1.74 L 1.125,7.025 Z M 2.925,1.885 1.877,4.852 H 4.005 Z" />
  <path
  d="M 12.49,2.268 H 9.578 V 1.538 H 12.49 Q 13.29,1.538 13.96,1.93 14.64,2.322 15.03,2.997 15.42,3.671 15.42,4.464 15.42,5.257 15.03,5.932 14.64,6.606 13.96,6.998 13.29,7.39 12.49,7.39 H 9.578 V 6.661 H 12.49 Q 13.09,6.661 13.59,6.365 14.1,6.068 14.4,5.563 14.69,5.057 14.69,4.464 14.69,3.872 14.4,3.366 14.1,2.86 13.59,2.564 13.09,2.268 12.49,2.268 Z" />
  <path
 d="M 22.78,2.76 Q 22.78,2.199 22.42,1.944 22.07,1.689 21.29,1.689 H 20.34 V 3.999 H 21.34 Q 22.08,3.999 22.42,3.708 22.78,3.416 22.78,2.76 Z M 23.24,5.649 Q 23.24,5.007 22.81,4.71 22.38,4.41 21.44,4.41 H 20.34 V 6.98 Q 20.97,7.007 21.68,7.007 22.46,7.007 22.85,6.679 23.24,6.346 23.24,5.649 Z M 18.68,7.39 V 7.148 L 19.46,7.025 V 1.639 L 18.68,1.52 V 1.279 H 21.47 Q 22.63,1.279 23.17,1.625 23.71,1.967 23.71,2.714 23.71,3.252 23.38,3.63 23.05,4.009 22.45,4.136 23.28,4.223 23.73,4.619 24.18,5.011 24.18,5.631 24.18,6.51 23.57,6.966 22.96,7.417 21.8,7.417 L 19.84,7.39 Z"

 />
</svg>