<?xml version="1.0" encoding="UTF-8" ?>
<svg xmlns="http://www.w3.org/2000/svg" version="1.1">
  <path
 d="M 10.42,8.913 9.925,11.71 H 1.308 V 11.42 L 8.183,1.632 H 5.003 Q 3.628,1.632 3.159,2.116 2.698,2.593 2.55,3.773 H 2.245 L 2.472,1.116 H 10.32 L 3.237,11.19 H 7.722 Q 8.636,11.19 9.128,10.75 9.628,10.3 10.14,8.913 Z M 9.558,1.632 H 8.581 L 1.839,11.19 H 2.831 Z M 3.816,1.437 Q 2.769,1.437 2.737,1.804 2.706,2.163 2.706,2.187 L 2.776,2.085 Q 2.956,1.812 3.214,1.663 3.48,1.515 3.816,1.437 Z M 8.823,11.39 H 9.659 L 9.823,10.46 Q 9.573,10.87 9.323,11.08 9.073,11.29 8.823,11.39 Z"
 />
</svg>