<?xml version="1.0" encoding="UTF-8" ?>
<svg xmlns="http://www.w3.org/2000/svg" version="1.1">
  <path
 d="M 2.686,3.98 Q 3.588,3.98 4.01,4.349 4.438,4.718 4.438,5.48 V 9.201 L 5.123,9.347 V 9.611 H 3.612 L 3.5,9.06 Q 2.832,9.728 1.795,9.728 0.383,9.728 0.383,8.088 0.383,7.537 0.594,7.179 0.8107,6.816 1.279,6.629 1.748,6.435 2.639,6.418 L 3.465,6.394 V 5.533 Q 3.465,4.965 3.254,4.695 3.049,4.425 2.615,4.425 2.029,4.425 1.543,4.701 L 1.344,5.386 H 1.016 V 4.185 Q 1.965,3.98 2.686,3.98 Z M 3.465,6.804 2.697,6.828 Q 1.912,6.857 1.631,7.132 1.356,7.408 1.356,8.052 1.356,9.084 2.194,9.084 2.592,9.084 2.879,8.996 3.172,8.902 3.465,8.761 Z"



 />
  <path
 d="M 11.17,2.982 H 8.592 V 2.045 H 11.17 Q 12.19,2.045 13.06,2.548 13.92,3.052 14.43,3.92 14.93,4.787 14.93,5.806 14.93,6.826 14.43,7.693 13.92,8.56 13.06,9.064 12.19,9.568 11.17,9.568 H 8.592 V 8.63 H 11.17 Q 11.93,8.63 12.58,8.25 13.23,7.869 13.61,7.218 13.87,6.773 13.95,6.281 H 8.592 V 5.332 H 13.95 Q 13.87,4.839 13.61,4.394 13.23,3.744 12.58,3.363 11.93,2.982 11.17,2.982 Z"
 />
  <path
 d="M 22.65,6.705 Q 22.65,5.627 22.28,5.099 21.9,4.572 21.12,4.572 20.77,4.572 20.43,4.636 20.09,4.695 19.94,4.765 V 9.131 Q 20.43,9.224 21.12,9.224 21.93,9.224 22.29,8.591 22.65,7.959 22.65,6.705 Z M 18.97,1.689 18.16,1.549 V 1.285 H 19.94 V 3.254 Q 19.94,3.57 19.9,4.414 20.49,3.957 21.38,3.957 22.51,3.957 23.1,4.642 23.71,5.322 23.71,6.705 23.71,8.187 23.05,8.961 22.39,9.728 21.14,9.728 20.64,9.728 20.03,9.617 19.42,9.506 18.97,9.324 Z"
 />
</svg>