<?xml version="1.0" encoding="UTF-8" ?>
<svg xmlns="http://www.w3.org/2000/svg" version="1.1">
  <path
 d="M 11.75,15.22 Q 10.38,15.15 9.027,14.64 7.684,14.14 6.473,13.24 L 4.988,12.07 Q 3.309,11.42 2.371,10.06 1.442,8.691 1.442,6.753 1.442,4.433 2.902,2.831 4.371,1.222 6.621,1.222 8.879,1.222 10.34,2.831 11.81,4.433 11.81,6.753 11.81,8.636 10.78,10.13 9.746,11.61 7.918,12.16 9.363,14.78 11.75,14.93 Z M 8.067,11.76 Q 9.473,11.43 10.48,10.05 11.49,8.667 11.49,6.753 11.49,4.73 10.29,3.222 9.106,1.714 7.262,1.534 8.731,1.839 9.527,3.183 10.33,4.527 10.33,6.753 10.33,10.68 8.067,11.76 Z M 5.981,1.534 Q 4.145,1.714 2.949,3.222 1.762,4.73 1.762,6.753 1.762,8.667 2.77,10.05 3.777,11.43 5.184,11.76 2.91,10.68 2.91,6.753 2.91,4.527 3.715,3.183 4.52,1.839 5.981,1.534 Z M 10.02,6.753 Q 10.02,4.456 9.145,3.128 8.277,1.792 6.621,1.792 4.973,1.792 4.098,3.128 3.231,4.456 3.231,6.753 3.231,9.042 4.106,10.4 4.981,11.76 6.621,11.76 8.27,11.76 9.145,10.4 10.02,9.042 10.02,6.753 Z M 9.715,14.58 Q 8.488,13.93 7.598,12.26 6.965,12.32 6.606,12.32 6.34,12.32 5.871,12.28 7.34,13.7 9.715,14.58 Z"
 />
</svg>