<?xml version="1.0" encoding="UTF-8" ?>
<svg xmlns="http://www.w3.org/2000/svg" version="1.1">
  <path
 d="M 8.872,12.43 H 8.607 Q 8.575,12.06 8.45,11.71 8.333,11.36 8.107,11.11 L 3.943,6.33 Q 3.677,6.463 3.443,6.635 3.208,6.799 3.029,6.987 2.857,7.174 2.755,7.377 2.654,7.58 2.654,7.791 2.654,8.455 3.333,9.471 4.122,10.65 4.122,11.34 4.122,12.26 3.419,12.26 H 1.825 V 12 Q 2.404,11.85 2.404,11.34 2.404,11.03 2.036,10.08 1.669,9.135 1.669,8.635 1.669,7.854 2.138,7.166 2.614,6.471 3.575,5.924 L 2.396,4.588 Q 1.654,3.737 1.654,2.83 1.654,2.408 1.818,2.065 1.989,1.721 2.325,1.354 H 2.575 Q 2.599,1.776 2.716,2.143 2.841,2.51 3.075,2.776 L 6.685,6.877 Q 6.755,6.533 6.857,6.127 6.958,5.713 7.091,5.307 7.232,4.893 7.396,4.51 7.56,4.119 7.755,3.815 7.372,3.752 7.083,3.651 6.794,3.549 6.599,3.393 6.411,3.229 6.318,2.994 6.224,2.76 6.224,2.44 6.224,2.205 6.318,1.924 6.419,1.643 6.622,1.354 H 6.872 Q 6.95,1.651 7.13,1.83 7.31,2.002 7.607,2.08 L 8.435,2.283 Q 9.521,2.541 9.521,3.26 9.521,3.408 9.497,3.533 9.474,3.658 9.435,3.791 9.114,3.885 8.388,3.885 8.138,4.283 7.95,4.721 7.763,5.151 7.638,5.565 7.513,5.971 7.45,6.33 7.388,6.69 7.388,6.94 7.388,7.666 7.896,8.26 L 8.794,9.291 Q 9.544,10.15 9.544,11.06 9.544,11.48 9.372,11.8 9.208,12.12 8.872,12.43 Z"
 />
</svg>