<?xml version="1.0" encoding="UTF-8" ?>
<svg xmlns="http://www.w3.org/2000/svg" version="1.1">
  <path
 d="M 10.93,4.355 Q 11.36,5.62 11.36,7.652 11.36,13.5 7.632,13.5 5.288,13.5 4.428,11.24 2.147,13.75 1.889,13.75 1.467,13.75 1.467,13.33 1.467,13.08 4.155,10.35 3.905,9.238 3.905,7.652 3.905,1.792 7.632,1.792 9.639,1.792 10.59,3.558 12.52,1.394 12.78,1.394 13.2,1.394 13.2,1.816 13.2,2.105 10.93,4.355 Z M 9.6,4.613 Q 9.124,2.964 7.616,2.964 6.163,2.964 5.647,4.706 5.342,5.738 5.342,7.652 5.342,8.409 5.389,9.042 Z M 9.921,7.652 Q 9.921,6.527 9.788,5.558 L 5.522,10.07 Q 5.928,12.34 7.632,12.34 9.1,12.34 9.616,10.6 9.921,9.589 9.921,7.652 Z"

 />
</svg>