<?xml version="1.0" encoding="UTF-8" ?>
<svg xmlns="http://www.w3.org/2000/svg" version="1.1">
  <path
 d="M 8.122,2.615 V 6.74 H 7.317 V 3.412 H 0.676 V 2.615 Z"

 />
  <path
 d="M 17.9,7.779 18.78,7.974 18.72,8.326 H 16.49 L 16.72,7.107 Q 15.4,8.49 14.3,8.49 13.36,8.49 12.78,7.795 12.21,7.099 12.21,5.88 12.21,4.513 12.8,3.326 13.4,2.13 14.4,1.466 15.4,0.7941 16.58,0.7941 17.52,0.7941 18.36,1.122 L 18.71,0.8566 H 19.13 Z M 17.67,1.786 Q 17.36,1.575 17.1,1.497 16.83,1.411 16.44,1.411 15.66,1.411 15.01,2.005 14.36,2.591 13.98,3.591 13.61,4.591 13.61,5.677 13.61,6.513 13.95,7.013 14.29,7.513 14.89,7.513 15.77,7.513 16.82,6.427 Z"


 />
</svg>