<?xml version="1.0" encoding="UTF-8" ?>
<svg xmlns="http://www.w3.org/2000/svg" version="1.1">
  <path
 d="M 6.563,11.44 7.446,11.64 7.383,11.99 H 5.156 L 5.383,10.77 Q 4.062,12.15 2.969,12.15 2.023,12.15 1.445,11.46 0.8747,10.76 0.8747,9.544 0.8747,8.177 1.468,6.99 2.07,5.794 3.07,5.13 4.07,4.458 5.242,4.458 6.188,4.458 7.024,4.786 L 7.375,4.521 H 7.797 Z M 6.336,5.45 Q 6.031,5.239 5.766,5.161 5.5,5.075 5.109,5.075 4.328,5.075 3.672,5.669 3.023,6.255 2.648,7.255 2.273,8.255 2.273,9.341 2.273,10.18 2.617,10.68 2.961,11.18 3.555,11.18 4.437,11.18 5.484,10.09 Z"
 />
  <path
 d="M 10.99,8.818 V 7.622 H 15.15 V 8.818 Z"


 />
  <path
 d="M 20.13,1.427 19.09,1.239 19.15,0.8875 H 21.49 L 20.92,4.333 Q 20.78,5.224 20.61,5.841 21.24,5.2 21.89,4.825 22.56,4.45 23.11,4.45 24.09,4.45 24.67,5.154 25.26,5.849 25.26,7.06 25.26,8.404 24.67,9.599 24.1,10.79 23.07,11.47 22.05,12.15 20.84,12.15 20.15,12.15 19.49,11.97 18.83,11.79 18.34,11.49 Z M 19.68,11.15 Q 20.13,11.53 20.94,11.53 21.74,11.53 22.41,10.94 23.09,10.35 23.47,9.357 23.86,8.357 23.86,7.263 23.86,6.388 23.49,5.911 23.13,5.427 22.52,5.427 22.06,5.427 21.52,5.732 20.99,6.036 20.51,6.513 Z"
 />
</svg>