<?xml version="1.0" encoding="UTF-8" ?>
<svg xmlns="http://www.w3.org/2000/svg" version="1.1">
  <path
 d="M 7.011,11.75 7.894,11.95 7.831,12.3 H 5.605 L 5.831,11.08 Q 4.511,12.46 3.417,12.46 2.472,12.46 1.893,11.77 1.323,11.07 1.323,9.854 1.323,8.487 1.917,7.3 2.518,6.104 3.518,5.44 4.519,4.768 5.691,4.768 6.636,4.768 7.472,5.096 L 7.824,4.831 H 8.245 Z M 6.784,5.76 Q 6.48,5.549 6.214,5.471 5.948,5.385 5.558,5.385 4.776,5.385 4.12,5.979 3.472,6.565 3.097,7.565 2.722,8.565 2.722,9.651 2.722,10.49 3.065,10.99 3.409,11.49 4.003,11.49 4.886,11.49 5.933,10.4 Z"
 />
  <path
 d="M 14.76,9.31 H 15.14 L 18.48,1.872 H 17.68 L 14.94,8.193 12.21,1.872 H 11.41 Z"


 />
  <path
 d="M 22.04,1.777 21,1.589 21.07,1.238 H 23.41 L 22.83,4.683 Q 22.7,5.574 22.53,6.191 23.15,5.55 23.81,5.175 24.47,4.8 25.03,4.8 26,4.8 26.59,5.504 27.18,6.199 27.18,7.41 27.18,8.754 26.59,9.949 26.01,11.14 24.99,11.82 23.97,12.5 22.75,12.5 22.07,12.5 21.4,12.32 20.75,12.14 20.25,11.84 Z M 21.6,11.5 Q 22.05,11.88 22.86,11.88 23.65,11.88 24.32,11.29 25,10.7 25.39,9.707 25.78,8.707 25.78,7.613 25.78,6.738 25.41,6.261 25.05,5.777 24.44,5.777 23.98,5.777 23.44,6.082 22.91,6.386 22.43,6.863 Z"
 />
</svg>