<?xml version="1.0" encoding="UTF-8" ?>
<svg xmlns="http://www.w3.org/2000/svg" version="1.1">
  <path
 d="M 5.606,4.99 V 8.318 H 4.802 V 4.99 H 1.489 V 4.193 H 4.802 V 0.8642 H 5.606 V 4.193 H 8.935 V 4.99 Z M 8.935,9.107 V 9.904 H 1.489 V 9.107 Z" />
  <path
 d="M 17.69,9.357 18.58,9.552 18.51,9.904 H 16.29 L 16.51,8.685 Q 15.19,10.07 14.1,10.07 13.15,10.07 12.58,9.373 12.01,8.677 12.01,7.458 12.01,6.091 12.6,4.904 13.2,3.708 14.2,3.044 15.2,2.372 16.37,2.372 17.32,2.372 18.15,2.7 L 18.51,2.435 H 18.93 Z M 17.47,3.364 Q 17.16,3.153 16.9,3.075 16.63,2.989 16.24,2.989 15.46,2.989 14.8,3.583 14.15,4.169 13.78,5.169 13.4,6.169 13.4,7.255 13.4,8.091 13.75,8.591 14.09,9.091 14.69,9.091 15.57,9.091 16.61,8.005 Z" />
</svg>