<?xml version="1.0" encoding="UTF-8" ?>
<svg xmlns="http://www.w3.org/2000/svg" version="1.1">
  <path
 d="M 6.712,11.49 7.595,11.69 7.533,12.04 H 5.306 L 5.532,10.82 Q 4.212,12.2 3.118,12.2 2.173,12.2 1.595,11.51 1.024,10.81 1.024,9.594 1.024,8.227 1.618,7.04 2.22,5.844 3.22,5.18 4.22,4.508 5.392,4.508 6.337,4.508 7.173,4.836 L 7.525,4.571 H 7.947 Z M 6.486,5.5 Q 6.181,5.289 5.915,5.211 5.65,5.125 5.259,5.125 4.478,5.125 3.821,5.719 3.173,6.305 2.798,7.305 2.423,8.305 2.423,9.391 2.423,10.23 2.767,10.73 3.11,11.23 3.704,11.23 4.587,11.23 5.634,10.14 Z"
 />
  <path
 d="M 16.58,5.749 14.51,8.542 16.69,11.49 H 15.58 L 13.91,9.234 12.23,11.49 H 11.12 L 13.35,8.486 11.31,5.749 H 12.42 L 13.95,7.794 15.47,5.749 Z"

 />
  <path
 d="M 21.89,1.477 20.85,1.289 20.92,0.9375 H 23.26 L 22.68,4.383 Q 22.55,5.274 22.38,5.891 23,5.25 23.66,4.875 24.32,4.5 24.88,4.5 25.85,4.5 26.44,5.204 27.03,5.899 27.03,7.11 27.03,8.454 26.44,9.649 25.86,10.84 24.84,11.52 23.82,12.2 22.6,12.2 21.92,12.2 21.25,12.02 20.6,11.84 20.1,11.54 Z M 21.45,11.2 Q 21.9,11.58 22.71,11.58 23.5,11.58 24.17,10.99 24.85,10.4 25.24,9.407 25.63,8.407 25.63,7.313 25.63,6.438 25.26,5.961 24.9,5.477 24.29,5.477 23.83,5.477 23.29,5.782 22.76,6.086 22.28,6.563 Z"

 />
</svg>