<?xml version="1.0" encoding="UTF-8" ?>
<svg xmlns="http://www.w3.org/2000/svg" version="1.1">
  <path
 d="M 6.712,11.65 7.595,11.85 7.532,12.2 H 5.306 L 5.532,10.98 Q 4.212,12.36 3.118,12.36 2.173,12.36 1.594,11.67 1.024,10.97 1.024,9.754 1.024,8.387 1.618,7.2 2.219,6.004 3.219,5.34 4.22,4.668 5.392,4.668 6.337,4.668 7.173,4.996 L 7.525,4.731 H 7.946 Z M 6.485,5.66 Q 6.181,5.449 5.915,5.371 5.649,5.285 5.259,5.285 4.477,5.285 3.821,5.879 3.173,6.465 2.798,7.465 2.423,8.465 2.423,9.551 2.423,10.39 2.766,10.89 3.11,11.39 3.704,11.39 4.587,11.39 5.634,10.3 Z"
 />
  <path
 d="M 15.92,3.895 Q 15.92,4.207 15.7,4.426 15.49,4.645 15.17,4.645 14.85,4.645 14.63,4.426 14.42,4.207 14.42,3.895 14.42,3.582 14.63,3.363 14.85,3.145 15.17,3.145 15.49,3.145 15.7,3.363 15.92,3.582 15.92,3.895 Z M 15.92,9.879 Q 15.92,10.19 15.7,10.41 15.49,10.63 15.17,10.63 14.85,10.63 14.63,10.41 14.42,10.19 14.42,9.879 14.42,9.567 14.63,9.348 14.85,9.129 15.17,9.129 15.49,9.129 15.7,9.348 15.92,9.567 15.92,9.879 Z M 18.9,6.489 V 7.286 H 11.45 V 6.489 Z"

 />
  <path
 d="M 23.71,1.637 22.67,1.449 22.74,1.098 H 25.08 L 24.5,4.543 Q 24.37,5.434 24.2,6.051 24.82,5.41 25.48,5.035 26.14,4.66 26.7,4.66 27.67,4.66 28.26,5.364 28.85,6.059 28.85,7.27 28.85,8.614 28.26,9.809 27.68,11 26.66,11.68 25.64,12.36 24.42,12.36 23.74,12.36 23.07,12.18 22.42,12 21.92,11.7 Z M 23.27,11.36 Q 23.72,11.74 24.53,11.74 25.32,11.74 25.99,11.15 26.67,10.56 27.06,9.567 27.45,8.567 27.45,7.473 27.45,6.598 27.08,6.121 26.72,5.637 26.11,5.637 25.65,5.637 25.11,5.942 24.58,6.246 24.1,6.723 Z"

 />
</svg>