<?xml version="1.0" encoding="UTF-8" ?>
<svg xmlns="http://www.w3.org/2000/svg" version="1.1">
  <path
 d="M 14.15,8.411 15.04,8.606 14.97,8.958 H 12.75 L 12.97,7.739 Q 11.65,9.122 10.56,9.122 9.613,9.122 9.035,8.427 8.465,7.731 8.465,6.512 8.465,5.145 9.058,3.958 9.66,2.762 10.66,2.098 11.66,1.426 12.83,1.426 13.78,1.426 14.61,1.754 L 14.97,1.489 H 15.39 Z M 13.93,2.418 Q 13.62,2.207 13.36,2.129 13.09,2.043 12.7,2.043 11.92,2.043 11.26,2.637 10.61,3.223 10.24,4.223 9.863,5.223 9.863,6.309 9.863,7.145 10.21,7.645 10.55,8.145 11.14,8.145 12.03,8.145 13.07,7.059 Z"
 />
  <path
 d="M 5.374,10.83 V 9.783 H 16.22 V 10.83 Z"
 />
  <path
 d="M 10.18,12.47 9.145,12.28 9.207,11.93 H 11.55 L 10.97,15.37 Q 10.84,16.26 10.67,16.88 11.29,16.24 11.95,15.87 12.61,15.49 13.17,15.49 14.15,15.49 14.73,16.19 15.32,16.89 15.32,18.1 15.32,19.44 14.73,20.64 14.15,21.83 13.13,22.51 12.11,23.19 10.9,23.19 10.21,23.19 9.543,23.01 8.887,22.83 8.395,22.53 Z M 9.739,22.19 Q 10.19,22.57 11,22.57 11.79,22.57 12.47,21.98 13.15,21.39 13.53,20.4 13.92,19.4 13.92,18.3 13.92,17.43 13.55,16.95 13.19,16.47 12.58,16.47 12.12,16.47 11.58,16.77 11.05,17.08 10.57,17.55 Z"
 />
</svg>