<?xml version="1.0" encoding="UTF-8" ?>
<svg xmlns="http://www.w3.org/2000/svg" version="1.1">
  <path
 d="M 6.239,11.36 7.122,11.56 7.06,11.91 H 4.833 L 5.059,10.69 Q 3.739,12.07 2.645,12.07 1.7,12.07 1.122,11.38 0.5513,10.68 0.5513,9.464 0.5513,8.097 1.145,6.91 1.747,5.714 2.747,5.05 3.747,4.378 4.919,4.378 5.864,4.378 6.7,4.706 L 7.052,4.441 H 7.474 Z M 6.013,5.37 Q 5.708,5.159 5.442,5.081 5.177,4.995 4.786,4.995 4.005,4.995 3.348,5.589 2.7,6.175 2.325,7.175 1.95,8.175 1.95,9.261 1.95,10.1 2.294,10.6 2.637,11.1 3.231,11.1 4.114,11.1 5.161,10.01 Z"

 />
  <path
 d="M 13.81,8.148 Q 13.81,9.281 13.24,9.882 12.66,10.48 11.59,10.48 10.58,10.48 10,9.882 9.431,9.273 9.431,8.148 9.431,7.023 10.01,6.444 10.6,5.859 11.63,5.859 12.67,5.859 13.24,6.468 13.81,7.077 13.81,8.148 Z M 12.81,8.148 Q 12.81,7.14 12.52,6.726 12.23,6.304 11.59,6.304 10.99,6.304 10.71,6.702 10.44,7.101 10.44,8.148 10.44,9.203 10.71,9.617 10.99,10.02 11.59,10.02 12.23,10.02 12.52,9.601 12.81,9.171 12.81,8.148 Z"


 />
  <path
 d="M 18.25,1.257 17.21,1.069 17.28,0.7175 H 19.62 L 19.04,4.163 Q 18.91,5.054 18.74,5.671 19.36,5.03 20.02,4.655 20.68,4.28 21.24,4.28 22.21,4.28 22.8,4.984 23.39,5.679 23.39,6.89 23.39,8.234 22.8,9.429 22.22,10.62 21.2,11.3 20.18,11.98 18.96,11.98 18.28,11.98 17.61,11.8 16.96,11.62 16.46,11.32 Z M 17.81,10.98 Q 18.26,11.36 19.07,11.36 19.86,11.36 20.53,10.77 21.21,10.18 21.6,9.187 21.99,8.187 21.99,7.093 21.99,6.218 21.62,5.741 21.26,5.257 20.65,5.257 20.19,5.257 19.65,5.562 19.12,5.866 18.64,6.343 Z"

 />
</svg>