<?xml version="1.0" encoding="UTF-8" ?>
<svg xmlns="http://www.w3.org/2000/svg" version="1.1">
  <path
 d="M 0.8924,5.292 V 4.096 H 5.049 V 5.292 Z"

 />
  <path
 d="M 13.81,7.917 14.69,8.112 14.63,8.464 H 12.4 L 12.63,7.245 Q 11.31,8.628 10.21,8.628 9.268,8.628 8.69,7.933 8.119,7.237 8.119,6.018 8.119,4.651 8.713,3.464 9.315,2.268 10.31,1.604 11.32,0.9321 12.49,0.9321 13.43,0.9321 14.27,1.26 L 14.62,0.9946 H 15.04 Z M 13.58,1.924 Q 13.28,1.713 13.01,1.635 12.74,1.549 12.35,1.549 11.57,1.549 10.92,2.143 10.27,2.729 9.893,3.729 9.518,4.729 9.518,5.815 9.518,6.651 9.862,7.151 10.21,7.651 10.8,7.651 11.68,7.651 12.73,6.565 Z" />
</svg>