<?xml version="1.0" encoding="UTF-8" ?>
<svg xmlns="http://www.w3.org/2000/svg" version="1.1">
  <path
 d="M 6.811,11.49 7.694,11.69 7.632,12.04 H 5.405 L 5.631,10.82 Q 4.311,12.2 3.217,12.2 2.272,12.2 1.694,11.51 1.123,10.81 1.123,9.594 1.123,8.227 1.717,7.04 2.319,5.844 3.319,5.18 4.319,4.508 5.491,4.508 6.436,4.508 7.272,4.836 L 7.624,4.571 H 8.046 Z M 6.585,5.5 Q 6.28,5.289 6.014,5.211 5.749,5.125 5.358,5.125 4.577,5.125 3.92,5.719 3.272,6.305 2.897,7.305 2.522,8.305 2.522,9.391 2.522,10.23 2.866,10.73 3.209,11.23 3.803,11.23 4.686,11.23 5.733,10.14 Z"
 />
  <path
 d="M 12.32,6.989 12.82,5.872 15.28,7.387 14.94,4.833 H 16.16 L 15.8,7.387 18.27,5.903 18.77,7.005 16.18,7.77 18.77,8.528 18.27,9.63 15.8,8.161 16.16,10.7 H 14.94 L 15.28,8.138 12.82,9.661 12.32,8.544 14.88,7.77 Z"


 />
  <path
 d="M 23.03,1.477 21.99,1.289 22.05,0.9375 H 24.4 L 23.82,4.383 Q 23.69,5.274 23.52,5.891 24.14,5.25 24.8,4.875 25.46,4.5 26.02,4.5 26.99,4.5 27.58,5.204 28.16,5.899 28.16,7.11 28.16,8.454 27.58,9.649 27,10.84 25.98,11.52 24.95,12.2 23.74,12.2 23.05,12.2 22.39,12.02 21.73,11.84 21.24,11.54 Z M 22.59,11.2 Q 23.04,11.58 23.84,11.58 24.64,11.58 25.31,10.99 25.99,10.4 26.38,9.407 26.77,8.407 26.77,7.313 26.77,6.438 26.4,5.961 26.04,5.477 25.43,5.477 24.97,5.477 24.43,5.782 23.9,6.086 23.41,6.563 Z"
 />
</svg>