<?xml version="1.0" encoding="UTF-8" ?>
<svg xmlns="http://www.w3.org/2000/svg" version="1.1">
  <path
 d="M 6.613,11.45 7.495,11.65 7.433,12 H 5.206 L 5.433,10.78 Q 4.112,12.16 3.019,12.16 2.073,12.16 1.495,11.47 0.9246,10.77 0.9246,9.554 0.9246,8.187 1.518,7 2.12,5.804 3.12,5.14 4.12,4.468 5.292,4.468 6.238,4.468 7.074,4.796 L 7.425,4.531 H 7.847 Z M 6.386,5.46 Q 6.081,5.249 5.816,5.171 5.55,5.085 5.159,5.085 4.378,5.085 3.722,5.679 3.073,6.265 2.698,7.265 2.323,8.265 2.323,9.351 2.323,10.19 2.667,10.69 3.011,11.19 3.605,11.19 4.487,11.19 5.534,10.1 Z" />
  <path
 d="M 12.3,7.799 Q 12.3,8.182 12.03,8.463 11.76,8.745 11.36,8.745 10.95,8.745 10.68,8.463 10.41,8.182 10.41,7.799 10.41,7.401 10.68,7.127 10.96,6.854 11.36,6.854 11.75,6.854 12.03,7.127 12.3,7.401 12.3,7.799 Z"

 />
  <path
 d="M 18.51,1.387 17.47,1.199 17.54,0.8475 H 19.88 L 19.3,4.293 Q 19.17,5.184 19,5.801 19.62,5.16 20.28,4.785 20.94,4.41 21.5,4.41 22.47,4.41 23.06,5.114 23.65,5.809 23.65,7.02 23.65,8.364 23.06,9.559 22.48,10.75 21.46,11.43 20.44,12.11 19.22,12.11 18.54,12.11 17.87,11.93 17.22,11.75 16.72,11.45 Z M 18.07,11.11 Q 18.52,11.49 19.33,11.49 20.12,11.49 20.79,10.9 21.47,10.31 21.86,9.317 22.25,8.317 22.25,7.223 22.25,6.348 21.88,5.871 21.52,5.387 20.91,5.387 20.45,5.387 19.91,5.692 19.38,5.996 18.9,6.473 Z"

 />
</svg>