<?xml version="1.0" encoding="UTF-8" ?>
<svg xmlns="http://www.w3.org/2000/svg" version="1.1">
  <path
 d="M 4.793,4.79 V 8.118 H 3.988 V 4.79 H 0.6755 V 3.993 H 3.988 V 0.6642 H 4.793 V 3.993 H 8.121 V 4.79 Z"
 />
  <path
 d="M 17.83,9.157 18.72,9.352 18.65,9.704 H 16.43 L 16.65,8.485 Q 15.33,9.868 14.24,9.868 13.29,9.868 12.72,9.173 12.15,8.477 12.15,7.258 12.15,5.891 12.74,4.704 13.34,3.508 14.34,2.844 15.34,2.172 16.51,2.172 17.46,2.172 18.29,2.5 L 18.65,2.235 H 19.07 Z M 17.61,3.164 Q 17.3,2.953 17.04,2.875 16.77,2.789 16.38,2.789 15.6,2.789 14.94,3.383 14.29,3.969 13.92,4.969 13.54,5.969 13.54,7.055 13.54,7.891 13.89,8.391 14.23,8.891 14.82,8.891 15.71,8.891 16.75,7.805 Z" />
</svg>