<?xml version="1.0" encoding="UTF-8" ?>
<svg xmlns="http://www.w3.org/2000/svg" version="1.1">
  <path
 d="M 6.712,11.69 7.595,11.89 7.532,12.24 H 5.306 L 5.532,11.02 Q 4.212,12.4 3.118,12.4 2.173,12.4 1.594,11.71 1.024,11.01 1.024,9.794 1.024,8.427 1.618,7.24 2.219,6.044 3.219,5.38 4.22,4.708 5.392,4.708 6.337,4.708 7.173,5.036 L 7.525,4.771 H 7.946 Z M 6.485,5.7 Q 6.181,5.489 5.915,5.411 5.649,5.325 5.259,5.325 4.477,5.325 3.821,5.919 3.173,6.505 2.798,7.505 2.423,8.505 2.423,9.591 2.423,10.43 2.766,10.93 3.11,11.43 3.704,11.43 4.587,11.43 5.634,10.34 Z" />
  <path
 d="M 16.49,7.326 V 10.65 H 15.68 V 7.326 H 12.37 V 6.529 H 15.68 V 3.2 H 16.49 V 6.529 H 19.81 V 7.326 Z"
 />
  <path
 d="M 25.74,1.677 24.71,1.489 24.77,1.138 H 27.11 L 26.53,4.583 Q 26.4,5.474 26.23,6.091 26.85,5.45 27.51,5.075 28.17,4.7 28.73,4.7 29.71,4.7 30.29,5.404 30.88,6.099 30.88,7.31 30.88,8.654 30.29,9.849 29.71,11.04 28.69,11.72 27.67,12.4 26.46,12.4 25.77,12.4 25.1,12.22 24.45,12.04 23.96,11.74 Z M 25.3,11.4 Q 25.75,11.78 26.56,11.78 27.35,11.78 28.03,11.19 28.71,10.6 29.09,9.607 29.48,8.607 29.48,7.513 29.48,6.638 29.11,6.161 28.75,5.677 28.14,5.677 27.68,5.677 27.14,5.982 26.61,6.286 26.13,6.763 Z"
 />
</svg>