<?xml version="1.0" encoding="UTF-8" ?>
<svg xmlns="http://www.w3.org/2000/svg" version="1.1">
  <path
 d="M 6.762,11.89 7.645,12.09 7.582,12.44 H 5.355 L 5.582,11.22 Q 4.262,12.6 3.168,12.6 2.222,12.6 1.644,11.91 1.074,11.21 1.074,9.994 1.074,8.627 1.668,7.44 2.269,6.244 3.269,5.58 4.269,4.908 5.441,4.908 6.387,4.908 7.223,5.236 L 7.574,4.971 H 7.996 Z M 6.535,5.9 Q 6.23,5.689 5.965,5.611 5.699,5.525 5.309,5.525 4.527,5.525 3.871,6.119 3.222,6.705 2.847,7.705 2.472,8.705 2.472,9.791 2.472,10.63 2.816,11.13 3.16,11.63 3.754,11.63 4.637,11.63 5.684,10.54 Z"


 />
  <path
 d="M 14.5,1.963 H 14.89 L 18.23,9.401 H 17.43 L 14.69,3.08 11.96,9.401 H 11.16 Z"


 />
  <path
 d="M 21.73,1.877 20.69,1.689 20.75,1.338 H 23.1 L 22.52,4.783 Q 22.39,5.674 22.22,6.291 22.84,5.65 23.5,5.275 24.16,4.9 24.72,4.9 25.69,4.9 26.28,5.604 26.86,6.299 26.86,7.51 26.86,8.854 26.28,10.05 25.7,11.24 24.68,11.92 23.65,12.6 22.44,12.6 21.76,12.6 21.09,12.42 20.43,12.24 19.94,11.94 Z M 21.29,11.6 Q 21.74,11.98 22.54,11.98 23.34,11.98 24.01,11.39 24.69,10.8 25.08,9.807 25.47,8.807 25.47,7.713 25.47,6.838 25.1,6.361 24.74,5.877 24.13,5.877 23.67,5.877 23.13,6.182 22.6,6.486 22.11,6.963 Z"



 />
</svg>