<?xml version="1.0" encoding="UTF-8" ?>
<svg xmlns="http://www.w3.org/2000/svg" version="1.1">
  <path
 d="M 4.982,6.186 V 2.858 H 5.787 V 6.186 H 9.1 V 6.983 H 5.787 V 10.31 H 4.982 V 6.983 H 1.654 V 6.186 Z M 1.654,2.069 V 1.272 H 9.1 V 2.069 Z" />
  <path
 d="M 17.05,9.613 17.94,9.808 17.87,10.16 H 15.65 L 15.87,8.941 Q 14.55,10.32 13.46,10.32 12.52,10.32 11.94,9.629 11.37,8.933 11.37,7.714 11.37,6.347 11.96,5.16 12.56,3.964 13.56,3.3 14.56,2.628 15.73,2.628 16.68,2.628 17.52,2.956 L 17.87,2.691 H 18.29 Z M 16.83,3.62 Q 16.52,3.409 16.26,3.331 15.99,3.245 15.6,3.245 14.82,3.245 14.16,3.839 13.52,4.425 13.14,5.425 12.77,6.425 12.77,7.511 12.77,8.347 13.11,8.847 13.45,9.347 14.05,9.347 14.93,9.347 15.98,8.261 Z" />
</svg>