<?xml version="1.0" encoding="UTF-8" ?>
<svg xmlns="http://www.w3.org/2000/svg" version="1.1">
  <path
 d="M 6.165,11.36 7.048,11.56 6.985,11.91 H 4.758 L 4.985,10.69 Q 3.665,12.07 2.571,12.07 1.625,12.07 1.047,11.38 0.4768,10.68 0.4768,9.464 0.4768,8.097 1.071,6.91 1.672,5.714 2.672,5.05 3.672,4.378 4.844,4.378 5.79,4.378 6.626,4.706 L 6.977,4.441 H 7.399 Z M 5.938,5.37 Q 5.633,5.159 5.368,5.081 5.102,4.995 4.712,4.995 3.93,4.995 3.274,5.589 2.625,6.175 2.25,7.175 1.875,8.175 1.875,9.261 1.875,10.1 2.219,10.6 2.563,11.1 3.157,11.1 4.04,11.1 5.087,10.01 Z"
 />
  <path
 d="M 10.13,12.07 H 9.267 L 14.82,1.362 H 15.67 Z"

 />
  <path
 d="M 18.82,1.347 17.78,1.159 17.85,0.8075 H 20.19 L 19.61,4.253 Q 19.48,5.144 19.31,5.761 19.93,5.12 20.59,4.745 21.25,4.37 21.81,4.37 22.78,4.37 23.37,5.074 23.96,5.769 23.96,6.98 23.96,8.324 23.37,9.519 22.79,10.71 21.77,11.39 20.74,12.07 19.53,12.07 18.85,12.07 18.18,11.89 17.52,11.71 17.03,11.41 Z M 18.38,11.07 Q 18.83,11.45 19.63,11.45 20.43,11.45 21.1,10.86 21.78,10.27 22.17,9.277 22.56,8.277 22.56,7.183 22.56,6.308 22.19,5.831 21.83,5.347 21.22,5.347 20.76,5.347 20.22,5.652 19.69,5.956 19.2,6.433 Z"

 />
</svg>