<svg class="railroad-diagram" height="217" viewBox="0 0 1085.5 217" width="1085.5" xmlns="http://www.w3.org/2000/svg">
<g transform="translate(.5 .5)">
<style>/* <![CDATA[ */
    svg.railroad-diagram {
        background-color:transparent;
    }
    svg.railroad-diagram path {
        stroke-width:1;
        stroke:black;
        fill:rgba(0,0,0,0);
    }
    svg.railroad-diagram text {
        font:bold 14px monospace;
        font-family: Verdana, sans-serif;
        text-anchor:middle;
    }
    svg.railroad-diagram text.label{
        text-anchor:start;
    }
    svg.railroad-diagram text.comment{
        font:italic 12px monospace;
    }
    svg.railroad-diagram rect{
        stroke-width:1;
        stroke:black;
        fill:transparent;
    }

/* ]]> */
</style><g>
<path d="M20 41v20m0 -10h20"></path></g><path d="M40 51h10"></path><g>
<path d="M50 51h0.0"></path><path d="M1035.5 51h0.0"></path><g>
<path d="M50.0 51h0.0"></path><path d="M440.5 51h0.0"></path><path d="M50.0 51h30"></path><g>
<path d="M80.0 51h0.0"></path><path d="M410.5 51h0.0"></path><g>
<path d="M80.0 51h0.0"></path><path d="M228.0 51h0.0"></path><path d="M80.0 51h30"></path><g>
<path d="M110.0 51h88.0"></path></g><path d="M198.0 51h30"></path><path d="M80.0 51a15 15 0 0 1 15 15v1a15 15 0 0 0 15 15"></path><g class="terminal">
<path d="M110.0 82h0.0"></path><path d="M198.0 82h0.0"></path><rect height="22" rx="10" ry="10" width="88.0" x="110.0" y="71"></rect><text x="154.0" y="86">Optional</text></g><path d="M198.0 82a15 15 0 0 0 15 -15v-1a15 15 0 0 1 15 -15"></path></g><g>
<path d="M228.0 51h0.0"></path><path d="M410.5 51h0.0"></path><path d="M228.0 51a15 15 0 0 0 15 -15v-1a15 15 0 0 1 15 -15"></path><g>
<path d="M258.0 20h122.5"></path></g><path d="M380.5 20a15 15 0 0 1 15 15v1a15 15 0 0 0 15 15"></path><path d="M228.0 51h30"></path><g>
<path d="M258.0 51h0.0"></path><path d="M380.5 51h0.0"></path><path d="M258.0 51h30"></path><g class="terminal">
<path d="M288.0 51h0.0"></path><path d="M350.5 51h0.0"></path><rect height="22" rx="10" ry="10" width="62.5" x="288.0" y="40"></rect><text x="319.25" y="55">ByRef</text></g><path d="M350.5 51h30"></path><path d="M258.0 51a15 15 0 0 1 15 15v12a15 15 0 0 0 15 15"></path><g class="terminal">
<path d="M288.0 93h0.0"></path><path d="M350.5 93h0.0"></path><rect height="22" rx="10" ry="10" width="62.5" x="288.0" y="82"></rect><text x="319.25" y="97">ByVal</text></g><path d="M350.5 93a15 15 0 0 0 15 -15v-12a15 15 0 0 1 15 -15"></path></g><path d="M380.5 51h30"></path></g></g><path d="M410.5 51h30"></path><path d="M50.0 51a15 15 0 0 1 15 15v54a15 15 0 0 0 15 15"></path><g class="terminal">
<path d="M80.0 135h112.75"></path><path d="M297.75 135h112.75"></path><rect height="22" rx="10" ry="10" width="105.0" x="192.75" y="124"></rect><text x="245.25" y="139">ParamArray</text></g><path d="M410.5 135a15 15 0 0 0 15 -15v-54a15 15 0 0 1 15 -15"></path></g><path d="M440.5 51h10"></path><g class="non-terminal">
<path d="M450.5 51h0.0"></path><path d="M538.5 51h0.0"></path><rect height="22" width="88.0" x="450.5" y="40"></rect><text x="494.5" y="55">argument</text></g><path d="M538.5 51h10"></path><g>
<path d="M548.5 51h0.0"></path><path d="M1035.5 51h0.0"></path><path d="M548.5 51h30"></path><g>
<path d="M578.5 51h0.0"></path><path d="M1005.5 51h0.0"></path><g>
<path d="M578.5 51h0.0"></path><path d="M792.0 51h0.0"></path><path d="M578.5 51h30"></path><g>
<path d="M608.5 51h0.0"></path><path d="M762.0 51h0.0"></path><g class="terminal">
<path d="M608.5 51h0.0"></path><path d="M645.5 51h0.0"></path><rect height="22" rx="10" ry="10" width="37.0" x="608.5" y="40"></rect><text x="627.0" y="55">As</text></g><path d="M645.5 51h10"></path><path d="M655.5 51h10"></path><g class="non-terminal">
<path d="M665.5 51h0.0"></path><path d="M762.0 51h0.0"></path><rect height="22" width="96.5" x="665.5" y="40"></rect><text x="713.75" y="55">type-name</text></g></g><path d="M762.0 51h30"></path><path d="M578.5 51a15 15 0 0 1 15 15v12a15 15 0 0 0 15 15"></path><g class="non-terminal">
<path d="M608.5 93h32.75"></path><path d="M729.25 93h32.75"></path><rect height="22" width="88.0" x="641.25" y="82"></rect><text x="685.25" y="97">type-car</text></g><path d="M762.0 93a15 15 0 0 0 15 -15v-12a15 15 0 0 1 15 -15"></path></g><g>
<path d="M792.0 51h0.0"></path><path d="M1005.5 51h0.0"></path><path d="M792.0 51h30"></path><g>
<path d="M822.0 51h153.5"></path></g><path d="M975.5 51h30"></path><path d="M792.0 51a15 15 0 0 1 15 15v1a15 15 0 0 0 15 15"></path><g>
<path d="M822.0 82h0.0"></path><path d="M975.5 82h0.0"></path><g class="terminal">
<path d="M822.0 82h0.0"></path><path d="M850.5 82h0.0"></path><rect height="22" rx="10" ry="10" width="28.5" x="822.0" y="71"></rect><text x="836.25" y="86">=</text></g><path d="M850.5 82h10"></path><path d="M860.5 82h10"></path><g class="non-terminal">
<path d="M870.5 82h0.0"></path><path d="M975.5 82h0.0"></path><rect height="22" width="105.0" x="870.5" y="71"></rect><text x="923.0" y="86">expression</text></g></g><path d="M975.5 82a15 15 0 0 0 15 -15v-1a15 15 0 0 1 15 -15"></path></g></g><path d="M1005.5 51h30"></path><path d="M548.5 51a15 15 0 0 1 15 15v74a15 15 0 0 0 15 15"></path><g>
<path d="M578.5 155h82.5"></path><path d="M923.0 155h82.5"></path><g>
<path d="M661.0 155h0.0"></path><path d="M758.0 155h0.0"></path><path d="M661.0 155h30"></path><g>
<path d="M691.0 155h37.0"></path></g><path d="M728.0 155h30"></path><path d="M661.0 155a15 15 0 0 1 15 15v1a15 15 0 0 0 15 15"></path><g class="terminal">
<path d="M691.0 186h0.0"></path><path d="M728.0 186h0.0"></path><rect height="22" rx="10" ry="10" width="37.0" x="691.0" y="175"></rect><text x="709.5" y="190">()</text></g><path d="M728.0 186a15 15 0 0 0 15 -15v-1a15 15 0 0 1 15 -15"></path></g><g>
<path d="M758.0 155h0.0"></path><path d="M923.0 155h0.0"></path><path d="M758.0 155a15 15 0 0 0 15 -15v-1a15 15 0 0 1 15 -15"></path><g>
<path d="M788.0 124h105.0"></path></g><path d="M893.0 124a15 15 0 0 1 15 15v1a15 15 0 0 0 15 15"></path><path d="M758.0 155h30"></path><g class="terminal">
<path d="M788.0 155h0.0"></path><path d="M893.0 155h0.0"></path><rect height="22" rx="10" ry="10" width="105.0" x="788.0" y="144"></rect><text x="840.5" y="159">As Variant</text></g><path d="M893.0 155h30"></path></g></g><path d="M1005.5 155a15 15 0 0 0 15 -15v-74a15 15 0 0 1 15 -15"></path></g></g><path d="M1035.5 51h10"></path><path d="M 1045.5 51 h 20 m 0 -10 v 20"></path></g></svg>