<svg class="railroad-diagram" height="228" viewBox="0 0 727.0 228" width="727.0" xmlns="http://www.w3.org/2000/svg">
<g transform="translate(.5 .5)">
<style>/* <![CDATA[ */
    svg.railroad-diagram {
        background-color:transparent;
    }
    svg.railroad-diagram path {
        stroke-width:1;
        stroke:black;
        fill:rgba(0,0,0,0);
    }
    svg.railroad-diagram text {
        font:bold 14px monospace;
        font-family: Verdana, sans-serif;
        text-anchor:middle;
    }
    svg.railroad-diagram text.label{
        text-anchor:start;
    }
    svg.railroad-diagram text.comment{
        font:italic 12px monospace;
    }
    svg.railroad-diagram rect{
        stroke-width:1;
        stroke:black;
        fill:transparent;
    }

/* ]]> */
</style><g>
<path d="M20 41v20m10 -20v20m-10 -10h20"></path></g><path d="M40 51h10"></path><g>
<path d="M50 51h0.0"></path><path d="M677.0 51h0.0"></path><g>
<path d="M50.0 51h0.0"></path><path d="M164.0 51h0.0"></path><path d="M50.0 51a15 15 0 0 0 15 -15v-1a15 15 0 0 1 15 -15"></path><g>
<path d="M80.0 20h54.0"></path></g><path d="M134.0 20a15 15 0 0 1 15 15v1a15 15 0 0 0 15 15"></path><path d="M50.0 51h30"></path><g class="terminal">
<path d="M80.0 51h0.0"></path><path d="M134.0 51h0.0"></path><rect height="22" rx="10" ry="10" width="54.0" x="80.0" y="40"></rect><text x="107.0" y="55">Call</text></g><path d="M134.0 51h30"></path></g><path d="M164.0 51h10"></path><g class="non-terminal">
<path d="M174.0 51h0.0"></path><path d="M228.0 51h0.0"></path><rect height="22" width="54.0" x="174.0" y="40"></rect><text x="201.0" y="55">name</text></g><path d="M228.0 51h10"></path><g>
<path d="M238.0 51h0.0"></path><path d="M677.0 51h0.0"></path><path d="M238.0 51h30"></path><g>
<path d="M268.0 51h0.0"></path><path d="M647.0 51h0.0"></path><g class="terminal">
<path d="M268.0 51h0.0"></path><path d="M296.5 51h0.0"></path><rect height="22" rx="10" ry="10" width="28.5" x="268.0" y="40"></rect><text x="282.25" y="55">(</text></g><path d="M296.5 51h10"></path><path d="M306.5 51h10"></path><g>
<path d="M316.5 51h0.0"></path><path d="M598.5 51h0.0"></path><path d="M316.5 51h15"></path><g>
<path d="M331.5 51h0.0"></path><path d="M583.5 51h0.0"></path><g>
<path d="M331.5 51h0.0"></path><path d="M511.0 51h0.0"></path><path d="M331.5 51a15 15 0 0 0 15 -15v-1a15 15 0 0 1 15 -15"></path><g>
<path d="M361.5 20h119.5"></path></g><path d="M481.0 20a15 15 0 0 1 15 15v1a15 15 0 0 0 15 15"></path><path d="M331.5 51h30"></path><g>
<path d="M361.5 51h0.0"></path><path d="M481.0 51h0.0"></path><g class="non-terminal">
<path d="M361.5 51h0.0"></path><path d="M424.0 51h0.0"></path><rect height="22" width="62.5" x="361.5" y="40"></rect><text x="392.75" y="55">param</text></g><path d="M424.0 51h10"></path><path d="M434.0 51h10"></path><g class="terminal">
<path d="M444.0 51h0.0"></path><path d="M481.0 51h0.0"></path><rect height="22" rx="10" ry="10" width="37.0" x="444.0" y="40"></rect><text x="462.5" y="55">:=</text></g></g><path d="M481.0 51h30"></path></g><path d="M511.0 51h10"></path><g class="non-terminal">
<path d="M521.0 51h0.0"></path><path d="M583.5 51h0.0"></path><rect height="22" width="62.5" x="521.0" y="40"></rect><text x="552.25" y="55">value</text></g></g><path d="M583.5 51h15"></path><path d="M331.5 51a15 15 0 0 0 -15 15v12a15 15 0 0 0 15 15"></path><g class="terminal">
<path d="M331.5 93h111.75"></path><path d="M471.75 93h111.75"></path><rect height="22" rx="10" ry="10" width="28.5" x="443.25" y="82"></rect><text x="457.5" y="97">,</text></g><path d="M583.5 93a15 15 0 0 0 15 -15v-12a15 15 0 0 0 -15 -15"></path></g><path d="M598.5 51h10"></path><path d="M608.5 51h10"></path><g class="terminal">
<path d="M618.5 51h0.0"></path><path d="M647.0 51h0.0"></path><rect height="22" rx="10" ry="10" width="28.5" x="618.5" y="40"></rect><text x="632.75" y="55">)</text></g></g><path d="M647.0 51h30"></path><path d="M238.0 51a15 15 0 0 1 15 15v74a15 15 0 0 0 15 15"></path><g>
<path d="M268.0 155h48.5"></path><path d="M598.5 155h48.5"></path><path d="M316.5 155h15"></path><g>
<path d="M331.5 155h0.0"></path><path d="M583.5 155h0.0"></path><g>
<path d="M331.5 155h0.0"></path><path d="M511.0 155h0.0"></path><path d="M331.5 155a15 15 0 0 0 15 -15v-1a15 15 0 0 1 15 -15"></path><g>
<path d="M361.5 124h119.5"></path></g><path d="M481.0 124a15 15 0 0 1 15 15v1a15 15 0 0 0 15 15"></path><path d="M331.5 155h30"></path><g>
<path d="M361.5 155h0.0"></path><path d="M481.0 155h0.0"></path><g class="non-terminal">
<path d="M361.5 155h0.0"></path><path d="M424.0 155h0.0"></path><rect height="22" width="62.5" x="361.5" y="144"></rect><text x="392.75" y="159">param</text></g><path d="M424.0 155h10"></path><path d="M434.0 155h10"></path><g class="terminal">
<path d="M444.0 155h0.0"></path><path d="M481.0 155h0.0"></path><rect height="22" rx="10" ry="10" width="37.0" x="444.0" y="144"></rect><text x="462.5" y="159">:=</text></g></g><path d="M481.0 155h30"></path></g><path d="M511.0 155h10"></path><g class="non-terminal">
<path d="M521.0 155h0.0"></path><path d="M583.5 155h0.0"></path><rect height="22" width="62.5" x="521.0" y="144"></rect><text x="552.25" y="159">value</text></g></g><path d="M583.5 155h15"></path><path d="M331.5 155a15 15 0 0 0 -15 15v12a15 15 0 0 0 15 15"></path><g class="terminal">
<path d="M331.5 197h111.75"></path><path d="M471.75 197h111.75"></path><rect height="22" rx="10" ry="10" width="28.5" x="443.25" y="186"></rect><text x="457.5" y="201">,</text></g><path d="M583.5 197a15 15 0 0 0 15 -15v-12a15 15 0 0 0 -15 -15"></path></g><path d="M647.0 155a15 15 0 0 0 15 -15v-74a15 15 0 0 1 15 -15"></path></g></g><path d="M677.0 51h10"></path><path d="M 687.0 51 h 20 m -10 -10 v 20 m 10 -20 v 20"></path></g></svg>