<svg class="railroad-diagram" height="102" viewBox="0 0 556.5 102" width="556.5" xmlns="http://www.w3.org/2000/svg">
<g transform="translate(.5 .5)">
<style>/* <![CDATA[ */
    svg.railroad-diagram {
        background-color:transparent;
    }
    svg.railroad-diagram path {
        stroke-width:1;
        stroke:black;
        fill:rgba(0,0,0,0);
    }
    svg.railroad-diagram text {
        font:bold 14px monospace;
        font-family: Verdana, sans-serif;
        text-anchor:middle;
    }
    svg.railroad-diagram text.label{
        text-anchor:start;
    }
    svg.railroad-diagram text.comment{
        font:italic 12px monospace;
    }
    svg.railroad-diagram rect{
        stroke-width:1;
        stroke:black;
        fill:transparent;
    }

/* ]]> */
</style><g>
<path d="M20 41v20m0 -10h20"></path></g><g>
<path d="M40 51h0.0"></path><path d="M516.5 51h0.0"></path><path d="M40.0 51a15 15 0 0 0 15 -15v-1a15 15 0 0 1 15 -15"></path><g>
<path d="M70.0 20h416.5"></path></g><path d="M486.5 20a15 15 0 0 1 15 15v1a15 15 0 0 0 15 15"></path><path d="M40.0 51h30"></path><g>
<path d="M70.0 51h0.0"></path><path d="M486.5 51h0.0"></path><path d="M70.0 51h15"></path><g>
<path d="M85.0 51h0.0"></path><path d="M471.5 51h0.0"></path><g class="terminal">
<path d="M85.0 51h0.0"></path><path d="M156.0 51h0.0"></path><rect height="22" rx="10" ry="10" width="71.0" x="85.0" y="40"></rect><text x="120.5" y="55">ElseIf</text></g><path d="M156.0 51h10"></path><path d="M166.0 51h10"></path><g class="terminal">
<path d="M176.0 51h0.0"></path><path d="M272.5 51h0.0"></path><rect height="22" rx="10" ry="10" width="96.5" x="176.0" y="40"></rect><text x="224.25" y="55">condition</text></g><path d="M272.5 51h10"></path><path d="M282.5 51h10"></path><g class="terminal">
<path d="M292.5 51h0.0"></path><path d="M346.5 51h0.0"></path><rect height="22" rx="10" ry="10" width="54.0" x="292.5" y="40"></rect><text x="319.5" y="55">Then</text></g><path d="M346.5 51h10"></path><path d="M356.5 51h10"></path><g class="terminal">
<path d="M366.5 51h0.0"></path><path d="M471.5 51h0.0"></path><rect height="22" rx="10" ry="10" width="105.0" x="366.5" y="40"></rect><text x="419.0" y="55">statements</text></g></g><path d="M471.5 51h15"></path><path d="M85.0 51a15 15 0 0 0 -15 15v1a15 15 0 0 0 15 15"></path><g>
<path d="M85.0 82h386.5"></path></g><path d="M471.5 82a15 15 0 0 0 15 -15v-1a15 15 0 0 0 -15 -15"></path></g><path d="M486.5 51h30"></path></g><path d="M 516.5 51 h 20 m 0 -10 v 20"></path></g></svg>