<svg class="railroad-diagram" height="188" viewBox="0 0 1187.0 188" width="1187.0" xmlns="http://www.w3.org/2000/svg">
<g transform="translate(.5 .5)">
<style>/* <![CDATA[ */
    svg.railroad-diagram {
        background-color:transparent;
    }
    svg.railroad-diagram path {
        stroke-width:1;
        stroke:black;
        fill:rgba(0,0,0,0);
    }
    svg.railroad-diagram text {
        font:bold 14px monospace;
        font-family: Verdana, sans-serif;
        text-anchor:middle;
    }
    svg.railroad-diagram text.label{
        text-anchor:start;
    }
    svg.railroad-diagram text.comment{
        font:italic 12px monospace;
    }
    svg.railroad-diagram rect{
        stroke-width:1;
        stroke:black;
        fill:transparent;
    }

/* ]]> */
</style><g>
<path d="M20 105v20m10 -20v20m-10 -10h20"></path></g><path d="M40 115h10"></path><g>
<path d="M50 115h0.0"></path><path d="M1137.0 115h0.0"></path><g>
<path d="M50.0 115h0.0"></path><path d="M249.5 115h0.0"></path><path d="M50.0 115a15 15 0 0 0 15 -15v-43a15 15 0 0 1 15 -15"></path><g>
<path d="M80.0 42h139.5"></path></g><path d="M219.5 42a15 15 0 0 1 15 15v43a15 15 0 0 0 15 15"></path><path d="M50.0 115h30"></path><g>
<path d="M80.0 115h0.0"></path><path d="M219.5 115h0.0"></path><path d="M80.0 115a15 15 0 0 0 15 -15v-12a15 15 0 0 1 15 -15"></path><g class="terminal">
<path d="M110.0 73h4.25"></path><path d="M185.25 73h4.25"></path><rect height="22" rx="10" ry="10" width="71.0" x="114.25" y="62"></rect><text x="149.75" y="77">Global</text></g><path d="M189.5 73a15 15 0 0 1 15 15v12a15 15 0 0 0 15 15"></path><path d="M80.0 115h30"></path><g class="terminal">
<path d="M110.0 115h4.25"></path><path d="M185.25 115h4.25"></path><rect height="22" rx="10" ry="10" width="71.0" x="114.25" y="104"></rect><text x="149.75" y="119">Public</text></g><path d="M189.5 115h30"></path><path d="M80.0 115a15 15 0 0 1 15 15v12a15 15 0 0 0 15 15"></path><g class="terminal">
<path d="M110.0 157h0.0"></path><path d="M189.5 157h0.0"></path><rect height="22" rx="10" ry="10" width="79.5" x="110.0" y="146"></rect><text x="149.75" y="161">Private</text></g><path d="M189.5 157a15 15 0 0 0 15 -15v-12a15 15 0 0 1 15 -15"></path></g><path d="M219.5 115h30"></path></g><path d="M249.5 115h10"></path><g class="terminal">
<path d="M259.5 115h0.0"></path><path d="M347.5 115h0.0"></path><rect height="22" rx="10" ry="10" width="88.0" x="259.5" y="104"></rect><text x="303.5" y="119">Function</text></g><path d="M347.5 115h10"></path><path d="M357.5 115h10"></path><g class="terminal">
<path d="M367.5 115h0.0"></path><path d="M421.5 115h0.0"></path><rect height="22" rx="10" ry="10" width="54.0" x="367.5" y="104"></rect><text x="394.5" y="119">name</text></g><path d="M421.5 115h10"></path><g>
<path d="M431.5 115h0.0"></path><path d="M880.0 115h0.0"></path><path d="M431.5 115a15 15 0 0 0 15 -15v-54a15 15 0 0 1 15 -15"></path><g>
<path d="M461.5 31h32.75"></path><path d="M817.25 31h32.75"></path><g class="non-terminal">
<path d="M494.25 31h0.0"></path><path d="M582.25 31h0.0"></path><rect height="22" width="88.0" x="494.25" y="20"></rect><text x="538.25" y="35">type-car</text></g><path d="M582.25 31h10"></path><path d="M592.25 31h10"></path><g class="terminal">
<path d="M602.25 31h0.0"></path><path d="M630.75 31h0.0"></path><rect height="22" rx="10" ry="10" width="28.5" x="602.25" y="20"></rect><text x="616.5" y="35">(</text></g><path d="M630.75 31h10"></path><path d="M640.75 31h10"></path><g>
<path d="M650.75 31h0.0"></path><path d="M768.75 31h0.0"></path><path d="M650.75 31h15"></path><g class="non-terminal">
<path d="M665.75 31h0.0"></path><path d="M753.75 31h0.0"></path><rect height="22" width="88.0" x="665.75" y="20"></rect><text x="709.75" y="35">argument</text></g><path d="M753.75 31h15"></path><path d="M665.75 31a15 15 0 0 0 -15 15v12a15 15 0 0 0 15 15"></path><g class="terminal">
<path d="M665.75 73h29.75"></path><path d="M724.0 73h29.75"></path><rect height="22" rx="10" ry="10" width="28.5" x="695.5" y="62"></rect><text x="709.75" y="77">,</text></g><path d="M753.75 73a15 15 0 0 0 15 -15v-12a15 15 0 0 0 -15 -15"></path></g><path d="M768.75 31h10"></path><path d="M778.75 31h10"></path><g class="terminal">
<path d="M788.75 31h0.0"></path><path d="M817.25 31h0.0"></path><rect height="22" rx="10" ry="10" width="28.5" x="788.75" y="20"></rect><text x="803.0" y="35">)</text></g></g><path d="M850.0 31a15 15 0 0 1 15 15v54a15 15 0 0 0 15 15"></path><path d="M431.5 115h30"></path><g>
<path d="M461.5 115h0.0"></path><path d="M850.0 115h0.0"></path><g class="terminal">
<path d="M461.5 115h0.0"></path><path d="M490.0 115h0.0"></path><rect height="22" rx="10" ry="10" width="28.5" x="461.5" y="104"></rect><text x="475.75" y="119">(</text></g><path d="M490.0 115h10"></path><path d="M500.0 115h10"></path><g>
<path d="M510.0 115h0.0"></path><path d="M628.0 115h0.0"></path><path d="M510.0 115h15"></path><g class="non-terminal">
<path d="M525.0 115h0.0"></path><path d="M613.0 115h0.0"></path><rect height="22" width="88.0" x="525.0" y="104"></rect><text x="569.0" y="119">argument</text></g><path d="M613.0 115h15"></path><path d="M525.0 115a15 15 0 0 0 -15 15v12a15 15 0 0 0 15 15"></path><g class="terminal">
<path d="M525.0 157h29.75"></path><path d="M583.25 157h29.75"></path><rect height="22" rx="10" ry="10" width="28.5" x="554.75" y="146"></rect><text x="569.0" y="161">,</text></g><path d="M613.0 157a15 15 0 0 0 15 -15v-12a15 15 0 0 0 -15 -15"></path></g><path d="M628.0 115h10"></path><path d="M638.0 115h10"></path><g class="terminal">
<path d="M648.0 115h0.0"></path><path d="M676.5 115h0.0"></path><rect height="22" rx="10" ry="10" width="28.5" x="648.0" y="104"></rect><text x="662.25" y="119">)</text></g><path d="M676.5 115h10"></path><path d="M686.5 115h10"></path><g class="terminal">
<path d="M696.5 115h0.0"></path><path d="M733.5 115h0.0"></path><rect height="22" rx="10" ry="10" width="37.0" x="696.5" y="104"></rect><text x="715.0" y="119">As</text></g><path d="M733.5 115h10"></path><path d="M743.5 115h10"></path><g class="terminal">
<path d="M753.5 115h0.0"></path><path d="M850.0 115h0.0"></path><rect height="22" rx="10" ry="10" width="96.5" x="753.5" y="104"></rect><text x="801.75" y="119">type-name</text></g></g><path d="M850.0 115h30"></path></g><path d="M880.0 115h10"></path><g class="non-terminal">
<path d="M890.0 115h0.0"></path><path d="M995.0 115h0.0"></path><rect height="22" width="105.0" x="890.0" y="104"></rect><text x="942.5" y="119">statements</text></g><path d="M995.0 115h10"></path><path d="M1005.0 115h10"></path><g class="terminal">
<path d="M1015.0 115h0.0"></path><path d="M1137.0 115h0.0"></path><rect height="22" rx="10" ry="10" width="122.0" x="1015.0" y="104"></rect><text x="1076.0" y="119">End Function</text></g></g><path d="M1137.0 115h10"></path><path d="M 1147.0 115 h 20 m -10 -10 v 20 m 10 -20 v 20"></path></g></svg>