<svg class="railroad-diagram" height="93" viewBox="0 0 725.5 93" width="725.5" xmlns="http://www.w3.org/2000/svg">
<g transform="translate(.5 .5)">
<style>/* <![CDATA[ */
    svg.railroad-diagram {
        background-color:transparent;
    }
    svg.railroad-diagram path {
        stroke-width:1;
        stroke:black;
        fill:rgba(0,0,0,0);
    }
    svg.railroad-diagram text {
        font:bold 14px monospace;
        font-family: Verdana, sans-serif;
        text-anchor:middle;
    }
    svg.railroad-diagram text.label{
        text-anchor:start;
    }
    svg.railroad-diagram text.comment{
        font:italic 12px monospace;
    }
    svg.railroad-diagram rect{
        stroke-width:1;
        stroke:black;
        fill:transparent;
    }

/* ]]> */
</style><g>
<path d="M20 21v20m10 -20v20m-10 -10h20"></path></g><path d="M40 31h10"></path><g class="terminal">
<path d="M50 31h0.0"></path><path d="M87.0 31h0.0"></path><rect height="22" rx="10" ry="10" width="37.0" x="50.0" y="20"></rect><text x="68.5" y="35">If</text></g><path d="M87.0 31h10"></path><path d="M97.0 31h10"></path><g class="terminal">
<path d="M107.0 31h0.0"></path><path d="M203.5 31h0.0"></path><rect height="22" rx="10" ry="10" width="96.5" x="107.0" y="20"></rect><text x="155.25" y="35">condition</text></g><path d="M203.5 31h10"></path><path d="M213.5 31h10"></path><g class="terminal">
<path d="M223.5 31h0.0"></path><path d="M277.5 31h0.0"></path><rect height="22" rx="10" ry="10" width="54.0" x="223.5" y="20"></rect><text x="250.5" y="35">Then</text></g><path d="M277.5 31h10"></path><path d="M287.5 31h10"></path><g class="terminal">
<path d="M297.5 31h0.0"></path><path d="M402.5 31h0.0"></path><rect height="22" rx="10" ry="10" width="105.0" x="297.5" y="20"></rect><text x="350.0" y="35">statements</text></g><path d="M402.5 31h10"></path><g>
<path d="M412.5 31h0.0"></path><path d="M594.5 31h0.0"></path><path d="M412.5 31h30"></path><g>
<path d="M442.5 31h122.0"></path></g><path d="M564.5 31h30"></path><path d="M412.5 31a15 15 0 0 1 15 15v1a15 15 0 0 0 15 15"></path><g class="non-terminal">
<path d="M442.5 62h0.0"></path><path d="M564.5 62h0.0"></path><rect height="22" width="122.0" x="442.5" y="51"></rect><text x="503.5" y="66">Else options</text></g><path d="M564.5 62a15 15 0 0 0 15 -15v-1a15 15 0 0 1 15 -15"></path></g><path d="M594.5 31h10"></path><g class="terminal">
<path d="M604.5 31h0.0"></path><path d="M675.5 31h0.0"></path><rect height="22" rx="10" ry="10" width="71.0" x="604.5" y="20"></rect><text x="640.0" y="35">End If</text></g><path d="M675.5 31h10"></path><path d="M 685.5 31 h 20 m -10 -10 v 20 m 10 -20 v 20"></path></g></svg>