<svg class="railroad-diagram" height="144" viewBox="0 0 648.5 144" width="648.5" xmlns="http://www.w3.org/2000/svg">
<g transform="translate(.5 .5)">
<style>/* <![CDATA[ */
    svg.railroad-diagram {
        background-color:transparent;
    }
    svg.railroad-diagram path {
        stroke-width:1;
        stroke:black;
        fill:rgba(0,0,0,0);
    }
    svg.railroad-diagram text {
        font:bold 14px monospace;
        font-family: Verdana, sans-serif;
        text-anchor:middle;
    }
    svg.railroad-diagram text.label{
        text-anchor:start;
    }
    svg.railroad-diagram text.comment{
        font:italic 12px monospace;
    }
    svg.railroad-diagram rect{
        stroke-width:1;
        stroke:black;
        fill:transparent;
    }

/* ]]> */
</style><g>
<path d="M20 41v20m10 -20v20m-10 -10h20"></path></g><g>
<path d="M40 51h0.0"></path><path d="M205.5 51h0.0"></path><path d="M40.0 51a15 15 0 0 0 15 -15v-1a15 15 0 0 1 15 -15"></path><g>
<path d="M70.0 20h105.5"></path></g><path d="M175.5 20a15 15 0 0 1 15 15v1a15 15 0 0 0 15 15"></path><path d="M40.0 51h30"></path><g>
<path d="M70.0 51h0.0"></path><path d="M175.5 51h0.0"></path><path d="M70.0 51h30"></path><g class="terminal">
<path d="M100.0 51h0.0"></path><path d="M145.5 51h0.0"></path><rect height="22" rx="10" ry="10" width="45.5" x="100.0" y="40"></rect><text x="122.75" y="55">Let</text></g><path d="M145.5 51h30"></path><path d="M70.0 51a15 15 0 0 1 15 15v12a15 15 0 0 0 15 15"></path><g class="terminal">
<path d="M100.0 93h0.0"></path><path d="M145.5 93h0.0"></path><rect height="22" rx="10" ry="10" width="45.5" x="100.0" y="82"></rect><text x="122.75" y="97">Set</text></g><path d="M145.5 93a15 15 0 0 0 15 -15v-12a15 15 0 0 1 15 -15"></path></g><path d="M175.5 51h30"></path></g><path d="M205.5 51h10"></path><g class="non-terminal">
<path d="M215.5 51h0.0"></path><path d="M303.5 51h0.0"></path><rect height="22" width="88.0" x="215.5" y="40"></rect><text x="259.5" y="55">variable</text></g><path d="M303.5 51h10"></path><path d="M313.5 51h10"></path><g class="terminal">
<path d="M323.5 51h0.0"></path><path d="M352.0 51h0.0"></path><rect height="22" rx="10" ry="10" width="28.5" x="323.5" y="40"></rect><text x="337.75" y="55">=</text></g><path d="M352.0 51h10"></path><g>
<path d="M362.0 51h0.0"></path><path d="M608.5 51h0.0"></path><path d="M362.0 51h30"></path><g class="non-terminal">
<path d="M392.0 51h40.75"></path><path d="M537.75 51h40.75"></path><rect height="22" width="105.0" x="432.75" y="40"></rect><text x="485.25" y="55">expression</text></g><path d="M578.5 51h30"></path><path d="M362.0 51a15 15 0 0 1 15 15v32a15 15 0 0 0 15 15"></path><g>
<path d="M392.0 113h0.0"></path><path d="M578.5 113h0.0"></path><g>
<path d="M392.0 113h0.0"></path><path d="M497.5 113h0.0"></path><path d="M392.0 113a15 15 0 0 0 15 -15v-1a15 15 0 0 1 15 -15"></path><g>
<path d="M422.0 82h45.5"></path></g><path d="M467.5 82a15 15 0 0 1 15 15v1a15 15 0 0 0 15 15"></path><path d="M392.0 113h30"></path><g class="terminal">
<path d="M422.0 113h0.0"></path><path d="M467.5 113h0.0"></path><rect height="22" rx="10" ry="10" width="45.5" x="422.0" y="102"></rect><text x="444.75" y="117">New</text></g><path d="M467.5 113h30"></path></g><path d="M497.5 113h10"></path><g class="non-terminal">
<path d="M507.5 113h0.0"></path><path d="M578.5 113h0.0"></path><rect height="22" width="71.0" x="507.5" y="102"></rect><text x="543.0" y="117">object</text></g></g><path d="M578.5 113a15 15 0 0 0 15 -15v-32a15 15 0 0 1 15 -15"></path></g><path d="M 608.5 51 h 20 m -10 -10 v 20 m 10 -20 v 20"></path></g></svg>