<svg class="railroad-diagram" height="250" viewBox="0 0 524.5 250" width="524.5" xmlns="http://www.w3.org/2000/svg">
<g transform="translate(.5 .5)">
<style>/* <![CDATA[ */
    svg.railroad-diagram {
        background-color:transparent;
    }
    svg.railroad-diagram path {
        stroke-width:1;
        stroke:black;
        fill:rgba(0,0,0,0);
    }
    svg.railroad-diagram text {
        font:bold 14px monospace;
        font-family: Verdana, sans-serif;
        text-anchor:middle;
    }
    svg.railroad-diagram text.label{
        text-anchor:start;
    }
    svg.railroad-diagram text.comment{
        font:italic 12px monospace;
    }
    svg.railroad-diagram rect{
        stroke-width:1;
        stroke:black;
        fill:transparent;
    }

/* ]]> */
</style><g>
<path d="M20 41v20m10 -20v20m-10 -10h20"></path></g><path d="M40 51h10"></path><g>
<path d="M50 51h0.0"></path><path d="M474.5 51h0.0"></path><g class="terminal">
<path d="M50.0 51h0.0"></path><path d="M112.5 51h0.0"></path><rect height="22" rx="10" ry="10" width="62.5" x="50.0" y="40"></rect><text x="81.25" y="55">Print</text></g><path d="M112.5 51h10"></path><g>
<path d="M122.5 51h0.0"></path><path d="M219.5 51h0.0"></path><path d="M122.5 51h30"></path><g>
<path d="M152.5 51h37.0"></path></g><path d="M189.5 51h30"></path><path d="M122.5 51a15 15 0 0 1 15 15v1a15 15 0 0 0 15 15"></path><g class="terminal">
<path d="M152.5 82h0.0"></path><path d="M189.5 82h0.0"></path><rect height="22" rx="10" ry="10" width="37.0" x="152.5" y="71"></rect><text x="171.0" y="86">#n</text></g><path d="M189.5 82a15 15 0 0 0 15 -15v-1a15 15 0 0 1 15 -15"></path></g><g>
<path d="M219.5 51h0.0"></path><path d="M474.5 51h0.0"></path><path d="M219.5 51a15 15 0 0 0 15 -15v-1a15 15 0 0 1 15 -15"></path><g>
<path d="M249.5 20h195.0"></path></g><path d="M444.5 20a15 15 0 0 1 15 15v1a15 15 0 0 0 15 15"></path><path d="M219.5 51h30"></path><g>
<path d="M249.5 51h0.0"></path><path d="M444.5 51h0.0"></path><path d="M249.5 51h15"></path><g>
<path d="M264.5 51h0.0"></path><path d="M429.5 51h0.0"></path><g>
<path d="M264.5 51h0.0"></path><path d="M429.5 51h0.0"></path><path d="M264.5 51h30"></path><g class="terminal">
<path d="M294.5 51h0.0"></path><path d="M399.5 51h0.0"></path><rect height="22" rx="10" ry="10" width="105.0" x="294.5" y="40"></rect><text x="347.0" y="55">expression</text></g><path d="M399.5 51h30"></path><path d="M264.5 51a15 15 0 0 1 15 15v12a15 15 0 0 0 15 15"></path><g class="terminal">
<path d="M294.5 93h17.0"></path><path d="M382.5 93h17.0"></path><rect height="22" rx="10" ry="10" width="71.0" x="311.5" y="82"></rect><text x="347.0" y="97">Spc(#)</text></g><path d="M399.5 93a15 15 0 0 0 15 -15v-12a15 15 0 0 1 15 -15"></path><path d="M264.5 51a15 15 0 0 1 15 15v54a15 15 0 0 0 15 15"></path><g class="terminal">
<path d="M294.5 135h8.5"></path><path d="M391.0 135h8.5"></path><rect height="22" rx="10" ry="10" width="88.0" x="303.0" y="124"></rect><text x="347.0" y="139">Tab(pos)</text></g><path d="M399.5 135a15 15 0 0 0 15 -15v-54a15 15 0 0 1 15 -15"></path></g></g><path d="M429.5 51h15"></path><path d="M264.5 51a15 15 0 0 0 -15 15v96a15 15 0 0 0 15 15"></path><g>
<path d="M264.5 177h38.25"></path><path d="M391.25 177h38.25"></path><path d="M302.75 177h30"></path><g class="terminal">
<path d="M332.75 177h0.0"></path><path d="M361.25 177h0.0"></path><rect height="22" rx="10" ry="10" width="28.5" x="332.75" y="166"></rect><text x="347.0" y="181">,</text></g><path d="M361.25 177h30"></path><path d="M302.75 177a15 15 0 0 1 15 15v12a15 15 0 0 0 15 15"></path><g class="terminal">
<path d="M332.75 219h0.0"></path><path d="M361.25 219h0.0"></path><rect height="22" rx="10" ry="10" width="28.5" x="332.75" y="208"></rect><text x="347.0" y="223">;</text></g><path d="M361.25 219a15 15 0 0 0 15 -15v-12a15 15 0 0 1 15 -15"></path></g><path d="M429.5 177a15 15 0 0 0 15 -15v-96a15 15 0 0 0 -15 -15"></path></g><path d="M444.5 51h30"></path></g></g><path d="M474.5 51h10"></path><path d="M 484.5 51 h 20 m -10 -10 v 20 m 10 -20 v 20"></path></g></svg>