<svg class="railroad-diagram" height="250" viewBox="0 0 732.5 250" width="732.5" xmlns="http://www.w3.org/2000/svg">
<g transform="translate(.5 .5)">
<style>/* <![CDATA[ */
    svg.railroad-diagram {
        background-color:transparent;
    }
    svg.railroad-diagram path {
        stroke-width:1;
        stroke:black;
        fill:rgba(0,0,0,0);
    }
    svg.railroad-diagram text {
        font:bold 14px monospace;
        font-family: Verdana, sans-serif;
        text-anchor:middle;
    }
    svg.railroad-diagram text.label{
        text-anchor:start;
    }
    svg.railroad-diagram text.comment{
        font:italic 12px monospace;
    }
    svg.railroad-diagram rect{
        stroke-width:1;
        stroke:black;
        fill:transparent;
    }

/* ]]> */
</style><g>
<path d="M20 41v20m10 -20v20m-10 -10h20"></path></g><path d="M40 51h10"></path><g>
<path d="M50 51h0.0"></path><path d="M682.5 51h0.0"></path><g class="terminal">
<path d="M50.0 51h0.0"></path><path d="M112.5 51h0.0"></path><rect height="22" rx="10" ry="10" width="62.5" x="50.0" y="40"></rect><text x="81.25" y="55">Print</text></g><path d="M112.5 51h10"></path><g>
<path d="M122.5 51h0.0"></path><path d="M270.5 51h0.0"></path><path d="M122.5 51h30"></path><g>
<path d="M152.5 51h88.0"></path></g><path d="M240.5 51h30"></path><path d="M122.5 51a15 15 0 0 1 15 15v1a15 15 0 0 0 15 15"></path><g class="terminal">
<path d="M152.5 82h0.0"></path><path d="M240.5 82h0.0"></path><rect height="22" rx="10" ry="10" width="88.0" x="152.5" y="71"></rect><text x="196.5" y="86">#filenum</text></g><path d="M240.5 82a15 15 0 0 0 15 -15v-1a15 15 0 0 1 15 -15"></path></g><g>
<path d="M270.5 51h0.0"></path><path d="M534.0 51h0.0"></path><path d="M270.5 51a15 15 0 0 0 15 -15v-1a15 15 0 0 1 15 -15"></path><g>
<path d="M300.5 20h203.5"></path></g><path d="M504.0 20a15 15 0 0 1 15 15v1a15 15 0 0 0 15 15"></path><path d="M270.5 51h30"></path><g>
<path d="M300.5 51h0.0"></path><path d="M504.0 51h0.0"></path><path d="M300.5 51h15"></path><g>
<path d="M315.5 51h0.0"></path><path d="M489.0 51h0.0"></path><g>
<path d="M315.5 51h0.0"></path><path d="M489.0 51h0.0"></path><path d="M315.5 51h30"></path><g class="terminal">
<path d="M345.5 51h4.25"></path><path d="M454.75 51h4.25"></path><rect height="22" rx="10" ry="10" width="105.0" x="349.75" y="40"></rect><text x="402.25" y="55">expression</text></g><path d="M459.0 51h30"></path><path d="M315.5 51a15 15 0 0 1 15 15v12a15 15 0 0 0 15 15"></path><g class="terminal">
<path d="M345.5 93h0.0"></path><path d="M459.0 93h0.0"></path><rect height="22" rx="10" ry="10" width="113.5" x="345.5" y="82"></rect><text x="402.25" y="97">Spc(number)</text></g><path d="M459.0 93a15 15 0 0 0 15 -15v-12a15 15 0 0 1 15 -15"></path><path d="M315.5 51a15 15 0 0 1 15 15v54a15 15 0 0 0 15 15"></path><g class="terminal">
<path d="M345.5 135h12.75"></path><path d="M446.25 135h12.75"></path><rect height="22" rx="10" ry="10" width="88.0" x="358.25" y="124"></rect><text x="402.25" y="139">Tab(pos)</text></g><path d="M459.0 135a15 15 0 0 0 15 -15v-54a15 15 0 0 1 15 -15"></path></g></g><path d="M489.0 51h15"></path><path d="M315.5 51a15 15 0 0 0 -15 15v96a15 15 0 0 0 15 15"></path><g>
<path d="M315.5 177h42.5"></path><path d="M446.5 177h42.5"></path><path d="M358.0 177h30"></path><g class="terminal">
<path d="M388.0 177h0.0"></path><path d="M416.5 177h0.0"></path><rect height="22" rx="10" ry="10" width="28.5" x="388.0" y="166"></rect><text x="402.25" y="181">,</text></g><path d="M416.5 177h30"></path><path d="M358.0 177a15 15 0 0 1 15 15v12a15 15 0 0 0 15 15"></path><g class="terminal">
<path d="M388.0 219h0.0"></path><path d="M416.5 219h0.0"></path><rect height="22" rx="10" ry="10" width="28.5" x="388.0" y="208"></rect><text x="402.25" y="223">;</text></g><path d="M416.5 219a15 15 0 0 0 15 -15v-12a15 15 0 0 1 15 -15"></path></g><path d="M489.0 177a15 15 0 0 0 15 -15v-96a15 15 0 0 0 -15 -15"></path></g><path d="M504.0 51h30"></path></g><g>
<path d="M534.0 51h0.0"></path><path d="M682.5 51h0.0"></path><path d="M534.0 51h30"></path><g>
<path d="M564.0 51h88.5"></path></g><path d="M652.5 51h30"></path><path d="M534.0 51a15 15 0 0 1 15 15v1a15 15 0 0 0 15 15"></path><g>
<path d="M564.0 82h0.0"></path><path d="M652.5 82h0.0"></path><path d="M564.0 82h30"></path><g class="terminal">
<path d="M594.0 82h0.0"></path><path d="M622.5 82h0.0"></path><rect height="22" rx="10" ry="10" width="28.5" x="594.0" y="71"></rect><text x="608.25" y="86">,</text></g><path d="M622.5 82h30"></path><path d="M564.0 82a15 15 0 0 1 15 15v12a15 15 0 0 0 15 15"></path><g class="terminal">
<path d="M594.0 124h0.0"></path><path d="M622.5 124h0.0"></path><rect height="22" rx="10" ry="10" width="28.5" x="594.0" y="113"></rect><text x="608.25" y="128">;</text></g><path d="M622.5 124a15 15 0 0 0 15 -15v-12a15 15 0 0 1 15 -15"></path></g><path d="M652.5 82a15 15 0 0 0 15 -15v-1a15 15 0 0 1 15 -15"></path></g></g><path d="M682.5 51h10"></path><path d="M 692.5 51 h 20 m -10 -10 v 20 m 10 -20 v 20"></path></g></svg>