<svg class="railroad-diagram" height="166" viewBox="0 0 986.0 166" width="986.0" xmlns="http://www.w3.org/2000/svg">
<g transform="translate(.5 .5)">
<style>/* <![CDATA[ */
    svg.railroad-diagram {
        background-color:transparent;
    }
    svg.railroad-diagram path {
        stroke-width:1;
        stroke:black;
        fill:rgba(0,0,0,0);
    }
    svg.railroad-diagram text {
        font:bold 14px monospace;
        font-family: Verdana, sans-serif;
        text-anchor:middle;
    }
    svg.railroad-diagram text.label{
        text-anchor:start;
    }
    svg.railroad-diagram text.comment{
        font:italic 12px monospace;
    }
    svg.railroad-diagram rect{
        stroke-width:1;
        stroke:black;
        fill:transparent;
    }

/* ]]> */
</style><g>
<path d="M20 83v20m10 -20v20m-10 -10h20"></path></g><path d="M40 93h10"></path><g>
<path d="M50 93h0.0"></path><path d="M936.0 93h0.0"></path><g>
<path d="M50.0 93h0.0"></path><path d="M249.5 93h0.0"></path><path d="M50.0 93a15 15 0 0 0 15 -15v-43a15 15 0 0 1 15 -15"></path><g>
<path d="M80.0 20h139.5"></path></g><path d="M219.5 20a15 15 0 0 1 15 15v43a15 15 0 0 0 15 15"></path><path d="M50.0 93h30"></path><g>
<path d="M80.0 93h0.0"></path><path d="M219.5 93h0.0"></path><path d="M80.0 93a15 15 0 0 0 15 -15v-12a15 15 0 0 1 15 -15"></path><g class="terminal">
<path d="M110.0 51h4.25"></path><path d="M185.25 51h4.25"></path><rect height="22" rx="10" ry="10" width="71.0" x="114.25" y="40"></rect><text x="149.75" y="55">Global</text></g><path d="M189.5 51a15 15 0 0 1 15 15v12a15 15 0 0 0 15 15"></path><path d="M80.0 93h30"></path><g class="terminal">
<path d="M110.0 93h4.25"></path><path d="M185.25 93h4.25"></path><rect height="22" rx="10" ry="10" width="71.0" x="114.25" y="82"></rect><text x="149.75" y="97">Public</text></g><path d="M189.5 93h30"></path><path d="M80.0 93a15 15 0 0 1 15 15v12a15 15 0 0 0 15 15"></path><g class="terminal">
<path d="M110.0 135h0.0"></path><path d="M189.5 135h0.0"></path><rect height="22" rx="10" ry="10" width="79.5" x="110.0" y="124"></rect><text x="149.75" y="139">Private</text></g><path d="M189.5 135a15 15 0 0 0 15 -15v-12a15 15 0 0 1 15 -15"></path></g><path d="M219.5 93h30"></path></g><path d="M249.5 93h10"></path><g class="terminal">
<path d="M259.5 93h0.0"></path><path d="M381.5 93h0.0"></path><rect height="22" rx="10" ry="10" width="122.0" x="259.5" y="82"></rect><text x="320.5" y="97">Property Get</text></g><path d="M381.5 93h10"></path><path d="M391.5 93h10"></path><g class="terminal">
<path d="M401.5 93h0.0"></path><path d="M455.5 93h0.0"></path><rect height="22" rx="10" ry="10" width="54.0" x="401.5" y="82"></rect><text x="428.5" y="97">name</text></g><path d="M455.5 93h10"></path><g>
<path d="M465.5 93h0.0"></path><path d="M679.0 93h0.0"></path><path d="M465.5 93a15 15 0 0 0 15 -15v-12a15 15 0 0 1 15 -15"></path><g>
<path d="M495.5 51h32.75"></path><path d="M616.25 51h32.75"></path><g class="non-terminal">
<path d="M528.25 51h0.0"></path><path d="M616.25 51h0.0"></path><rect height="22" width="88.0" x="528.25" y="40"></rect><text x="572.25" y="55">type-car</text></g></g><path d="M649.0 51a15 15 0 0 1 15 15v12a15 15 0 0 0 15 15"></path><path d="M465.5 93h30"></path><g>
<path d="M495.5 93h0.0"></path><path d="M649.0 93h0.0"></path><g class="terminal">
<path d="M495.5 93h0.0"></path><path d="M532.5 93h0.0"></path><rect height="22" rx="10" ry="10" width="37.0" x="495.5" y="82"></rect><text x="514.0" y="97">As</text></g><path d="M532.5 93h10"></path><path d="M542.5 93h10"></path><g class="terminal">
<path d="M552.5 93h0.0"></path><path d="M649.0 93h0.0"></path><rect height="22" rx="10" ry="10" width="96.5" x="552.5" y="82"></rect><text x="600.75" y="97">type-name</text></g></g><path d="M649.0 93h30"></path></g><path d="M679.0 93h10"></path><g class="non-terminal">
<path d="M689.0 93h0.0"></path><path d="M794.0 93h0.0"></path><rect height="22" width="105.0" x="689.0" y="82"></rect><text x="741.5" y="97">statements</text></g><path d="M794.0 93h10"></path><path d="M804.0 93h10"></path><g class="terminal">
<path d="M814.0 93h0.0"></path><path d="M936.0 93h0.0"></path><rect height="22" rx="10" ry="10" width="122.0" x="814.0" y="82"></rect><text x="875.0" y="97">End Property</text></g></g><path d="M936.0 93h10"></path><path d="M 946.0 93 h 20 m -10 -10 v 20 m 10 -20 v 20"></path></g></svg>