<svg class="railroad-diagram" height="206" viewBox="0 0 864.5 206" width="864.5" xmlns="http://www.w3.org/2000/svg">
<g transform="translate(.5 .5)">
<style>/* <![CDATA[ */
    svg.railroad-diagram {
        background-color:transparent;
    }
    svg.railroad-diagram path {
        stroke-width:1;
        stroke:black;
        fill:rgba(0,0,0,0);
    }
    svg.railroad-diagram text {
        font:bold 14px monospace;
        font-family: Verdana, sans-serif;
        text-anchor:middle;
    }
    svg.railroad-diagram text.label{
        text-anchor:start;
    }
    svg.railroad-diagram text.comment{
        font:italic 12px monospace;
    }
    svg.railroad-diagram rect{
        stroke-width:1;
        stroke:black;
        fill:transparent;
    }

/* ]]> */
</style><g>
<path d="M20 61v20m10 -20v20m-10 -10h20"></path></g><path d="M40 71h10"></path><g class="terminal">
<path d="M50 71h0.0"></path><path d="M112.5 71h0.0"></path><rect height="22" rx="10" ry="10" width="62.5" x="50.0" y="60"></rect><text x="81.25" y="75">ReDim</text></g><path d="M112.5 71h10"></path><g>
<path d="M122.5 71h0.0"></path><path d="M270.5 71h0.0"></path><path d="M122.5 71h30"></path><g>
<path d="M152.5 71h88.0"></path></g><path d="M240.5 71h30"></path><path d="M122.5 71a15 15 0 0 1 15 15v1a15 15 0 0 0 15 15"></path><g class="terminal">
<path d="M152.5 102h0.0"></path><path d="M240.5 102h0.0"></path><rect height="22" rx="10" ry="10" width="88.0" x="152.5" y="91"></rect><text x="196.5" y="106">Preserve</text></g><path d="M240.5 102a15 15 0 0 0 15 -15v-1a15 15 0 0 1 15 -15"></path></g><path d="M270.5 71h10"></path><g>
<path d="M280.5 71h0.0"></path><path d="M814.5 71h0.0"></path><path d="M280.5 71h15"></path><g>
<path d="M295.5 71h0.0"></path><path d="M799.5 71h0.0"></path><path d="M295.5 71a15 15 0 0 0 15 -15v-21a15 15 0 0 1 15 -15"></path><g>
<path d="M325.5 20h444.0"></path></g><path d="M769.5 20a15 15 0 0 1 15 15v21a15 15 0 0 0 15 15"></path><path d="M295.5 71h30"></path><g>
<path d="M325.5 71h0.0"></path><path d="M769.5 71h0.0"></path><g class="terminal">
<path d="M325.5 71h0.0"></path><path d="M413.5 71h0.0"></path><rect height="22" rx="10" ry="10" width="88.0" x="325.5" y="60"></rect><text x="369.5" y="75">variable</text></g><path d="M413.5 71h10"></path><g>
<path d="M423.5 71h0.0"></path><path d="M769.5 71h0.0"></path><path d="M423.5 71h30"></path><g>
<path d="M453.5 71h0.0"></path><path d="M739.5 71h0.0"></path><g>
<path d="M453.5 71h0.0"></path><path d="M576.0 71h0.0"></path><path d="M453.5 71a15 15 0 0 0 15 -15v-1a15 15 0 0 1 15 -15"></path><g>
<path d="M483.5 40h62.5"></path></g><path d="M546.0 40a15 15 0 0 1 15 15v1a15 15 0 0 0 15 15"></path><path d="M453.5 71h30"></path><g class="non-terminal">
<path d="M483.5 71h0.0"></path><path d="M546.0 71h0.0"></path><rect height="22" width="62.5" x="483.5" y="60"></rect><text x="514.75" y="75">array</text></g><path d="M546.0 71h30"></path></g><path d="M576.0 71h10"></path><g>
<path d="M586.0 71h0.0"></path><path d="M739.5 71h0.0"></path><g class="terminal">
<path d="M586.0 71h0.0"></path><path d="M623.0 71h0.0"></path><rect height="22" rx="10" ry="10" width="37.0" x="586.0" y="60"></rect><text x="604.5" y="75">As</text></g><path d="M623.0 71h10"></path><path d="M633.0 71h10"></path><g class="non-terminal">
<path d="M643.0 71h0.0"></path><path d="M739.5 71h0.0"></path><rect height="22" width="96.5" x="643.0" y="60"></rect><text x="691.25" y="75">type-name</text></g></g></g><path d="M739.5 71h30"></path><path d="M423.5 71a15 15 0 0 1 15 15v32a15 15 0 0 0 15 15"></path><g>
<path d="M453.5 133h32.75"></path><path d="M706.75 133h32.75"></path><g class="non-terminal">
<path d="M486.25 133h0.0"></path><path d="M574.25 133h0.0"></path><rect height="22" width="88.0" x="486.25" y="122"></rect><text x="530.25" y="137">type-car</text></g><path d="M574.25 133h10"></path><g>
<path d="M584.25 133h0.0"></path><path d="M706.75 133h0.0"></path><path d="M584.25 133a15 15 0 0 0 15 -15v-1a15 15 0 0 1 15 -15"></path><g>
<path d="M614.25 102h62.5"></path></g><path d="M676.75 102a15 15 0 0 1 15 15v1a15 15 0 0 0 15 15"></path><path d="M584.25 133h30"></path><g class="non-terminal">
<path d="M614.25 133h0.0"></path><path d="M676.75 133h0.0"></path><rect height="22" width="62.5" x="614.25" y="122"></rect><text x="645.5" y="137">array</text></g><path d="M676.75 133h30"></path></g></g><path d="M739.5 133a15 15 0 0 0 15 -15v-32a15 15 0 0 1 15 -15"></path></g></g><path d="M769.5 71h30"></path></g><path d="M799.5 71h15"></path><path d="M295.5 71a15 15 0 0 0 -15 15v74a15 15 0 0 0 15 15"></path><g class="terminal">
<path d="M295.5 175h237.75"></path><path d="M561.75 175h237.75"></path><rect height="22" rx="10" ry="10" width="28.5" x="533.25" y="164"></rect><text x="547.5" y="179">,</text></g><path d="M799.5 175a15 15 0 0 0 15 -15v-74a15 15 0 0 0 -15 -15"></path></g><path d="M814.5 71h10"></path><path d="M 824.5 71 h 20 m -10 -10 v 20 m 10 -20 v 20"></path></g></svg>