<svg class="railroad-diagram" height="166" viewBox="0 0 762.5 166" width="762.5" xmlns="http://www.w3.org/2000/svg">
<g transform="translate(.5 .5)">
<style>/* <![CDATA[ */
    svg.railroad-diagram {
        background-color:transparent;
    }
    svg.railroad-diagram path {
        stroke-width:1;
        stroke:black;
        fill:rgba(0,0,0,0);
    }
    svg.railroad-diagram text {
        font:bold 14px monospace;
        font-family: Verdana, sans-serif;
        text-anchor:middle;
    }
    svg.railroad-diagram text.label{
        text-anchor:start;
    }
    svg.railroad-diagram text.comment{
        font:italic 12px monospace;
    }
    svg.railroad-diagram rect{
        stroke-width:1;
        stroke:black;
        fill:transparent;
    }

/* ]]> */
</style><g>
<path d="M20 63v20m10 -20v20m-10 -10h20"></path></g><path d="M40 73h10"></path><g>
<path d="M50 73h0.0"></path><path d="M712.5 73h0.0"></path><g class="terminal">
<path d="M50.0 73h0.0"></path><path d="M163.5 73h0.0"></path><rect height="22" rx="10" ry="10" width="113.5" x="50.0" y="62"></rect><text x="106.75" y="77">Select Case</text></g><path d="M163.5 73h10"></path><path d="M173.5 73h10"></path><g>
<path d="M183.5 73h0.0"></path><path d="M587.5 73h0.0"></path><path d="M183.5 73h15"></path><g>
<path d="M198.5 73h0.0"></path><path d="M572.5 73h0.0"></path><g class="terminal">
<path d="M198.5 73h0.0"></path><path d="M252.5 73h0.0"></path><rect height="22" rx="10" ry="10" width="54.0" x="198.5" y="62"></rect><text x="225.5" y="77">Case</text></g><path d="M252.5 73h10"></path><g>
<path d="M262.5 73h0.0"></path><path d="M457.5 73h0.0"></path><path d="M262.5 73a15 15 0 0 0 15 -15v-12a15 15 0 0 1 15 -15"></path><g class="terminal">
<path d="M292.5 31h40.5"></path><path d="M387.0 31h40.5"></path><rect height="22" rx="10" ry="10" width="54.0" x="333.0" y="20"></rect><text x="360.0" y="35">Else</text></g><path d="M427.5 31a15 15 0 0 1 15 15v12a15 15 0 0 0 15 15"></path><path d="M262.5 73h30"></path><g>
<path d="M292.5 73h0.0"></path><path d="M427.5 73h0.0"></path><path d="M292.5 73h15"></path><g class="terminal">
<path d="M307.5 73h0.0"></path><path d="M412.5 73h0.0"></path><rect height="22" rx="10" ry="10" width="105.0" x="307.5" y="62"></rect><text x="360.0" y="77">expression</text></g><path d="M412.5 73h15"></path><path d="M307.5 73a15 15 0 0 0 -15 15v12a15 15 0 0 0 15 15"></path><g class="terminal">
<path d="M307.5 115h38.25"></path><path d="M374.25 115h38.25"></path><rect height="22" rx="10" ry="10" width="28.5" x="345.75" y="104"></rect><text x="360.0" y="119">,</text></g><path d="M412.5 115a15 15 0 0 0 15 -15v-12a15 15 0 0 0 -15 -15"></path></g><path d="M427.5 73h30"></path></g><path d="M457.5 73h10"></path><g class="terminal">
<path d="M467.5 73h0.0"></path><path d="M572.5 73h0.0"></path><rect height="22" rx="10" ry="10" width="105.0" x="467.5" y="62"></rect><text x="520.0" y="77">statements</text></g></g><path d="M572.5 73h15"></path><path d="M198.5 73a15 15 0 0 0 -15 15v43a15 15 0 0 0 15 15"></path><g>
<path d="M198.5 146h374.0"></path></g><path d="M572.5 146a15 15 0 0 0 15 -15v-43a15 15 0 0 0 -15 -15"></path></g><path d="M587.5 73h10"></path><path d="M597.5 73h10"></path><g class="terminal">
<path d="M607.5 73h0.0"></path><path d="M712.5 73h0.0"></path><rect height="22" rx="10" ry="10" width="105.0" x="607.5" y="62"></rect><text x="660.0" y="77">End Select</text></g></g><path d="M712.5 73h10"></path><path d="M 722.5 73 h 20 m -10 -10 v 20 m 10 -20 v 20"></path></g></svg>