<svg class="railroad-diagram" height="166" viewBox="0 0 968.5 166" width="968.5" xmlns="http://www.w3.org/2000/svg">
<g transform="translate(.5 .5)">
<style>/* <![CDATA[ */
    svg.railroad-diagram {
        background-color:transparent;
    }
    svg.railroad-diagram path {
        stroke-width:1;
        stroke:black;
        fill:rgba(0,0,0,0);
    }
    svg.railroad-diagram text {
        font:bold 14px monospace;
        font-family: Verdana, sans-serif;
        text-anchor:middle;
    }
    svg.railroad-diagram text.label{
        text-anchor:start;
    }
    svg.railroad-diagram text.comment{
        font:italic 12px monospace;
    }
    svg.railroad-diagram rect{
        stroke-width:1;
        stroke:black;
        fill:transparent;
    }

/* ]]> */
</style><g>
<path d="M20 83v20m10 -20v20m-10 -10h20"></path></g><path d="M40 93h10"></path><g>
<path d="M50 93h0.0"></path><path d="M918.5 93h0.0"></path><g>
<path d="M50.0 93h0.0"></path><path d="M249.5 93h0.0"></path><path d="M50.0 93a15 15 0 0 0 15 -15v-43a15 15 0 0 1 15 -15"></path><g>
<path d="M80.0 20h139.5"></path></g><path d="M219.5 20a15 15 0 0 1 15 15v43a15 15 0 0 0 15 15"></path><path d="M50.0 93h30"></path><g>
<path d="M80.0 93h0.0"></path><path d="M219.5 93h0.0"></path><path d="M80.0 93a15 15 0 0 0 15 -15v-12a15 15 0 0 1 15 -15"></path><g class="terminal">
<path d="M110.0 51h4.25"></path><path d="M185.25 51h4.25"></path><rect height="22" rx="10" ry="10" width="71.0" x="114.25" y="40"></rect><text x="149.75" y="55">Global</text></g><path d="M189.5 51a15 15 0 0 1 15 15v12a15 15 0 0 0 15 15"></path><path d="M80.0 93h30"></path><g class="terminal">
<path d="M110.0 93h4.25"></path><path d="M185.25 93h4.25"></path><rect height="22" rx="10" ry="10" width="71.0" x="114.25" y="82"></rect><text x="149.75" y="97">Public</text></g><path d="M189.5 93h30"></path><path d="M80.0 93a15 15 0 0 1 15 15v12a15 15 0 0 0 15 15"></path><g class="terminal">
<path d="M110.0 135h0.0"></path><path d="M189.5 135h0.0"></path><rect height="22" rx="10" ry="10" width="79.5" x="110.0" y="124"></rect><text x="149.75" y="139">Private</text></g><path d="M189.5 135a15 15 0 0 0 15 -15v-12a15 15 0 0 1 15 -15"></path></g><path d="M219.5 93h30"></path></g><path d="M249.5 93h10"></path><g class="terminal">
<path d="M259.5 93h0.0"></path><path d="M305.0 93h0.0"></path><rect height="22" rx="10" ry="10" width="45.5" x="259.5" y="82"></rect><text x="282.25" y="97">Sub</text></g><path d="M305.0 93h10"></path><path d="M315.0 93h10"></path><g class="terminal">
<path d="M325.0 93h0.0"></path><path d="M379.0 93h0.0"></path><rect height="22" rx="10" ry="10" width="54.0" x="325.0" y="82"></rect><text x="352.0" y="97">name</text></g><path d="M379.0 93h10"></path><g>
<path d="M389.0 93h0.0"></path><path d="M704.0 93h0.0"></path><path d="M389.0 93a15 15 0 0 0 15 -15v-21a15 15 0 0 1 15 -15"></path><g>
<path d="M419.0 42h255.0"></path></g><path d="M674.0 42a15 15 0 0 1 15 15v21a15 15 0 0 0 15 15"></path><path d="M389.0 93h30"></path><g>
<path d="M419.0 93h0.0"></path><path d="M674.0 93h0.0"></path><g class="terminal">
<path d="M419.0 93h0.0"></path><path d="M447.5 93h0.0"></path><rect height="22" rx="10" ry="10" width="28.5" x="419.0" y="82"></rect><text x="433.25" y="97">(</text></g><path d="M447.5 93h10"></path><g>
<path d="M457.5 93h0.0"></path><path d="M635.5 93h0.0"></path><path d="M457.5 93a15 15 0 0 0 15 -15v-1a15 15 0 0 1 15 -15"></path><g>
<path d="M487.5 62h118.0"></path></g><path d="M605.5 62a15 15 0 0 1 15 15v1a15 15 0 0 0 15 15"></path><path d="M457.5 93h30"></path><g>
<path d="M487.5 93h0.0"></path><path d="M605.5 93h0.0"></path><path d="M487.5 93h15"></path><g class="non-terminal">
<path d="M502.5 93h0.0"></path><path d="M590.5 93h0.0"></path><rect height="22" width="88.0" x="502.5" y="82"></rect><text x="546.5" y="97">argument</text></g><path d="M590.5 93h15"></path><path d="M502.5 93a15 15 0 0 0 -15 15v12a15 15 0 0 0 15 15"></path><g class="terminal">
<path d="M502.5 135h29.75"></path><path d="M560.75 135h29.75"></path><rect height="22" rx="10" ry="10" width="28.5" x="532.25" y="124"></rect><text x="546.5" y="139">,</text></g><path d="M590.5 135a15 15 0 0 0 15 -15v-12a15 15 0 0 0 -15 -15"></path></g><path d="M605.5 93h30"></path></g><path d="M635.5 93h10"></path><g class="terminal">
<path d="M645.5 93h0.0"></path><path d="M674.0 93h0.0"></path><rect height="22" rx="10" ry="10" width="28.5" x="645.5" y="82"></rect><text x="659.75" y="97">)</text></g></g><path d="M674.0 93h30"></path></g><path d="M704.0 93h10"></path><g class="non-terminal">
<path d="M714.0 93h0.0"></path><path d="M819.0 93h0.0"></path><rect height="22" width="105.0" x="714.0" y="82"></rect><text x="766.5" y="97">statements</text></g><path d="M819.0 93h10"></path><path d="M829.0 93h10"></path><g class="terminal">
<path d="M839.0 93h0.0"></path><path d="M918.5 93h0.0"></path><rect height="22" rx="10" ry="10" width="79.5" x="839.0" y="82"></rect><text x="878.75" y="97">End Sub</text></g></g><path d="M918.5 93h10"></path><path d="M 928.5 93 h 20 m -10 -10 v 20 m 10 -20 v 20"></path></g></svg>