<svg class="railroad-diagram" height="398" viewBox="0 0 248.0 398" width="248.0" xmlns="http://www.w3.org/2000/svg">
<g transform="translate(.5 .5)">
<style>/* <![CDATA[ */
    svg.railroad-diagram {
        background-color:transparent;
    }
    svg.railroad-diagram path {
        stroke-width:1;
        stroke:black;
        fill:rgba(0,0,0,0);
    }
    svg.railroad-diagram text {
        font:bold 14px monospace;
        font-family: Verdana, sans-serif;
        text-anchor:middle;
    }
    svg.railroad-diagram text.label{
        text-anchor:start;
    }
    svg.railroad-diagram text.comment{
        font:italic 12px monospace;
    }
    svg.railroad-diagram rect{
        stroke-width:1;
        stroke:black;
        fill:transparent;
    }

/* ]]> */
</style><g>
<path d="M20 189v20m0 -10h20"></path></g><path d="M40 199h10"></path><g>
<path d="M50 199h0.0"></path><path d="M198.0 199h0.0"></path><g>
<path d="M50.0 199h0.0"></path><path d="M198.0 199h0.0"></path><path d="M50.0 199a15 15 0 0 0 15 -15v-12a15 15 0 0 1 15 -15"></path><g class="terminal">
<path d="M80.0 157h8.5"></path><path d="M159.5 157h8.5"></path><rect height="22" rx="10" ry="10" width="71.0" x="88.5" y="146"></rect><text x="124.0" y="161">Double</text></g><path d="M168.0 157a15 15 0 0 1 15 15v12a15 15 0 0 0 15 15"></path><path d="M50.0 199a15 15 0 0 0 15 -15v-54a15 15 0 0 1 15 -15"></path><g class="terminal">
<path d="M80.0 115h8.5"></path><path d="M159.5 115h8.5"></path><rect height="22" rx="10" ry="10" width="71.0" x="88.5" y="104"></rect><text x="124.0" y="119">Single</text></g><path d="M168.0 115a15 15 0 0 1 15 15v54a15 15 0 0 0 15 15"></path><path d="M50.0 199a15 15 0 0 0 15 -15v-96a15 15 0 0 1 15 -15"></path><g class="terminal">
<path d="M80.0 73h17.0"></path><path d="M151.0 73h17.0"></path><rect height="22" rx="10" ry="10" width="54.0" x="97.0" y="62"></rect><text x="124.0" y="77">Long</text></g><path d="M168.0 73a15 15 0 0 1 15 15v96a15 15 0 0 0 15 15"></path><path d="M50.0 199a15 15 0 0 0 15 -15v-138a15 15 0 0 1 15 -15"></path><g class="terminal">
<path d="M80.0 31h4.25"></path><path d="M163.75 31h4.25"></path><rect height="22" rx="10" ry="10" width="79.5" x="84.25" y="20"></rect><text x="124.0" y="35">Integer</text></g><path d="M168.0 31a15 15 0 0 1 15 15v138a15 15 0 0 0 15 15"></path><path d="M50.0 199h30"></path><g class="terminal">
<path d="M80.0 199h4.25"></path><path d="M163.75 199h4.25"></path><rect height="22" rx="10" ry="10" width="79.5" x="84.25" y="188"></rect><text x="124.0" y="203">Variant</text></g><path d="M168.0 199h30"></path><path d="M50.0 199a15 15 0 0 1 15 15v12a15 15 0 0 0 15 15"></path><g class="terminal">
<path d="M80.0 241h8.5"></path><path d="M159.5 241h8.5"></path><rect height="22" rx="10" ry="10" width="71.0" x="88.5" y="230"></rect><text x="124.0" y="245">Object</text></g><path d="M168.0 241a15 15 0 0 0 15 -15v-12a15 15 0 0 1 15 -15"></path><path d="M50.0 199a15 15 0 0 1 15 15v54a15 15 0 0 0 15 15"></path><g class="terminal">
<path d="M80.0 283h0.0"></path><path d="M168.0 283h0.0"></path><rect height="22" rx="10" ry="10" width="88.0" x="80.0" y="272"></rect><text x="124.0" y="287">Currency</text></g><path d="M168.0 283a15 15 0 0 0 15 -15v-54a15 15 0 0 1 15 -15"></path><path d="M50.0 199a15 15 0 0 1 15 15v96a15 15 0 0 0 15 15"></path><g class="terminal">
<path d="M80.0 325h17.0"></path><path d="M151.0 325h17.0"></path><rect height="22" rx="10" ry="10" width="54.0" x="97.0" y="314"></rect><text x="124.0" y="329">Date</text></g><path d="M168.0 325a15 15 0 0 0 15 -15v-96a15 15 0 0 1 15 -15"></path><path d="M50.0 199a15 15 0 0 1 15 15v138a15 15 0 0 0 15 15"></path><g class="terminal">
<path d="M80.0 367h8.5"></path><path d="M159.5 367h8.5"></path><rect height="22" rx="10" ry="10" width="71.0" x="88.5" y="356"></rect><text x="124.0" y="371">String</text></g><path d="M168.0 367a15 15 0 0 0 15 -15v-138a15 15 0 0 1 15 -15"></path></g></g><path d="M198.0 199h10"></path><path d="M 208.0 199 h 20 m 0 -10 v 20"></path></g></svg>