<svg class="railroad-diagram" height="248" viewBox="0 0 889.5 248" width="889.5" xmlns="http://www.w3.org/2000/svg">
<g transform="translate(.5 .5)">
<style>/* <![CDATA[ */
    svg.railroad-diagram {
        background-color:transparent;
    }
    svg.railroad-diagram path {
        stroke-width:1;
        stroke:black;
        fill:rgba(0,0,0,0);
    }
    svg.railroad-diagram text {
        font:bold 14px monospace;
        font-family: Verdana, sans-serif;
        text-anchor:middle;
    }
    svg.railroad-diagram text.label{
        text-anchor:start;
    }
    svg.railroad-diagram text.comment{
        font:italic 12px monospace;
    }
    svg.railroad-diagram rect{
        stroke-width:1;
        stroke:black;
        fill:transparent;
    }

/* ]]> */
</style><g>
<path d="M20 41v20m10 -20v20m-10 -10h20"></path></g><path d="M40 51h10"></path><g>
<path d="M50 51h0.0"></path><path d="M839.5 51h0.0"></path><g class="terminal">
<path d="M50.0 51h0.0"></path><path d="M104.0 51h0.0"></path><rect height="22" rx="10" ry="10" width="54.0" x="50.0" y="40"></rect><text x="77.0" y="55">Type</text></g><path d="M104.0 51h10"></path><path d="M114.0 51h10"></path><g class="terminal">
<path d="M124.0 51h0.0"></path><path d="M229.0 51h0.0"></path><rect height="22" rx="10" ry="10" width="105.0" x="124.0" y="40"></rect><text x="176.5" y="55">struc&#95;name</text></g><path d="M229.0 51h10"></path><path d="M239.0 51h10"></path><g>
<path d="M249.0 51h0.0"></path><path d="M731.5 51h0.0"></path><path d="M249.0 51h15"></path><g>
<path d="M264.0 51h0.0"></path><path d="M716.5 51h0.0"></path><g class="terminal">
<path d="M264.0 51h0.0"></path><path d="M360.5 51h0.0"></path><rect height="22" rx="10" ry="10" width="96.5" x="264.0" y="40"></rect><text x="312.25" y="55">datafield</text></g><path d="M360.5 51h10"></path><g>
<path d="M370.5 51h0.0"></path><path d="M716.5 51h0.0"></path><path d="M370.5 51h30"></path><g>
<path d="M400.5 51h73.25"></path><path d="M613.25 51h73.25"></path><path d="M473.75 51a15 15 0 0 0 15 -15v-1a15 15 0 0 1 15 -15"></path><g>
<path d="M503.75 20h79.5"></path></g><path d="M583.25 20a15 15 0 0 1 15 15v1a15 15 0 0 0 15 15"></path><path d="M473.75 51h30"></path><g class="terminal">
<path d="M503.75 51h0.0"></path><path d="M583.25 51h0.0"></path><rect height="22" rx="10" ry="10" width="79.5" x="503.75" y="40"></rect><text x="543.5" y="55">Variant</text></g><path d="M583.25 51h30"></path></g><path d="M686.5 51h30"></path><path d="M370.5 51a15 15 0 0 1 15 15v12a15 15 0 0 0 15 15"></path><g>
<path d="M400.5 93h0.0"></path><path d="M686.5 93h0.0"></path><g>
<path d="M400.5 93h0.0"></path><path d="M523.0 93h0.0"></path><path d="M400.5 93h30"></path><g>
<path d="M430.5 93h62.5"></path></g><path d="M493.0 93h30"></path><path d="M400.5 93a15 15 0 0 1 15 15v1a15 15 0 0 0 15 15"></path><g class="non-terminal">
<path d="M430.5 124h0.0"></path><path d="M493.0 124h0.0"></path><rect height="22" width="62.5" x="430.5" y="113"></rect><text x="461.75" y="128">array</text></g><path d="M493.0 124a15 15 0 0 0 15 -15v-1a15 15 0 0 1 15 -15"></path></g><path d="M523.0 93h10"></path><g class="terminal">
<path d="M533.0 93h0.0"></path><path d="M570.0 93h0.0"></path><rect height="22" rx="10" ry="10" width="37.0" x="533.0" y="82"></rect><text x="551.5" y="97">As</text></g><path d="M570.0 93h10"></path><path d="M580.0 93h10"></path><g class="non-terminal">
<path d="M590.0 93h0.0"></path><path d="M686.5 93h0.0"></path><rect height="22" width="96.5" x="590.0" y="82"></rect><text x="638.25" y="97">type-name</text></g></g><path d="M686.5 93a15 15 0 0 0 15 -15v-12a15 15 0 0 1 15 -15"></path><path d="M370.5 51a15 15 0 0 1 15 15v85a15 15 0 0 0 15 15"></path><g>
<path d="M400.5 166h32.75"></path><path d="M653.75 166h32.75"></path><g class="non-terminal">
<path d="M433.25 166h0.0"></path><path d="M521.25 166h0.0"></path><rect height="22" width="88.0" x="433.25" y="155"></rect><text x="477.25" y="170">type-car</text></g><path d="M521.25 166h10"></path><g>
<path d="M531.25 166h0.0"></path><path d="M653.75 166h0.0"></path><path d="M531.25 166h30"></path><g>
<path d="M561.25 166h62.5"></path></g><path d="M623.75 166h30"></path><path d="M531.25 166a15 15 0 0 1 15 15v1a15 15 0 0 0 15 15"></path><g class="non-terminal">
<path d="M561.25 197h0.0"></path><path d="M623.75 197h0.0"></path><rect height="22" width="62.5" x="561.25" y="186"></rect><text x="592.5" y="201">array</text></g><path d="M623.75 197a15 15 0 0 0 15 -15v-1a15 15 0 0 1 15 -15"></path></g></g><path d="M686.5 166a15 15 0 0 0 15 -15v-85a15 15 0 0 1 15 -15"></path></g></g><path d="M716.5 51h15"></path><path d="M264.0 51a15 15 0 0 0 -15 15v147a15 15 0 0 0 15 15"></path><g>
<path d="M264.0 228h452.5"></path></g><path d="M716.5 228a15 15 0 0 0 15 -15v-147a15 15 0 0 0 -15 -15"></path></g><path d="M731.5 51h10"></path><path d="M741.5 51h10"></path><g class="terminal">
<path d="M751.5 51h0.0"></path><path d="M839.5 51h0.0"></path><rect height="22" rx="10" ry="10" width="88.0" x="751.5" y="40"></rect><text x="795.5" y="55">End Type</text></g></g><path d="M839.5 51h10"></path><path d="M 849.5 51 h 20 m -10 -10 v 20 m 10 -20 v 20"></path></g></svg>