<svg class="railroad-diagram" height="230" viewBox="0 0 188.5 230" width="188.5" xmlns="http://www.w3.org/2000/svg">
<g transform="translate(.5 .5)">
<style>/* <![CDATA[ */
    svg.railroad-diagram {
        background-color:transparent;
    }
    svg.railroad-diagram path {
        stroke-width:1;
        stroke:black;
        fill:rgba(0,0,0,0);
    }
    svg.railroad-diagram text {
        font:bold 14px monospace;
        font-family: Verdana, sans-serif;
        text-anchor:middle;
    }
    svg.railroad-diagram text.label{
        text-anchor:start;
    }
    svg.railroad-diagram text.comment{
        font:italic 12px monospace;
    }
    svg.railroad-diagram rect{
        stroke-width:1;
        stroke:black;
        fill:transparent;
    }

/* ]]> */
</style><g>
<path d="M20 105v20m0 -10h20"></path></g><path d="M40 115h10"></path><g>
<path d="M50 115h0.0"></path><path d="M138.5 115h0.0"></path><g>
<path d="M50.0 115h0.0"></path><path d="M138.5 115h0.0"></path><path d="M50.0 115a15 15 0 0 0 15 -15v-12a15 15 0 0 1 15 -15"></path><g class="terminal">
<path d="M80.0 73h0.0"></path><path d="M108.5 73h0.0"></path><rect height="22" rx="10" ry="10" width="28.5" x="80.0" y="62"></rect><text x="94.25" y="77">&#38;</text></g><path d="M108.5 73a15 15 0 0 1 15 15v12a15 15 0 0 0 15 15"></path><path d="M50.0 115a15 15 0 0 0 15 -15v-54a15 15 0 0 1 15 -15"></path><g class="terminal">
<path d="M80.0 31h0.0"></path><path d="M108.5 31h0.0"></path><rect height="22" rx="10" ry="10" width="28.5" x="80.0" y="20"></rect><text x="94.25" y="35">%</text></g><path d="M108.5 31a15 15 0 0 1 15 15v54a15 15 0 0 0 15 15"></path><path d="M50.0 115h30"></path><g class="terminal">
<path d="M80.0 115h0.0"></path><path d="M108.5 115h0.0"></path><rect height="22" rx="10" ry="10" width="28.5" x="80.0" y="104"></rect><text x="94.25" y="119">!</text></g><path d="M108.5 115h30"></path><path d="M50.0 115a15 15 0 0 1 15 15v12a15 15 0 0 0 15 15"></path><g class="terminal">
<path d="M80.0 157h0.0"></path><path d="M108.5 157h0.0"></path><rect height="22" rx="10" ry="10" width="28.5" x="80.0" y="146"></rect><text x="94.25" y="161">#</text></g><path d="M108.5 157a15 15 0 0 0 15 -15v-12a15 15 0 0 1 15 -15"></path><path d="M50.0 115a15 15 0 0 1 15 15v54a15 15 0 0 0 15 15"></path><g class="terminal">
<path d="M80.0 199h0.0"></path><path d="M108.5 199h0.0"></path><rect height="22" rx="10" ry="10" width="28.5" x="80.0" y="188"></rect><text x="94.25" y="203">$</text></g><path d="M108.5 199a15 15 0 0 0 15 -15v-54a15 15 0 0 1 15 -15"></path></g></g><path d="M138.5 115h10"></path><path d="M 148.5 115 h 20 m 0 -10 v 20"></path></g></svg>