<?xml version="1.0" encoding="UTF-8" standalone="no"?>
<!-- Created with Inkscape (http://www.inkscape.org/) -->

<svg
   xmlns:dc="http://purl.org/dc/elements/1.1/"
   xmlns:cc="http://creativecommons.org/ns#"
   xmlns:rdf="http://www.w3.org/1999/02/22-rdf-syntax-ns#"
   xmlns:svg="http://www.w3.org/2000/svg"
   xmlns="http://www.w3.org/2000/svg"
   xmlns:sodipodi="http://sodipodi.sourceforge.net/DTD/sodipodi-0.dtd"
   xmlns:inkscape="http://www.inkscape.org/namespaces/inkscape"
   width="82.03244mm"
   height="19.987125mm"
   viewBox="0 0 82.03244 19.987125"
   version="1.1"
   id="svg8"
   inkscape:version="0.92.4 (5da689c313, 2019-01-14)"
   sodipodi:docname="func_opt.svg">
  <defs
     id="defs2">
    <inkscape:perspective
       sodipodi:type="inkscape:persp3d"
       inkscape:vp_x="0 : 148.49999 : 1"
       inkscape:vp_y="0 : 999.99993 : 0"
       inkscape:vp_z="210.00001 : 148.49999 : 1"
       inkscape:persp3d-origin="105.00001 : 98.999993 : 1"
       id="perspective3713" />
  </defs>
  <sodipodi:namedview
     id="base"
     pagecolor="#ffffff"
     bordercolor="#666666"
     borderopacity="1.0"
     inkscape:pageopacity="0.0"
     inkscape:pageshadow="2"
     inkscape:zoom="1.4"
     inkscape:cx="-71.400467"
     inkscape:cy="-53.95527"
     inkscape:document-units="mm"
     inkscape:current-layer="g78"
     showgrid="false"
     inkscape:window-width="1920"
     inkscape:window-height="995"
     inkscape:window-x="0"
     inkscape:window-y="0"
     inkscape:window-maximized="1"
     fit-margin-top="0"
     fit-margin-left="0"
     fit-margin-right="0"
     fit-margin-bottom="0" />
  <metadata
     id="metadata5">
    <rdf:RDF>
      <cc:Work
         rdf:about="">
        <dc:format>image/svg+xml</dc:format>
        <dc:type
           rdf:resource="http://purl.org/dc/dcmitype/StillImage" />
        <dc:title></dc:title>
      </cc:Work>
    </rdf:RDF>
  </metadata>
  <g
     inkscape:label="Camada 1"
     inkscape:groupmode="layer"
     id="layer1"
     transform="translate(-34.584674,-109.78095)">
    <g
       id="g78">
      <g
         aria-label="= µ dt + vol dW"
         transform="matrix(0.26458333,0,0,0.26458333,17.462505,0)"
         style="font-style:italic;font-variant:normal;font-weight:normal;font-stretch:normal;font-size:40px;line-height:1.25;font-family:STIXGeneral;-inkscape-font-specification:'STIXGeneral, Italic';font-variant-ligatures:normal;font-variant-caps:normal;font-variant-numeric:normal;font-feature-settings:normal;text-align:start;letter-spacing:0px;word-spacing:0px;writing-mode:lr-tb;text-anchor:start;fill:#000000;fill-opacity:1;stroke:none"
         id="flowRoot3715" />
      <g
         id="g158">
        <path
           id="path99"
           style="font-style:italic;font-variant:normal;font-weight:normal;font-stretch:normal;font-size:40px;line-height:1.25;font-family:STIXGeneral;-inkscape-font-specification:'STIXGeneral, Italic';font-variant-ligatures:normal;font-variant-caps:normal;font-variant-numeric:normal;font-feature-settings:normal;text-align:start;letter-spacing:0px;word-spacing:0px;writing-mode:lr-tb;text-anchor:start;fill:#000000;fill-opacity:1;stroke:none"
           d="m 138.7582,451.75469 v -2.64 h -20.16 v 2.64 z m 0,8 v -2.64 h -20.16 v 2.64 z"
           transform="matrix(0.26458333,0,0,0.26458333,17.462505,0)"
           inkscape:connector-curvature="0" />
        <path
           id="path101"
           style="font-style:italic;font-variant:normal;font-weight:normal;font-stretch:normal;font-size:40px;line-height:1.25;font-family:STIXGeneral;-inkscape-font-specification:'STIXGeneral, Italic';font-variant-ligatures:normal;font-variant-caps:normal;font-variant-numeric:normal;font-feature-settings:normal;text-align:start;letter-spacing:0px;word-spacing:0px;writing-mode:lr-tb;text-anchor:start;fill:#000000;fill-opacity:1;stroke:none"
           d="m 172.06945,447.43469 h -3.52 l -2.92,12.52 c -1.4,1.8 -3.16,2.8 -4.88,2.8 -1.68,0 -2.76,-1.08 -2.76,-2.76 0,-0.4 0.04,-0.92 0.12,-1.2 l 2.68,-11.36 h -3.52 l -3.4,14.96 c -0.24,1.08 -0.64,2.2 -1.36,4 -1.2,2.32 -1.52,3.32 -1.52,4.72 0,1.24 0.44,1.8 1.36,1.8 1.72,0 2.84,-2.2 2.84,-5.68 0,-0.32 0,-1.04 -0.04,-1.72 -0.04,-0.68 -0.04,-1.24 -0.04,-1.68 0,-0.72 0,-1.08 0.08,-1.92 0.76,2.12 2,3.04 4.12,3.04 2.12,0 4.04,-1.12 6.16,-3.6 -0.12,0.56 -0.16,0.84 -0.16,1.24 0,1.56 0.76,2.36 2.28,2.36 1.56,0 2.6,-0.56 4.28,-2.28 l 0.12,-0.36 c -1,0.8 -1.56,1.04 -2.24,1.04 -0.68,0 -1.04,-0.4 -1.04,-1.12 0,-0.36 0.08,-0.64 0.24,-1.36 z"
           transform="matrix(0.26458333,0,0,0.26458333,17.462505,0)"
           inkscape:connector-curvature="0" />
        <path
           id="path103"
           style="font-style:italic;font-variant:normal;font-weight:normal;font-stretch:normal;font-size:40px;line-height:1.25;font-family:STIXGeneral;-inkscape-font-specification:'STIXGeneral, Italic';font-variant-ligatures:normal;font-variant-caps:normal;font-variant-numeric:normal;font-feature-settings:normal;text-align:start;letter-spacing:0px;word-spacing:0px;writing-mode:lr-tb;text-anchor:start;fill:#000000;fill-opacity:1;stroke:none"
           d="m 203.02945,437.23469 c -2.12,0.44 -3.56,0.68 -6.12,0.92 v 0.68 c 2.2,0.08 2.56,0.2 2.56,1.04 0,0.56 0.04,0.72 -0.56,2.84 l -1.8,6.52 h -0.04 c -0.24,-1.56 -0.92,-2.32 -2.6,-2.32 -5.2,0 -11.68,6.92 -11.68,13.4 0,3.04 1.68,4.68 4.28,4.68 2.72,0 4.76,-1.32 7.12,-5.28 -0.44,2 -0.52,2.64 -0.52,3.56 0,1.08 0.6,1.8 1.64,1.8 2,0 3.92,-1.64 5.88,-4.56 l -0.48,-0.4 c -2.16,2.48 -2.6,2.84 -3.28,2.84 -0.52,0 -0.72,-0.32 -0.72,-0.8 0,-0.64 1.36,-5.28 2.6,-9.84 l 2.4,-8.76 1.56,-6.08 z m -6.6,12.88 c 0,6.08 -4.16,12.96 -7.84,12.96 -1.4,0 -2.32,-1.08 -2.32,-2.92 0,-3.32 2,-7.68 4.64,-10.48 1.12,-1.16 2.52,-1.84 3.64,-1.84 0.92,0 1.88,0.84 1.88,2.28 z"
           transform="matrix(0.26458333,0,0,0.26458333,17.462505,0)"
           inkscape:connector-curvature="0" />
        <path
           id="path105"
           style="font-style:italic;font-variant:normal;font-weight:normal;font-stretch:normal;font-size:40px;line-height:1.25;font-family:STIXGeneral;-inkscape-font-specification:'STIXGeneral, Italic';font-variant-ligatures:normal;font-variant-caps:normal;font-variant-numeric:normal;font-feature-settings:normal;text-align:start;letter-spacing:0px;word-spacing:0px;writing-mode:lr-tb;text-anchor:start;fill:#000000;fill-opacity:1;stroke:none"
           d="m 214.02945,447.43469 h -3.2 l 1.12,-4.12 c 0.04,-0.08 0.04,-0.28 0.04,-0.28 0,-0.2 -0.12,-0.32 -0.36,-0.32 -0.16,0 -0.4,0.12 -0.56,0.36 -1.44,2.16 -4.04,4.12 -5.32,4.4 -0.96,0.2 -1.32,0.56 -1.32,1 0,0 0,0.12 0.04,0.24 h 3 l -3.12,11.84 c -0.32,1.28 -0.64,2.52 -0.64,2.96 0,1 0.76,1.48 1.84,1.48 2.08,0 3.32,-1.16 5.72,-4.84 l -0.52,-0.28 c -1.96,2.52 -2.6,3.16 -3.24,3.16 -0.36,0 -0.6,-0.12 -0.6,-0.64 0,-0.12 0.04,-0.4 0.08,-0.56 l 3.48,-13.12 h 3.36 z"
           transform="matrix(0.26458333,0,0,0.26458333,17.462505,0)"
           inkscape:connector-curvature="0" />
        <path
           id="path107"
           style="font-style:italic;font-variant:normal;font-weight:normal;font-stretch:normal;font-size:40px;line-height:1.25;font-family:STIXGeneral;-inkscape-font-specification:'STIXGeneral, Italic';font-variant-ligatures:normal;font-variant-caps:normal;font-variant-numeric:normal;font-feature-settings:normal;text-align:start;letter-spacing:0px;word-spacing:0px;writing-mode:lr-tb;text-anchor:start;fill:#000000;fill-opacity:1;stroke:none"
           d="m 246.8832,455.75469 v -2.64 h -8.76 v -8.8 h -2.64 v 8.8 h -8.76 v 2.64 h 8.76 v 8.8 h 2.64 v -8.8 z"
           transform="matrix(0.26458333,0,0,0.26458333,17.462505,0)"
           inkscape:connector-curvature="0" />
        <path
           id="path109"
           style="font-style:italic;font-variant:normal;font-weight:normal;font-stretch:normal;font-size:40px;line-height:1.25;font-family:STIXGeneral;-inkscape-font-specification:'STIXGeneral, Italic';font-variant-ligatures:normal;font-variant-caps:normal;font-variant-numeric:normal;font-feature-settings:normal;text-align:start;letter-spacing:0px;word-spacing:0px;writing-mode:lr-tb;text-anchor:start;fill:#000000;fill-opacity:1;stroke:none"
           d="m 268.59445,461.75469 c -0.24,-5.4 -0.48,-7.6 -1,-10.28 -0.84,-4.32 -0.84,-4.56 -1.2,-4.56 -0.2,0 -0.48,0.04 -0.8,0.16 -1.28,0.28 -2.68,0.56 -4.48,0.84 v 0.52 c 0.44,-0.04 0.84,-0.04 1.24,-0.04 1.48,0 1.92,0.68 2.44,3.72 0.52,3.04 0.96,8.36 0.96,11.12 v 0.96 c 0,0.68 0.12,1.08 0.36,1.08 0.68,0 1.76,-1.32 3.96,-3.68 0.72,-0.76 2.96,-3.32 4.76,-6.12 1.4,-2.16 2.52,-4.48 2.52,-6.2 0,-1.08 -0.92,-2.36 -2.24,-2.36 -0.84,0 -1.52,0.52 -1.52,1.36 0,0.64 0.28,1.16 1,1.8 0.52,0.48 0.72,0.76 0.72,1.16 0,1.88 -2.6,6.28 -5.48,9.24 z"
           transform="matrix(0.26458333,0,0,0.26458333,17.462505,0)"
           inkscape:connector-curvature="0" />
        <path
           id="path111"
           style="font-style:italic;font-variant:normal;font-weight:normal;font-stretch:normal;font-size:40px;line-height:1.25;font-family:STIXGeneral;-inkscape-font-specification:'STIXGeneral, Italic';font-variant-ligatures:normal;font-variant-caps:normal;font-variant-numeric:normal;font-feature-settings:normal;text-align:start;letter-spacing:0px;word-spacing:0px;writing-mode:lr-tb;text-anchor:start;fill:#000000;fill-opacity:1;stroke:none"
           d="m 296.14383,452.51469 c 0,-3.52 -2.4,-5.6 -5.64,-5.6 -1.64,0 -3.24,0.36 -4.8,1.2 -4.2,2.24 -7.2,6.84 -7.2,11.32 0,3.48 2.12,5.56 5.88,5.56 2.64,0 5.2,-1 7.52,-3.32 2.64,-2.6 4.24,-6.12 4.24,-9.16 z m -3.36,-1 c 0,3.04 -1.12,6.8 -2.96,9.32 -1.56,2.16 -3.08,3.32 -4.84,3.32 -1.88,0 -3.12,-1.24 -3.12,-3.64 0,-3.16 1.12,-6.32 2.96,-9.12 1.6,-2.4 3.36,-3.64 5.12,-3.64 1.72,0 2.84,1.32 2.84,3.76 z"
           transform="matrix(0.26458333,0,0,0.26458333,17.462505,0)"
           inkscape:connector-curvature="0" />
        <path
           id="path113"
           style="font-style:italic;font-variant:normal;font-weight:normal;font-stretch:normal;font-size:40px;line-height:1.25;font-family:STIXGeneral;-inkscape-font-specification:'STIXGeneral, Italic';font-variant-ligatures:normal;font-variant-caps:normal;font-variant-numeric:normal;font-feature-settings:normal;text-align:start;letter-spacing:0px;word-spacing:0px;writing-mode:lr-tb;text-anchor:start;fill:#000000;fill-opacity:1;stroke:none"
           d="m 308.58383,437.43469 -0.24,-0.2 c -2.36,0.52 -3.84,0.8 -6.2,1.08 v 0.64 h 0.72 c 1.28,0 1.96,0.4 1.96,0.88 0,0.12 0,0.36 -0.12,0.76 l -5.48,20.96 c -0.12,0.4 -0.16,0.88 -0.16,1.2 0,1.48 0.68,2.24 1.96,2.24 2.16,0 3.64,-1.2 6.04,-5 l -0.56,-0.4 -1,1.4 c -1.16,1.64 -2.08,2.28 -2.68,2.28 -0.4,0 -0.68,-0.24 -0.68,-0.72 0,-0.32 0.12,-1 0.32,-1.72 z"
           transform="matrix(0.26458333,0,0,0.26458333,17.462505,0)"
           inkscape:connector-curvature="0" />
        <path
           id="path115"
           style="font-style:italic;font-variant:normal;font-weight:normal;font-stretch:normal;font-size:40px;line-height:1.25;font-family:STIXGeneral;-inkscape-font-specification:'STIXGeneral, Italic';font-variant-ligatures:normal;font-variant-caps:normal;font-variant-numeric:normal;font-feature-settings:normal;text-align:start;letter-spacing:0px;word-spacing:0px;writing-mode:lr-tb;text-anchor:start;fill:#000000;fill-opacity:1;stroke:none"
           d="m 339.35758,437.23469 c -2.12,0.44 -3.56,0.68 -6.12,0.92 v 0.68 c 2.2,0.08 2.56,0.2 2.56,1.04 0,0.56 0.04,0.72 -0.56,2.84 l -1.8,6.52 h -0.04 c -0.24,-1.56 -0.92,-2.32 -2.6,-2.32 -5.2,0 -11.68,6.92 -11.68,13.4 0,3.04 1.68,4.68 4.28,4.68 2.72,0 4.76,-1.32 7.12,-5.28 -0.44,2 -0.52,2.64 -0.52,3.56 0,1.08 0.6,1.8 1.64,1.8 2,0 3.92,-1.64 5.88,-4.56 l -0.48,-0.4 c -2.16,2.48 -2.6,2.84 -3.28,2.84 -0.52,0 -0.72,-0.32 -0.72,-0.8 0,-0.64 1.36,-5.28 2.6,-9.84 l 2.4,-8.76 1.56,-6.08 z m -6.6,12.88 c 0,6.08 -4.16,12.96 -7.84,12.96 -1.4,0 -2.32,-1.08 -2.32,-2.92 0,-3.32 2,-7.68 4.64,-10.48 1.12,-1.16 2.52,-1.84 3.64,-1.84 0.92,0 1.88,0.84 1.88,2.28 z"
           transform="matrix(0.26458333,0,0,0.26458333,17.462505,0)"
           inkscape:connector-curvature="0" />
        <path
           id="path117"
           style="font-style:italic;font-variant:normal;font-weight:normal;font-stretch:normal;font-size:40px;line-height:1.25;font-family:STIXGeneral;-inkscape-font-specification:'STIXGeneral, Italic';font-variant-ligatures:normal;font-variant-caps:normal;font-variant-numeric:normal;font-feature-settings:normal;text-align:start;letter-spacing:0px;word-spacing:0px;writing-mode:lr-tb;text-anchor:start;fill:#000000;fill-opacity:1;stroke:none"
           d="m 374.75758,438.43469 h -7.36 v 0.64 c 2,0.04 2.68,0.68 2.68,1.68 0,0.76 -0.4,1.72 -0.92,2.72 l -7.52,14.6 -1.6,-16.48 c 0,-0.12 -0.08,-0.36 -0.08,-0.6 0,-1.28 0.68,-1.72 2.72,-1.92 v -0.64 h -9.44 v 0.64 c 2.32,0.08 2.76,0.44 3,2.48 l 0.32,2.6 -6.88,13.92 -1.76,-16.16 c -0.04,-0.28 -0.04,-0.6 -0.04,-0.8 0,-1.52 0.84,-1.84 2.88,-2.04 v -0.64 h -9.4 v 0.64 c 1.28,0.16 1.68,0.24 2.04,0.6 0.56,0.6 0.72,1.28 1.16,5.04 l 2.44,20.56 h 0.76 l 8.88,-18.12 h 0.2 l 2,18.12 h 0.8 l 12.04,-23.2 c 1.16,-2.2 1.56,-2.52 3.08,-3 z"
           transform="matrix(0.26458333,0,0,0.26458333,17.462505,0)"
           inkscape:connector-curvature="0" />
        <g
           id="flowRoot26"
           style="font-style:italic;font-variant:normal;font-weight:normal;font-stretch:normal;font-size:40px;line-height:1.25;font-family:STIX;-inkscape-font-specification:'STIX, Italic';font-variant-ligatures:normal;font-variant-caps:normal;font-variant-numeric:normal;font-feature-settings:normal;text-align:start;letter-spacing:0px;word-spacing:0px;writing-mode:lr-tb;text-anchor:start;fill:#000000;fill-opacity:1;stroke:none"
           transform="matrix(0.26458333,0,0,0.26458333,-12.170835,-50.270859)"
           aria-label="dS">
          <path
             id="path120"
             d="m 198.62711,604.92023 c -2.12,0.44 -3.56,0.68 -6.12,0.92 v 0.68 c 2.2,0.08 2.56,0.2 2.56,1.04 0,0.56 0.04,0.72 -0.56,2.84 l -1.8,6.52 h -0.04 c -0.24,-1.56 -0.92,-2.32 -2.6,-2.32 -5.2,0 -11.68,6.92 -11.68,13.4 0,3.04 1.68,4.68 4.28,4.68 2.72,0 4.76,-1.32 7.12,-5.28 -0.44,2 -0.52,2.64 -0.52,3.56 0,1.08 0.6,1.8 1.64,1.8 2,0 3.92,-1.64 5.88,-4.56 l -0.48,-0.4 c -2.16,2.48 -2.6,2.84 -3.28,2.84 -0.52,0 -0.72,-0.32 -0.72,-0.8 0,-0.64 1.36,-5.28 2.6,-9.84 l 2.4,-8.76 1.56,-6.08 z m -6.6,12.88 c 0,6.08 -4.16,12.96 -7.84,12.96 -1.4,0 -2.32,-1.08 -2.32,-2.92 0,-3.32 2,-7.68 4.64,-10.48 1.12,-1.16 2.52,-1.84 3.64,-1.84 0.92,0 1.88,0.84 1.88,2.28 z"
             inkscape:connector-curvature="0" />
          <path
             id="path122"
             d="m 218.10711,605.56023 h -0.92 c -0.56,0.84 -0.92,1.04 -1.8,1.04 -0.52,0 -1,-0.12 -1.84,-0.44 -0.84,-0.36 -2.16,-0.56 -3.4,-0.56 -3.84,0 -7.12,2.36 -7.12,6.56 0,2.16 0.6,3.44 3,6 0.52,0.52 1,1.08 1.56,1.68 l 1.56,1.68 c 1.84,2 2.4,3.2 2.4,4.92 0,3.04 -2.16,5.12 -5.24,5.12 -3.36,0 -5.76,-2.76 -5.76,-6.68 0,-0.28 0,-0.56 0.08,-0.92 l -0.8,-0.08 -1.36,8.96 h 0.72 c 0.28,-0.92 0.92,-1.28 1.72,-1.28 0.44,0 0.8,0.08 1.88,0.48 1.84,0.64 2.92,0.92 4.16,0.92 4.6,0 8.08,-3.24 8.08,-7.8 0,-2.6 -0.88,-4.32 -4.52,-8 -3.64,-3.64 -3.96,-4.28 -3.96,-6.24 0,-2.52 1.72,-4 4.48,-4 3.88,0 4.76,2.44 4.76,6.52 l 0.72,0.12 z"
             inkscape:connector-curvature="0" />
        </g>
        <g
           id="flowRoot34"
           style="font-style:italic;font-variant:normal;font-weight:normal;font-stretch:normal;font-size:40px;line-height:1.25;font-family:STIX;-inkscape-font-specification:'STIX, Italic';font-variant-ligatures:normal;font-variant-caps:normal;font-variant-numeric:normal;font-feature-settings:normal;text-align:start;letter-spacing:0px;word-spacing:0px;writing-mode:lr-tb;text-anchor:start;fill:#000000;fill-opacity:1;stroke:none"
           transform="matrix(0.26458333,0,0,0.26458333,-10.054167,-77.258376)"
           aria-label="S">
          <path
             id="path125"
             d="m 198.10711,755.06219 h -0.92 c -0.56,0.84 -0.92,1.04 -1.8,1.04 -0.52,0 -1,-0.12 -1.84,-0.44 -0.84,-0.36 -2.16,-0.56 -3.4,-0.56 -3.84,0 -7.12,2.36 -7.12,6.56 0,2.16 0.6,3.44 3,6 0.52,0.52 1,1.08 1.56,1.68 l 1.56,1.68 c 1.84,2 2.4,3.2 2.4,4.92 0,3.04 -2.16,5.12 -5.24,5.12 -3.36,0 -5.76,-2.76 -5.76,-6.68 0,-0.28 0,-0.56 0.08,-0.92 l -0.8,-0.08 -1.36,8.96 h 0.72 c 0.28,-0.92 0.92,-1.28 1.72,-1.28 0.44,0 0.8,0.08 1.88,0.48 1.84,0.64 2.92,0.92 4.16,0.92 4.6,0 8.08,-3.24 8.08,-7.8 0,-2.6 -0.88,-4.32 -4.52,-8 -3.64,-3.64 -3.96,-4.28 -3.96,-6.24 0,-2.52 1.72,-4 4.48,-4 3.88,0 4.76,2.44 4.76,6.52 l 0.72,0.12 z"
             inkscape:connector-curvature="0" />
        </g>
        <g
           id="flowRoot52"
           style="font-style:normal;font-variant:normal;font-weight:normal;font-stretch:normal;font-size:40px;line-height:1.25;font-family:STIX;-inkscape-font-specification:'STIX, Normal';font-variant-ligatures:normal;font-variant-caps:normal;font-variant-numeric:normal;font-feature-settings:normal;text-align:start;letter-spacing:0px;word-spacing:0px;writing-mode:lr-tb;text-anchor:start;fill:#000000;fill-opacity:1;stroke:none"
           transform="matrix(0.26458333,0,0,0.26458333,5.6696428,-35.340774)"
           aria-label="—">
          <path
             id="path128"
             d="m 149.28516,588.76469 v -1.96 h -40 v 1.96 z"
             inkscape:connector-curvature="0" />
        </g>
      </g>
    </g>
  </g>
</svg>
