<svg height="17.06666" width="17.066669" xmlns="http://www.w3.org/2000/svg"><g transform="translate(-407.31428 -579.281574)"><path d="m421.18095 583.54823 3.2-2.13333-3.2-2.13332z" fill="#f60" fill-rule="evenodd"/><path d="m407.31428 579.28157v4.26666 12.8h1.06667 16v-1.06666-9.6h-1.06667v9.6h-14.93333v-11.73334h9.6v-2.13333-2.13333zm6.85625 6.4c-1.13716 0-1.61458.37573-1.61458 1.3375v1.30416c0 .59404-.0219 1.28125-.65 1.28125h-.325v.68751h.325c.62815 0 .65.68721.65 1.28125v1.30416c0 .96177.47742 1.3375 1.61458 1.3375v-.63125c-.7581 0-.76875-.25511-.76875-1.17917v-1.075c0-.44315-.13185-1.10363-.77083-1.37707.63898-.27344.77083-.93184.77083-1.37501v-1.08541c0-.92406.0107-1.17917.76875-1.17917zm3.34583 0v .63125c.75811 0 .77709.25511.77709 1.17917v1.08541c0 .44317.13185 1.10157.77084 1.37501-.63899.27344-.77084.93392-.77084 1.37707v1.075c0 .92406-.0189 1.17917-.77709 1.17917v.63125c1.13718 0 1.62291-.37573 1.62293-1.3375v-1.30416c0-.59404.0431-1.28125.66041-1.28125h.31458v-.68751h-.31458c-.61732 0-.66043-.68721-.66041-1.28125v-1.30416c0-.96177-.48575-1.3375-1.62293-1.3375z" fill="#4d4d4d"/></g></svg>